<svg xmlns="http://www.w3.org/2000/svg" xmlns:xlink="http://www.w3.org/1999/xlink" width="500" zoomAndPan="magnify" viewBox="0 0 375 374.999991" height="500" preserveAspectRatio="xMidYMid meet" version="1.0"><defs><clipPath id="1c0d0e1eba"><path d="M 110 135 L 185 135 L 185 253 L 110 253 Z M 110 135 " clip-rule="nonzero"/></clipPath><clipPath id="299cd4c0c7"><path d="M 156.890625 264.976562 L 85.746094 193.832031 L 164.300781 115.277344 L 235.445312 186.421875 Z M 156.890625 264.976562 " clip-rule="nonzero"/></clipPath><clipPath id="dc41280653"><path d="M 156.890625 264.976562 L 85.746094 193.832031 L 164.300781 115.277344 L 235.445312 186.421875 Z M 156.890625 264.976562 " clip-rule="nonzero"/></clipPath><clipPath id="9f2c9be05d"><path d="M 142.132812 167.144531 C 140.8125 168.46875 139.59375 169.882812 138.476562 171.382812 C 137.363281 172.886719 136.367188 174.460938 135.484375 176.113281 C 134.601562 177.761719 133.84375 179.46875 133.214844 181.226562 C 132.585938 182.988281 132.085938 184.789062 131.722656 186.621094 C 131.355469 188.457031 131.128906 190.308594 131.035156 192.175781 C 130.945312 194.046875 130.992188 195.910156 131.175781 197.773438 C 131.355469 199.632812 131.675781 201.472656 132.132812 203.285156 C 132.585938 205.101562 133.171875 206.871094 133.886719 208.601562 C 134.601562 210.328125 135.441406 211.996094 136.402344 213.597656 C 137.363281 215.203125 138.4375 216.726562 139.625 218.175781 C 140.8125 219.621094 142.097656 220.972656 143.484375 222.226562 C 144.871094 223.484375 146.34375 224.632812 147.898438 225.671875 C 149.453125 226.710938 151.074219 227.628906 152.765625 228.429688 C 154.457031 229.226562 156.199219 229.898438 157.988281 230.441406 C 159.777344 230.984375 161.597656 231.394531 163.449219 231.667969 C 165.300781 231.941406 167.160156 232.078125 169.03125 232.078125 L 169.027344 229.324219 C 167.871094 229.324219 166.71875 229.265625 165.570312 229.152344 C 164.421875 229.039062 163.277344 228.867188 162.144531 228.644531 C 161.011719 228.417969 159.890625 228.136719 158.785156 227.800781 C 157.679688 227.464844 156.59375 227.078125 155.527344 226.632812 C 154.457031 226.191406 153.414062 225.699219 152.394531 225.152344 C 151.375 224.609375 150.386719 224.015625 149.425781 223.371094 C 148.464844 222.730469 147.539062 222.042969 146.644531 221.308594 C 145.753906 220.574219 144.898438 219.800781 144.078125 218.984375 C 143.261719 218.164062 142.488281 217.3125 141.753906 216.417969 C 141.023438 215.523438 140.335938 214.597656 139.691406 213.636719 C 139.050781 212.675781 138.457031 211.683594 137.914062 210.664062 C 137.367188 209.644531 136.875 208.601562 136.433594 207.535156 C 135.992188 206.464844 135.601562 205.378906 135.265625 204.273438 C 134.933594 203.167969 134.652344 202.046875 134.425781 200.914062 C 134.199219 199.78125 134.03125 198.640625 133.917969 197.488281 C 133.804688 196.339844 133.75 195.1875 133.75 194.03125 C 133.75 192.875 133.808594 191.722656 133.921875 190.574219 C 134.035156 189.421875 134.203125 188.28125 134.429688 187.148438 C 134.65625 186.015625 134.933594 184.894531 135.269531 183.789062 C 135.605469 182.683594 135.996094 181.597656 136.4375 180.527344 C 136.878906 179.460938 137.375 178.417969 137.917969 177.398438 C 138.464844 176.378906 139.058594 175.390625 139.699219 174.429688 C 140.34375 173.46875 141.03125 172.539062 141.761719 171.648438 C 142.496094 170.753906 143.273438 169.898438 144.089844 169.082031 C 144.90625 168.265625 145.761719 167.488281 146.65625 166.757812 C 147.546875 166.023438 148.476562 165.335938 149.4375 164.695312 C 150.398438 164.054688 151.386719 163.460938 152.40625 162.914062 C 153.425781 162.371094 154.46875 161.878906 155.539062 161.433594 C 156.605469 160.992188 157.691406 160.605469 158.796875 160.269531 C 159.90625 159.933594 161.023438 159.652344 162.15625 159.429688 C 163.289062 159.203125 164.433594 159.035156 165.582031 158.921875 C 166.734375 158.808594 167.886719 158.75 169.042969 158.75 L 184.609375 158.75 L 184.609375 155.996094 L 169.039062 156.015625 C 166.539062 156.007812 164.066406 156.246094 161.613281 156.726562 C 159.160156 157.210938 156.78125 157.929688 154.472656 158.886719 C 152.160156 159.839844 149.96875 161.015625 147.894531 162.402344 C 145.816406 163.792969 143.898438 165.375 142.132812 167.144531 Z M 151.894531 176.90625 C 151.050781 177.75 150.277344 178.648438 149.566406 179.605469 C 148.855469 180.5625 148.21875 181.570312 147.660156 182.621094 C 147.097656 183.671875 146.617188 184.757812 146.214844 185.878906 C 145.8125 187 145.496094 188.144531 145.261719 189.316406 C 145.03125 190.484375 144.886719 191.664062 144.828125 192.855469 C 144.769531 194.042969 144.796875 195.230469 144.914062 196.417969 C 145.03125 197.605469 145.234375 198.773438 145.523438 199.929688 C 145.8125 201.085938 146.1875 202.214844 146.640625 203.316406 C 147.097656 204.417969 147.632812 205.480469 148.246094 206.5 C 148.855469 207.523438 149.542969 208.496094 150.296875 209.414062 C 151.054688 210.335938 151.871094 211.199219 152.753906 212 C 153.636719 212.796875 154.574219 213.53125 155.566406 214.191406 C 156.558594 214.855469 157.589844 215.441406 158.667969 215.949219 C 159.746094 216.460938 160.855469 216.886719 161.996094 217.234375 C 163.132812 217.578125 164.292969 217.839844 165.472656 218.015625 C 166.652344 218.191406 167.835938 218.277344 169.027344 218.277344 L 169.027344 215.519531 C 168.324219 215.519531 167.625 215.484375 166.921875 215.414062 C 166.222656 215.347656 165.527344 215.246094 164.835938 215.105469 C 164.148438 214.96875 163.464844 214.800781 162.792969 214.59375 C 162.121094 214.390625 161.457031 214.15625 160.808594 213.886719 C 160.15625 213.617188 159.523438 213.316406 158.902344 212.984375 C 158.28125 212.652344 157.679688 212.292969 157.09375 211.902344 C 156.507812 211.511719 155.945312 211.09375 155.398438 210.644531 C 154.855469 210.199219 154.335938 209.726562 153.839844 209.230469 C 153.339844 208.734375 152.867188 208.210938 152.421875 207.667969 C 151.976562 207.125 151.558594 206.558594 151.167969 205.976562 C 150.777344 205.390625 150.414062 204.789062 150.082031 204.167969 C 149.75 203.546875 149.449219 202.910156 149.179688 202.261719 C 148.910156 201.613281 148.675781 200.949219 148.472656 200.277344 C 148.265625 199.605469 148.097656 198.921875 147.957031 198.230469 C 147.820312 197.542969 147.71875 196.847656 147.648438 196.148438 C 147.582031 195.445312 147.546875 194.746094 147.546875 194.042969 C 147.546875 193.335938 147.582031 192.636719 147.648438 191.9375 C 147.71875 191.234375 147.820312 190.539062 147.960938 189.851562 C 148.097656 189.160156 148.265625 188.480469 148.472656 187.804688 C 148.675781 187.132812 148.914062 186.472656 149.183594 185.820312 C 149.453125 185.171875 149.75 184.535156 150.082031 183.914062 C 150.414062 183.296875 150.777344 182.691406 151.167969 182.105469 C 151.558594 181.523438 151.976562 180.957031 152.425781 180.414062 C 152.871094 179.871094 153.34375 179.351562 153.839844 178.851562 C 154.335938 178.355469 154.859375 177.882812 155.402344 177.4375 C 155.945312 176.992188 156.511719 176.574219 157.097656 176.183594 C 157.679688 175.792969 158.285156 175.429688 158.902344 175.097656 C 159.523438 174.765625 160.160156 174.46875 160.808594 174.199219 C 161.460938 173.929688 162.121094 173.691406 162.796875 173.488281 C 163.46875 173.285156 164.148438 173.113281 164.839844 172.976562 C 165.53125 172.839844 166.226562 172.738281 166.925781 172.667969 C 167.625 172.601562 168.328125 172.566406 169.03125 172.566406 L 184.621094 172.566406 L 184.617188 169.808594 L 169.027344 169.808594 C 167.4375 169.804688 165.859375 169.957031 164.300781 170.265625 C 162.738281 170.574219 161.222656 171.035156 159.75 171.640625 C 158.28125 172.25 156.882812 173 155.5625 173.886719 C 154.238281 174.773438 153.015625 175.777344 151.894531 176.90625 Z M 147.003906 172.019531 C 145.921875 173.101562 144.925781 174.257812 144.015625 175.484375 C 143.105469 176.714844 142.289062 178.003906 141.566406 179.355469 C 140.847656 180.703125 140.230469 182.101562 139.714844 183.542969 C 139.199219 184.980469 138.792969 186.453125 138.492188 187.953125 C 138.195312 189.457031 138.007812 190.96875 137.933594 192.5 C 137.859375 194.027344 137.894531 195.554688 138.046875 197.074219 C 138.195312 198.597656 138.457031 200.101562 138.828125 201.585938 C 139.199219 203.070312 139.679688 204.519531 140.265625 205.933594 C 140.847656 207.347656 141.535156 208.710938 142.320312 210.023438 C 143.109375 211.335938 143.988281 212.585938 144.957031 213.769531 C 145.925781 214.953125 146.980469 216.058594 148.113281 217.085938 C 149.246094 218.113281 150.449219 219.054688 151.722656 219.90625 C 152.992188 220.753906 154.320312 221.507812 155.703125 222.164062 C 157.085938 222.816406 158.511719 223.367188 159.976562 223.8125 C 161.441406 224.257812 162.929688 224.59375 164.441406 224.820312 C 165.957031 225.042969 167.476562 225.15625 169.007812 225.160156 L 169.027344 222.421875 C 168.113281 222.398438 167.203125 222.332031 166.292969 222.21875 C 165.386719 222.109375 164.484375 221.957031 163.589844 221.757812 C 162.699219 221.558594 161.816406 221.320312 160.945312 221.035156 C 160.074219 220.753906 159.222656 220.429688 158.382812 220.0625 C 157.542969 219.695312 156.726562 219.292969 155.925781 218.847656 C 155.125 218.402344 154.347656 217.917969 153.597656 217.398438 C 152.84375 216.878906 152.117188 216.324219 151.417969 215.734375 C 150.71875 215.140625 150.050781 214.519531 149.410156 213.863281 C 148.773438 213.210938 148.167969 212.527344 147.59375 211.8125 C 147.019531 211.097656 146.484375 210.359375 145.980469 209.59375 C 145.480469 208.828125 145.019531 208.039062 144.59375 207.230469 C 144.167969 206.417969 143.78125 205.589844 143.4375 204.742188 C 143.09375 203.894531 142.789062 203.03125 142.527344 202.15625 C 142.265625 201.277344 142.046875 200.390625 141.871094 199.492188 C 141.695312 198.59375 141.566406 197.691406 141.476562 196.78125 C 141.386719 195.871094 141.34375 194.957031 141.34375 194.042969 C 141.34375 193.125 141.386719 192.214844 141.476562 191.300781 C 141.566406 190.390625 141.695312 189.488281 141.871094 188.589844 C 142.046875 187.691406 142.265625 186.804688 142.527344 185.925781 C 142.789062 185.050781 143.09375 184.1875 143.4375 183.339844 C 143.785156 182.492188 144.167969 181.664062 144.59375 180.851562 C 145.019531 180.042969 145.480469 179.253906 145.984375 178.488281 C 146.484375 177.722656 147.023438 176.984375 147.59375 176.269531 C 148.167969 175.558594 148.773438 174.875 149.414062 174.21875 C 150.050781 173.5625 150.722656 172.941406 151.421875 172.351562 C 152.121094 171.761719 152.84375 171.207031 153.597656 170.683594 C 154.351562 170.164062 155.128906 169.683594 155.925781 169.238281 C 156.726562 168.792969 157.546875 168.386719 158.386719 168.023438 C 159.222656 167.65625 160.078125 167.332031 160.949219 167.046875 C 161.820312 166.765625 162.699219 166.523438 163.59375 166.328125 C 164.488281 166.128906 165.386719 165.976562 166.296875 165.863281 C 167.203125 165.753906 168.117188 165.6875 169.03125 165.664062 L 184.609375 165.664062 L 184.609375 162.90625 L 169.027344 162.90625 C 166.984375 162.902344 164.957031 163.097656 162.953125 163.496094 C 160.945312 163.890625 158.996094 164.480469 157.109375 165.261719 C 155.21875 166.046875 153.425781 167.007812 151.726562 168.144531 C 150.027344 169.285156 148.457031 170.578125 147.015625 172.027344 Z M 132.363281 157.375 C 131.164062 158.574219 130.023438 159.832031 128.949219 161.144531 C 127.871094 162.457031 126.859375 163.820312 125.917969 165.234375 C 124.976562 166.644531 124.105469 168.101562 123.304688 169.597656 C 122.503906 171.09375 121.78125 172.628906 121.128906 174.199219 C 120.480469 175.765625 119.910156 177.363281 119.417969 178.988281 C 118.925781 180.613281 118.515625 182.257812 118.183594 183.921875 C 117.851562 185.589844 117.605469 187.265625 117.4375 188.957031 C 117.273438 190.644531 117.191406 192.339844 117.191406 194.039062 C 117.191406 195.734375 117.273438 197.429688 117.441406 199.117188 C 117.609375 200.808594 117.855469 202.484375 118.1875 204.152344 C 118.519531 205.816406 118.933594 207.460938 119.425781 209.085938 C 119.917969 210.710938 120.492188 212.308594 121.140625 213.875 C 121.792969 215.445312 122.515625 216.976562 123.316406 218.472656 C 124.117188 219.972656 124.992188 221.425781 125.933594 222.835938 C 126.878906 224.25 127.886719 225.609375 128.964844 226.921875 C 130.042969 228.234375 131.183594 229.492188 132.382812 230.691406 C 134.785156 233.105469 137.398438 235.261719 140.226562 237.160156 C 143.054688 239.054688 146.039062 240.65625 149.183594 241.957031 C 152.332031 243.261719 155.574219 244.246094 158.914062 244.90625 C 162.253906 245.566406 165.625 245.890625 169.03125 245.882812 L 169.019531 243.136719 C 167.410156 243.136719 165.808594 243.058594 164.207031 242.898438 C 162.609375 242.742188 161.019531 242.507812 159.441406 242.195312 C 157.867188 241.878906 156.308594 241.488281 154.769531 241.023438 C 153.230469 240.554688 151.71875 240.015625 150.234375 239.398438 C 148.75 238.785156 147.296875 238.097656 145.882812 237.339844 C 144.464844 236.582031 143.085938 235.757812 141.75 234.863281 C 140.414062 233.972656 139.125 233.015625 137.882812 231.996094 C 136.636719 230.976562 135.449219 229.898438 134.3125 228.761719 C 133.175781 227.625 132.097656 226.433594 131.078125 225.191406 C 130.058594 223.949219 129.101562 222.660156 128.207031 221.324219 C 127.316406 219.984375 126.488281 218.609375 125.730469 217.191406 C 124.972656 215.773438 124.289062 214.320312 123.671875 212.835938 C 123.058594 211.351562 122.515625 209.839844 122.050781 208.300781 C 121.582031 206.761719 121.191406 205.207031 120.878906 203.628906 C 120.566406 202.054688 120.328125 200.464844 120.171875 198.863281 C 120.015625 197.265625 119.9375 195.660156 119.9375 194.054688 C 119.9375 192.445312 120.015625 190.84375 120.171875 189.242188 C 120.328125 187.644531 120.566406 186.054688 120.878906 184.476562 C 121.191406 182.902344 121.582031 181.34375 122.050781 179.804688 C 122.515625 178.265625 123.058594 176.753906 123.671875 175.269531 C 124.289062 173.785156 124.972656 172.332031 125.730469 170.914062 C 126.488281 169.5 127.316406 168.121094 128.207031 166.785156 C 129.101562 165.449219 130.058594 164.15625 131.078125 162.914062 C 132.097656 161.671875 133.175781 160.484375 134.3125 159.347656 C 135.449219 158.210938 136.640625 157.132812 137.882812 156.109375 C 139.125 155.089844 140.414062 154.136719 141.75 153.242188 C 143.085938 152.347656 144.464844 151.523438 145.882812 150.765625 C 147.300781 150.007812 148.75 149.320312 150.238281 148.707031 C 151.722656 148.089844 153.234375 147.550781 154.773438 147.082031 C 156.3125 146.617188 157.867188 146.226562 159.445312 145.914062 C 161.023438 145.597656 162.609375 145.363281 164.210938 145.207031 C 165.808594 145.046875 167.414062 144.96875 169.019531 144.96875 L 184.585938 144.957031 L 184.582031 142.203125 L 169.027344 142.203125 C 165.625 142.191406 162.25 142.519531 158.910156 143.179688 C 155.570312 143.835938 152.324219 144.820312 149.179688 146.121094 C 146.035156 147.425781 143.046875 149.023438 140.21875 150.921875 C 137.390625 152.816406 134.773438 154.972656 132.371094 157.386719 Z M 156.765625 181.777344 C 156.160156 182.378906 155.605469 183.023438 155.097656 183.707031 C 154.589844 184.390625 154.136719 185.109375 153.734375 185.863281 C 153.332031 186.613281 152.988281 187.390625 152.703125 188.191406 C 152.414062 188.996094 152.1875 189.816406 152.023438 190.652344 C 151.855469 191.488281 151.75 192.328125 151.710938 193.179688 C 151.667969 194.03125 151.6875 194.882812 151.773438 195.730469 C 151.855469 196.578125 152 197.414062 152.207031 198.242188 C 152.414062 199.070312 152.683594 199.875 153.007812 200.664062 C 153.335938 201.453125 153.714844 202.210938 154.15625 202.941406 C 154.59375 203.671875 155.082031 204.367188 155.621094 205.027344 C 156.164062 205.683594 156.75 206.300781 157.378906 206.875 C 158.011719 207.445312 158.683594 207.96875 159.390625 208.441406 C 160.097656 208.917969 160.839844 209.335938 161.609375 209.699219 C 162.378906 210.0625 163.171875 210.371094 163.988281 210.617188 C 164.804688 210.867188 165.632812 211.050781 166.476562 211.175781 C 167.320312 211.300781 168.167969 211.363281 169.019531 211.367188 L 169.019531 208.609375 C 168.0625 208.609375 167.117188 208.515625 166.175781 208.328125 C 165.238281 208.140625 164.328125 207.867188 163.441406 207.5 C 162.558594 207.132812 161.71875 206.683594 160.921875 206.152344 C 160.128906 205.621094 159.390625 205.015625 158.714844 204.339844 C 158.039062 203.664062 157.433594 202.925781 156.902344 202.132812 C 156.371094 201.335938 155.921875 200.496094 155.554688 199.613281 C 155.1875 198.726562 154.910156 197.816406 154.726562 196.878906 C 154.539062 195.9375 154.445312 194.992188 154.445312 194.035156 C 154.445312 193.078125 154.539062 192.128906 154.726562 191.191406 C 154.910156 190.25 155.1875 189.339844 155.554688 188.457031 C 155.921875 187.570312 156.371094 186.730469 156.902344 185.9375 C 157.433594 185.140625 158.039062 184.402344 158.714844 183.726562 C 159.390625 183.050781 160.128906 182.445312 160.921875 181.914062 C 161.71875 181.382812 162.558594 180.933594 163.441406 180.566406 C 164.328125 180.199219 165.238281 179.925781 166.175781 179.738281 C 167.117188 179.550781 168.0625 179.457031 169.019531 179.457031 L 184.621094 179.476562 L 184.613281 176.722656 L 169.019531 176.722656 C 166.722656 176.714844 164.511719 177.152344 162.390625 178.027344 C 160.265625 178.90625 158.394531 180.160156 156.773438 181.785156 Z M 137.246094 162.257812 C 135.679688 163.820312 134.238281 165.488281 132.921875 167.261719 C 131.605469 169.039062 130.425781 170.902344 129.382812 172.851562 C 128.339844 174.800781 127.445312 176.816406 126.699219 178.894531 C 125.957031 180.976562 125.367188 183.101562 124.9375 185.269531 C 124.503906 187.4375 124.234375 189.625 124.125 191.835938 C 124.015625 194.042969 124.070312 196.246094 124.289062 198.445312 C 124.503906 200.648438 124.878906 202.820312 125.417969 204.964844 C 125.953125 207.109375 126.644531 209.199219 127.492188 211.242188 C 128.339844 213.285156 129.328125 215.253906 130.464844 217.152344 C 131.601562 219.046875 132.871094 220.847656 134.277344 222.558594 C 135.679688 224.265625 137.199219 225.863281 138.835938 227.347656 C 140.476562 228.832031 142.214844 230.1875 144.050781 231.414062 C 145.890625 232.644531 147.808594 233.730469 149.808594 234.675781 C 151.804688 235.617188 153.863281 236.410156 155.980469 237.050781 C 158.09375 237.695312 160.246094 238.175781 162.433594 238.5 C 164.621094 238.824219 166.816406 238.984375 169.027344 238.984375 L 169.027344 236.222656 C 167.65625 236.210938 166.285156 236.132812 164.917969 235.988281 C 163.554688 235.839844 162.199219 235.628906 160.851562 235.351562 C 159.507812 235.070312 158.179688 234.726562 156.867188 234.320312 C 155.554688 233.910156 154.265625 233.441406 153 232.90625 C 151.734375 232.371094 150.5 231.777344 149.292969 231.121094 C 148.085938 230.46875 146.910156 229.753906 145.773438 228.984375 C 144.636719 228.214844 143.539062 227.390625 142.480469 226.515625 C 141.421875 225.640625 140.410156 224.710938 139.445312 223.738281 C 138.476562 222.761719 137.558594 221.742188 136.691406 220.675781 C 135.824219 219.609375 135.011719 218.503906 134.253906 217.359375 C 133.492188 216.214844 132.792969 215.035156 132.148438 213.824219 C 131.503906 212.609375 130.917969 211.367188 130.398438 210.097656 C 129.875 208.828125 129.414062 207.535156 129.019531 206.21875 C 128.621094 204.902344 128.289062 203.574219 128.023438 202.226562 C 127.757812 200.878906 127.558594 199.519531 127.421875 198.152344 C 127.289062 196.785156 127.222656 195.414062 127.222656 194.042969 C 127.222656 192.667969 127.289062 191.296875 127.421875 189.929688 C 127.558594 188.5625 127.757812 187.207031 128.023438 185.859375 C 128.289062 184.511719 128.621094 183.179688 129.019531 181.863281 C 129.414062 180.546875 129.875 179.253906 130.398438 177.984375 C 130.921875 176.714844 131.503906 175.472656 132.148438 174.261719 C 132.792969 173.046875 133.496094 171.867188 134.253906 170.722656 C 135.011719 169.578125 135.828125 168.472656 136.695312 167.40625 C 137.5625 166.34375 138.480469 165.320312 139.445312 164.347656 C 140.414062 163.371094 141.425781 162.445312 142.484375 161.566406 C 143.539062 160.691406 144.636719 159.867188 145.777344 159.097656 C 146.914062 158.328125 148.085938 157.617188 149.292969 156.960938 C 150.5 156.308594 151.738281 155.710938 153.003906 155.179688 C 154.269531 154.644531 155.558594 154.171875 156.871094 153.765625 C 158.179688 153.355469 159.511719 153.011719 160.855469 152.734375 C 162.199219 152.457031 163.554688 152.242188 164.921875 152.097656 C 166.289062 151.953125 167.65625 151.871094 169.03125 151.859375 L 184.59375 151.863281 L 184.585938 149.105469 L 169.027344 149.105469 C 166.078125 149.097656 163.152344 149.378906 160.257812 149.949219 C 157.363281 150.523438 154.550781 151.375 151.824219 152.503906 C 149.097656 153.632812 146.507812 155.019531 144.054688 156.664062 C 141.601562 158.304688 139.335938 160.175781 137.253906 162.265625 Z M 110.289062 194.042969 C 110.289062 195.964844 110.382812 197.882812 110.570312 199.800781 C 110.757812 201.714844 111.039062 203.613281 111.414062 205.5 C 111.792969 207.390625 112.257812 209.253906 112.816406 211.09375 C 113.375 212.933594 114.023438 214.746094 114.757812 216.523438 C 115.496094 218.300781 116.316406 220.035156 117.222656 221.734375 C 118.128906 223.429688 119.117188 225.078125 120.1875 226.679688 C 121.253906 228.277344 122.398438 229.820312 123.621094 231.308594 C 124.839844 232.796875 126.132812 234.21875 127.492188 235.582031 C 128.851562 236.941406 130.277344 238.230469 131.765625 239.453125 C 133.25 240.671875 134.792969 241.816406 136.394531 242.886719 C 137.992188 243.953125 139.640625 244.941406 141.339844 245.847656 C 143.035156 246.757812 144.773438 247.578125 146.550781 248.3125 C 148.328125 249.050781 150.136719 249.699219 151.976562 250.257812 C 153.820312 250.8125 155.683594 251.28125 157.570312 251.65625 C 159.457031 252.03125 161.359375 252.3125 163.273438 252.503906 C 165.1875 252.691406 167.105469 252.785156 169.03125 252.785156 L 169.027344 250.027344 C 167.195312 250.027344 165.367188 249.9375 163.542969 249.757812 C 161.714844 249.578125 159.90625 249.3125 158.105469 248.953125 C 156.308594 248.59375 154.53125 248.152344 152.777344 247.617188 C 151.023438 247.085938 149.296875 246.46875 147.605469 245.769531 C 145.910156 245.066406 144.253906 244.285156 142.636719 243.417969 C 141.019531 242.554688 139.449219 241.613281 137.925781 240.59375 C 136.398438 239.574219 134.929688 238.484375 133.511719 237.320312 C 132.09375 236.160156 130.738281 234.929688 129.441406 233.632812 C 128.144531 232.335938 126.914062 230.976562 125.75 229.5625 C 124.585938 228.144531 123.496094 226.671875 122.476562 225.148438 C 121.460938 223.625 120.519531 222.050781 119.652344 220.433594 C 118.789062 218.820312 118.007812 217.164062 117.304688 215.46875 C 116.601562 213.773438 115.984375 212.050781 115.453125 210.296875 C 114.921875 208.539062 114.476562 206.765625 114.117188 204.964844 C 113.761719 203.167969 113.492188 201.355469 113.3125 199.53125 C 113.132812 197.707031 113.042969 195.878906 113.042969 194.042969 C 113.042969 192.210938 113.132812 190.378906 113.3125 188.554688 C 113.492188 186.730469 113.761719 184.917969 114.121094 183.121094 C 114.476562 181.324219 114.921875 179.546875 115.453125 177.792969 C 115.988281 176.035156 116.601562 174.3125 117.304688 172.617188 C 118.007812 170.921875 118.789062 169.269531 119.652344 167.652344 C 120.519531 166.035156 121.460938 164.460938 122.480469 162.9375 C 123.496094 161.414062 124.589844 159.941406 125.75 158.523438 C 126.914062 157.109375 128.144531 155.75 129.441406 154.453125 C 130.738281 153.15625 132.09375 151.925781 133.511719 150.765625 C 134.929688 149.601562 136.402344 148.511719 137.925781 147.492188 C 139.449219 146.472656 141.019531 145.53125 142.636719 144.667969 C 144.253906 143.800781 145.910156 143.019531 147.605469 142.316406 C 149.300781 141.617188 151.023438 141 152.777344 140.464844 C 154.535156 139.933594 156.308594 139.488281 158.109375 139.132812 C 159.90625 138.773438 161.71875 138.503906 163.542969 138.324219 C 165.367188 138.144531 167.199219 138.054688 169.03125 138.054688 L 184.574219 138.054688 L 184.570312 135.300781 L 169.027344 135.300781 C 167.105469 135.300781 165.1875 135.394531 163.269531 135.582031 C 161.355469 135.773438 159.457031 136.054688 157.570312 136.429688 C 155.683594 136.804688 153.816406 137.273438 151.976562 137.832031 C 150.136719 138.390625 148.328125 139.035156 146.550781 139.773438 C 144.773438 140.507812 143.035156 141.332031 141.339844 142.238281 C 139.640625 143.144531 137.992188 144.132812 136.394531 145.199219 C 134.796875 146.269531 133.25 147.414062 131.765625 148.632812 C 130.277344 149.855469 128.855469 151.144531 127.492188 152.503906 C 126.132812 153.867188 124.84375 155.289062 123.621094 156.777344 C 122.402344 158.265625 121.257812 159.808594 120.1875 161.40625 C 119.121094 163.007812 118.132812 164.65625 117.222656 166.351562 C 116.316406 168.046875 115.496094 169.785156 114.761719 171.5625 C 114.023438 173.339844 113.375 175.148438 112.816406 176.988281 C 112.257812 178.832031 111.792969 180.695312 111.417969 182.582031 C 111.042969 184.46875 110.757812 186.367188 110.570312 188.285156 C 110.382812 190.199219 110.289062 192.117188 110.289062 194.042969 Z M 110.289062 194.042969 " clip-rule="nonzero"/></clipPath><linearGradient x1="-4011.200145" gradientTransform="matrix(0.363936, 0, 0, 0.363936, 1570.417207, -1123.042273)" y1="3456.828152" x2="-3759.279702" gradientUnits="userSpaceOnUse" y2="3736.738826" id="02304c5df5"><stop stop-opacity="1" stop-color="rgb(63.09967%, 0%, 92.89856%)" offset="0"/><stop stop-opacity="1" stop-color="rgb(63.09967%, 0%, 92.89856%)" offset="0.25"/><stop stop-opacity="1" stop-color="rgb(63.09967%, 0%, 92.89856%)" offset="0.36283"/><stop stop-opacity="1" stop-color="rgb(63.09967%, 0%, 92.89856%)" offset="0.375"/><stop stop-opacity="1" stop-color="rgb(63.09967%, 0%, 92.89856%)" offset="0.4375"/><stop stop-opacity="1" stop-color="rgb(63.002014%, 0.0335693%, 92.909241%)" offset="0.46875"/><stop stop-opacity="1" stop-color="rgb(61.759949%, 0.465393%, 93.049622%)" offset="0.472656"/><stop stop-opacity="1" stop-color="rgb(60.61554%, 0.865173%, 93.179321%)" offset="0.476562"/><stop stop-opacity="1" stop-color="rgb(59.47113%, 1.263428%, 93.307495%)" offset="0.480469"/><stop stop-opacity="1" stop-color="rgb(58.328247%, 1.663208%, 93.435669%)" offset="0.484375"/><stop stop-opacity="1" stop-color="rgb(57.183838%, 2.061462%, 93.563843%)" offset="0.488281"/><stop stop-opacity="1" stop-color="rgb(56.039429%, 2.461243%, 93.693542%)" offset="0.492188"/><stop stop-opacity="1" stop-color="rgb(54.89502%, 2.859497%, 93.821716%)" offset="0.496094"/><stop stop-opacity="1" stop-color="rgb(53.75061%, 3.259277%, 93.951416%)" offset="0.5"/><stop stop-opacity="1" stop-color="rgb(52.606201%, 3.657532%, 94.07959%)" offset="0.503906"/><stop stop-opacity="1" stop-color="rgb(51.463318%, 4.055786%, 94.20929%)" offset="0.507812"/><stop stop-opacity="1" stop-color="rgb(50.318909%, 4.454041%, 94.337463%)" offset="0.511719"/><stop stop-opacity="1" stop-color="rgb(49.1745%, 4.853821%, 94.465637%)" offset="0.515625"/><stop stop-opacity="1" stop-color="rgb(48.03009%, 5.252075%, 94.593811%)" offset="0.519531"/><stop stop-opacity="1" stop-color="rgb(46.885681%, 5.651855%, 94.723511%)" offset="0.523438"/><stop stop-opacity="1" stop-color="rgb(45.741272%, 6.05011%, 94.851685%)" offset="0.527344"/><stop stop-opacity="1" stop-color="rgb(44.596863%, 6.44989%, 94.981384%)" offset="0.53125"/><stop stop-opacity="1" stop-color="rgb(43.452454%, 6.848145%, 95.109558%)" offset="0.535156"/><stop stop-opacity="1" stop-color="rgb(42.30957%, 7.247925%, 95.239258%)" offset="0.539062"/><stop stop-opacity="1" stop-color="rgb(41.165161%, 7.646179%, 95.367432%)" offset="0.542969"/><stop stop-opacity="1" stop-color="rgb(40.020752%, 8.045959%, 95.495605%)" offset="0.546875"/><stop stop-opacity="1" stop-color="rgb(38.876343%, 8.444214%, 95.623779%)" offset="0.550781"/><stop stop-opacity="1" stop-color="rgb(37.731934%, 8.843994%, 95.753479%)" offset="0.554688"/><stop stop-opacity="1" stop-color="rgb(36.587524%, 9.242249%, 95.881653%)" offset="0.558594"/><stop stop-opacity="1" stop-color="rgb(35.444641%, 9.640503%, 96.011353%)" offset="0.5625"/><stop stop-opacity="1" stop-color="rgb(34.300232%, 10.038757%, 96.139526%)" offset="0.566406"/><stop stop-opacity="1" stop-color="rgb(33.155823%, 10.438538%, 96.269226%)" offset="0.570312"/><stop stop-opacity="1" stop-color="rgb(32.011414%, 10.836792%, 96.3974%)" offset="0.574219"/><stop stop-opacity="1" stop-color="rgb(30.867004%, 11.236572%, 96.525574%)" offset="0.578125"/><stop stop-opacity="1" stop-color="rgb(29.722595%, 11.634827%, 96.653748%)" offset="0.582031"/><stop stop-opacity="1" stop-color="rgb(28.579712%, 12.034607%, 96.783447%)" offset="0.585937"/><stop stop-opacity="1" stop-color="rgb(27.435303%, 12.432861%, 96.911621%)" offset="0.589844"/><stop stop-opacity="1" stop-color="rgb(26.290894%, 12.832642%, 97.041321%)" offset="0.59375"/><stop stop-opacity="1" stop-color="rgb(25.146484%, 13.230896%, 97.169495%)" offset="0.597656"/><stop stop-opacity="1" stop-color="rgb(24.002075%, 13.630676%, 97.297668%)" offset="0.601562"/><stop stop-opacity="1" stop-color="rgb(22.857666%, 14.028931%, 97.425842%)" offset="0.605469"/><stop stop-opacity="1" stop-color="rgb(21.714783%, 14.428711%, 97.555542%)" offset="0.609375"/><stop stop-opacity="1" stop-color="rgb(20.570374%, 14.826965%, 97.683716%)" offset="0.613281"/><stop stop-opacity="1" stop-color="rgb(19.425964%, 15.226746%, 97.813416%)" offset="0.617188"/><stop stop-opacity="1" stop-color="rgb(18.281555%, 15.625%, 97.941589%)" offset="0.621094"/><stop stop-opacity="1" stop-color="rgb(17.137146%, 16.023254%, 98.071289%)" offset="0.625"/><stop stop-opacity="1" stop-color="rgb(15.992737%, 16.421509%, 98.199463%)" offset="0.628906"/><stop stop-opacity="1" stop-color="rgb(14.848328%, 16.821289%, 98.327637%)" offset="0.632812"/><stop stop-opacity="1" stop-color="rgb(13.703918%, 17.219543%, 98.455811%)" offset="0.636719"/><stop stop-opacity="1" stop-color="rgb(12.561035%, 17.619324%, 98.58551%)" offset="0.640625"/><stop stop-opacity="1" stop-color="rgb(11.416626%, 18.017578%, 98.713684%)" offset="0.644531"/><stop stop-opacity="1" stop-color="rgb(10.272217%, 18.417358%, 98.843384%)" offset="0.648438"/><stop stop-opacity="1" stop-color="rgb(9.127808%, 18.815613%, 98.971558%)" offset="0.652344"/><stop stop-opacity="1" stop-color="rgb(7.983398%, 19.215393%, 99.101257%)" offset="0.65625"/><stop stop-opacity="1" stop-color="rgb(6.838989%, 19.613647%, 99.229431%)" offset="0.660156"/><stop stop-opacity="1" stop-color="rgb(5.696106%, 20.013428%, 99.357605%)" offset="0.664063"/><stop stop-opacity="1" stop-color="rgb(4.551697%, 20.411682%, 99.485779%)" offset="0.667969"/><stop stop-opacity="1" stop-color="rgb(3.407288%, 20.811462%, 99.615479%)" offset="0.671875"/><stop stop-opacity="1" stop-color="rgb(2.262878%, 21.209717%, 99.743652%)" offset="0.675781"/><stop stop-opacity="1" stop-color="rgb(1.118469%, 21.609497%, 99.873352%)" offset="0.679688"/><stop stop-opacity="1" stop-color="rgb(0.558472%, 21.803284%, 99.935913%)" offset="0.683594"/><stop stop-opacity="1" stop-color="rgb(0%, 21.998596%, 100%)" offset="0.6875"/><stop stop-opacity="1" stop-color="rgb(0%, 21.998596%, 100%)" offset="0.75"/><stop stop-opacity="1" stop-color="rgb(0%, 21.998596%, 100%)" offset="1"/></linearGradient><clipPath id="0c194298f6"><path d="M 224 135 L 287 135 L 287 180 L 224 180 Z M 224 135 " clip-rule="nonzero"/></clipPath><clipPath id="a6b3882348"><path d="M 247.746094 202.800781 L 202.292969 157.347656 L 245.273438 114.363281 L 290.726562 159.816406 Z M 247.746094 202.800781 " clip-rule="nonzero"/></clipPath><clipPath id="c90e1cdb5b"><path d="M 247.746094 202.800781 L 202.292969 157.347656 L 245.273438 114.363281 L 290.726562 159.816406 Z M 247.746094 202.800781 " clip-rule="nonzero"/></clipPath><clipPath id="e1d3fc941e"><path d="M 257.714844 162.871094 L 224.402344 162.871094 L 224.40625 165.636719 L 257.71875 165.636719 Z M 224.371094 137.949219 L 247.75 137.949219 L 247.75 135.179688 L 224.367188 135.183594 Z M 224.390625 144.859375 L 263.882812 144.859375 L 263.882812 142.09375 L 224.386719 142.09375 Z M 224.421875 176.714844 L 224.425781 179.480469 L 269.09375 179.480469 L 269.105469 176.722656 Z M 224.40625 172.570312 L 277.910156 172.566406 L 277.90625 169.800781 L 224.414062 169.792969 Z M 224.378906 151.800781 L 275.765625 151.789062 L 275.765625 149.027344 L 224.386719 149.027344 Z M 224.398438 158.714844 L 286.828125 158.714844 L 286.828125 155.949219 L 224.398438 155.949219 Z M 224.398438 158.714844 " clip-rule="nonzero"/></clipPath><linearGradient x1="-3630.180782" gradientTransform="matrix(0.365027, 0, 0, 0.365027, 1549.482147, -1016.420326)" y1="3215.53" x2="-3459.068013" gradientUnits="userSpaceOnUse" y2="3215.53" id="ffe537ed7a"><stop stop-opacity="1" stop-color="rgb(54.899597%, 0%, 92.89856%)" offset="0"/><stop stop-opacity="1" stop-color="rgb(55.039978%, 0.349426%, 92.875671%)" offset="0.00390625"/><stop stop-opacity="1" stop-color="rgb(55.180359%, 0.700378%, 92.854309%)" offset="0.0078125"/><stop stop-opacity="1" stop-color="rgb(55.32074%, 1.051331%, 92.831421%)" offset="0.0117188"/><stop stop-opacity="1" stop-color="rgb(55.462646%, 1.402283%, 92.808533%)" offset="0.015625"/><stop stop-opacity="1" stop-color="rgb(55.603027%, 1.753235%, 92.785645%)" offset="0.0195312"/><stop stop-opacity="1" stop-color="rgb(55.744934%, 2.104187%, 92.762756%)" offset="0.0234375"/><stop stop-opacity="1" stop-color="rgb(55.885315%, 2.453613%, 92.739868%)" offset="0.0273437"/><stop stop-opacity="1" stop-color="rgb(56.027222%, 2.804565%, 92.718506%)" offset="0.03125"/><stop stop-opacity="1" stop-color="rgb(56.167603%, 3.155518%, 92.695618%)" offset="0.0351562"/><stop stop-opacity="1" stop-color="rgb(56.309509%, 3.50647%, 92.672729%)" offset="0.0390625"/><stop stop-opacity="1" stop-color="rgb(56.44989%, 3.857422%, 92.649841%)" offset="0.0429687"/><stop stop-opacity="1" stop-color="rgb(56.591797%, 4.208374%, 92.626953%)" offset="0.046875"/><stop stop-opacity="1" stop-color="rgb(56.732178%, 4.559326%, 92.604065%)" offset="0.0507812"/><stop stop-opacity="1" stop-color="rgb(56.874084%, 4.910278%, 92.582703%)" offset="0.0546875"/><stop stop-opacity="1" stop-color="rgb(57.014465%, 5.26123%, 92.559814%)" offset="0.0585937"/><stop stop-opacity="1" stop-color="rgb(57.154846%, 5.612183%, 92.536926%)" offset="0.0625"/><stop stop-opacity="1" stop-color="rgb(57.295227%, 5.961609%, 92.514038%)" offset="0.0664062"/><stop stop-opacity="1" stop-color="rgb(57.437134%, 6.312561%, 92.49115%)" offset="0.0703125"/><stop stop-opacity="1" stop-color="rgb(57.577515%, 6.663513%, 92.468262%)" offset="0.0742187"/><stop stop-opacity="1" stop-color="rgb(57.719421%, 7.014465%, 92.445374%)" offset="0.078125"/><stop stop-opacity="1" stop-color="rgb(57.859802%, 7.365417%, 92.422485%)" offset="0.0820312"/><stop stop-opacity="1" stop-color="rgb(58.001709%, 7.71637%, 92.401123%)" offset="0.0859375"/><stop stop-opacity="1" stop-color="rgb(58.14209%, 8.067322%, 92.378235%)" offset="0.0898437"/><stop stop-opacity="1" stop-color="rgb(58.283997%, 8.418274%, 92.355347%)" offset="0.09375"/><stop stop-opacity="1" stop-color="rgb(58.424377%, 8.769226%, 92.332458%)" offset="0.0976562"/><stop stop-opacity="1" stop-color="rgb(58.566284%, 9.120178%, 92.30957%)" offset="0.101562"/><stop stop-opacity="1" stop-color="rgb(58.706665%, 9.47113%, 92.286682%)" offset="0.105469"/><stop stop-opacity="1" stop-color="rgb(58.847046%, 9.822083%, 92.26532%)" offset="0.109375"/><stop stop-opacity="1" stop-color="rgb(58.987427%, 10.171509%, 92.242432%)" offset="0.113281"/><stop stop-opacity="1" stop-color="rgb(59.129333%, 10.522461%, 92.219543%)" offset="0.117187"/><stop stop-opacity="1" stop-color="rgb(59.269714%, 10.873413%, 92.196655%)" offset="0.121094"/><stop stop-opacity="1" stop-color="rgb(59.411621%, 11.224365%, 92.173767%)" offset="0.125"/><stop stop-opacity="1" stop-color="rgb(59.552002%, 11.575317%, 92.150879%)" offset="0.128906"/><stop stop-opacity="1" stop-color="rgb(59.693909%, 11.92627%, 92.129517%)" offset="0.132812"/><stop stop-opacity="1" stop-color="rgb(59.83429%, 12.277222%, 92.106628%)" offset="0.136719"/><stop stop-opacity="1" stop-color="rgb(59.976196%, 12.628174%, 92.08374%)" offset="0.140625"/><stop stop-opacity="1" stop-color="rgb(60.116577%, 12.979126%, 92.060852%)" offset="0.144531"/><stop stop-opacity="1" stop-color="rgb(60.258484%, 13.330078%, 92.037964%)" offset="0.148437"/><stop stop-opacity="1" stop-color="rgb(60.398865%, 13.679504%, 92.015076%)" offset="0.152344"/><stop stop-opacity="1" stop-color="rgb(60.540771%, 14.030457%, 91.992188%)" offset="0.15625"/><stop stop-opacity="1" stop-color="rgb(60.681152%, 14.381409%, 91.969299%)" offset="0.160156"/><stop stop-opacity="1" stop-color="rgb(60.821533%, 14.732361%, 91.947937%)" offset="0.164062"/><stop stop-opacity="1" stop-color="rgb(60.961914%, 15.083313%, 91.925049%)" offset="0.167969"/><stop stop-opacity="1" stop-color="rgb(61.103821%, 15.434265%, 91.902161%)" offset="0.171875"/><stop stop-opacity="1" stop-color="rgb(61.244202%, 15.785217%, 91.879272%)" offset="0.175781"/><stop stop-opacity="1" stop-color="rgb(61.386108%, 16.136169%, 91.856384%)" offset="0.179687"/><stop stop-opacity="1" stop-color="rgb(61.526489%, 16.487122%, 91.833496%)" offset="0.183594"/><stop stop-opacity="1" stop-color="rgb(61.668396%, 16.838074%, 91.812134%)" offset="0.1875"/><stop stop-opacity="1" stop-color="rgb(61.808777%, 17.1875%, 91.789246%)" offset="0.191406"/><stop stop-opacity="1" stop-color="rgb(61.950684%, 17.538452%, 91.766357%)" offset="0.195312"/><stop stop-opacity="1" stop-color="rgb(62.091064%, 17.889404%, 91.743469%)" offset="0.199219"/><stop stop-opacity="1" stop-color="rgb(62.232971%, 18.240356%, 91.720581%)" offset="0.203125"/><stop stop-opacity="1" stop-color="rgb(62.373352%, 18.591309%, 91.697693%)" offset="0.207031"/><stop stop-opacity="1" stop-color="rgb(62.513733%, 18.942261%, 91.676331%)" offset="0.210937"/><stop stop-opacity="1" stop-color="rgb(62.654114%, 19.293213%, 91.653442%)" offset="0.214844"/><stop stop-opacity="1" stop-color="rgb(62.796021%, 19.644165%, 91.630554%)" offset="0.21875"/><stop stop-opacity="1" stop-color="rgb(62.936401%, 19.995117%, 91.607666%)" offset="0.222656"/><stop stop-opacity="1" stop-color="rgb(63.078308%, 20.346069%, 91.584778%)" offset="0.226562"/><stop stop-opacity="1" stop-color="rgb(63.218689%, 20.697021%, 91.56189%)" offset="0.230469"/><stop stop-opacity="1" stop-color="rgb(63.360596%, 21.047974%, 91.540527%)" offset="0.234375"/><stop stop-opacity="1" stop-color="rgb(63.500977%, 21.3974%, 91.517639%)" offset="0.238281"/><stop stop-opacity="1" stop-color="rgb(63.642883%, 21.748352%, 91.494751%)" offset="0.242187"/><stop stop-opacity="1" stop-color="rgb(63.783264%, 22.099304%, 91.471863%)" offset="0.246094"/><stop stop-opacity="1" stop-color="rgb(63.925171%, 22.450256%, 91.448975%)" offset="0.25"/><stop stop-opacity="1" stop-color="rgb(64.065552%, 22.801208%, 91.426086%)" offset="0.253906"/><stop stop-opacity="1" stop-color="rgb(64.207458%, 23.152161%, 91.403198%)" offset="0.257812"/><stop stop-opacity="1" stop-color="rgb(64.347839%, 23.503113%, 91.38031%)" offset="0.261719"/><stop stop-opacity="1" stop-color="rgb(64.48822%, 23.854065%, 91.358948%)" offset="0.265625"/><stop stop-opacity="1" stop-color="rgb(64.628601%, 24.205017%, 91.33606%)" offset="0.269531"/><stop stop-opacity="1" stop-color="rgb(64.770508%, 24.555969%, 91.313171%)" offset="0.273437"/><stop stop-opacity="1" stop-color="rgb(64.910889%, 24.905396%, 91.290283%)" offset="0.277344"/><stop stop-opacity="1" stop-color="rgb(65.052795%, 25.256348%, 91.267395%)" offset="0.28125"/><stop stop-opacity="1" stop-color="rgb(65.193176%, 25.6073%, 91.244507%)" offset="0.285156"/><stop stop-opacity="1" stop-color="rgb(65.335083%, 25.958252%, 91.223145%)" offset="0.289062"/><stop stop-opacity="1" stop-color="rgb(65.475464%, 26.309204%, 91.200256%)" offset="0.292969"/><stop stop-opacity="1" stop-color="rgb(65.617371%, 26.660156%, 91.177368%)" offset="0.296875"/><stop stop-opacity="1" stop-color="rgb(65.757751%, 27.011108%, 91.15448%)" offset="0.300781"/><stop stop-opacity="1" stop-color="rgb(65.899658%, 27.362061%, 91.131592%)" offset="0.304687"/><stop stop-opacity="1" stop-color="rgb(66.040039%, 27.713013%, 91.108704%)" offset="0.308594"/><stop stop-opacity="1" stop-color="rgb(66.18042%, 28.063965%, 91.087341%)" offset="0.3125"/><stop stop-opacity="1" stop-color="rgb(66.320801%, 28.413391%, 91.064453%)" offset="0.316406"/><stop stop-opacity="1" stop-color="rgb(66.462708%, 28.764343%, 91.041565%)" offset="0.320312"/><stop stop-opacity="1" stop-color="rgb(66.603088%, 29.115295%, 91.018677%)" offset="0.324219"/><stop stop-opacity="1" stop-color="rgb(66.744995%, 29.466248%, 90.995789%)" offset="0.328125"/><stop stop-opacity="1" stop-color="rgb(66.885376%, 29.8172%, 90.9729%)" offset="0.332031"/><stop stop-opacity="1" stop-color="rgb(67.027283%, 30.168152%, 90.950012%)" offset="0.335937"/><stop stop-opacity="1" stop-color="rgb(67.167664%, 30.519104%, 90.927124%)" offset="0.339844"/><stop stop-opacity="1" stop-color="rgb(67.30957%, 30.870056%, 90.905762%)" offset="0.34375"/><stop stop-opacity="1" stop-color="rgb(67.449951%, 31.221008%, 90.882874%)" offset="0.347656"/><stop stop-opacity="1" stop-color="rgb(67.591858%, 31.57196%, 90.859985%)" offset="0.351562"/><stop stop-opacity="1" stop-color="rgb(67.732239%, 31.921387%, 90.837097%)" offset="0.355469"/><stop stop-opacity="1" stop-color="rgb(67.874146%, 32.272339%, 90.814209%)" offset="0.359375"/><stop stop-opacity="1" stop-color="rgb(68.014526%, 32.623291%, 90.791321%)" offset="0.363281"/><stop stop-opacity="1" stop-color="rgb(68.154907%, 32.974243%, 90.769958%)" offset="0.367187"/><stop stop-opacity="1" stop-color="rgb(68.295288%, 33.325195%, 90.74707%)" offset="0.371094"/><stop stop-opacity="1" stop-color="rgb(68.437195%, 33.676147%, 90.724182%)" offset="0.375"/><stop stop-opacity="1" stop-color="rgb(68.577576%, 34.0271%, 90.701294%)" offset="0.378906"/><stop stop-opacity="1" stop-color="rgb(68.719482%, 34.378052%, 90.678406%)" offset="0.382812"/><stop stop-opacity="1" stop-color="rgb(68.859863%, 34.729004%, 90.655518%)" offset="0.386719"/><stop stop-opacity="1" stop-color="rgb(69.00177%, 35.079956%, 90.634155%)" offset="0.390625"/><stop stop-opacity="1" stop-color="rgb(69.142151%, 35.430908%, 90.611267%)" offset="0.394531"/><stop stop-opacity="1" stop-color="rgb(69.284058%, 35.78186%, 90.588379%)" offset="0.398437"/><stop stop-opacity="1" stop-color="rgb(69.424438%, 36.131287%, 90.565491%)" offset="0.402344"/><stop stop-opacity="1" stop-color="rgb(69.566345%, 36.482239%, 90.542603%)" offset="0.40625"/><stop stop-opacity="1" stop-color="rgb(69.706726%, 36.833191%, 90.519714%)" offset="0.410156"/><stop stop-opacity="1" stop-color="rgb(69.847107%, 37.184143%, 90.496826%)" offset="0.414062"/><stop stop-opacity="1" stop-color="rgb(69.987488%, 37.535095%, 90.473938%)" offset="0.417969"/><stop stop-opacity="1" stop-color="rgb(70.129395%, 37.886047%, 90.452576%)" offset="0.421875"/><stop stop-opacity="1" stop-color="rgb(70.269775%, 38.237%, 90.429688%)" offset="0.425781"/><stop stop-opacity="1" stop-color="rgb(70.411682%, 38.587952%, 90.406799%)" offset="0.429687"/><stop stop-opacity="1" stop-color="rgb(70.552063%, 38.938904%, 90.383911%)" offset="0.433594"/><stop stop-opacity="1" stop-color="rgb(70.69397%, 39.289856%, 90.361023%)" offset="0.4375"/><stop stop-opacity="1" stop-color="rgb(70.834351%, 39.639282%, 90.338135%)" offset="0.441406"/><stop stop-opacity="1" stop-color="rgb(70.976257%, 39.990234%, 90.316772%)" offset="0.445312"/><stop stop-opacity="1" stop-color="rgb(71.116638%, 40.341187%, 90.293884%)" offset="0.449219"/><stop stop-opacity="1" stop-color="rgb(71.258545%, 40.692139%, 90.270996%)" offset="0.453125"/><stop stop-opacity="1" stop-color="rgb(71.398926%, 41.043091%, 90.248108%)" offset="0.457031"/><stop stop-opacity="1" stop-color="rgb(71.540833%, 41.394043%, 90.22522%)" offset="0.460937"/><stop stop-opacity="1" stop-color="rgb(71.681213%, 41.744995%, 90.202332%)" offset="0.464844"/><stop stop-opacity="1" stop-color="rgb(71.821594%, 42.095947%, 90.180969%)" offset="0.46875"/><stop stop-opacity="1" stop-color="rgb(71.961975%, 42.446899%, 90.158081%)" offset="0.472656"/><stop stop-opacity="1" stop-color="rgb(72.103882%, 42.797852%, 90.135193%)" offset="0.476562"/><stop stop-opacity="1" stop-color="rgb(72.244263%, 43.147278%, 90.112305%)" offset="0.480469"/><stop stop-opacity="1" stop-color="rgb(72.386169%, 43.49823%, 90.089417%)" offset="0.484375"/><stop stop-opacity="1" stop-color="rgb(72.52655%, 43.849182%, 90.066528%)" offset="0.488281"/><stop stop-opacity="1" stop-color="rgb(72.668457%, 44.200134%, 90.04364%)" offset="0.492187"/><stop stop-opacity="1" stop-color="rgb(72.808838%, 44.551086%, 90.020752%)" offset="0.496094"/><stop stop-opacity="1" stop-color="rgb(72.950745%, 44.902039%, 89.99939%)" offset="0.5"/><stop stop-opacity="1" stop-color="rgb(73.091125%, 45.252991%, 89.976501%)" offset="0.503906"/><stop stop-opacity="1" stop-color="rgb(73.233032%, 45.603943%, 89.953613%)" offset="0.507812"/><stop stop-opacity="1" stop-color="rgb(73.373413%, 45.954895%, 89.930725%)" offset="0.511719"/><stop stop-opacity="1" stop-color="rgb(73.513794%, 46.305847%, 89.907837%)" offset="0.515625"/><stop stop-opacity="1" stop-color="rgb(73.654175%, 46.656799%, 89.884949%)" offset="0.519531"/><stop stop-opacity="1" stop-color="rgb(73.796082%, 47.007751%, 89.863586%)" offset="0.523437"/><stop stop-opacity="1" stop-color="rgb(73.936462%, 47.357178%, 89.840698%)" offset="0.527344"/><stop stop-opacity="1" stop-color="rgb(74.078369%, 47.70813%, 89.81781%)" offset="0.53125"/><stop stop-opacity="1" stop-color="rgb(74.21875%, 48.059082%, 89.794922%)" offset="0.535156"/><stop stop-opacity="1" stop-color="rgb(74.360657%, 48.410034%, 89.772034%)" offset="0.539062"/><stop stop-opacity="1" stop-color="rgb(74.501038%, 48.760986%, 89.749146%)" offset="0.542969"/><stop stop-opacity="1" stop-color="rgb(74.642944%, 49.111938%, 89.727783%)" offset="0.546875"/><stop stop-opacity="1" stop-color="rgb(74.783325%, 49.462891%, 89.704895%)" offset="0.550781"/><stop stop-opacity="1" stop-color="rgb(74.925232%, 49.813843%, 89.682007%)" offset="0.554687"/><stop stop-opacity="1" stop-color="rgb(75.065613%, 50.164795%, 89.659119%)" offset="0.558594"/><stop stop-opacity="1" stop-color="rgb(75.20752%, 50.515747%, 89.63623%)" offset="0.5625"/><stop stop-opacity="1" stop-color="rgb(75.3479%, 50.865173%, 89.613342%)" offset="0.566406"/><stop stop-opacity="1" stop-color="rgb(75.488281%, 51.216125%, 89.590454%)" offset="0.570312"/><stop stop-opacity="1" stop-color="rgb(75.628662%, 51.567078%, 89.567566%)" offset="0.574219"/><stop stop-opacity="1" stop-color="rgb(75.770569%, 51.91803%, 89.546204%)" offset="0.578125"/><stop stop-opacity="1" stop-color="rgb(75.91095%, 52.268982%, 89.523315%)" offset="0.582031"/><stop stop-opacity="1" stop-color="rgb(76.052856%, 52.619934%, 89.500427%)" offset="0.585937"/><stop stop-opacity="1" stop-color="rgb(76.193237%, 52.970886%, 89.477539%)" offset="0.589844"/><stop stop-opacity="1" stop-color="rgb(76.335144%, 53.321838%, 89.454651%)" offset="0.59375"/><stop stop-opacity="1" stop-color="rgb(76.475525%, 53.672791%, 89.431763%)" offset="0.597656"/><stop stop-opacity="1" stop-color="rgb(76.617432%, 54.023743%, 89.4104%)" offset="0.601562"/><stop stop-opacity="1" stop-color="rgb(76.757812%, 54.373169%, 89.387512%)" offset="0.605469"/><stop stop-opacity="1" stop-color="rgb(76.899719%, 54.724121%, 89.364624%)" offset="0.609375"/><stop stop-opacity="1" stop-color="rgb(77.0401%, 55.075073%, 89.341736%)" offset="0.613281"/><stop stop-opacity="1" stop-color="rgb(77.180481%, 55.426025%, 89.318848%)" offset="0.617187"/><stop stop-opacity="1" stop-color="rgb(77.320862%, 55.776978%, 89.295959%)" offset="0.621094"/><stop stop-opacity="1" stop-color="rgb(77.462769%, 56.12793%, 89.274597%)" offset="0.625"/><stop stop-opacity="1" stop-color="rgb(77.603149%, 56.478882%, 89.251709%)" offset="0.628906"/><stop stop-opacity="1" stop-color="rgb(77.745056%, 56.829834%, 89.228821%)" offset="0.632812"/><stop stop-opacity="1" stop-color="rgb(77.885437%, 57.180786%, 89.205933%)" offset="0.636719"/><stop stop-opacity="1" stop-color="rgb(78.027344%, 57.531738%, 89.183044%)" offset="0.640625"/><stop stop-opacity="1" stop-color="rgb(78.167725%, 57.881165%, 89.160156%)" offset="0.644531"/><stop stop-opacity="1" stop-color="rgb(78.309631%, 58.232117%, 89.138794%)" offset="0.648437"/><stop stop-opacity="1" stop-color="rgb(78.450012%, 58.583069%, 89.115906%)" offset="0.652344"/><stop stop-opacity="1" stop-color="rgb(78.591919%, 58.934021%, 89.093018%)" offset="0.65625"/><stop stop-opacity="1" stop-color="rgb(78.7323%, 59.284973%, 89.070129%)" offset="0.660156"/><stop stop-opacity="1" stop-color="rgb(78.874207%, 59.635925%, 89.047241%)" offset="0.664062"/><stop stop-opacity="1" stop-color="rgb(79.014587%, 59.986877%, 89.024353%)" offset="0.667969"/><stop stop-opacity="1" stop-color="rgb(79.154968%, 60.33783%, 89.001465%)" offset="0.671875"/><stop stop-opacity="1" stop-color="rgb(79.295349%, 60.688782%, 88.978577%)" offset="0.675781"/><stop stop-opacity="1" stop-color="rgb(79.437256%, 61.039734%, 88.957214%)" offset="0.679687"/><stop stop-opacity="1" stop-color="rgb(79.577637%, 61.390686%, 88.934326%)" offset="0.683594"/><stop stop-opacity="1" stop-color="rgb(79.719543%, 61.741638%, 88.911438%)" offset="0.6875"/><stop stop-opacity="1" stop-color="rgb(79.859924%, 62.091064%, 88.88855%)" offset="0.691406"/><stop stop-opacity="1" stop-color="rgb(80.001831%, 62.442017%, 88.865662%)" offset="0.695312"/><stop stop-opacity="1" stop-color="rgb(80.142212%, 62.792969%, 88.842773%)" offset="0.699219"/><stop stop-opacity="1" stop-color="rgb(80.284119%, 63.143921%, 88.821411%)" offset="0.703125"/><stop stop-opacity="1" stop-color="rgb(80.4245%, 63.494873%, 88.798523%)" offset="0.707031"/><stop stop-opacity="1" stop-color="rgb(80.566406%, 63.845825%, 88.775635%)" offset="0.710937"/><stop stop-opacity="1" stop-color="rgb(80.706787%, 64.196777%, 88.752747%)" offset="0.714844"/><stop stop-opacity="1" stop-color="rgb(80.847168%, 64.547729%, 88.729858%)" offset="0.71875"/><stop stop-opacity="1" stop-color="rgb(80.987549%, 64.898682%, 88.70697%)" offset="0.722656"/><stop stop-opacity="1" stop-color="rgb(81.129456%, 65.249634%, 88.685608%)" offset="0.726562"/><stop stop-opacity="1" stop-color="rgb(81.269836%, 65.59906%, 88.66272%)" offset="0.730469"/><stop stop-opacity="1" stop-color="rgb(81.411743%, 65.950012%, 88.639832%)" offset="0.734375"/><stop stop-opacity="1" stop-color="rgb(81.552124%, 66.300964%, 88.616943%)" offset="0.738281"/><stop stop-opacity="1" stop-color="rgb(81.694031%, 66.651917%, 88.594055%)" offset="0.742187"/><stop stop-opacity="1" stop-color="rgb(81.834412%, 67.002869%, 88.571167%)" offset="0.746094"/><stop stop-opacity="1" stop-color="rgb(81.976318%, 67.353821%, 88.548279%)" offset="0.75"/><stop stop-opacity="1" stop-color="rgb(82.116699%, 67.704773%, 88.525391%)" offset="0.753906"/><stop stop-opacity="1" stop-color="rgb(82.258606%, 68.055725%, 88.504028%)" offset="0.757812"/><stop stop-opacity="1" stop-color="rgb(82.398987%, 68.406677%, 88.48114%)" offset="0.761719"/><stop stop-opacity="1" stop-color="rgb(82.540894%, 68.757629%, 88.458252%)" offset="0.765625"/><stop stop-opacity="1" stop-color="rgb(82.681274%, 69.107056%, 88.435364%)" offset="0.769531"/><stop stop-opacity="1" stop-color="rgb(82.821655%, 69.458008%, 88.412476%)" offset="0.773437"/><stop stop-opacity="1" stop-color="rgb(82.962036%, 69.80896%, 88.389587%)" offset="0.777344"/><stop stop-opacity="1" stop-color="rgb(83.103943%, 70.159912%, 88.368225%)" offset="0.78125"/><stop stop-opacity="1" stop-color="rgb(83.244324%, 70.510864%, 88.345337%)" offset="0.785156"/><stop stop-opacity="1" stop-color="rgb(83.38623%, 70.861816%, 88.322449%)" offset="0.789062"/><stop stop-opacity="1" stop-color="rgb(83.526611%, 71.212769%, 88.299561%)" offset="0.792969"/><stop stop-opacity="1" stop-color="rgb(83.668518%, 71.563721%, 88.276672%)" offset="0.796875"/><stop stop-opacity="1" stop-color="rgb(83.808899%, 71.914673%, 88.253784%)" offset="0.800781"/><stop stop-opacity="1" stop-color="rgb(83.950806%, 72.265625%, 88.232422%)" offset="0.804687"/><stop stop-opacity="1" stop-color="rgb(84.091187%, 72.616577%, 88.209534%)" offset="0.808594"/><stop stop-opacity="1" stop-color="rgb(84.233093%, 72.967529%, 88.186646%)" offset="0.8125"/><stop stop-opacity="1" stop-color="rgb(84.373474%, 73.316956%, 88.163757%)" offset="0.816406"/><stop stop-opacity="1" stop-color="rgb(84.513855%, 73.667908%, 88.140869%)" offset="0.820312"/><stop stop-opacity="1" stop-color="rgb(84.654236%, 74.01886%, 88.117981%)" offset="0.824219"/><stop stop-opacity="1" stop-color="rgb(84.796143%, 74.369812%, 88.095093%)" offset="0.828125"/><stop stop-opacity="1" stop-color="rgb(84.936523%, 74.720764%, 88.072205%)" offset="0.832031"/><stop stop-opacity="1" stop-color="rgb(85.07843%, 75.071716%, 88.050842%)" offset="0.835937"/><stop stop-opacity="1" stop-color="rgb(85.218811%, 75.422668%, 88.027954%)" offset="0.839844"/><stop stop-opacity="1" stop-color="rgb(85.360718%, 75.773621%, 88.005066%)" offset="0.84375"/><stop stop-opacity="1" stop-color="rgb(85.501099%, 76.124573%, 87.982178%)" offset="0.847656"/><stop stop-opacity="1" stop-color="rgb(85.643005%, 76.475525%, 87.95929%)" offset="0.851562"/><stop stop-opacity="1" stop-color="rgb(85.783386%, 76.824951%, 87.936401%)" offset="0.855469"/><stop stop-opacity="1" stop-color="rgb(85.925293%, 77.175903%, 87.915039%)" offset="0.859375"/><stop stop-opacity="1" stop-color="rgb(86.065674%, 77.526855%, 87.892151%)" offset="0.863281"/><stop stop-opacity="1" stop-color="rgb(86.207581%, 77.877808%, 87.869263%)" offset="0.867187"/><stop stop-opacity="1" stop-color="rgb(86.347961%, 78.22876%, 87.846375%)" offset="0.871094"/><stop stop-opacity="1" stop-color="rgb(86.488342%, 78.579712%, 87.823486%)" offset="0.875"/><stop stop-opacity="1" stop-color="rgb(86.628723%, 78.930664%, 87.800598%)" offset="0.878906"/><stop stop-opacity="1" stop-color="rgb(86.77063%, 79.281616%, 87.779236%)" offset="0.882812"/><stop stop-opacity="1" stop-color="rgb(86.911011%, 79.632568%, 87.756348%)" offset="0.886719"/><stop stop-opacity="1" stop-color="rgb(87.052917%, 79.983521%, 87.733459%)" offset="0.890625"/><stop stop-opacity="1" stop-color="rgb(87.193298%, 80.332947%, 87.710571%)" offset="0.894531"/><stop stop-opacity="1" stop-color="rgb(87.335205%, 80.683899%, 87.687683%)" offset="0.898437"/><stop stop-opacity="1" stop-color="rgb(87.475586%, 81.034851%, 87.664795%)" offset="0.902344"/><stop stop-opacity="1" stop-color="rgb(87.617493%, 81.385803%, 87.641907%)" offset="0.90625"/><stop stop-opacity="1" stop-color="rgb(87.757874%, 81.736755%, 87.619019%)" offset="0.910156"/><stop stop-opacity="1" stop-color="rgb(87.89978%, 82.087708%, 87.597656%)" offset="0.914062"/><stop stop-opacity="1" stop-color="rgb(88.040161%, 82.43866%, 87.574768%)" offset="0.917969"/><stop stop-opacity="1" stop-color="rgb(88.180542%, 82.789612%, 87.55188%)" offset="0.921875"/><stop stop-opacity="1" stop-color="rgb(88.320923%, 83.140564%, 87.528992%)" offset="0.925781"/><stop stop-opacity="1" stop-color="rgb(88.46283%, 83.491516%, 87.506104%)" offset="0.929687"/><stop stop-opacity="1" stop-color="rgb(88.60321%, 83.840942%, 87.483215%)" offset="0.933594"/><stop stop-opacity="1" stop-color="rgb(88.745117%, 84.191895%, 87.461853%)" offset="0.9375"/><stop stop-opacity="1" stop-color="rgb(88.885498%, 84.542847%, 87.438965%)" offset="0.941406"/><stop stop-opacity="1" stop-color="rgb(89.027405%, 84.893799%, 87.416077%)" offset="0.945312"/><stop stop-opacity="1" stop-color="rgb(89.167786%, 85.244751%, 87.393188%)" offset="0.949219"/><stop stop-opacity="1" stop-color="rgb(89.309692%, 85.595703%, 87.3703%)" offset="0.953125"/><stop stop-opacity="1" stop-color="rgb(89.450073%, 85.946655%, 87.347412%)" offset="0.957031"/><stop stop-opacity="1" stop-color="rgb(89.59198%, 86.297607%, 87.32605%)" offset="0.960937"/><stop stop-opacity="1" stop-color="rgb(89.732361%, 86.64856%, 87.303162%)" offset="0.964844"/><stop stop-opacity="1" stop-color="rgb(89.874268%, 86.999512%, 87.280273%)" offset="0.96875"/><stop stop-opacity="1" stop-color="rgb(90.014648%, 87.350464%, 87.257385%)" offset="0.972656"/><stop stop-opacity="1" stop-color="rgb(90.155029%, 87.701416%, 87.234497%)" offset="0.976562"/><stop stop-opacity="1" stop-color="rgb(90.29541%, 88.050842%, 87.211609%)" offset="0.980469"/><stop stop-opacity="1" stop-color="rgb(90.437317%, 88.401794%, 87.188721%)" offset="0.984375"/><stop stop-opacity="1" stop-color="rgb(90.577698%, 88.752747%, 87.165833%)" offset="0.988281"/><stop stop-opacity="1" stop-color="rgb(90.719604%, 89.103699%, 87.14447%)" offset="0.992187"/><stop stop-opacity="1" stop-color="rgb(90.858459%, 89.451599%, 87.121582%)" offset="0.996094"/><stop stop-opacity="1" stop-color="rgb(90.99884%, 89.7995%, 87.098694%)" offset="1"/></linearGradient><clipPath id="30d04bc1dc"><path d="M 168 69 L 228 69 L 228 253 L 168 253 Z M 168 69 " clip-rule="nonzero"/></clipPath><clipPath id="bb5a7bb7c0"><path d="M 180.890625 264.976562 L 84.054688 168.140625 L 182.867188 69.328125 L 279.703125 166.164062 Z M 180.890625 264.976562 " clip-rule="nonzero"/></clipPath><clipPath id="b0a69a0930"><path d="M 180.890625 264.976562 L 84.054688 168.140625 L 182.867188 69.328125 L 279.703125 166.164062 Z M 180.890625 264.976562 " clip-rule="nonzero"/></clipPath><clipPath id="8099d86b74"><path d="M 168.703125 215.582031 L 168.703125 218.335938 C 169.496094 218.335938 170.285156 218.292969 171.074219 218.214844 C 171.859375 218.136719 172.644531 218.019531 173.421875 217.867188 C 174.195312 217.710938 174.964844 217.515625 175.722656 217.285156 C 176.480469 217.054688 177.222656 216.789062 177.957031 216.484375 C 178.6875 216.183594 179.402344 215.84375 180.101562 215.46875 C 180.800781 215.097656 181.476562 214.6875 182.136719 214.25 C 182.796875 213.808594 183.429688 213.335938 184.042969 212.835938 C 184.65625 212.332031 185.242188 211.800781 185.800781 211.242188 C 186.359375 210.679688 186.890625 210.09375 187.394531 209.480469 C 187.898438 208.871094 188.371094 208.234375 188.808594 207.574219 C 189.25 206.917969 189.65625 206.238281 190.03125 205.539062 C 190.402344 204.84375 190.742188 204.128906 191.046875 203.394531 C 191.351562 202.664062 191.617188 201.917969 191.847656 201.160156 C 192.078125 200.402344 192.269531 199.636719 192.425781 198.859375 C 192.582031 198.082031 192.699219 197.300781 192.777344 196.511719 C 192.855469 195.722656 192.894531 194.933594 192.894531 194.140625 L 192.894531 79.125 L 190.140625 76.371094 L 190.140625 194.140625 C 190.140625 194.84375 190.105469 195.542969 190.035156 196.242188 C 189.96875 196.941406 189.863281 197.632812 189.726562 198.324219 C 189.589844 199.011719 189.417969 199.691406 189.214844 200.363281 C 189.007812 201.035156 188.773438 201.695312 188.503906 202.34375 C 188.234375 202.992188 187.933594 203.625 187.605469 204.242188 C 187.273438 204.863281 186.910156 205.464844 186.523438 206.046875 C 186.132812 206.632812 185.714844 207.195312 185.269531 207.738281 C 184.824219 208.277344 184.351562 208.796875 183.855469 209.296875 C 183.359375 209.792969 182.839844 210.261719 182.296875 210.707031 C 181.753906 211.152344 181.191406 211.570312 180.609375 211.960938 C 180.023438 212.351562 179.421875 212.710938 178.804688 213.042969 C 178.183594 213.375 177.550781 213.675781 176.902344 213.941406 C 176.253906 214.210938 175.59375 214.449219 174.921875 214.652344 C 174.25 214.855469 173.570312 215.027344 172.882812 215.164062 C 172.195312 215.304688 171.5 215.40625 170.804688 215.476562 C 170.105469 215.546875 169.402344 215.582031 168.703125 215.582031 Z M 183.242188 194.152344 C 183.238281 195.105469 183.144531 196.050781 182.957031 196.988281 C 182.773438 197.925781 182.496094 198.835938 182.128906 199.71875 C 181.761719 200.597656 181.316406 201.4375 180.785156 202.230469 C 180.253906 203.023438 179.648438 203.757812 178.976562 204.433594 C 178.300781 205.109375 177.566406 205.714844 176.769531 206.242188 C 175.976562 206.773438 175.140625 207.222656 174.257812 207.589844 C 173.375 207.953125 172.464844 208.230469 171.527344 208.417969 C 170.59375 208.605469 169.648438 208.699219 168.691406 208.699219 L 168.691406 211.453125 C 169.257812 211.453125 169.824219 211.425781 170.386719 211.371094 C 170.949219 211.3125 171.511719 211.230469 172.066406 211.117188 C 172.621094 211.007812 173.171875 210.871094 173.710938 210.703125 C 174.253906 210.539062 174.785156 210.347656 175.308594 210.132812 C 175.832031 209.914062 176.34375 209.671875 176.84375 209.40625 C 177.34375 209.136719 177.828125 208.847656 178.300781 208.53125 C 178.769531 208.214844 179.226562 207.878906 179.664062 207.519531 C 180.101562 207.160156 180.519531 206.78125 180.921875 206.378906 C 181.320312 205.980469 181.699219 205.558594 182.058594 205.121094 C 182.417969 204.683594 182.757812 204.230469 183.070312 203.757812 C 183.386719 203.289062 183.675781 202.804688 183.945312 202.304688 C 184.210938 201.804688 184.453125 201.292969 184.671875 200.769531 C 184.890625 200.246094 185.078125 199.714844 185.246094 199.171875 C 185.410156 198.628906 185.546875 198.082031 185.660156 197.527344 C 185.769531 196.96875 185.851562 196.410156 185.910156 195.847656 C 185.964844 195.285156 185.996094 194.71875 185.996094 194.152344 L 186 72.230469 L 183.25 69.480469 Z M 188.734375 214.175781 C 187.421875 215.496094 185.992188 216.671875 184.445312 217.707031 C 182.902344 218.746094 181.269531 219.617188 179.550781 220.332031 C 177.828125 221.042969 176.058594 221.578125 174.230469 221.9375 C 172.40625 222.300781 170.5625 222.476562 168.703125 222.472656 L 168.703125 225.226562 C 169.71875 225.226562 170.734375 225.175781 171.75 225.074219 C 172.761719 224.976562 173.769531 224.828125 174.765625 224.628906 C 175.765625 224.429688 176.75 224.183594 177.726562 223.886719 C 178.699219 223.589844 179.65625 223.25 180.597656 222.859375 C 181.539062 222.46875 182.457031 222.035156 183.355469 221.554688 C 184.253906 221.074219 185.125 220.550781 185.972656 219.984375 C 186.820312 219.421875 187.636719 218.8125 188.421875 218.167969 C 189.210938 217.523438 189.964844 216.839844 190.683594 216.121094 C 191.402344 215.398438 192.085938 214.644531 192.730469 213.859375 C 193.378906 213.070312 193.984375 212.253906 194.550781 211.410156 C 195.113281 210.5625 195.636719 209.691406 196.117188 208.792969 C 196.597656 207.894531 197.03125 206.976562 197.421875 206.035156 C 197.8125 205.09375 198.152344 204.136719 198.449219 203.164062 C 198.746094 202.1875 198.992188 201.203125 199.191406 200.203125 C 199.390625 199.203125 199.539062 198.199219 199.640625 197.1875 C 199.738281 196.171875 199.789062 195.15625 199.789062 194.140625 L 199.785156 86.015625 L 197.03125 83.261719 L 197.03125 194.140625 C 197.039062 196.003906 196.859375 197.847656 196.5 199.671875 C 196.140625 201.496094 195.601562 203.269531 194.890625 204.988281 C 194.179688 206.710938 193.304688 208.34375 192.269531 209.886719 C 191.230469 211.433594 190.054688 212.863281 188.734375 214.175781 Z M 208.222656 233.664062 C 205.632812 236.269531 202.816406 238.589844 199.765625 240.636719 C 196.714844 242.679688 193.496094 244.402344 190.101562 245.808594 C 186.710938 247.210938 183.214844 248.269531 179.613281 248.980469 C 176.011719 249.691406 172.375 250.042969 168.703125 250.035156 L 168.699219 252.785156 C 170.621094 252.785156 172.535156 252.691406 174.449219 252.503906 C 176.359375 252.316406 178.257812 252.035156 180.140625 251.660156 C 182.023438 251.285156 183.886719 250.820312 185.722656 250.261719 C 187.5625 249.703125 189.367188 249.058594 191.144531 248.320312 C 192.917969 247.585938 194.652344 246.765625 196.347656 245.863281 C 198.039062 244.957031 199.6875 243.96875 201.28125 242.902344 C 202.878906 241.835938 204.421875 240.691406 205.90625 239.472656 C 207.390625 238.257812 208.8125 236.96875 210.171875 235.609375 C 211.527344 234.25 212.816406 232.828125 214.035156 231.34375 C 215.253906 229.859375 216.394531 228.320312 217.464844 226.722656 C 218.53125 225.125 219.515625 223.480469 220.421875 221.785156 C 221.328125 220.089844 222.148438 218.355469 222.882812 216.582031 C 223.617188 214.808594 224.265625 213 224.820312 211.164062 C 225.378906 209.324219 225.84375 207.464844 226.21875 205.582031 C 226.59375 203.695312 226.875 201.800781 227.0625 199.886719 C 227.253906 197.976562 227.347656 196.058594 227.347656 194.140625 L 227.347656 113.574219 L 224.59375 110.824219 L 224.59375 194.140625 C 224.605469 197.8125 224.253906 201.449219 223.542969 205.050781 C 222.832031 208.652344 221.773438 212.152344 220.367188 215.542969 C 218.960938 218.933594 217.238281 222.15625 215.195312 225.207031 C 213.148438 228.257812 210.828125 231.078125 208.222656 233.664062 Z M 203.34375 228.785156 C 201.074219 231.066406 198.605469 233.105469 195.933594 234.898438 C 193.261719 236.691406 190.4375 238.203125 187.464844 239.4375 C 184.492188 240.667969 181.429688 241.597656 178.273438 242.222656 C 175.117188 242.851562 171.929688 243.160156 168.710938 243.152344 L 168.710938 245.90625 C 170.40625 245.90625 172.097656 245.824219 173.78125 245.65625 C 175.46875 245.492188 177.144531 245.242188 178.808594 244.910156 C 180.46875 244.582031 182.113281 244.167969 183.734375 243.679688 C 185.355469 243.1875 186.949219 242.617188 188.515625 241.96875 C 190.082031 241.320312 191.613281 240.59375 193.109375 239.796875 C 194.605469 238.996094 196.054688 238.125 197.464844 237.183594 C 198.875 236.242188 200.234375 235.234375 201.546875 234.160156 C 202.855469 233.082031 204.109375 231.945312 205.308594 230.746094 C 206.507812 229.550781 207.644531 228.292969 208.71875 226.984375 C 209.792969 225.675781 210.804688 224.3125 211.746094 222.90625 C 212.6875 221.496094 213.558594 220.042969 214.355469 218.546875 C 215.15625 217.054688 215.878906 215.523438 216.527344 213.957031 C 217.175781 212.390625 217.746094 210.796875 218.238281 209.171875 C 218.730469 207.550781 219.140625 205.910156 219.472656 204.246094 C 219.804688 202.585938 220.050781 200.910156 220.21875 199.222656 C 220.382812 197.535156 220.464844 195.84375 220.464844 194.148438 L 220.464844 106.695312 L 217.703125 103.933594 L 217.714844 194.152344 C 217.722656 197.371094 217.414062 200.558594 216.789062 203.714844 C 216.164062 206.871094 215.234375 209.9375 214 212.910156 C 212.769531 215.882812 211.253906 218.707031 209.460938 221.378906 C 207.671875 224.050781 205.632812 226.523438 203.351562 228.792969 Z M 198.460938 223.902344 C 196.507812 225.863281 194.382812 227.613281 192.085938 229.152344 C 189.785156 230.691406 187.355469 231.988281 184.800781 233.046875 C 182.242188 234.105469 179.609375 234.898438 176.894531 235.433594 C 174.179688 235.96875 171.4375 236.230469 168.671875 236.222656 L 168.699219 239.003906 C 170.167969 239.003906 171.636719 238.933594 173.097656 238.789062 C 174.558594 238.644531 176.011719 238.429688 177.453125 238.144531 C 178.894531 237.855469 180.316406 237.5 181.722656 237.074219 C 183.128906 236.648438 184.511719 236.152344 185.871094 235.589844 C 187.226562 235.027344 188.554688 234.402344 189.851562 233.707031 C 191.144531 233.015625 192.40625 232.261719 193.625 231.445312 C 194.847656 230.628906 196.027344 229.753906 197.164062 228.820312 C 198.300781 227.890625 199.386719 226.902344 200.425781 225.863281 C 201.464844 224.824219 202.449219 223.738281 203.382812 222.601562 C 204.316406 221.464844 205.1875 220.289062 206.003906 219.066406 C 206.820312 217.84375 207.574219 216.585938 208.269531 215.289062 C 208.960938 213.992188 209.589844 212.667969 210.152344 211.308594 C 210.714844 209.953125 211.207031 208.570312 211.632812 207.164062 C 212.058594 205.757812 212.417969 204.332031 212.703125 202.890625 C 212.988281 201.449219 213.207031 200 213.347656 198.535156 C 213.492188 197.074219 213.566406 195.609375 213.566406 194.140625 L 213.566406 99.796875 L 210.8125 97.042969 L 210.8125 194.15625 C 210.820312 196.921875 210.554688 199.660156 210.019531 202.375 C 209.480469 205.085938 208.683594 207.71875 207.625 210.273438 C 206.566406 212.828125 205.269531 215.253906 203.730469 217.550781 C 202.1875 219.847656 200.4375 221.972656 198.480469 223.921875 Z M 168.703125 229.363281 L 168.703125 232.117188 C 169.945312 232.113281 171.183594 232.050781 172.421875 231.929688 C 173.660156 231.804688 174.886719 231.621094 176.105469 231.378906 C 177.324219 231.132812 178.527344 230.832031 179.714844 230.46875 C 180.90625 230.109375 182.074219 229.6875 183.222656 229.210938 C 184.371094 228.734375 185.492188 228.203125 186.585938 227.617188 C 187.683594 227.03125 188.746094 226.390625 189.78125 225.703125 C 190.8125 225.011719 191.8125 224.269531 192.773438 223.480469 C 193.734375 222.691406 194.652344 221.859375 195.53125 220.980469 C 196.410156 220.101562 197.242188 219.183594 198.03125 218.222656 C 198.820312 217.261719 199.5625 216.265625 200.25 215.230469 C 200.941406 214.199219 201.582031 213.132812 202.167969 212.039062 C 202.753906 210.941406 203.285156 209.820312 203.761719 208.671875 C 204.238281 207.523438 204.65625 206.355469 205.019531 205.167969 C 205.382812 203.976562 205.683594 202.773438 205.929688 201.554688 C 206.171875 200.335938 206.355469 199.109375 206.480469 197.871094 C 206.601562 196.632812 206.664062 195.394531 206.667969 194.152344 L 206.667969 92.925781 L 203.914062 90.171875 L 203.921875 194.140625 C 203.921875 195.292969 203.863281 196.445312 203.75 197.59375 C 203.636719 198.742188 203.46875 199.878906 203.242188 201.011719 C 203.015625 202.140625 202.738281 203.257812 202.402344 204.363281 C 202.066406 205.464844 201.675781 206.550781 201.234375 207.617188 C 200.792969 208.683594 200.300781 209.722656 199.757812 210.738281 C 199.214844 211.757812 198.621094 212.746094 197.980469 213.703125 C 197.339844 214.664062 196.652344 215.585938 195.921875 216.480469 C 195.1875 217.371094 194.414062 218.222656 193.601562 219.039062 C 192.785156 219.855469 191.929688 220.628906 191.039062 221.359375 C 190.148438 222.09375 189.222656 222.777344 188.265625 223.417969 C 187.304688 224.058594 186.316406 224.652344 185.300781 225.195312 C 184.285156 225.742188 183.242188 226.234375 182.175781 226.675781 C 181.113281 227.117188 180.027344 227.503906 178.921875 227.839844 C 177.820312 228.175781 176.703125 228.457031 175.570312 228.683594 C 174.441406 228.90625 173.300781 229.078125 172.152344 229.191406 C 171.007812 229.304688 169.855469 229.363281 168.703125 229.363281 Z M 168.703125 229.363281 " clip-rule="nonzero"/></clipPath><linearGradient x1="-50.471854" gradientTransform="matrix(-0.256917, -0.256917, 0.256917, -0.256917, 180.8466, 264.932339)" y1="-13.517574" x2="370.332596" gradientUnits="userSpaceOnUse" y2="498.601192" id="9ce87ba644"><stop stop-opacity="1" stop-color="rgb(0%, 18.798828%, 100%)" offset="0"/><stop stop-opacity="1" stop-color="rgb(0%, 18.798828%, 100%)" offset="0.25"/><stop stop-opacity="1" stop-color="rgb(0%, 18.798828%, 100%)" offset="0.3125"/><stop stop-opacity="1" stop-color="rgb(0%, 18.798828%, 100%)" offset="0.320312"/><stop stop-opacity="1" stop-color="rgb(0%, 19.113159%, 100%)" offset="0.324219"/><stop stop-opacity="1" stop-color="rgb(0%, 19.42749%, 100%)" offset="0.328125"/><stop stop-opacity="1" stop-color="rgb(0%, 19.978333%, 100%)" offset="0.332031"/><stop stop-opacity="1" stop-color="rgb(0%, 20.530701%, 100%)" offset="0.335938"/><stop stop-opacity="1" stop-color="rgb(0%, 21.081543%, 100%)" offset="0.339844"/><stop stop-opacity="1" stop-color="rgb(0%, 21.633911%, 100%)" offset="0.34375"/><stop stop-opacity="1" stop-color="rgb(0%, 22.184753%, 100%)" offset="0.347656"/><stop stop-opacity="1" stop-color="rgb(0%, 22.735596%, 100%)" offset="0.351562"/><stop stop-opacity="1" stop-color="rgb(0%, 23.286438%, 100%)" offset="0.355469"/><stop stop-opacity="1" stop-color="rgb(0%, 23.838806%, 100%)" offset="0.359375"/><stop stop-opacity="1" stop-color="rgb(0%, 24.389648%, 100%)" offset="0.363281"/><stop stop-opacity="1" stop-color="rgb(0%, 24.942017%, 100%)" offset="0.367188"/><stop stop-opacity="1" stop-color="rgb(0%, 25.492859%, 100%)" offset="0.371094"/><stop stop-opacity="1" stop-color="rgb(0%, 26.043701%, 100%)" offset="0.375"/><stop stop-opacity="1" stop-color="rgb(0%, 26.594543%, 100%)" offset="0.378906"/><stop stop-opacity="1" stop-color="rgb(0%, 27.146912%, 100%)" offset="0.382812"/><stop stop-opacity="1" stop-color="rgb(0%, 27.697754%, 100%)" offset="0.386719"/><stop stop-opacity="1" stop-color="rgb(0%, 28.250122%, 100%)" offset="0.390625"/><stop stop-opacity="1" stop-color="rgb(0%, 28.800964%, 100%)" offset="0.394531"/><stop stop-opacity="1" stop-color="rgb(0%, 29.351807%, 100%)" offset="0.398438"/><stop stop-opacity="1" stop-color="rgb(0%, 29.902649%, 100%)" offset="0.402344"/><stop stop-opacity="1" stop-color="rgb(0%, 30.455017%, 100%)" offset="0.40625"/><stop stop-opacity="1" stop-color="rgb(0%, 31.005859%, 100%)" offset="0.410156"/><stop stop-opacity="1" stop-color="rgb(0%, 31.558228%, 100%)" offset="0.414062"/><stop stop-opacity="1" stop-color="rgb(0%, 32.10907%, 100%)" offset="0.417969"/><stop stop-opacity="1" stop-color="rgb(0%, 32.659912%, 100%)" offset="0.421875"/><stop stop-opacity="1" stop-color="rgb(0%, 33.210754%, 100%)" offset="0.425781"/><stop stop-opacity="1" stop-color="rgb(0%, 33.763123%, 100%)" offset="0.429687"/><stop stop-opacity="1" stop-color="rgb(0%, 34.313965%, 100%)" offset="0.433594"/><stop stop-opacity="1" stop-color="rgb(0%, 34.866333%, 100%)" offset="0.4375"/><stop stop-opacity="1" stop-color="rgb(0%, 35.417175%, 100%)" offset="0.441406"/><stop stop-opacity="1" stop-color="rgb(0%, 35.968018%, 100%)" offset="0.445312"/><stop stop-opacity="1" stop-color="rgb(0%, 36.51886%, 100%)" offset="0.449219"/><stop stop-opacity="1" stop-color="rgb(0%, 37.071228%, 100%)" offset="0.453125"/><stop stop-opacity="1" stop-color="rgb(0%, 37.62207%, 100%)" offset="0.457031"/><stop stop-opacity="1" stop-color="rgb(0%, 38.174438%, 100%)" offset="0.460938"/><stop stop-opacity="1" stop-color="rgb(0%, 38.725281%, 100%)" offset="0.464844"/><stop stop-opacity="1" stop-color="rgb(0%, 39.276123%, 100%)" offset="0.46875"/><stop stop-opacity="1" stop-color="rgb(0%, 39.826965%, 100%)" offset="0.472656"/><stop stop-opacity="1" stop-color="rgb(0%, 40.379333%, 100%)" offset="0.476562"/><stop stop-opacity="1" stop-color="rgb(0%, 40.930176%, 100%)" offset="0.480469"/><stop stop-opacity="1" stop-color="rgb(0%, 41.482544%, 100%)" offset="0.484375"/><stop stop-opacity="1" stop-color="rgb(0%, 42.033386%, 100%)" offset="0.488281"/><stop stop-opacity="1" stop-color="rgb(0%, 42.584229%, 100%)" offset="0.492188"/><stop stop-opacity="1" stop-color="rgb(0%, 43.135071%, 100%)" offset="0.496094"/><stop stop-opacity="1" stop-color="rgb(0%, 43.687439%, 100%)" offset="0.5"/><stop stop-opacity="1" stop-color="rgb(0%, 44.238281%, 100%)" offset="0.503906"/><stop stop-opacity="1" stop-color="rgb(0%, 44.790649%, 100%)" offset="0.507812"/><stop stop-opacity="1" stop-color="rgb(0%, 45.341492%, 100%)" offset="0.511719"/><stop stop-opacity="1" stop-color="rgb(0%, 45.892334%, 100%)" offset="0.515625"/><stop stop-opacity="1" stop-color="rgb(0%, 46.443176%, 100%)" offset="0.519531"/><stop stop-opacity="1" stop-color="rgb(0%, 46.995544%, 100%)" offset="0.523438"/><stop stop-opacity="1" stop-color="rgb(0%, 47.546387%, 100%)" offset="0.527344"/><stop stop-opacity="1" stop-color="rgb(0%, 48.098755%, 100%)" offset="0.53125"/><stop stop-opacity="1" stop-color="rgb(0%, 48.649597%, 100%)" offset="0.535156"/><stop stop-opacity="1" stop-color="rgb(0%, 49.200439%, 100%)" offset="0.539062"/><stop stop-opacity="1" stop-color="rgb(0%, 49.751282%, 100%)" offset="0.542969"/><stop stop-opacity="1" stop-color="rgb(0%, 50.30365%, 100%)" offset="0.546875"/><stop stop-opacity="1" stop-color="rgb(0%, 50.854492%, 100%)" offset="0.550781"/><stop stop-opacity="1" stop-color="rgb(0%, 51.40686%, 100%)" offset="0.554688"/><stop stop-opacity="1" stop-color="rgb(0%, 51.957703%, 100%)" offset="0.558594"/><stop stop-opacity="1" stop-color="rgb(0%, 52.508545%, 100%)" offset="0.5625"/><stop stop-opacity="1" stop-color="rgb(0%, 53.059387%, 100%)" offset="0.566406"/><stop stop-opacity="1" stop-color="rgb(0%, 53.611755%, 100%)" offset="0.570312"/><stop stop-opacity="1" stop-color="rgb(0%, 54.162598%, 100%)" offset="0.574219"/><stop stop-opacity="1" stop-color="rgb(0%, 54.714966%, 100%)" offset="0.578125"/><stop stop-opacity="1" stop-color="rgb(0%, 55.265808%, 100%)" offset="0.582031"/><stop stop-opacity="1" stop-color="rgb(0%, 55.81665%, 100%)" offset="0.585938"/><stop stop-opacity="1" stop-color="rgb(0%, 56.367493%, 100%)" offset="0.589844"/><stop stop-opacity="1" stop-color="rgb(0%, 56.919861%, 100%)" offset="0.59375"/><stop stop-opacity="1" stop-color="rgb(0%, 57.470703%, 100%)" offset="0.597656"/><stop stop-opacity="1" stop-color="rgb(0%, 58.023071%, 100%)" offset="0.601562"/><stop stop-opacity="1" stop-color="rgb(0%, 58.573914%, 100%)" offset="0.605469"/><stop stop-opacity="1" stop-color="rgb(0%, 59.126282%, 100%)" offset="0.609375"/><stop stop-opacity="1" stop-color="rgb(0%, 59.677124%, 100%)" offset="0.613281"/><stop stop-opacity="1" stop-color="rgb(0%, 60.227966%, 100%)" offset="0.617188"/><stop stop-opacity="1" stop-color="rgb(0%, 60.778809%, 100%)" offset="0.621094"/><stop stop-opacity="1" stop-color="rgb(0%, 61.331177%, 100%)" offset="0.625"/><stop stop-opacity="1" stop-color="rgb(0%, 61.882019%, 100%)" offset="0.628906"/><stop stop-opacity="1" stop-color="rgb(0%, 62.434387%, 100%)" offset="0.632812"/><stop stop-opacity="1" stop-color="rgb(0%, 62.985229%, 100%)" offset="0.636719"/><stop stop-opacity="1" stop-color="rgb(0%, 63.536072%, 100%)" offset="0.640625"/><stop stop-opacity="1" stop-color="rgb(0%, 64.086914%, 100%)" offset="0.644531"/><stop stop-opacity="1" stop-color="rgb(0%, 64.639282%, 100%)" offset="0.648438"/><stop stop-opacity="1" stop-color="rgb(0%, 65.190125%, 100%)" offset="0.652344"/><stop stop-opacity="1" stop-color="rgb(0%, 65.742493%, 100%)" offset="0.65625"/><stop stop-opacity="1" stop-color="rgb(0%, 66.293335%, 100%)" offset="0.660156"/><stop stop-opacity="1" stop-color="rgb(0%, 66.844177%, 100%)" offset="0.664062"/><stop stop-opacity="1" stop-color="rgb(0%, 67.39502%, 100%)" offset="0.667969"/><stop stop-opacity="1" stop-color="rgb(0%, 67.947388%, 100%)" offset="0.671875"/><stop stop-opacity="1" stop-color="rgb(0%, 68.49823%, 100%)" offset="0.675781"/><stop stop-opacity="1" stop-color="rgb(0%, 69.050598%, 100%)" offset="0.679688"/><stop stop-opacity="1" stop-color="rgb(0%, 69.60144%, 100%)" offset="0.683594"/><stop stop-opacity="1" stop-color="rgb(0%, 70.152283%, 100%)" offset="0.6875"/><stop stop-opacity="1" stop-color="rgb(0%, 70.703125%, 100%)" offset="0.691406"/><stop stop-opacity="1" stop-color="rgb(0%, 71.255493%, 100%)" offset="0.695312"/><stop stop-opacity="1" stop-color="rgb(0%, 71.806335%, 100%)" offset="0.699219"/><stop stop-opacity="1" stop-color="rgb(0%, 72.358704%, 100%)" offset="0.703125"/><stop stop-opacity="1" stop-color="rgb(0%, 72.909546%, 100%)" offset="0.707031"/><stop stop-opacity="1" stop-color="rgb(0%, 73.460388%, 100%)" offset="0.710938"/><stop stop-opacity="1" stop-color="rgb(0%, 74.01123%, 100%)" offset="0.714844"/><stop stop-opacity="1" stop-color="rgb(0%, 74.563599%, 100%)" offset="0.71875"/><stop stop-opacity="1" stop-color="rgb(0%, 75.114441%, 100%)" offset="0.722656"/><stop stop-opacity="1" stop-color="rgb(0%, 75.666809%, 100%)" offset="0.726562"/><stop stop-opacity="1" stop-color="rgb(0%, 75.881958%, 100%)" offset="0.730469"/><stop stop-opacity="1" stop-color="rgb(0%, 76.098633%, 100%)" offset="0.734375"/><stop stop-opacity="1" stop-color="rgb(0%, 76.098633%, 100%)" offset="0.75"/><stop stop-opacity="1" stop-color="rgb(0%, 76.098633%, 100%)" offset="1"/></linearGradient></defs><g clip-path="url(#1c0d0e1eba)"><g clip-path="url(#299cd4c0c7)"><g clip-path="url(#dc41280653)"><g clip-path="url(#9f2c9be05d)"><path fill="url(#02304c5df5)" d="M 110.289062 135.300781 L 110.289062 252.785156 L 184.621094 252.785156 L 184.621094 135.300781 Z M 110.289062 135.300781 " fill-rule="nonzero"/></g></g></g></g><g clip-path="url(#0c194298f6)"><g clip-path="url(#a6b3882348)"><g clip-path="url(#c90e1cdb5b)"><g clip-path="url(#e1d3fc941e)"><path fill="url(#ffe537ed7a)" d="M 224.367188 135.179688 L 224.367188 179.480469 L 286.828125 179.480469 L 286.828125 135.179688 Z M 224.367188 135.179688 " fill-rule="nonzero"/></g></g></g></g><g clip-path="url(#30d04bc1dc)"><g clip-path="url(#bb5a7bb7c0)"><g clip-path="url(#b0a69a0930)"><g clip-path="url(#8099d86b74)"><path fill="url(#9ce87ba644)" d="M 198.007812 282.121094 L 319 161.132812 L 198.007812 40.144531 L 77.019531 161.132812 Z M 198.007812 282.121094 " fill-rule="nonzero"/></g></g></g></g></svg>