<svg xmlns="http://www.w3.org/2000/svg" xmlns:xlink="http://www.w3.org/1999/xlink" width="500" zoomAndPan="magnify" viewBox="0 0 375 374.999991" height="500" preserveAspectRatio="xMidYMid meet" version="1.0"><defs><clipPath id="d3789c1d02"><path d="M 57 133 L 183 133 L 183 332 L 57 332 Z M 57 133 " clip-rule="nonzero"/></clipPath><clipPath id="746fdce6ac"><path d="M 136.113281 351.632812 L 16.675781 232.195312 L 148.554688 100.320312 L 267.988281 219.753906 Z M 136.113281 351.632812 " clip-rule="nonzero"/></clipPath><clipPath id="8fd2f39fdf"><path d="M 136.113281 351.632812 L 16.675781 232.195312 L 148.554688 100.320312 L 267.988281 219.753906 Z M 136.113281 351.632812 " clip-rule="nonzero"/></clipPath><clipPath id="2313472bb9"><path d="M 111.339844 187.398438 C 110.230469 188.503906 109.164062 189.652344 108.140625 190.839844 C 107.117188 192.027344 106.136719 193.25 105.203125 194.511719 C 104.269531 195.769531 103.382812 197.0625 102.542969 198.386719 C 101.703125 199.710938 100.914062 201.066406 100.175781 202.449219 C 99.4375 203.832031 98.75 205.238281 98.113281 206.671875 C 97.480469 208.105469 96.898438 209.558594 96.367188 211.035156 C 95.839844 212.511719 95.367188 214.007812 94.949219 215.519531 C 94.53125 217.027344 94.167969 218.554688 93.863281 220.089844 C 93.554688 221.628906 93.308594 223.175781 93.117188 224.734375 C 92.921875 226.289062 92.789062 227.851562 92.710938 229.417969 C 92.636719 230.984375 92.617188 232.550781 92.652344 234.117188 C 92.691406 235.683594 92.789062 237.25 92.941406 238.808594 C 93.097656 240.371094 93.308594 241.921875 93.574219 243.46875 C 93.84375 245.011719 94.167969 246.542969 94.546875 248.066406 C 94.929688 249.585938 95.367188 251.09375 95.859375 252.582031 C 96.347656 254.070312 96.894531 255.539062 97.496094 256.988281 C 98.097656 258.4375 98.75 259.859375 99.453125 261.261719 C 100.160156 262.660156 100.914062 264.035156 101.71875 265.378906 C 102.527344 266.722656 103.382812 268.039062 104.285156 269.320312 C 105.1875 270.601562 106.136719 271.847656 107.128906 273.058594 C 108.125 274.273438 109.164062 275.445312 110.246094 276.582031 C 111.324219 277.71875 112.449219 278.8125 113.609375 279.863281 C 114.769531 280.917969 115.96875 281.925781 117.207031 282.890625 C 118.441406 283.855469 119.710938 284.773438 121.015625 285.644531 C 122.320312 286.515625 123.65625 287.335938 125.019531 288.109375 C 126.382812 288.882812 127.773438 289.605469 129.191406 290.273438 C 130.609375 290.945312 132.050781 291.5625 133.511719 292.125 C 134.976562 292.691406 136.457031 293.199219 137.957031 293.65625 C 139.457031 294.109375 140.972656 294.507812 142.503906 294.851562 C 144.035156 295.195312 145.574219 295.484375 147.125 295.710938 C 148.675781 295.941406 150.234375 296.113281 151.796875 296.230469 C 153.359375 296.34375 154.925781 296.402344 156.496094 296.402344 L 156.492188 291.777344 C 154.550781 291.773438 152.617188 291.679688 150.683594 291.488281 C 148.753906 291.300781 146.835938 291.015625 144.933594 290.636719 C 143.03125 290.257812 141.152344 289.785156 139.296875 289.222656 C 137.441406 288.660156 135.617188 288.003906 133.824219 287.261719 C 132.03125 286.519531 130.28125 285.691406 128.570312 284.777344 C 126.859375 283.859375 125.195312 282.863281 123.582031 281.785156 C 121.96875 280.707031 120.414062 279.554688 118.914062 278.324219 C 117.414062 277.09375 115.980469 275.789062 114.609375 274.417969 C 113.238281 273.046875 111.933594 271.609375 110.703125 270.109375 C 109.472656 268.609375 108.320312 267.054688 107.242188 265.441406 C 106.164062 263.828125 105.167969 262.164062 104.253906 260.453125 C 103.339844 258.742188 102.511719 256.992188 101.769531 255.199219 C 101.027344 253.40625 100.375 251.582031 99.8125 249.726562 C 99.25 247.867188 98.78125 245.988281 98.402344 244.085938 C 98.023438 242.183594 97.738281 240.265625 97.550781 238.335938 C 97.359375 236.40625 97.265625 234.46875 97.265625 232.527344 C 97.265625 230.589844 97.363281 228.652344 97.550781 226.722656 C 97.742188 224.792969 98.027344 222.875 98.40625 220.972656 C 98.785156 219.070312 99.257812 217.191406 99.820312 215.335938 C 100.382812 213.476562 101.035156 211.652344 101.777344 209.863281 C 102.523438 208.070312 103.351562 206.316406 104.265625 204.605469 C 105.179688 202.894531 106.175781 201.234375 107.253906 199.621094 C 108.332031 198.007812 109.488281 196.453125 110.71875 194.953125 C 111.949219 193.453125 113.25 192.019531 114.625 190.644531 C 115.996094 189.273438 117.429688 187.972656 118.929688 186.742188 C 120.429688 185.511719 121.988281 184.359375 123.601562 183.28125 C 125.214844 182.203125 126.875 181.207031 128.585938 180.292969 C 130.300781 179.378906 132.050781 178.550781 133.84375 177.808594 C 135.636719 177.066406 137.460938 176.414062 139.316406 175.851562 C 141.171875 175.289062 143.054688 174.820312 144.957031 174.441406 C 146.859375 174.0625 148.777344 173.777344 150.707031 173.589844 C 152.636719 173.398438 154.574219 173.304688 156.511719 173.304688 L 182.648438 173.304688 L 182.644531 168.675781 L 156.507812 168.710938 C 152.3125 168.699219 148.15625 169.097656 144.042969 169.90625 C 139.925781 170.71875 135.929688 171.925781 132.050781 173.527344 C 128.175781 175.132812 124.496094 177.101562 121.007812 179.433594 C 117.523438 181.769531 114.300781 184.421875 111.339844 187.398438 Z M 127.726562 203.78125 C 126.3125 205.199219 125.007812 206.707031 123.816406 208.316406 C 122.625 209.921875 121.558594 211.609375 120.617188 213.371094 C 119.671875 215.136719 118.863281 216.960938 118.191406 218.84375 C 117.515625 220.726562 116.984375 222.648438 116.59375 224.613281 C 116.203125 226.574219 115.960938 228.554688 115.863281 230.554688 C 115.761719 232.550781 115.8125 234.546875 116.007812 236.535156 C 116.203125 238.527344 116.546875 240.492188 117.03125 242.433594 C 117.515625 244.375 118.144531 246.269531 118.910156 248.117188 C 119.675781 249.964844 120.570312 251.746094 121.597656 253.464844 C 122.628906 255.179688 123.777344 256.8125 125.046875 258.355469 C 126.316406 259.902344 127.691406 261.347656 129.171875 262.691406 C 130.65625 264.035156 132.226562 265.261719 133.890625 266.375 C 135.554688 267.488281 137.289062 268.46875 139.097656 269.324219 C 140.90625 270.179688 142.769531 270.898438 144.683594 271.480469 C 146.597656 272.0625 148.542969 272.5 150.523438 272.792969 C 152.5 273.085938 154.492188 273.234375 156.492188 273.234375 L 156.492188 268.601562 C 155.308594 268.601562 154.132812 268.546875 152.957031 268.429688 C 151.78125 268.3125 150.613281 268.140625 149.457031 267.910156 C 148.296875 267.679688 147.152344 267.394531 146.023438 267.050781 C 144.890625 266.710938 143.78125 266.3125 142.691406 265.859375 C 141.597656 265.410156 140.53125 264.90625 139.492188 264.347656 C 138.449219 263.792969 137.4375 263.183594 136.453125 262.53125 C 135.472656 261.875 134.523438 261.171875 133.613281 260.421875 C 132.699219 259.671875 131.824219 258.878906 130.988281 258.046875 C 130.15625 257.210938 129.363281 256.335938 128.613281 255.421875 C 127.863281 254.511719 127.160156 253.5625 126.503906 252.582031 C 125.847656 251.597656 125.242188 250.585938 124.683594 249.546875 C 124.128906 248.503906 123.625 247.4375 123.171875 246.347656 C 122.71875 245.253906 122.320312 244.144531 121.980469 243.015625 C 121.636719 241.882812 121.351562 240.738281 121.121094 239.582031 C 120.890625 238.421875 120.714844 237.257812 120.601562 236.082031 C 120.484375 234.90625 120.425781 233.726562 120.425781 232.546875 C 120.425781 231.367188 120.484375 230.1875 120.601562 229.011719 C 120.714844 227.835938 120.890625 226.667969 121.121094 225.511719 C 121.351562 224.351562 121.636719 223.207031 121.980469 222.078125 C 122.324219 220.949219 122.722656 219.835938 123.171875 218.746094 C 123.625 217.65625 124.128906 216.589844 124.6875 215.546875 C 125.242188 214.507812 125.851562 213.496094 126.507812 212.511719 C 127.164062 211.53125 127.867188 210.582031 128.617188 209.671875 C 129.363281 208.757812 130.15625 207.882812 130.992188 207.046875 C 131.828125 206.214844 132.703125 205.421875 133.617188 204.671875 C 134.527344 203.921875 135.476562 203.222656 136.457031 202.566406 C 137.441406 201.910156 138.453125 201.304688 139.496094 200.746094 C 140.535156 200.191406 141.601562 199.6875 142.695312 199.234375 C 143.785156 198.78125 144.894531 198.386719 146.027344 198.042969 C 147.15625 197.703125 148.300781 197.414062 149.460938 197.183594 C 150.617188 196.953125 151.785156 196.78125 152.960938 196.667969 C 154.136719 196.550781 155.3125 196.496094 156.496094 196.496094 L 182.667969 196.496094 L 182.664062 191.867188 L 156.492188 191.867188 C 153.820312 191.859375 151.171875 192.117188 148.550781 192.632812 C 145.929688 193.152344 143.382812 193.921875 140.914062 194.945312 C 138.445312 195.96875 136.101562 197.222656 133.882812 198.710938 C 131.664062 200.199219 129.613281 201.886719 127.726562 203.78125 Z M 119.519531 195.574219 C 117.703125 197.390625 116.03125 199.332031 114.5 201.398438 C 112.972656 203.460938 111.601562 205.625 110.390625 207.890625 C 109.179688 210.15625 108.140625 212.5 107.277344 214.917969 C 106.414062 217.339844 105.730469 219.808594 105.230469 222.328125 C 104.726562 224.847656 104.414062 227.390625 104.289062 229.957031 C 104.164062 232.523438 104.226562 235.085938 104.476562 237.640625 C 104.730469 240.199219 105.167969 242.722656 105.792969 245.214844 C 106.414062 247.707031 107.21875 250.140625 108.203125 252.511719 C 109.183594 254.886719 110.335938 257.175781 111.65625 259.378906 C 112.976562 261.582031 114.453125 263.679688 116.082031 265.664062 C 117.710938 267.652344 119.476562 269.507812 121.378906 271.234375 C 123.28125 272.960938 125.300781 274.535156 127.4375 275.964844 C 129.570312 277.394531 131.800781 278.65625 134.121094 279.757812 C 136.445312 280.855469 138.835938 281.78125 141.292969 282.527344 C 143.75 283.273438 146.25 283.835938 148.792969 284.214844 C 151.332031 284.59375 153.886719 284.785156 156.457031 284.785156 L 156.492188 280.1875 C 154.957031 280.152344 153.425781 280.039062 151.898438 279.851562 C 150.375 279.667969 148.863281 279.40625 147.363281 279.074219 C 145.863281 278.742188 144.382812 278.339844 142.921875 277.863281 C 141.460938 277.390625 140.027344 276.84375 138.617188 276.230469 C 137.210938 275.617188 135.835938 274.933594 134.492188 274.1875 C 133.152344 273.441406 131.847656 272.628906 130.585938 271.757812 C 129.320312 270.882812 128.101562 269.953125 126.925781 268.960938 C 125.753906 267.96875 124.628906 266.925781 123.558594 265.824219 C 122.484375 264.726562 121.46875 263.578125 120.507812 262.378906 C 119.542969 261.179688 118.644531 259.941406 117.800781 258.65625 C 116.960938 257.371094 116.183594 256.046875 115.46875 254.6875 C 114.753906 253.324219 114.109375 251.933594 113.53125 250.511719 C 112.949219 249.089844 112.441406 247.640625 112.003906 246.167969 C 111.5625 244.695312 111.195312 243.207031 110.902344 241.699219 C 110.605469 240.191406 110.386719 238.671875 110.238281 237.144531 C 110.089844 235.617188 110.015625 234.082031 110.015625 232.546875 C 110.015625 231.011719 110.089844 229.476562 110.238281 227.949219 C 110.386719 226.417969 110.609375 224.902344 110.902344 223.394531 C 111.199219 221.886719 111.566406 220.398438 112.003906 218.925781 C 112.441406 217.453125 112.953125 216.003906 113.53125 214.582031 C 114.109375 213.160156 114.757812 211.769531 115.472656 210.40625 C 116.183594 209.046875 116.960938 207.722656 117.804688 206.4375 C 118.644531 205.152344 119.546875 203.914062 120.507812 202.714844 C 121.472656 201.515625 122.488281 200.367188 123.5625 199.269531 C 124.632812 198.167969 125.757812 197.125 126.929688 196.132812 C 128.105469 195.140625 129.324219 194.210938 130.585938 193.335938 C 131.851562 192.464844 133.15625 191.652344 134.496094 190.90625 C 135.839844 190.160156 137.214844 189.480469 138.621094 188.867188 C 140.03125 188.25 141.464844 187.707031 142.925781 187.230469 C 144.386719 186.757812 145.867188 186.351562 147.367188 186.019531 C 148.867188 185.6875 150.378906 185.429688 151.90625 185.242188 C 153.429688 185.058594 154.960938 184.945312 156.496094 184.90625 L 182.648438 184.90625 L 182.644531 180.28125 L 156.492188 180.28125 C 153.058594 180.273438 149.65625 180.601562 146.289062 181.265625 C 142.921875 181.933594 139.652344 182.921875 136.480469 184.234375 C 133.308594 185.550781 130.296875 187.164062 127.445312 189.074219 C 124.59375 190.984375 121.957031 193.15625 119.535156 195.59375 Z M 94.9375 170.992188 C 93.929688 172 92.949219 173.03125 91.992188 174.085938 C 91.035156 175.144531 90.105469 176.222656 89.203125 177.324219 C 88.300781 178.425781 87.425781 179.546875 86.578125 180.691406 C 85.730469 181.835938 84.910156 183 84.117188 184.183594 C 83.328125 185.371094 82.566406 186.574219 81.835938 187.792969 C 81.101562 189.015625 80.402344 190.253906 79.730469 191.511719 C 79.058594 192.769531 78.417969 194.039062 77.8125 195.328125 C 77.203125 196.617188 76.625 197.917969 76.082031 199.234375 C 75.535156 200.550781 75.023438 201.878906 74.546875 203.21875 C 74.066406 204.5625 73.621094 205.914062 73.207031 207.277344 C 72.792969 208.640625 72.414062 210.011719 72.066406 211.394531 C 71.722656 212.773438 71.410156 214.164062 71.132812 215.5625 C 70.855469 216.957031 70.613281 218.363281 70.40625 219.769531 C 70.195312 221.179688 70.023438 222.59375 69.882812 224.011719 C 69.742188 225.425781 69.640625 226.847656 69.570312 228.269531 C 69.5 229.691406 69.464844 231.117188 69.464844 232.539062 C 69.464844 233.964844 69.503906 235.386719 69.574219 236.8125 C 69.644531 238.234375 69.746094 239.652344 69.886719 241.070312 C 70.027344 242.488281 70.203125 243.902344 70.410156 245.308594 C 70.621094 246.71875 70.863281 248.121094 71.144531 249.519531 C 71.421875 250.914062 71.734375 252.304688 72.082031 253.6875 C 72.425781 255.066406 72.808594 256.441406 73.21875 257.804688 C 73.632812 259.164062 74.082031 260.519531 74.5625 261.859375 C 75.042969 263.199219 75.554688 264.527344 76.101562 265.84375 C 76.644531 267.160156 77.222656 268.460938 77.832031 269.75 C 78.441406 271.035156 79.082031 272.308594 79.753906 273.5625 C 80.425781 274.820312 81.128906 276.058594 81.859375 277.28125 C 82.59375 278.5 83.355469 279.703125 84.144531 280.886719 C 84.9375 282.074219 85.757812 283.234375 86.605469 284.378906 C 87.453125 285.523438 88.332031 286.644531 89.234375 287.746094 C 90.140625 288.847656 91.070312 289.925781 92.027344 290.980469 C 92.984375 292.035156 93.964844 293.066406 94.972656 294.074219 C 96.980469 296.097656 99.085938 298.015625 101.285156 299.828125 C 103.484375 301.640625 105.769531 303.34375 108.136719 304.929688 C 110.503906 306.519531 112.945312 307.984375 115.457031 309.332031 C 117.972656 310.675781 120.546875 311.894531 123.179688 312.988281 C 125.8125 314.078125 128.492188 315.039062 131.222656 315.863281 C 133.949219 316.691406 136.714844 317.382812 139.511719 317.933594 C 142.308594 318.488281 145.125 318.902344 147.960938 319.175781 C 150.800781 319.449219 153.644531 319.582031 156.496094 319.574219 L 156.472656 314.964844 C 155.125 314.964844 153.777344 314.933594 152.429688 314.867188 C 151.082031 314.800781 149.738281 314.703125 148.398438 314.570312 C 147.054688 314.4375 145.71875 314.273438 144.382812 314.074219 C 143.050781 313.875 141.722656 313.644531 140.398438 313.382812 C 139.074219 313.121094 137.761719 312.824219 136.453125 312.496094 C 135.144531 312.167969 133.84375 311.808594 132.554688 311.417969 C 131.265625 311.027344 129.984375 310.601562 128.714844 310.148438 C 127.445312 309.695312 126.1875 309.210938 124.941406 308.695312 C 123.695312 308.175781 122.464844 307.632812 121.246094 307.054688 C 120.023438 306.476562 118.820312 305.871094 117.632812 305.234375 C 116.441406 304.601562 115.269531 303.9375 114.113281 303.242188 C 112.957031 302.550781 111.816406 301.828125 110.695312 301.078125 C 109.574219 300.328125 108.472656 299.554688 107.390625 298.75 C 106.304688 297.945312 105.242188 297.117188 104.203125 296.261719 C 103.160156 295.40625 102.136719 294.527344 101.140625 293.621094 C 100.140625 292.714844 99.164062 291.785156 98.210938 290.832031 C 97.257812 289.878906 96.328125 288.902344 95.421875 287.902344 C 94.515625 286.902344 93.636719 285.882812 92.78125 284.839844 C 91.925781 283.796875 91.09375 282.734375 90.292969 281.652344 C 89.488281 280.570312 88.710938 279.464844 87.960938 278.34375 C 87.214844 277.222656 86.492188 276.085938 85.800781 274.929688 C 85.105469 273.773438 84.441406 272.597656 83.804688 271.410156 C 83.167969 270.21875 82.5625 269.015625 81.988281 267.796875 C 81.410156 266.578125 80.863281 265.347656 80.347656 264.101562 C 79.832031 262.855469 79.347656 261.597656 78.894531 260.328125 C 78.4375 259.058594 78.015625 257.777344 77.625 256.488281 C 77.234375 255.195312 76.871094 253.898438 76.546875 252.589844 C 76.21875 251.28125 75.921875 249.964844 75.660156 248.644531 C 75.394531 247.320312 75.164062 245.992188 74.96875 244.660156 C 74.769531 243.324219 74.605469 241.988281 74.472656 240.644531 C 74.339844 239.300781 74.242188 237.957031 74.175781 236.609375 C 74.109375 235.265625 74.074219 233.917969 74.074219 232.566406 C 74.074219 231.21875 74.109375 229.871094 74.175781 228.523438 C 74.242188 227.179688 74.339844 225.832031 74.472656 224.492188 C 74.605469 223.148438 74.769531 221.8125 74.96875 220.476562 C 75.164062 219.144531 75.394531 217.816406 75.660156 216.492188 C 75.921875 215.167969 76.21875 213.855469 76.546875 212.546875 C 76.875 211.238281 77.234375 209.9375 77.625 208.648438 C 78.015625 207.359375 78.4375 206.078125 78.894531 204.808594 C 79.347656 203.539062 79.832031 202.28125 80.347656 201.035156 C 80.863281 199.789062 81.410156 198.554688 81.988281 197.335938 C 82.566406 196.117188 83.171875 194.914062 83.804688 193.722656 C 84.441406 192.535156 85.105469 191.363281 85.800781 190.207031 C 86.492188 189.050781 87.214844 187.910156 87.964844 186.789062 C 88.714844 185.667969 89.488281 184.566406 90.292969 183.480469 C 91.097656 182.398438 91.925781 181.335938 92.78125 180.292969 C 93.636719 179.25 94.515625 178.230469 95.421875 177.230469 C 96.328125 176.230469 97.257812 175.253906 98.210938 174.300781 C 99.164062 173.347656 100.140625 172.417969 101.140625 171.511719 C 102.140625 170.605469 103.160156 169.726562 104.203125 168.871094 C 105.246094 168.015625 106.308594 167.1875 107.390625 166.382812 C 108.476562 165.578125 109.578125 164.804688 110.699219 164.054688 C 111.820312 163.304688 112.957031 162.582031 114.117188 161.890625 C 115.273438 161.195312 116.445312 160.53125 117.632812 159.898438 C 118.824219 159.261719 120.027344 158.65625 121.246094 158.078125 C 122.464844 157.5 123.699219 156.957031 124.945312 156.4375 C 126.191406 155.921875 127.449219 155.4375 128.71875 154.984375 C 129.988281 154.527344 131.269531 154.105469 132.558594 153.714844 C 133.847656 153.324219 135.148438 152.964844 136.457031 152.636719 C 137.765625 152.308594 139.078125 152.011719 140.402344 151.75 C 141.726562 151.488281 143.054688 151.253906 144.386719 151.058594 C 145.722656 150.859375 147.058594 150.695312 148.402344 150.5625 C 149.742188 150.429688 151.085938 150.332031 152.433594 150.265625 C 153.78125 150.199219 155.128906 150.164062 156.476562 150.164062 L 182.605469 150.148438 L 182.601562 145.519531 L 156.492188 145.519531 C 153.640625 145.511719 150.796875 145.648438 147.957031 145.921875 C 145.117188 146.195312 142.300781 146.605469 139.503906 147.160156 C 136.707031 147.710938 133.945312 148.402344 131.214844 149.226562 C 128.484375 150.050781 125.804688 151.011719 123.167969 152.101562 C 120.535156 153.191406 117.960938 154.410156 115.449219 155.757812 C 112.933594 157.101562 110.492188 158.570312 108.125 160.15625 C 105.757812 161.746094 103.472656 163.445312 101.269531 165.257812 C 99.070312 167.070312 96.964844 168.988281 94.953125 171.011719 Z M 135.902344 211.957031 C 134.890625 212.96875 133.957031 214.050781 133.105469 215.199219 C 132.253906 216.347656 131.492188 217.554688 130.816406 218.816406 C 130.140625 220.078125 129.5625 221.382812 129.082031 222.730469 C 128.601562 224.074219 128.21875 225.453125 127.941406 226.855469 C 127.660156 228.257812 127.488281 229.675781 127.417969 231.101562 C 127.347656 232.53125 127.382812 233.957031 127.523438 235.382812 C 127.664062 236.804688 127.90625 238.210938 128.253906 239.601562 C 128.601562 240.988281 129.050781 242.34375 129.597656 243.664062 C 130.144531 244.988281 130.785156 246.261719 131.519531 247.488281 C 132.257812 248.714844 133.078125 249.882812 133.984375 250.988281 C 134.894531 252.09375 135.875 253.128906 136.9375 254.089844 C 137.996094 255.050781 139.121094 255.929688 140.3125 256.722656 C 141.5 257.519531 142.742188 258.222656 144.035156 258.832031 C 145.328125 259.445312 146.660156 259.960938 148.027344 260.375 C 149.398438 260.789062 150.789062 261.101562 152.203125 261.3125 C 153.621094 261.523438 155.042969 261.628906 156.472656 261.628906 L 156.476562 257.003906 C 155.675781 257.003906 154.878906 256.964844 154.078125 256.886719 C 153.28125 256.804688 152.492188 256.6875 151.703125 256.53125 C 150.917969 256.375 150.140625 256.183594 149.375 255.949219 C 148.609375 255.714844 147.855469 255.445312 147.113281 255.140625 C 146.375 254.832031 145.648438 254.492188 144.941406 254.113281 C 144.238281 253.734375 143.550781 253.324219 142.882812 252.878906 C 142.21875 252.433594 141.574219 251.957031 140.953125 251.449219 C 140.335938 250.941406 139.742188 250.402344 139.175781 249.835938 C 138.609375 249.269531 138.070312 248.675781 137.5625 248.058594 C 137.054688 247.4375 136.578125 246.792969 136.132812 246.128906 C 135.6875 245.460938 135.277344 244.773438 134.898438 244.066406 C 134.519531 243.363281 134.179688 242.636719 133.871094 241.898438 C 133.566406 241.15625 133.292969 240.402344 133.0625 239.636719 C 132.828125 238.871094 132.636719 238.09375 132.480469 237.308594 C 132.324219 236.519531 132.203125 235.730469 132.125 234.933594 C 132.046875 234.132812 132.007812 233.335938 132.007812 232.535156 C 132.007812 231.730469 132.046875 230.933594 132.125 230.136719 C 132.203125 229.335938 132.324219 228.546875 132.480469 227.761719 C 132.636719 226.972656 132.828125 226.199219 133.0625 225.429688 C 133.296875 224.664062 133.566406 223.910156 133.871094 223.167969 C 134.179688 222.429688 134.519531 221.707031 134.898438 221 C 135.277344 220.292969 135.6875 219.605469 136.132812 218.9375 C 136.578125 218.273438 137.054688 217.628906 137.5625 217.011719 C 138.070312 216.390625 138.609375 215.796875 139.175781 215.230469 C 139.742188 214.664062 140.335938 214.125 140.953125 213.617188 C 141.574219 213.109375 142.21875 212.632812 142.882812 212.1875 C 143.550781 211.742188 144.238281 211.332031 144.941406 210.953125 C 145.648438 210.574219 146.375 210.234375 147.113281 209.925781 C 147.855469 209.621094 148.609375 209.351562 149.375 209.117188 C 150.140625 208.886719 150.917969 208.691406 151.703125 208.535156 C 152.492188 208.378906 153.28125 208.261719 154.078125 208.183594 C 154.878906 208.101562 155.675781 208.0625 156.476562 208.0625 L 182.667969 208.097656 L 182.652344 203.472656 L 156.472656 203.472656 C 154.566406 203.464844 152.671875 203.648438 150.800781 204.019531 C 148.929688 204.386719 147.109375 204.9375 145.34375 205.667969 C 143.582031 206.394531 141.90625 207.292969 140.320312 208.351562 C 138.734375 209.414062 137.265625 210.621094 135.917969 211.972656 Z M 103.132812 179.1875 C 101.820312 180.5 100.5625 181.855469 99.351562 183.257812 C 98.140625 184.660156 96.980469 186.105469 95.878906 187.59375 C 94.773438 189.082031 93.726562 190.609375 92.734375 192.171875 C 91.742188 193.738281 90.808594 195.339844 89.933594 196.972656 C 89.0625 198.605469 88.25 200.269531 87.496094 201.964844 C 86.746094 203.65625 86.058594 205.378906 85.433594 207.121094 C 84.808594 208.867188 84.25 210.632812 83.753906 212.417969 C 83.257812 214.203125 82.832031 216.003906 82.46875 217.824219 C 82.109375 219.640625 81.8125 221.46875 81.585938 223.308594 C 81.359375 225.144531 81.199219 226.992188 81.109375 228.84375 C 81.019531 230.691406 80.996094 232.542969 81.039062 234.398438 C 81.085938 236.25 81.199219 238.097656 81.378906 239.941406 C 81.5625 241.785156 81.8125 243.621094 82.128906 245.445312 C 82.445312 247.273438 82.828125 249.085938 83.277344 250.882812 C 83.730469 252.679688 84.246094 254.457031 84.824219 256.21875 C 85.40625 257.976562 86.050781 259.710938 86.761719 261.425781 C 87.472656 263.136719 88.242188 264.820312 89.074219 266.476562 C 89.910156 268.128906 90.800781 269.753906 91.753906 271.34375 C 92.707031 272.929688 93.71875 274.484375 94.785156 276 C 95.851562 277.511719 96.972656 278.988281 98.148438 280.417969 C 99.324219 281.851562 100.550781 283.238281 101.828125 284.582031 C 103.105469 285.921875 104.433594 287.214844 105.804688 288.460938 C 107.179688 289.703125 108.597656 290.894531 110.058594 292.035156 C 111.519531 293.175781 113.019531 294.257812 114.5625 295.289062 C 116.101562 296.316406 117.679688 297.289062 119.289062 298.203125 C 120.902344 299.113281 122.546875 299.96875 124.222656 300.757812 C 125.898438 301.550781 127.601562 302.28125 129.328125 302.945312 C 131.058594 303.613281 132.808594 304.214844 134.582031 304.753906 C 136.355469 305.289062 138.148438 305.761719 139.957031 306.167969 C 141.765625 306.570312 143.585938 306.910156 145.417969 307.179688 C 147.25 307.453125 149.089844 307.65625 150.9375 307.792969 C 152.789062 307.925781 154.636719 307.996094 156.492188 307.992188 L 156.492188 303.363281 C 155.339844 303.351562 154.1875 303.3125 153.035156 303.246094 C 151.886719 303.179688 150.738281 303.085938 149.59375 302.964844 C 148.445312 302.839844 147.304688 302.691406 146.164062 302.511719 C 145.027344 302.332031 143.894531 302.128906 142.765625 301.894531 C 141.636719 301.660156 140.515625 301.398438 139.398438 301.109375 C 138.285156 300.824219 137.175781 300.507812 136.074219 300.164062 C 134.976562 299.820312 133.882812 299.453125 132.800781 299.058594 C 131.71875 298.660156 130.648438 298.238281 129.585938 297.792969 C 128.523438 297.34375 127.472656 296.871094 126.433594 296.371094 C 125.394531 295.871094 124.371094 295.347656 123.359375 294.796875 C 122.34375 294.246094 121.347656 293.671875 120.359375 293.074219 C 119.375 292.476562 118.40625 291.855469 117.453125 291.210938 C 116.496094 290.5625 115.558594 289.894531 114.636719 289.203125 C 113.714844 288.511719 112.808594 287.796875 111.921875 287.0625 C 111.035156 286.328125 110.167969 285.570312 109.316406 284.792969 C 108.46875 284.015625 107.636719 283.214844 106.824219 282.398438 C 106.015625 281.578125 105.222656 280.742188 104.453125 279.886719 C 103.683594 279.027344 102.933594 278.152344 102.207031 277.257812 C 101.480469 276.363281 100.773438 275.453125 100.089844 274.527344 C 99.40625 273.597656 98.746094 272.652344 98.109375 271.691406 C 97.472656 270.734375 96.859375 269.757812 96.269531 268.765625 C 95.679688 267.777344 95.117188 266.773438 94.574219 265.753906 C 94.035156 264.738281 93.519531 263.707031 93.03125 262.664062 C 92.539062 261.621094 92.074219 260.566406 91.636719 259.5 C 91.199219 258.433594 90.785156 257.359375 90.402344 256.273438 C 90.015625 255.1875 89.65625 254.09375 89.324219 252.988281 C 88.988281 251.886719 88.683594 250.777344 88.40625 249.65625 C 88.128906 248.539062 87.875 247.414062 87.652344 246.285156 C 87.429688 245.152344 87.234375 244.019531 87.066406 242.878906 C 86.898438 241.738281 86.757812 240.59375 86.644531 239.449219 C 86.53125 238.300781 86.449219 237.152344 86.390625 236 C 86.335938 234.851562 86.308594 233.699219 86.308594 232.546875 C 86.308594 231.394531 86.335938 230.242188 86.390625 229.089844 C 86.449219 227.941406 86.53125 226.792969 86.644531 225.644531 C 86.757812 224.496094 86.898438 223.355469 87.066406 222.214844 C 87.234375 221.074219 87.429688 219.9375 87.652344 218.808594 C 87.878906 217.679688 88.128906 216.554688 88.40625 215.433594 C 88.683594 214.316406 88.992188 213.207031 89.324219 212.101562 C 89.65625 211 90.015625 209.90625 90.402344 208.820312 C 90.789062 207.734375 91.199219 206.65625 91.640625 205.59375 C 92.078125 204.527344 92.542969 203.472656 93.03125 202.429688 C 93.523438 201.386719 94.039062 200.355469 94.578125 199.339844 C 95.117188 198.320312 95.683594 197.316406 96.273438 196.324219 C 96.863281 195.335938 97.476562 194.359375 98.113281 193.402344 C 98.75 192.441406 99.410156 191.496094 100.09375 190.566406 C 100.777344 189.640625 101.480469 188.730469 102.210938 187.835938 C 102.9375 186.941406 103.6875 186.066406 104.457031 185.210938 C 105.226562 184.351562 106.015625 183.515625 106.828125 182.695312 C 107.640625 181.878906 108.46875 181.078125 109.320312 180.300781 C 110.171875 179.523438 111.039062 178.765625 111.925781 178.03125 C 112.8125 177.296875 113.71875 176.582031 114.640625 175.890625 C 115.5625 175.199219 116.5 174.53125 117.457031 173.886719 C 118.410156 173.242188 119.378906 172.617188 120.363281 172.019531 C 121.347656 171.421875 122.347656 170.847656 123.363281 170.296875 C 124.375 169.75 125.398438 169.226562 126.4375 168.726562 C 127.476562 168.226562 128.527344 167.753906 129.589844 167.304688 C 130.652344 166.855469 131.722656 166.433594 132.804688 166.039062 C 133.886719 165.644531 134.980469 165.273438 136.078125 164.929688 C 137.179688 164.589844 138.289062 164.273438 139.402344 163.984375 C 140.519531 163.695312 141.640625 163.4375 142.769531 163.203125 C 143.898438 162.96875 145.03125 162.761719 146.171875 162.585938 C 147.308594 162.40625 148.449219 162.253906 149.597656 162.132812 C 150.742188 162.011719 151.890625 161.917969 153.042969 161.851562 C 154.191406 161.785156 155.34375 161.746094 156.496094 161.734375 L 182.621094 161.738281 L 182.609375 157.109375 L 156.492188 157.109375 C 154.019531 157.101562 151.554688 157.21875 149.09375 157.453125 C 146.632812 157.691406 144.191406 158.050781 141.765625 158.527344 C 139.339844 159.007812 136.945312 159.605469 134.582031 160.320312 C 132.214844 161.039062 129.890625 161.867188 127.605469 162.8125 C 125.324219 163.761719 123.09375 164.816406 120.914062 165.984375 C 118.734375 167.148438 116.617188 168.421875 114.566406 169.796875 C 112.511719 171.171875 110.53125 172.648438 108.625 174.21875 C 106.71875 175.789062 104.894531 177.453125 103.148438 179.207031 Z M 57.878906 232.546875 C 57.878906 234.160156 57.917969 235.773438 57.996094 237.386719 C 58.078125 238.996094 58.195312 240.605469 58.351562 242.210938 C 58.511719 243.820312 58.707031 245.421875 58.945312 247.015625 C 59.183594 248.613281 59.457031 250.203125 59.773438 251.785156 C 60.085938 253.367188 60.441406 254.941406 60.832031 256.507812 C 61.226562 258.074219 61.65625 259.628906 62.125 261.175781 C 62.59375 262.71875 63.097656 264.25 63.640625 265.769531 C 64.1875 267.289062 64.765625 268.796875 65.382812 270.285156 C 66 271.777344 66.65625 273.253906 67.34375 274.710938 C 68.035156 276.171875 68.761719 277.613281 69.523438 279.035156 C 70.28125 280.457031 71.078125 281.863281 71.90625 283.246094 C 72.738281 284.632812 73.601562 285.996094 74.496094 287.335938 C 75.394531 288.679688 76.324219 289.996094 77.285156 291.292969 C 78.246094 292.589844 79.238281 293.863281 80.261719 295.109375 C 81.285156 296.355469 82.339844 297.578125 83.421875 298.773438 C 84.507812 299.972656 85.621094 301.140625 86.761719 302.28125 C 87.902344 303.421875 89.070312 304.535156 90.265625 305.617188 C 91.460938 306.703125 92.683594 307.757812 93.933594 308.78125 C 95.179688 309.804688 96.453125 310.796875 97.746094 311.757812 C 99.042969 312.71875 100.363281 313.648438 101.707031 314.542969 C 103.046875 315.441406 104.410156 316.304688 105.796875 317.132812 C 107.179688 317.964844 108.582031 318.757812 110.007812 319.519531 C 111.429688 320.28125 112.871094 321.007812 114.332031 321.695312 C 115.789062 322.386719 117.265625 323.039062 118.753906 323.65625 C 120.246094 324.273438 121.75 324.855469 123.273438 325.398438 C 124.792969 325.941406 126.324219 326.449219 127.867188 326.917969 C 129.414062 327.386719 130.96875 327.816406 132.53125 328.207031 C 134.097656 328.601562 135.671875 328.953125 137.253906 329.269531 C 138.839844 329.582031 140.429688 329.859375 142.023438 330.097656 C 143.621094 330.332031 145.222656 330.53125 146.828125 330.6875 C 148.433594 330.847656 150.042969 330.964844 151.65625 331.042969 C 153.269531 331.125 154.882812 331.164062 156.496094 331.164062 L 156.492188 326.535156 C 154.953125 326.535156 153.414062 326.5 151.878906 326.421875 C 150.34375 326.347656 148.808594 326.234375 147.277344 326.082031 C 145.746094 325.933594 144.222656 325.746094 142.699219 325.519531 C 141.179688 325.292969 139.664062 325.03125 138.15625 324.730469 C 136.644531 324.429688 135.144531 324.09375 133.652344 323.71875 C 132.160156 323.347656 130.679688 322.9375 129.207031 322.488281 C 127.734375 322.042969 126.277344 321.5625 124.828125 321.042969 C 123.378906 320.523438 121.945312 319.972656 120.523438 319.382812 C 119.101562 318.792969 117.695312 318.171875 116.304688 317.515625 C 114.914062 316.855469 113.542969 316.164062 112.183594 315.441406 C 110.828125 314.714844 109.492188 313.957031 108.171875 313.167969 C 106.851562 312.375 105.554688 311.554688 104.273438 310.699219 C 102.996094 309.84375 101.738281 308.957031 100.503906 308.042969 C 99.265625 307.125 98.054688 306.179688 96.867188 305.203125 C 95.675781 304.226562 94.511719 303.222656 93.371094 302.191406 C 92.234375 301.15625 91.121094 300.097656 90.03125 299.011719 C 88.945312 297.921875 87.882812 296.808594 86.851562 295.667969 C 85.816406 294.53125 84.8125 293.363281 83.835938 292.175781 C 82.863281 290.988281 81.914062 289.773438 81 288.539062 C 80.082031 287.304688 79.199219 286.046875 78.34375 284.769531 C 77.488281 283.488281 76.667969 282.191406 75.875 280.871094 C 75.085938 279.550781 74.328125 278.210938 73.601562 276.855469 C 72.875 275.5 72.183594 274.125 71.527344 272.734375 C 70.871094 271.34375 70.246094 269.9375 69.660156 268.519531 C 69.070312 267.097656 68.515625 265.664062 68 264.214844 C 67.480469 262.765625 66.996094 261.304688 66.550781 259.832031 C 66.105469 258.363281 65.695312 256.878906 65.320312 255.386719 C 64.949219 253.894531 64.609375 252.394531 64.3125 250.886719 C 64.011719 249.378906 63.746094 247.863281 63.523438 246.339844 C 63.296875 244.820312 63.109375 243.292969 62.957031 241.761719 C 62.808594 240.230469 62.695312 238.699219 62.617188 237.164062 C 62.542969 235.625 62.507812 234.089844 62.507812 232.550781 C 62.507812 231.011719 62.542969 229.476562 62.617188 227.9375 C 62.695312 226.402344 62.808594 224.867188 62.957031 223.339844 C 63.109375 221.808594 63.296875 220.28125 63.523438 218.757812 C 63.75 217.238281 64.011719 215.722656 64.3125 214.214844 C 64.609375 212.707031 64.949219 211.203125 65.320312 209.710938 C 65.695312 208.21875 66.105469 206.738281 66.550781 205.265625 C 67 203.792969 67.480469 202.335938 68 200.886719 C 68.515625 199.4375 69.070312 198.003906 69.660156 196.582031 C 70.246094 195.160156 70.871094 193.753906 71.527344 192.363281 C 72.1875 190.972656 72.878906 189.601562 73.601562 188.242188 C 74.328125 186.886719 75.085938 185.550781 75.875 184.230469 C 76.667969 182.910156 77.488281 181.609375 78.34375 180.332031 C 79.199219 179.054688 80.085938 177.796875 81 176.558594 C 81.917969 175.324219 82.863281 174.113281 83.839844 172.921875 C 84.816406 171.734375 85.820312 170.570312 86.851562 169.429688 C 87.886719 168.289062 88.945312 167.175781 90.035156 166.089844 C 91.121094 165 92.234375 163.941406 93.375 162.90625 C 94.515625 161.875 95.679688 160.871094 96.867188 159.894531 C 98.058594 158.917969 99.269531 157.972656 100.503906 157.054688 C 101.738281 156.140625 102.996094 155.253906 104.277344 154.398438 C 105.554688 153.546875 106.855469 152.722656 108.175781 151.933594 C 109.492188 151.140625 110.832031 150.382812 112.1875 149.660156 C 113.542969 148.933594 114.917969 148.242188 116.308594 147.585938 C 117.699219 146.925781 119.105469 146.304688 120.527344 145.714844 C 121.949219 145.125 123.382812 144.574219 124.832031 144.054688 C 126.277344 143.535156 127.738281 143.054688 129.210938 142.609375 C 130.683594 142.160156 132.164062 141.75 133.65625 141.378906 C 135.148438 141.003906 136.648438 140.667969 138.160156 140.367188 C 139.667969 140.066406 141.183594 139.804688 142.703125 139.578125 C 144.226562 139.351562 145.75 139.164062 147.28125 139.015625 C 148.8125 138.863281 150.347656 138.75 151.882812 138.675781 C 153.417969 138.597656 154.957031 138.5625 156.496094 138.5625 L 182.589844 138.5625 L 182.585938 133.933594 L 156.492188 133.933594 C 154.878906 133.933594 153.265625 133.972656 151.652344 134.054688 C 150.039062 134.132812 148.429688 134.25 146.824219 134.410156 C 145.21875 134.566406 143.617188 134.765625 142.023438 135.003906 C 140.425781 135.238281 138.835938 135.515625 137.253906 135.832031 C 135.671875 136.144531 134.097656 136.5 132.53125 136.890625 C 130.964844 137.28125 129.410156 137.714844 127.867188 138.183594 C 126.320312 138.648438 124.789062 139.15625 123.269531 139.699219 C 121.75 140.242188 120.246094 140.824219 118.753906 141.441406 C 117.261719 142.058594 115.789062 142.714844 114.328125 143.402344 C 112.871094 144.09375 111.429688 144.820312 110.007812 145.578125 C 108.582031 146.339844 107.179688 147.136719 105.796875 147.964844 C 104.410156 148.796875 103.046875 149.660156 101.707031 150.554688 C 100.363281 151.453125 99.046875 152.378906 97.75 153.34375 C 96.453125 154.304688 95.179688 155.296875 93.933594 156.320312 C 92.6875 157.34375 91.464844 158.398438 90.269531 159.480469 C 89.074219 160.566406 87.902344 161.675781 86.761719 162.820312 C 85.621094 163.960938 84.507812 165.128906 83.425781 166.324219 C 82.339844 167.519531 81.289062 168.742188 80.265625 169.988281 C 79.242188 171.234375 78.246094 172.507812 77.285156 173.804688 C 76.324219 175.101562 75.394531 176.417969 74.5 177.761719 C 73.601562 179.101562 72.738281 180.464844 71.910156 181.851562 C 71.082031 183.234375 70.285156 184.636719 69.523438 186.0625 C 68.761719 187.484375 68.039062 188.925781 67.347656 190.386719 C 66.65625 191.84375 66.003906 193.320312 65.386719 194.808594 C 64.769531 196.300781 64.1875 197.804688 63.644531 199.324219 C 63.101562 200.84375 62.59375 202.378906 62.125 203.921875 C 61.65625 205.464844 61.226562 207.019531 60.835938 208.585938 C 60.441406 210.152344 60.089844 211.726562 59.773438 213.308594 C 59.460938 214.890625 59.183594 216.480469 58.945312 218.078125 C 58.710938 219.671875 58.511719 221.273438 58.355469 222.882812 C 58.195312 224.488281 58.078125 226.097656 58 227.707031 C 57.917969 229.320312 57.878906 230.933594 57.878906 232.546875 Z M 57.878906 232.546875 " clip-rule="nonzero"/></clipPath><linearGradient x1="-4011.199891" gradientTransform="matrix(0.610962, 0, 0, 0.610962, 2509.089744, -1978.524173)" y1="3456.828434" x2="-3759.279645" gradientUnits="userSpaceOnUse" y2="3736.73889" id="a9b43e43da"><stop stop-opacity="1" stop-color="rgb(63.09967%, 0%, 92.89856%)" offset="0"/><stop stop-opacity="1" stop-color="rgb(63.09967%, 0%, 92.89856%)" offset="0.25"/><stop stop-opacity="1" stop-color="rgb(63.09967%, 0%, 92.89856%)" offset="0.36283"/><stop stop-opacity="1" stop-color="rgb(63.09967%, 0%, 92.89856%)" offset="0.375"/><stop stop-opacity="1" stop-color="rgb(63.09967%, 0%, 92.89856%)" offset="0.4375"/><stop stop-opacity="1" stop-color="rgb(63.002014%, 0.0335693%, 92.909241%)" offset="0.46875"/><stop stop-opacity="1" stop-color="rgb(61.759949%, 0.465393%, 93.049622%)" offset="0.472656"/><stop stop-opacity="1" stop-color="rgb(60.61554%, 0.865173%, 93.179321%)" offset="0.476562"/><stop stop-opacity="1" stop-color="rgb(59.47113%, 1.263428%, 93.307495%)" offset="0.480469"/><stop stop-opacity="1" stop-color="rgb(58.328247%, 1.663208%, 93.435669%)" offset="0.484375"/><stop stop-opacity="1" stop-color="rgb(57.183838%, 2.061462%, 93.563843%)" offset="0.488281"/><stop stop-opacity="1" stop-color="rgb(56.039429%, 2.461243%, 93.693542%)" offset="0.492188"/><stop stop-opacity="1" stop-color="rgb(54.89502%, 2.859497%, 93.821716%)" offset="0.496094"/><stop stop-opacity="1" stop-color="rgb(53.75061%, 3.259277%, 93.951416%)" offset="0.5"/><stop stop-opacity="1" stop-color="rgb(52.606201%, 3.657532%, 94.07959%)" offset="0.503906"/><stop stop-opacity="1" stop-color="rgb(51.461792%, 4.055786%, 94.20929%)" offset="0.507812"/><stop stop-opacity="1" stop-color="rgb(50.317383%, 4.454041%, 94.337463%)" offset="0.511719"/><stop stop-opacity="1" stop-color="rgb(49.1745%, 4.853821%, 94.465637%)" offset="0.515625"/><stop stop-opacity="1" stop-color="rgb(48.03009%, 5.252075%, 94.593811%)" offset="0.519531"/><stop stop-opacity="1" stop-color="rgb(46.885681%, 5.651855%, 94.723511%)" offset="0.523438"/><stop stop-opacity="1" stop-color="rgb(45.741272%, 6.05011%, 94.851685%)" offset="0.527344"/><stop stop-opacity="1" stop-color="rgb(44.596863%, 6.44989%, 94.981384%)" offset="0.53125"/><stop stop-opacity="1" stop-color="rgb(43.452454%, 6.848145%, 95.109558%)" offset="0.535156"/><stop stop-opacity="1" stop-color="rgb(42.30957%, 7.247925%, 95.239258%)" offset="0.539062"/><stop stop-opacity="1" stop-color="rgb(41.165161%, 7.646179%, 95.367432%)" offset="0.542969"/><stop stop-opacity="1" stop-color="rgb(40.020752%, 8.045959%, 95.495605%)" offset="0.546875"/><stop stop-opacity="1" stop-color="rgb(38.876343%, 8.444214%, 95.623779%)" offset="0.550781"/><stop stop-opacity="1" stop-color="rgb(37.731934%, 8.843994%, 95.753479%)" offset="0.554688"/><stop stop-opacity="1" stop-color="rgb(36.587524%, 9.242249%, 95.881653%)" offset="0.558594"/><stop stop-opacity="1" stop-color="rgb(35.444641%, 9.642029%, 96.011353%)" offset="0.5625"/><stop stop-opacity="1" stop-color="rgb(34.300232%, 10.040283%, 96.139526%)" offset="0.566406"/><stop stop-opacity="1" stop-color="rgb(33.155823%, 10.438538%, 96.269226%)" offset="0.570312"/><stop stop-opacity="1" stop-color="rgb(32.011414%, 10.836792%, 96.3974%)" offset="0.574219"/><stop stop-opacity="1" stop-color="rgb(30.867004%, 11.236572%, 96.525574%)" offset="0.578125"/><stop stop-opacity="1" stop-color="rgb(29.722595%, 11.634827%, 96.653748%)" offset="0.582031"/><stop stop-opacity="1" stop-color="rgb(28.579712%, 12.034607%, 96.783447%)" offset="0.585938"/><stop stop-opacity="1" stop-color="rgb(27.435303%, 12.432861%, 96.911621%)" offset="0.589844"/><stop stop-opacity="1" stop-color="rgb(26.290894%, 12.832642%, 97.041321%)" offset="0.59375"/><stop stop-opacity="1" stop-color="rgb(25.146484%, 13.230896%, 97.169495%)" offset="0.597656"/><stop stop-opacity="1" stop-color="rgb(24.002075%, 13.630676%, 97.297668%)" offset="0.601562"/><stop stop-opacity="1" stop-color="rgb(22.857666%, 14.028931%, 97.425842%)" offset="0.605469"/><stop stop-opacity="1" stop-color="rgb(21.713257%, 14.428711%, 97.555542%)" offset="0.609375"/><stop stop-opacity="1" stop-color="rgb(20.568848%, 14.826965%, 97.683716%)" offset="0.613281"/><stop stop-opacity="1" stop-color="rgb(19.425964%, 15.226746%, 97.813416%)" offset="0.617188"/><stop stop-opacity="1" stop-color="rgb(18.281555%, 15.625%, 97.941589%)" offset="0.621094"/><stop stop-opacity="1" stop-color="rgb(17.137146%, 16.02478%, 98.071289%)" offset="0.625"/><stop stop-opacity="1" stop-color="rgb(15.992737%, 16.423035%, 98.199463%)" offset="0.628906"/><stop stop-opacity="1" stop-color="rgb(14.848328%, 16.821289%, 98.327637%)" offset="0.632812"/><stop stop-opacity="1" stop-color="rgb(13.703918%, 17.219543%, 98.455811%)" offset="0.636719"/><stop stop-opacity="1" stop-color="rgb(12.561035%, 17.619324%, 98.58551%)" offset="0.640625"/><stop stop-opacity="1" stop-color="rgb(11.416626%, 18.017578%, 98.713684%)" offset="0.644531"/><stop stop-opacity="1" stop-color="rgb(10.272217%, 18.417358%, 98.843384%)" offset="0.648438"/><stop stop-opacity="1" stop-color="rgb(9.127808%, 18.815613%, 98.971558%)" offset="0.652344"/><stop stop-opacity="1" stop-color="rgb(7.983398%, 19.215393%, 99.101257%)" offset="0.65625"/><stop stop-opacity="1" stop-color="rgb(6.838989%, 19.613647%, 99.229431%)" offset="0.660156"/><stop stop-opacity="1" stop-color="rgb(5.696106%, 20.013428%, 99.357605%)" offset="0.664062"/><stop stop-opacity="1" stop-color="rgb(4.551697%, 20.411682%, 99.485779%)" offset="0.667969"/><stop stop-opacity="1" stop-color="rgb(3.407288%, 20.811462%, 99.615479%)" offset="0.671875"/><stop stop-opacity="1" stop-color="rgb(2.262878%, 21.209717%, 99.743652%)" offset="0.675781"/><stop stop-opacity="1" stop-color="rgb(1.118469%, 21.609497%, 99.873352%)" offset="0.679688"/><stop stop-opacity="1" stop-color="rgb(0.558472%, 21.803284%, 99.935913%)" offset="0.683594"/><stop stop-opacity="1" stop-color="rgb(0%, 21.998596%, 100%)" offset="0.6875"/><stop stop-opacity="1" stop-color="rgb(0%, 21.998596%, 100%)" offset="0.75"/><stop stop-opacity="1" stop-color="rgb(0%, 21.998596%, 100%)" offset="1"/></linearGradient><clipPath id="bc859e4bad"><path d="M 249 133 L 355 133 L 355 209 L 249 209 Z M 249 133 " clip-rule="nonzero"/></clipPath><clipPath id="9e650b704a"><path d="M 288.636719 247.25 L 212.332031 170.945312 L 284.488281 98.785156 L 360.796875 175.089844 Z M 288.636719 247.25 " clip-rule="nonzero"/></clipPath><clipPath id="9a0be0afcc"><path d="M 288.636719 247.25 L 212.332031 170.945312 L 284.488281 98.785156 L 360.796875 175.089844 Z M 288.636719 247.25 " clip-rule="nonzero"/></clipPath><clipPath id="903634b2f0"><path d="M 305.375 180.21875 L 249.449219 180.21875 L 249.460938 184.863281 L 305.378906 184.859375 Z M 249.398438 138.378906 L 288.648438 138.378906 L 288.648438 133.734375 L 249.394531 133.738281 Z M 249.433594 149.984375 L 315.730469 149.984375 L 315.730469 145.339844 L 249.425781 145.339844 Z M 249.484375 203.460938 L 249.488281 208.101562 L 324.476562 208.101562 L 324.496094 203.476562 Z M 249.460938 196.503906 L 339.277344 196.496094 L 339.273438 191.855469 L 249.46875 191.839844 Z M 249.410156 161.636719 L 335.675781 161.617188 L 335.675781 156.980469 L 249.425781 156.976562 Z M 249.445312 173.238281 L 354.246094 173.238281 L 354.25 168.597656 L 249.441406 168.597656 Z M 249.445312 173.238281 " clip-rule="nonzero"/></clipPath><linearGradient x1="-3630.180893" gradientTransform="matrix(0.612793, 0, 0, 0.612793, 2473.944745, -1799.530977)" y1="3215.53" x2="-3459.068116" gradientUnits="userSpaceOnUse" y2="3215.53" id="0d231c8e01"><stop stop-opacity="1" stop-color="rgb(54.899597%, 0%, 92.89856%)" offset="0"/><stop stop-opacity="1" stop-color="rgb(55.039978%, 0.349426%, 92.875671%)" offset="0.00390625"/><stop stop-opacity="1" stop-color="rgb(55.180359%, 0.700378%, 92.854309%)" offset="0.0078125"/><stop stop-opacity="1" stop-color="rgb(55.32074%, 1.051331%, 92.831421%)" offset="0.0117188"/><stop stop-opacity="1" stop-color="rgb(55.462646%, 1.402283%, 92.808533%)" offset="0.015625"/><stop stop-opacity="1" stop-color="rgb(55.603027%, 1.753235%, 92.785645%)" offset="0.0195313"/><stop stop-opacity="1" stop-color="rgb(55.744934%, 2.104187%, 92.762756%)" offset="0.0234375"/><stop stop-opacity="1" stop-color="rgb(55.885315%, 2.453613%, 92.739868%)" offset="0.0273438"/><stop stop-opacity="1" stop-color="rgb(56.027222%, 2.804565%, 92.718506%)" offset="0.03125"/><stop stop-opacity="1" stop-color="rgb(56.167603%, 3.155518%, 92.695618%)" offset="0.0351563"/><stop stop-opacity="1" stop-color="rgb(56.309509%, 3.50647%, 92.672729%)" offset="0.0390625"/><stop stop-opacity="1" stop-color="rgb(56.44989%, 3.857422%, 92.649841%)" offset="0.0429688"/><stop stop-opacity="1" stop-color="rgb(56.591797%, 4.208374%, 92.626953%)" offset="0.046875"/><stop stop-opacity="1" stop-color="rgb(56.732178%, 4.559326%, 92.604065%)" offset="0.0507813"/><stop stop-opacity="1" stop-color="rgb(56.874084%, 4.910278%, 92.582703%)" offset="0.0546875"/><stop stop-opacity="1" stop-color="rgb(57.014465%, 5.26123%, 92.559814%)" offset="0.0585938"/><stop stop-opacity="1" stop-color="rgb(57.154846%, 5.612183%, 92.536926%)" offset="0.0625"/><stop stop-opacity="1" stop-color="rgb(57.295227%, 5.961609%, 92.514038%)" offset="0.0664062"/><stop stop-opacity="1" stop-color="rgb(57.437134%, 6.312561%, 92.49115%)" offset="0.0703125"/><stop stop-opacity="1" stop-color="rgb(57.577515%, 6.663513%, 92.468262%)" offset="0.0742188"/><stop stop-opacity="1" stop-color="rgb(57.719421%, 7.014465%, 92.445374%)" offset="0.078125"/><stop stop-opacity="1" stop-color="rgb(57.859802%, 7.365417%, 92.422485%)" offset="0.0820312"/><stop stop-opacity="1" stop-color="rgb(58.001709%, 7.71637%, 92.401123%)" offset="0.0859375"/><stop stop-opacity="1" stop-color="rgb(58.14209%, 8.067322%, 92.378235%)" offset="0.0898438"/><stop stop-opacity="1" stop-color="rgb(58.283997%, 8.418274%, 92.355347%)" offset="0.09375"/><stop stop-opacity="1" stop-color="rgb(58.424377%, 8.769226%, 92.332458%)" offset="0.0976563"/><stop stop-opacity="1" stop-color="rgb(58.566284%, 9.120178%, 92.30957%)" offset="0.101563"/><stop stop-opacity="1" stop-color="rgb(58.706665%, 9.47113%, 92.286682%)" offset="0.105469"/><stop stop-opacity="1" stop-color="rgb(58.847046%, 9.822083%, 92.26532%)" offset="0.109375"/><stop stop-opacity="1" stop-color="rgb(58.987427%, 10.171509%, 92.242432%)" offset="0.113281"/><stop stop-opacity="1" stop-color="rgb(59.129333%, 10.522461%, 92.219543%)" offset="0.117188"/><stop stop-opacity="1" stop-color="rgb(59.269714%, 10.873413%, 92.196655%)" offset="0.121094"/><stop stop-opacity="1" stop-color="rgb(59.411621%, 11.224365%, 92.173767%)" offset="0.125"/><stop stop-opacity="1" stop-color="rgb(59.552002%, 11.575317%, 92.150879%)" offset="0.128906"/><stop stop-opacity="1" stop-color="rgb(59.693909%, 11.92627%, 92.129517%)" offset="0.132813"/><stop stop-opacity="1" stop-color="rgb(59.83429%, 12.277222%, 92.106628%)" offset="0.136719"/><stop stop-opacity="1" stop-color="rgb(59.976196%, 12.628174%, 92.08374%)" offset="0.140625"/><stop stop-opacity="1" stop-color="rgb(60.116577%, 12.979126%, 92.060852%)" offset="0.144531"/><stop stop-opacity="1" stop-color="rgb(60.258484%, 13.330078%, 92.037964%)" offset="0.148438"/><stop stop-opacity="1" stop-color="rgb(60.398865%, 13.679504%, 92.015076%)" offset="0.152344"/><stop stop-opacity="1" stop-color="rgb(60.540771%, 14.030457%, 91.993713%)" offset="0.15625"/><stop stop-opacity="1" stop-color="rgb(60.681152%, 14.381409%, 91.970825%)" offset="0.160156"/><stop stop-opacity="1" stop-color="rgb(60.821533%, 14.732361%, 91.947937%)" offset="0.164062"/><stop stop-opacity="1" stop-color="rgb(60.961914%, 15.083313%, 91.925049%)" offset="0.167969"/><stop stop-opacity="1" stop-color="rgb(61.103821%, 15.434265%, 91.902161%)" offset="0.171875"/><stop stop-opacity="1" stop-color="rgb(61.244202%, 15.785217%, 91.879272%)" offset="0.175781"/><stop stop-opacity="1" stop-color="rgb(61.386108%, 16.136169%, 91.856384%)" offset="0.179688"/><stop stop-opacity="1" stop-color="rgb(61.526489%, 16.487122%, 91.833496%)" offset="0.183594"/><stop stop-opacity="1" stop-color="rgb(61.668396%, 16.838074%, 91.812134%)" offset="0.1875"/><stop stop-opacity="1" stop-color="rgb(61.808777%, 17.1875%, 91.789246%)" offset="0.191406"/><stop stop-opacity="1" stop-color="rgb(61.950684%, 17.538452%, 91.766357%)" offset="0.195313"/><stop stop-opacity="1" stop-color="rgb(62.091064%, 17.889404%, 91.743469%)" offset="0.199219"/><stop stop-opacity="1" stop-color="rgb(62.232971%, 18.240356%, 91.720581%)" offset="0.203125"/><stop stop-opacity="1" stop-color="rgb(62.373352%, 18.591309%, 91.697693%)" offset="0.207031"/><stop stop-opacity="1" stop-color="rgb(62.513733%, 18.942261%, 91.676331%)" offset="0.210938"/><stop stop-opacity="1" stop-color="rgb(62.654114%, 19.293213%, 91.653442%)" offset="0.214844"/><stop stop-opacity="1" stop-color="rgb(62.796021%, 19.644165%, 91.630554%)" offset="0.21875"/><stop stop-opacity="1" stop-color="rgb(62.936401%, 19.995117%, 91.607666%)" offset="0.222656"/><stop stop-opacity="1" stop-color="rgb(63.078308%, 20.346069%, 91.584778%)" offset="0.226563"/><stop stop-opacity="1" stop-color="rgb(63.218689%, 20.695496%, 91.56189%)" offset="0.230469"/><stop stop-opacity="1" stop-color="rgb(63.360596%, 21.046448%, 91.540527%)" offset="0.234375"/><stop stop-opacity="1" stop-color="rgb(63.500977%, 21.3974%, 91.517639%)" offset="0.238281"/><stop stop-opacity="1" stop-color="rgb(63.642883%, 21.748352%, 91.494751%)" offset="0.242188"/><stop stop-opacity="1" stop-color="rgb(63.783264%, 22.099304%, 91.471863%)" offset="0.246094"/><stop stop-opacity="1" stop-color="rgb(63.925171%, 22.450256%, 91.448975%)" offset="0.25"/><stop stop-opacity="1" stop-color="rgb(64.065552%, 22.801208%, 91.426086%)" offset="0.253906"/><stop stop-opacity="1" stop-color="rgb(64.207458%, 23.152161%, 91.403198%)" offset="0.257812"/><stop stop-opacity="1" stop-color="rgb(64.347839%, 23.503113%, 91.38031%)" offset="0.261719"/><stop stop-opacity="1" stop-color="rgb(64.48822%, 23.854065%, 91.358948%)" offset="0.265625"/><stop stop-opacity="1" stop-color="rgb(64.628601%, 24.205017%, 91.33606%)" offset="0.269531"/><stop stop-opacity="1" stop-color="rgb(64.770508%, 24.555969%, 91.313171%)" offset="0.273438"/><stop stop-opacity="1" stop-color="rgb(64.910889%, 24.905396%, 91.290283%)" offset="0.277344"/><stop stop-opacity="1" stop-color="rgb(65.052795%, 25.256348%, 91.267395%)" offset="0.28125"/><stop stop-opacity="1" stop-color="rgb(65.193176%, 25.6073%, 91.244507%)" offset="0.285156"/><stop stop-opacity="1" stop-color="rgb(65.335083%, 25.958252%, 91.223145%)" offset="0.289062"/><stop stop-opacity="1" stop-color="rgb(65.475464%, 26.309204%, 91.200256%)" offset="0.292969"/><stop stop-opacity="1" stop-color="rgb(65.617371%, 26.660156%, 91.177368%)" offset="0.296875"/><stop stop-opacity="1" stop-color="rgb(65.757751%, 27.011108%, 91.15448%)" offset="0.300781"/><stop stop-opacity="1" stop-color="rgb(65.899658%, 27.362061%, 91.131592%)" offset="0.304687"/><stop stop-opacity="1" stop-color="rgb(66.040039%, 27.713013%, 91.108704%)" offset="0.308594"/><stop stop-opacity="1" stop-color="rgb(66.18042%, 28.063965%, 91.087341%)" offset="0.3125"/><stop stop-opacity="1" stop-color="rgb(66.320801%, 28.413391%, 91.064453%)" offset="0.316406"/><stop stop-opacity="1" stop-color="rgb(66.462708%, 28.764343%, 91.041565%)" offset="0.320312"/><stop stop-opacity="1" stop-color="rgb(66.603088%, 29.115295%, 91.018677%)" offset="0.324219"/><stop stop-opacity="1" stop-color="rgb(66.744995%, 29.466248%, 90.995789%)" offset="0.328125"/><stop stop-opacity="1" stop-color="rgb(66.885376%, 29.8172%, 90.9729%)" offset="0.332031"/><stop stop-opacity="1" stop-color="rgb(67.027283%, 30.168152%, 90.950012%)" offset="0.335937"/><stop stop-opacity="1" stop-color="rgb(67.167664%, 30.519104%, 90.927124%)" offset="0.339844"/><stop stop-opacity="1" stop-color="rgb(67.30957%, 30.870056%, 90.905762%)" offset="0.34375"/><stop stop-opacity="1" stop-color="rgb(67.449951%, 31.221008%, 90.882874%)" offset="0.347656"/><stop stop-opacity="1" stop-color="rgb(67.591858%, 31.57196%, 90.859985%)" offset="0.351562"/><stop stop-opacity="1" stop-color="rgb(67.732239%, 31.921387%, 90.837097%)" offset="0.355469"/><stop stop-opacity="1" stop-color="rgb(67.874146%, 32.272339%, 90.814209%)" offset="0.359375"/><stop stop-opacity="1" stop-color="rgb(68.014526%, 32.623291%, 90.791321%)" offset="0.363281"/><stop stop-opacity="1" stop-color="rgb(68.154907%, 32.974243%, 90.769958%)" offset="0.367187"/><stop stop-opacity="1" stop-color="rgb(68.295288%, 33.325195%, 90.74707%)" offset="0.371094"/><stop stop-opacity="1" stop-color="rgb(68.437195%, 33.676147%, 90.724182%)" offset="0.375"/><stop stop-opacity="1" stop-color="rgb(68.577576%, 34.0271%, 90.701294%)" offset="0.378906"/><stop stop-opacity="1" stop-color="rgb(68.719482%, 34.378052%, 90.678406%)" offset="0.382812"/><stop stop-opacity="1" stop-color="rgb(68.859863%, 34.729004%, 90.655518%)" offset="0.386719"/><stop stop-opacity="1" stop-color="rgb(69.00177%, 35.079956%, 90.634155%)" offset="0.390625"/><stop stop-opacity="1" stop-color="rgb(69.142151%, 35.430908%, 90.611267%)" offset="0.394531"/><stop stop-opacity="1" stop-color="rgb(69.284058%, 35.78186%, 90.588379%)" offset="0.398437"/><stop stop-opacity="1" stop-color="rgb(69.424438%, 36.131287%, 90.565491%)" offset="0.402344"/><stop stop-opacity="1" stop-color="rgb(69.566345%, 36.482239%, 90.542603%)" offset="0.40625"/><stop stop-opacity="1" stop-color="rgb(69.706726%, 36.833191%, 90.519714%)" offset="0.410156"/><stop stop-opacity="1" stop-color="rgb(69.847107%, 37.184143%, 90.496826%)" offset="0.414062"/><stop stop-opacity="1" stop-color="rgb(69.987488%, 37.535095%, 90.473938%)" offset="0.417969"/><stop stop-opacity="1" stop-color="rgb(70.129395%, 37.886047%, 90.452576%)" offset="0.421875"/><stop stop-opacity="1" stop-color="rgb(70.269775%, 38.237%, 90.429688%)" offset="0.425781"/><stop stop-opacity="1" stop-color="rgb(70.411682%, 38.587952%, 90.406799%)" offset="0.429687"/><stop stop-opacity="1" stop-color="rgb(70.552063%, 38.938904%, 90.383911%)" offset="0.433594"/><stop stop-opacity="1" stop-color="rgb(70.69397%, 39.289856%, 90.361023%)" offset="0.4375"/><stop stop-opacity="1" stop-color="rgb(70.834351%, 39.639282%, 90.338135%)" offset="0.441406"/><stop stop-opacity="1" stop-color="rgb(70.976257%, 39.990234%, 90.316772%)" offset="0.445312"/><stop stop-opacity="1" stop-color="rgb(71.116638%, 40.341187%, 90.293884%)" offset="0.449219"/><stop stop-opacity="1" stop-color="rgb(71.258545%, 40.692139%, 90.270996%)" offset="0.453125"/><stop stop-opacity="1" stop-color="rgb(71.398926%, 41.043091%, 90.248108%)" offset="0.457031"/><stop stop-opacity="1" stop-color="rgb(71.540833%, 41.394043%, 90.22522%)" offset="0.460937"/><stop stop-opacity="1" stop-color="rgb(71.681213%, 41.744995%, 90.202332%)" offset="0.464844"/><stop stop-opacity="1" stop-color="rgb(71.821594%, 42.095947%, 90.180969%)" offset="0.46875"/><stop stop-opacity="1" stop-color="rgb(71.961975%, 42.446899%, 90.158081%)" offset="0.472656"/><stop stop-opacity="1" stop-color="rgb(72.103882%, 42.797852%, 90.135193%)" offset="0.476562"/><stop stop-opacity="1" stop-color="rgb(72.244263%, 43.147278%, 90.112305%)" offset="0.480469"/><stop stop-opacity="1" stop-color="rgb(72.386169%, 43.49823%, 90.089417%)" offset="0.484375"/><stop stop-opacity="1" stop-color="rgb(72.52655%, 43.849182%, 90.066528%)" offset="0.488281"/><stop stop-opacity="1" stop-color="rgb(72.668457%, 44.200134%, 90.04364%)" offset="0.492187"/><stop stop-opacity="1" stop-color="rgb(72.808838%, 44.551086%, 90.020752%)" offset="0.496094"/><stop stop-opacity="1" stop-color="rgb(72.950745%, 44.902039%, 89.99939%)" offset="0.5"/><stop stop-opacity="1" stop-color="rgb(73.091125%, 45.252991%, 89.976501%)" offset="0.503906"/><stop stop-opacity="1" stop-color="rgb(73.233032%, 45.603943%, 89.953613%)" offset="0.507812"/><stop stop-opacity="1" stop-color="rgb(73.373413%, 45.954895%, 89.930725%)" offset="0.511719"/><stop stop-opacity="1" stop-color="rgb(73.513794%, 46.305847%, 89.907837%)" offset="0.515625"/><stop stop-opacity="1" stop-color="rgb(73.654175%, 46.655273%, 89.884949%)" offset="0.519531"/><stop stop-opacity="1" stop-color="rgb(73.796082%, 47.006226%, 89.863586%)" offset="0.523438"/><stop stop-opacity="1" stop-color="rgb(73.936462%, 47.357178%, 89.840698%)" offset="0.527344"/><stop stop-opacity="1" stop-color="rgb(74.078369%, 47.70813%, 89.81781%)" offset="0.53125"/><stop stop-opacity="1" stop-color="rgb(74.21875%, 48.059082%, 89.794922%)" offset="0.535156"/><stop stop-opacity="1" stop-color="rgb(74.360657%, 48.410034%, 89.772034%)" offset="0.539062"/><stop stop-opacity="1" stop-color="rgb(74.501038%, 48.760986%, 89.749146%)" offset="0.542969"/><stop stop-opacity="1" stop-color="rgb(74.642944%, 49.111938%, 89.727783%)" offset="0.546875"/><stop stop-opacity="1" stop-color="rgb(74.783325%, 49.462891%, 89.704895%)" offset="0.550781"/><stop stop-opacity="1" stop-color="rgb(74.925232%, 49.813843%, 89.682007%)" offset="0.554688"/><stop stop-opacity="1" stop-color="rgb(75.065613%, 50.164795%, 89.659119%)" offset="0.558594"/><stop stop-opacity="1" stop-color="rgb(75.20752%, 50.515747%, 89.63623%)" offset="0.5625"/><stop stop-opacity="1" stop-color="rgb(75.3479%, 50.865173%, 89.613342%)" offset="0.566406"/><stop stop-opacity="1" stop-color="rgb(75.488281%, 51.216125%, 89.590454%)" offset="0.570312"/><stop stop-opacity="1" stop-color="rgb(75.628662%, 51.567078%, 89.567566%)" offset="0.574219"/><stop stop-opacity="1" stop-color="rgb(75.770569%, 51.91803%, 89.546204%)" offset="0.578125"/><stop stop-opacity="1" stop-color="rgb(75.91095%, 52.268982%, 89.523315%)" offset="0.582031"/><stop stop-opacity="1" stop-color="rgb(76.052856%, 52.619934%, 89.500427%)" offset="0.585937"/><stop stop-opacity="1" stop-color="rgb(76.193237%, 52.970886%, 89.477539%)" offset="0.589844"/><stop stop-opacity="1" stop-color="rgb(76.335144%, 53.321838%, 89.454651%)" offset="0.59375"/><stop stop-opacity="1" stop-color="rgb(76.475525%, 53.672791%, 89.431763%)" offset="0.597656"/><stop stop-opacity="1" stop-color="rgb(76.617432%, 54.023743%, 89.4104%)" offset="0.601562"/><stop stop-opacity="1" stop-color="rgb(76.757812%, 54.373169%, 89.387512%)" offset="0.605469"/><stop stop-opacity="1" stop-color="rgb(76.899719%, 54.724121%, 89.364624%)" offset="0.609375"/><stop stop-opacity="1" stop-color="rgb(77.0401%, 55.075073%, 89.341736%)" offset="0.613281"/><stop stop-opacity="1" stop-color="rgb(77.180481%, 55.426025%, 89.318848%)" offset="0.617187"/><stop stop-opacity="1" stop-color="rgb(77.320862%, 55.776978%, 89.295959%)" offset="0.621094"/><stop stop-opacity="1" stop-color="rgb(77.462769%, 56.12793%, 89.274597%)" offset="0.625"/><stop stop-opacity="1" stop-color="rgb(77.603149%, 56.478882%, 89.251709%)" offset="0.628906"/><stop stop-opacity="1" stop-color="rgb(77.745056%, 56.829834%, 89.228821%)" offset="0.632812"/><stop stop-opacity="1" stop-color="rgb(77.885437%, 57.180786%, 89.205933%)" offset="0.636719"/><stop stop-opacity="1" stop-color="rgb(78.027344%, 57.531738%, 89.183044%)" offset="0.640625"/><stop stop-opacity="1" stop-color="rgb(78.167725%, 57.881165%, 89.160156%)" offset="0.644531"/><stop stop-opacity="1" stop-color="rgb(78.309631%, 58.232117%, 89.138794%)" offset="0.648437"/><stop stop-opacity="1" stop-color="rgb(78.450012%, 58.583069%, 89.115906%)" offset="0.652344"/><stop stop-opacity="1" stop-color="rgb(78.591919%, 58.934021%, 89.093018%)" offset="0.65625"/><stop stop-opacity="1" stop-color="rgb(78.7323%, 59.284973%, 89.070129%)" offset="0.660156"/><stop stop-opacity="1" stop-color="rgb(78.874207%, 59.635925%, 89.047241%)" offset="0.664062"/><stop stop-opacity="1" stop-color="rgb(79.014587%, 59.986877%, 89.024353%)" offset="0.667969"/><stop stop-opacity="1" stop-color="rgb(79.154968%, 60.33783%, 89.001465%)" offset="0.671875"/><stop stop-opacity="1" stop-color="rgb(79.295349%, 60.688782%, 88.978577%)" offset="0.675781"/><stop stop-opacity="1" stop-color="rgb(79.437256%, 61.039734%, 88.957214%)" offset="0.679687"/><stop stop-opacity="1" stop-color="rgb(79.577637%, 61.390686%, 88.934326%)" offset="0.683594"/><stop stop-opacity="1" stop-color="rgb(79.719543%, 61.741638%, 88.911438%)" offset="0.6875"/><stop stop-opacity="1" stop-color="rgb(79.859924%, 62.091064%, 88.88855%)" offset="0.691406"/><stop stop-opacity="1" stop-color="rgb(80.001831%, 62.442017%, 88.865662%)" offset="0.695312"/><stop stop-opacity="1" stop-color="rgb(80.142212%, 62.792969%, 88.842773%)" offset="0.699219"/><stop stop-opacity="1" stop-color="rgb(80.284119%, 63.143921%, 88.821411%)" offset="0.703125"/><stop stop-opacity="1" stop-color="rgb(80.4245%, 63.494873%, 88.798523%)" offset="0.707031"/><stop stop-opacity="1" stop-color="rgb(80.566406%, 63.845825%, 88.775635%)" offset="0.710937"/><stop stop-opacity="1" stop-color="rgb(80.706787%, 64.196777%, 88.752747%)" offset="0.714844"/><stop stop-opacity="1" stop-color="rgb(80.847168%, 64.547729%, 88.729858%)" offset="0.71875"/><stop stop-opacity="1" stop-color="rgb(80.987549%, 64.898682%, 88.70697%)" offset="0.722656"/><stop stop-opacity="1" stop-color="rgb(81.129456%, 65.249634%, 88.685608%)" offset="0.726562"/><stop stop-opacity="1" stop-color="rgb(81.269836%, 65.59906%, 88.66272%)" offset="0.730469"/><stop stop-opacity="1" stop-color="rgb(81.411743%, 65.950012%, 88.639832%)" offset="0.734375"/><stop stop-opacity="1" stop-color="rgb(81.552124%, 66.300964%, 88.616943%)" offset="0.738281"/><stop stop-opacity="1" stop-color="rgb(81.694031%, 66.651917%, 88.594055%)" offset="0.742187"/><stop stop-opacity="1" stop-color="rgb(81.834412%, 67.002869%, 88.571167%)" offset="0.746094"/><stop stop-opacity="1" stop-color="rgb(81.976318%, 67.353821%, 88.548279%)" offset="0.75"/><stop stop-opacity="1" stop-color="rgb(82.116699%, 67.704773%, 88.525391%)" offset="0.753906"/><stop stop-opacity="1" stop-color="rgb(82.258606%, 68.055725%, 88.504028%)" offset="0.757812"/><stop stop-opacity="1" stop-color="rgb(82.398987%, 68.406677%, 88.48114%)" offset="0.761719"/><stop stop-opacity="1" stop-color="rgb(82.540894%, 68.757629%, 88.458252%)" offset="0.765625"/><stop stop-opacity="1" stop-color="rgb(82.681274%, 69.107056%, 88.435364%)" offset="0.769531"/><stop stop-opacity="1" stop-color="rgb(82.821655%, 69.458008%, 88.412476%)" offset="0.773437"/><stop stop-opacity="1" stop-color="rgb(82.962036%, 69.80896%, 88.389587%)" offset="0.777344"/><stop stop-opacity="1" stop-color="rgb(83.103943%, 70.159912%, 88.368225%)" offset="0.78125"/><stop stop-opacity="1" stop-color="rgb(83.244324%, 70.510864%, 88.345337%)" offset="0.785156"/><stop stop-opacity="1" stop-color="rgb(83.38623%, 70.861816%, 88.322449%)" offset="0.789062"/><stop stop-opacity="1" stop-color="rgb(83.526611%, 71.212769%, 88.299561%)" offset="0.792969"/><stop stop-opacity="1" stop-color="rgb(83.668518%, 71.563721%, 88.276672%)" offset="0.796875"/><stop stop-opacity="1" stop-color="rgb(83.808899%, 71.914673%, 88.253784%)" offset="0.800781"/><stop stop-opacity="1" stop-color="rgb(83.950806%, 72.265625%, 88.232422%)" offset="0.804687"/><stop stop-opacity="1" stop-color="rgb(84.091187%, 72.615051%, 88.209534%)" offset="0.808594"/><stop stop-opacity="1" stop-color="rgb(84.233093%, 72.966003%, 88.186646%)" offset="0.8125"/><stop stop-opacity="1" stop-color="rgb(84.373474%, 73.316956%, 88.163757%)" offset="0.816406"/><stop stop-opacity="1" stop-color="rgb(84.513855%, 73.667908%, 88.140869%)" offset="0.820312"/><stop stop-opacity="1" stop-color="rgb(84.654236%, 74.01886%, 88.117981%)" offset="0.824219"/><stop stop-opacity="1" stop-color="rgb(84.796143%, 74.369812%, 88.095093%)" offset="0.828125"/><stop stop-opacity="1" stop-color="rgb(84.936523%, 74.720764%, 88.072205%)" offset="0.832031"/><stop stop-opacity="1" stop-color="rgb(85.07843%, 75.071716%, 88.050842%)" offset="0.835937"/><stop stop-opacity="1" stop-color="rgb(85.218811%, 75.422668%, 88.027954%)" offset="0.839844"/><stop stop-opacity="1" stop-color="rgb(85.360718%, 75.773621%, 88.005066%)" offset="0.84375"/><stop stop-opacity="1" stop-color="rgb(85.501099%, 76.124573%, 87.982178%)" offset="0.847656"/><stop stop-opacity="1" stop-color="rgb(85.643005%, 76.475525%, 87.95929%)" offset="0.851562"/><stop stop-opacity="1" stop-color="rgb(85.783386%, 76.824951%, 87.936401%)" offset="0.855469"/><stop stop-opacity="1" stop-color="rgb(85.925293%, 77.175903%, 87.915039%)" offset="0.859375"/><stop stop-opacity="1" stop-color="rgb(86.065674%, 77.526855%, 87.892151%)" offset="0.863281"/><stop stop-opacity="1" stop-color="rgb(86.207581%, 77.877808%, 87.869263%)" offset="0.867187"/><stop stop-opacity="1" stop-color="rgb(86.347961%, 78.22876%, 87.846375%)" offset="0.871094"/><stop stop-opacity="1" stop-color="rgb(86.488342%, 78.579712%, 87.823486%)" offset="0.875"/><stop stop-opacity="1" stop-color="rgb(86.628723%, 78.930664%, 87.800598%)" offset="0.878906"/><stop stop-opacity="1" stop-color="rgb(86.77063%, 79.281616%, 87.779236%)" offset="0.882812"/><stop stop-opacity="1" stop-color="rgb(86.911011%, 79.632568%, 87.756348%)" offset="0.886719"/><stop stop-opacity="1" stop-color="rgb(87.052917%, 79.983521%, 87.733459%)" offset="0.890625"/><stop stop-opacity="1" stop-color="rgb(87.193298%, 80.332947%, 87.710571%)" offset="0.894531"/><stop stop-opacity="1" stop-color="rgb(87.335205%, 80.683899%, 87.687683%)" offset="0.898438"/><stop stop-opacity="1" stop-color="rgb(87.475586%, 81.034851%, 87.664795%)" offset="0.902344"/><stop stop-opacity="1" stop-color="rgb(87.617493%, 81.385803%, 87.641907%)" offset="0.90625"/><stop stop-opacity="1" stop-color="rgb(87.757874%, 81.736755%, 87.619019%)" offset="0.910156"/><stop stop-opacity="1" stop-color="rgb(87.89978%, 82.087708%, 87.597656%)" offset="0.914062"/><stop stop-opacity="1" stop-color="rgb(88.040161%, 82.43866%, 87.574768%)" offset="0.917969"/><stop stop-opacity="1" stop-color="rgb(88.180542%, 82.789612%, 87.55188%)" offset="0.921875"/><stop stop-opacity="1" stop-color="rgb(88.320923%, 83.140564%, 87.528992%)" offset="0.925781"/><stop stop-opacity="1" stop-color="rgb(88.46283%, 83.491516%, 87.506104%)" offset="0.929688"/><stop stop-opacity="1" stop-color="rgb(88.60321%, 83.840942%, 87.483215%)" offset="0.933594"/><stop stop-opacity="1" stop-color="rgb(88.745117%, 84.191895%, 87.461853%)" offset="0.9375"/><stop stop-opacity="1" stop-color="rgb(88.885498%, 84.542847%, 87.438965%)" offset="0.941406"/><stop stop-opacity="1" stop-color="rgb(89.027405%, 84.893799%, 87.416077%)" offset="0.945312"/><stop stop-opacity="1" stop-color="rgb(89.167786%, 85.244751%, 87.393188%)" offset="0.949219"/><stop stop-opacity="1" stop-color="rgb(89.309692%, 85.595703%, 87.3703%)" offset="0.953125"/><stop stop-opacity="1" stop-color="rgb(89.450073%, 85.946655%, 87.347412%)" offset="0.957031"/><stop stop-opacity="1" stop-color="rgb(89.59198%, 86.297607%, 87.32605%)" offset="0.960938"/><stop stop-opacity="1" stop-color="rgb(89.732361%, 86.64856%, 87.303162%)" offset="0.964844"/><stop stop-opacity="1" stop-color="rgb(89.874268%, 86.999512%, 87.280273%)" offset="0.96875"/><stop stop-opacity="1" stop-color="rgb(90.014648%, 87.350464%, 87.257385%)" offset="0.972656"/><stop stop-opacity="1" stop-color="rgb(90.155029%, 87.701416%, 87.234497%)" offset="0.976562"/><stop stop-opacity="1" stop-color="rgb(90.29541%, 88.050842%, 87.211609%)" offset="0.980469"/><stop stop-opacity="1" stop-color="rgb(90.437317%, 88.401794%, 87.188721%)" offset="0.984375"/><stop stop-opacity="1" stop-color="rgb(90.577698%, 88.752747%, 87.165833%)" offset="0.988281"/><stop stop-opacity="1" stop-color="rgb(90.719604%, 89.103699%, 87.14447%)" offset="0.992188"/><stop stop-opacity="1" stop-color="rgb(90.858459%, 89.451599%, 87.121582%)" offset="0.996094"/><stop stop-opacity="1" stop-color="rgb(90.99884%, 89.7995%, 87.098694%)" offset="1"/></linearGradient><clipPath id="8c10bb5e47"><path d="M 155 23 L 255 23 L 255 332 L 155 332 Z M 155 23 " clip-rule="nonzero"/></clipPath><clipPath id="b38d7d406c"><path d="M 176.40625 351.628906 L 13.839844 189.066406 L 179.722656 23.183594 L 342.289062 185.746094 Z M 176.40625 351.628906 " clip-rule="nonzero"/></clipPath><clipPath id="938b40c8a9"><path d="M 176.40625 351.628906 L 13.839844 189.066406 L 179.722656 23.183594 L 342.289062 185.746094 Z M 176.40625 351.628906 " clip-rule="nonzero"/></clipPath><clipPath id="3c9020115a"><path d="M 155.941406 268.707031 L 155.941406 273.332031 C 157.273438 273.328125 158.597656 273.261719 159.921875 273.128906 C 161.246094 273 162.558594 272.800781 163.863281 272.542969 C 165.167969 272.28125 166.457031 271.957031 167.726562 271.570312 C 169 271.183594 170.25 270.734375 171.476562 270.226562 C 172.707031 269.714844 173.90625 269.148438 175.078125 268.519531 C 176.25 267.894531 177.390625 267.210938 178.496094 266.46875 C 179.601562 265.730469 180.667969 264.941406 181.695312 264.097656 C 182.722656 263.253906 183.707031 262.359375 184.648438 261.417969 C 185.589844 260.480469 186.480469 259.496094 187.324219 258.46875 C 188.167969 257.441406 188.960938 256.375 189.699219 255.269531 C 190.4375 254.164062 191.121094 253.023438 191.75 251.851562 C 192.375 250.679688 192.945312 249.476562 193.453125 248.25 C 193.964844 247.023438 194.410156 245.773438 194.796875 244.5 C 195.183594 243.226562 195.507812 241.9375 195.769531 240.636719 C 196.03125 239.332031 196.226562 238.015625 196.359375 236.695312 C 196.492188 235.371094 196.558594 234.042969 196.558594 232.714844 L 196.558594 39.628906 L 191.933594 35.003906 L 191.933594 232.714844 C 191.933594 233.894531 191.875 235.070312 191.757812 236.242188 C 191.640625 237.414062 191.46875 238.578125 191.238281 239.734375 C 191.007812 240.890625 190.71875 242.03125 190.375 243.160156 C 190.035156 244.285156 189.636719 245.394531 189.183594 246.484375 C 188.734375 247.570312 188.230469 248.636719 187.675781 249.675781 C 187.117188 250.714844 186.511719 251.722656 185.859375 252.703125 C 185.203125 253.683594 184.5 254.628906 183.753906 255.539062 C 183.007812 256.449219 182.214844 257.320312 181.382812 258.152344 C 180.550781 258.988281 179.675781 259.777344 178.765625 260.527344 C 177.855469 261.273438 176.910156 261.976562 175.929688 262.628906 C 174.949219 263.285156 173.941406 263.890625 172.902344 264.445312 C 171.863281 265 170.800781 265.503906 169.710938 265.957031 C 168.621094 266.410156 167.515625 266.804688 166.386719 267.148438 C 165.257812 267.492188 164.117188 267.777344 162.960938 268.007812 C 161.804688 268.238281 160.640625 268.414062 159.46875 268.53125 C 158.296875 268.648438 157.121094 268.707031 155.941406 268.707031 Z M 180.351562 232.730469 C 180.347656 233.53125 180.308594 234.328125 180.230469 235.125 C 180.152344 235.921875 180.03125 236.710938 179.875 237.496094 C 179.71875 238.277344 179.523438 239.054688 179.292969 239.820312 C 179.058594 240.585938 178.789062 241.335938 178.484375 242.074219 C 178.175781 242.8125 177.835938 243.535156 177.457031 244.238281 C 177.082031 244.945312 176.667969 245.628906 176.226562 246.296875 C 175.78125 246.960938 175.304688 247.601562 174.796875 248.21875 C 174.289062 248.835938 173.753906 249.429688 173.1875 249.996094 C 172.621094 250.558594 172.03125 251.097656 171.414062 251.605469 C 170.792969 252.109375 170.152344 252.585938 169.488281 253.03125 C 168.824219 253.476562 168.140625 253.886719 167.433594 254.265625 C 166.730469 254.640625 166.007812 254.984375 165.269531 255.289062 C 164.53125 255.597656 163.777344 255.867188 163.011719 256.097656 C 162.246094 256.332031 161.472656 256.527344 160.6875 256.683594 C 159.90625 256.839844 159.113281 256.957031 158.320312 257.035156 C 157.523438 257.117188 156.726562 257.15625 155.925781 257.15625 L 155.925781 261.78125 C 156.875 261.777344 157.824219 261.730469 158.773438 261.636719 C 159.71875 261.542969 160.65625 261.402344 161.589844 261.214844 C 162.523438 261.027344 163.445312 260.796875 164.351562 260.519531 C 165.261719 260.242188 166.15625 259.921875 167.035156 259.558594 C 167.914062 259.195312 168.773438 258.789062 169.609375 258.339844 C 170.449219 257.890625 171.265625 257.402344 172.054688 256.871094 C 172.84375 256.34375 173.609375 255.777344 174.34375 255.175781 C 175.078125 254.570312 175.78125 253.933594 176.453125 253.261719 C 177.125 252.589844 177.765625 251.882812 178.367188 251.148438 C 178.972656 250.414062 179.539062 249.652344 180.066406 248.859375 C 180.59375 248.070312 181.082031 247.253906 181.53125 246.417969 C 181.980469 245.578125 182.386719 244.71875 182.75 243.84375 C 183.117188 242.964844 183.4375 242.070312 183.714844 241.160156 C 183.992188 240.25 184.222656 239.328125 184.410156 238.394531 C 184.59375 237.464844 184.734375 236.523438 184.832031 235.578125 C 184.925781 234.632812 184.972656 233.683594 184.972656 232.730469 L 184.984375 28.054688 L 180.367188 23.4375 Z M 189.570312 266.347656 C 187.367188 268.5625 184.96875 270.539062 182.375 272.277344 C 179.78125 274.019531 177.039062 275.484375 174.152344 276.679688 C 171.265625 277.875 168.289062 278.777344 165.226562 279.378906 C 162.160156 279.984375 159.066406 280.285156 155.941406 280.273438 L 155.941406 284.898438 C 157.652344 284.898438 159.355469 284.8125 161.058594 284.644531 C 162.757812 284.480469 164.449219 284.226562 166.125 283.894531 C 167.800781 283.5625 169.457031 283.144531 171.089844 282.648438 C 172.726562 282.152344 174.335938 281.578125 175.914062 280.925781 C 177.492188 280.269531 179.035156 279.539062 180.542969 278.734375 C 182.050781 277.929688 183.515625 277.050781 184.933594 276.101562 C 186.355469 275.152344 187.726562 274.132812 189.046875 273.050781 C 190.371094 271.964844 191.632812 270.820312 192.84375 269.609375 C 194.050781 268.402344 195.199219 267.136719 196.28125 265.816406 C 197.367188 264.496094 198.382812 263.125 199.332031 261.703125 C 200.28125 260.28125 201.160156 258.816406 201.964844 257.308594 C 202.773438 255.804688 203.503906 254.261719 204.15625 252.679688 C 204.808594 251.101562 205.386719 249.496094 205.882812 247.859375 C 206.378906 246.222656 206.792969 244.566406 207.125 242.890625 C 207.460938 241.214844 207.710938 239.527344 207.878906 237.824219 C 208.046875 236.125 208.128906 234.417969 208.128906 232.710938 L 208.125 51.195312 L 203.503906 46.574219 L 203.503906 232.714844 C 203.511719 235.839844 203.214844 238.933594 202.609375 242 C 202.003906 245.0625 201.101562 248.039062 199.90625 250.925781 C 198.710938 253.8125 197.242188 256.554688 195.503906 259.148438 C 193.765625 261.746094 191.785156 264.144531 189.570312 266.347656 Z M 222.289062 299.066406 C 220.121094 301.246094 217.851562 303.3125 215.480469 305.269531 C 213.105469 307.222656 210.644531 309.054688 208.089844 310.765625 C 205.535156 312.476562 202.90625 314.058594 200.195312 315.511719 C 197.484375 316.960938 194.707031 318.273438 191.867188 319.449219 C 189.027344 320.628906 186.136719 321.660156 183.195312 322.550781 C 180.253906 323.441406 177.273438 324.183594 174.257812 324.777344 C 171.242188 325.375 168.203125 325.820312 165.144531 326.113281 C 162.082031 326.410156 159.015625 326.554688 155.941406 326.542969 L 155.9375 331.164062 C 157.550781 331.164062 159.160156 331.125 160.769531 331.046875 C 162.378906 330.964844 163.984375 330.847656 165.589844 330.691406 C 167.191406 330.53125 168.792969 330.335938 170.386719 330.097656 C 171.980469 329.863281 173.566406 329.585938 175.144531 329.273438 C 176.726562 328.960938 178.296875 328.605469 179.863281 328.214844 C 181.425781 327.824219 182.976562 327.394531 184.519531 326.925781 C 186.0625 326.457031 187.589844 325.953125 189.109375 325.410156 C 190.625 324.867188 192.128906 324.289062 193.617188 323.671875 C 195.105469 323.054688 196.578125 322.402344 198.035156 321.714844 C 199.492188 321.023438 200.929688 320.300781 202.351562 319.539062 C 203.773438 318.78125 205.171875 317.988281 206.554688 317.160156 C 207.9375 316.332031 209.296875 315.46875 210.636719 314.574219 C 211.976562 313.679688 213.292969 312.75 214.589844 311.792969 C 215.882812 310.832031 217.152344 309.839844 218.398438 308.816406 C 219.644531 307.796875 220.863281 306.742188 222.058594 305.660156 C 223.25 304.578125 224.417969 303.46875 225.558594 302.328125 C 226.695312 301.191406 227.808594 300.023438 228.890625 298.828125 C 229.972656 297.636719 231.023438 296.417969 232.046875 295.171875 C 233.070312 293.925781 234.058594 292.65625 235.019531 291.359375 C 235.980469 290.066406 236.90625 288.75 237.800781 287.410156 C 238.695312 286.070312 239.558594 284.710938 240.386719 283.328125 C 241.214844 281.945312 242.007812 280.542969 242.769531 279.121094 C 243.527344 277.703125 244.253906 276.261719 244.941406 274.804688 C 245.628906 273.347656 246.28125 271.875 246.898438 270.386719 C 247.515625 268.898438 248.097656 267.394531 248.636719 265.878906 C 249.179688 264.363281 249.6875 262.832031 250.152344 261.289062 C 250.621094 259.75 251.050781 258.195312 251.441406 256.632812 C 251.835938 255.070312 252.1875 253.5 252.5 251.917969 C 252.816406 250.339844 253.089844 248.75 253.328125 247.15625 C 253.5625 245.5625 253.761719 243.964844 253.917969 242.359375 C 254.078125 240.757812 254.195312 239.152344 254.273438 237.542969 C 254.351562 235.933594 254.390625 234.320312 254.390625 232.710938 L 254.390625 97.460938 L 249.773438 92.84375 L 249.773438 232.714844 C 249.78125 235.789062 249.636719 238.855469 249.34375 241.917969 C 249.046875 244.976562 248.601562 248.015625 248.007812 251.03125 C 247.410156 254.046875 246.667969 257.027344 245.777344 259.96875 C 244.886719 262.910156 243.851562 265.800781 242.675781 268.644531 C 241.5 271.484375 240.1875 274.257812 238.734375 276.96875 C 237.285156 279.679688 235.703125 282.3125 233.992188 284.867188 C 232.28125 287.417969 230.449219 289.882812 228.492188 292.253906 C 226.539062 294.628906 224.46875 296.898438 222.289062 299.066406 Z M 214.09375 290.871094 C 212.195312 292.78125 210.207031 294.59375 208.128906 296.308594 C 206.050781 298.023438 203.894531 299.632812 201.65625 301.132812 C 199.417969 302.632812 197.113281 304.023438 194.738281 305.296875 C 192.363281 306.566406 189.929688 307.722656 187.441406 308.753906 C 184.953125 309.785156 182.421875 310.695312 179.84375 311.476562 C 177.265625 312.257812 174.652344 312.910156 172.011719 313.433594 C 169.367188 313.957031 166.707031 314.351562 164.023438 314.609375 C 161.34375 314.871094 158.65625 315 155.960938 314.996094 L 155.957031 319.613281 C 157.378906 319.613281 158.800781 319.578125 160.21875 319.507812 C 161.640625 319.441406 163.058594 319.335938 164.472656 319.195312 C 165.886719 319.058594 167.296875 318.882812 168.707031 318.675781 C 170.113281 318.464844 171.511719 318.222656 172.90625 317.945312 C 174.300781 317.667969 175.6875 317.355469 177.066406 317.011719 C 178.449219 316.667969 179.816406 316.289062 181.179688 315.875 C 182.539062 315.460938 183.890625 315.015625 185.226562 314.539062 C 186.566406 314.058594 187.894531 313.546875 189.207031 313.003906 C 190.519531 312.457031 191.820312 311.882812 193.105469 311.273438 C 194.390625 310.667969 195.660156 310.027344 196.914062 309.355469 C 198.167969 308.6875 199.40625 307.984375 200.625 307.253906 C 201.847656 306.523438 203.046875 305.765625 204.230469 304.972656 C 205.410156 304.183594 206.574219 303.367188 207.714844 302.519531 C 208.859375 301.671875 209.980469 300.796875 211.078125 299.894531 C 212.175781 298.992188 213.253906 298.0625 214.308594 297.109375 C 215.359375 296.152344 216.390625 295.171875 217.394531 294.167969 C 218.402344 293.164062 219.382812 292.132812 220.335938 291.078125 C 221.292969 290.027344 222.21875 288.949219 223.121094 287.851562 C 224.023438 286.75 224.898438 285.628906 225.746094 284.488281 C 226.59375 283.347656 227.410156 282.183594 228.203125 281 C 228.992188 279.820312 229.753906 278.617188 230.484375 277.398438 C 231.214844 276.179688 231.914062 274.941406 232.585938 273.6875 C 233.253906 272.433594 233.894531 271.164062 234.503906 269.878906 C 235.109375 268.59375 235.6875 267.292969 236.230469 265.980469 C 236.773438 264.664062 237.285156 263.339844 237.765625 262 C 238.246094 260.660156 238.691406 259.3125 239.101562 257.949219 C 239.515625 256.589844 239.894531 255.21875 240.238281 253.839844 C 240.585938 252.460938 240.898438 251.074219 241.175781 249.679688 C 241.453125 248.285156 241.695312 246.882812 241.902344 245.476562 C 242.109375 244.070312 242.285156 242.660156 242.425781 241.246094 C 242.5625 239.828125 242.667969 238.410156 242.738281 236.992188 C 242.808594 235.570312 242.84375 234.148438 242.839844 232.726562 L 242.839844 85.914062 L 238.207031 81.277344 L 238.222656 232.730469 C 238.226562 235.425781 238.101562 238.117188 237.839844 240.796875 C 237.582031 243.480469 237.191406 246.144531 236.667969 248.785156 C 236.144531 251.429688 235.492188 254.042969 234.710938 256.621094 C 233.929688 259.199219 233.019531 261.734375 231.988281 264.222656 C 230.957031 266.710938 229.804688 269.144531 228.53125 271.519531 C 227.257812 273.894531 225.871094 276.203125 224.371094 278.441406 C 222.871094 280.679688 221.261719 282.835938 219.546875 284.917969 C 217.832031 286.996094 216.019531 288.984375 214.109375 290.882812 Z M 205.902344 282.675781 C 202.625 285.96875 199.054688 288.90625 195.195312 291.488281 C 191.335938 294.074219 187.261719 296.253906 182.96875 298.027344 C 178.675781 299.804688 174.25 301.140625 169.695312 302.035156 C 165.136719 302.933594 160.535156 303.375 155.890625 303.359375 L 155.9375 308.027344 C 157.171875 308.027344 158.402344 308 159.632812 307.9375 C 160.867188 307.878906 162.09375 307.789062 163.320312 307.667969 C 164.546875 307.546875 165.769531 307.394531 166.992188 307.214844 C 168.210938 307.035156 169.425781 306.824219 170.632812 306.582031 C 171.84375 306.34375 173.042969 306.074219 174.238281 305.773438 C 175.4375 305.472656 176.625 305.144531 177.804688 304.789062 C 178.984375 304.429688 180.152344 304.042969 181.3125 303.628906 C 182.472656 303.210938 183.625 302.769531 184.761719 302.296875 C 185.902344 301.824219 187.027344 301.328125 188.144531 300.800781 C 189.257812 300.273438 190.359375 299.71875 191.445312 299.136719 C 192.53125 298.554688 193.605469 297.949219 194.660156 297.316406 C 195.71875 296.683594 196.761719 296.023438 197.785156 295.335938 C 198.808594 294.652344 199.816406 293.941406 200.808594 293.210938 C 201.796875 292.476562 202.769531 291.714844 203.722656 290.933594 C 204.675781 290.152344 205.609375 289.347656 206.519531 288.519531 C 207.433594 287.691406 208.328125 286.84375 209.199219 285.972656 C 210.070312 285.097656 210.921875 284.207031 211.746094 283.292969 C 212.574219 282.378906 213.378906 281.445312 214.164062 280.492188 C 214.945312 279.539062 215.703125 278.570312 216.4375 277.578125 C 217.171875 276.589844 217.882812 275.582031 218.566406 274.558594 C 219.25 273.53125 219.910156 272.492188 220.542969 271.433594 C 221.175781 270.375 221.785156 269.304688 222.367188 268.214844 C 222.945312 267.128906 223.5 266.027344 224.027344 264.914062 C 224.554688 263.800781 225.054688 262.671875 225.527344 261.535156 C 225.996094 260.394531 226.441406 259.246094 226.855469 258.085938 C 227.269531 256.925781 227.65625 255.753906 228.015625 254.574219 C 228.375 253.394531 228.703125 252.207031 229 251.011719 C 229.300781 249.816406 229.570312 248.613281 229.8125 247.40625 C 230.050781 246.195312 230.261719 244.980469 230.441406 243.761719 C 230.625 242.542969 230.773438 241.320312 230.894531 240.09375 C 231.015625 238.867188 231.105469 237.636719 231.167969 236.40625 C 231.226562 235.175781 231.257812 233.941406 231.257812 232.710938 L 231.261719 74.332031 L 226.636719 69.707031 L 226.636719 232.742188 C 226.648438 237.382812 226.203125 241.980469 225.304688 246.535156 C 224.402344 251.085938 223.0625 255.507812 221.285156 259.796875 C 219.507812 264.085938 217.328125 268.15625 214.742188 272.011719 C 212.160156 275.867188 209.222656 279.433594 205.929688 282.707031 Z M 155.941406 291.84375 L 155.941406 296.464844 C 158.03125 296.460938 160.109375 296.359375 162.1875 296.152344 C 164.261719 295.941406 166.324219 295.636719 168.371094 295.226562 C 170.417969 294.816406 172.4375 294.308594 174.433594 293.699219 C 176.429688 293.09375 178.390625 292.390625 180.320312 291.589844 C 182.246094 290.789062 184.128906 289.898438 185.96875 288.914062 C 187.808594 287.929688 189.59375 286.855469 191.328125 285.695312 C 193.0625 284.535156 194.738281 283.292969 196.351562 281.96875 C 197.964844 280.648438 199.507812 279.246094 200.984375 277.773438 C 202.457031 276.296875 203.859375 274.753906 205.179688 273.140625 C 206.503906 271.527344 207.746094 269.851562 208.90625 268.117188 C 210.066406 266.382812 211.140625 264.597656 212.125 262.757812 C 213.109375 260.917969 214 259.035156 214.800781 257.109375 C 215.601562 255.179688 216.304688 253.21875 216.910156 251.222656 C 217.519531 249.226562 218.027344 247.207031 218.4375 245.160156 C 218.847656 243.113281 219.152344 241.050781 219.359375 238.976562 C 219.570312 236.898438 219.671875 234.820312 219.675781 232.730469 L 219.675781 62.800781 L 215.054688 58.175781 L 215.070312 232.714844 C 215.070312 234.652344 214.972656 236.582031 214.78125 238.507812 C 214.589844 240.4375 214.304688 242.347656 213.925781 244.246094 C 213.550781 246.144531 213.078125 248.023438 212.515625 249.875 C 211.953125 251.726562 211.300781 253.546875 210.558594 255.335938 C 209.816406 257.125 208.992188 258.871094 208.078125 260.578125 C 207.164062 262.285156 206.167969 263.945312 205.09375 265.554688 C 204.019531 267.164062 202.867188 268.71875 201.636719 270.214844 C 200.410156 271.710938 199.109375 273.144531 197.742188 274.511719 C 196.371094 275.882812 194.9375 277.179688 193.441406 278.410156 C 191.945312 279.636719 190.394531 280.789062 188.78125 281.867188 C 187.171875 282.941406 185.515625 283.9375 183.808594 284.847656 C 182.101562 285.761719 180.351562 286.589844 178.5625 287.332031 C 176.777344 288.074219 174.953125 288.726562 173.101562 289.289062 C 171.25 289.851562 169.375 290.320312 167.476562 290.699219 C 165.578125 291.078125 163.664062 291.363281 161.738281 291.554688 C 159.808594 291.746094 157.878906 291.839844 155.941406 291.84375 Z M 155.941406 291.84375 " clip-rule="nonzero"/></clipPath><linearGradient x1="-50.471686" gradientTransform="matrix(-0.431303, -0.431303, 0.431303, -0.431303, 176.33054, 351.555902)" y1="-13.51737" x2="370.332537" gradientUnits="userSpaceOnUse" y2="498.60112" id="9cf8b8a427"><stop stop-opacity="1" stop-color="rgb(0%, 18.798828%, 100%)" offset="0"/><stop stop-opacity="1" stop-color="rgb(0%, 18.798828%, 100%)" offset="0.25"/><stop stop-opacity="1" stop-color="rgb(0%, 18.798828%, 100%)" offset="0.3125"/><stop stop-opacity="1" stop-color="rgb(0%, 18.798828%, 100%)" offset="0.320313"/><stop stop-opacity="1" stop-color="rgb(0%, 19.113159%, 100%)" offset="0.324219"/><stop stop-opacity="1" stop-color="rgb(0%, 19.42749%, 100%)" offset="0.328125"/><stop stop-opacity="1" stop-color="rgb(0%, 19.978333%, 100%)" offset="0.332031"/><stop stop-opacity="1" stop-color="rgb(0%, 20.530701%, 100%)" offset="0.335938"/><stop stop-opacity="1" stop-color="rgb(0%, 21.081543%, 100%)" offset="0.339844"/><stop stop-opacity="1" stop-color="rgb(0%, 21.633911%, 100%)" offset="0.34375"/><stop stop-opacity="1" stop-color="rgb(0%, 22.184753%, 100%)" offset="0.347656"/><stop stop-opacity="1" stop-color="rgb(0%, 22.735596%, 100%)" offset="0.351562"/><stop stop-opacity="1" stop-color="rgb(0%, 23.286438%, 100%)" offset="0.355469"/><stop stop-opacity="1" stop-color="rgb(0%, 23.838806%, 100%)" offset="0.359375"/><stop stop-opacity="1" stop-color="rgb(0%, 24.389648%, 100%)" offset="0.363281"/><stop stop-opacity="1" stop-color="rgb(0%, 24.942017%, 100%)" offset="0.367188"/><stop stop-opacity="1" stop-color="rgb(0%, 25.492859%, 100%)" offset="0.371094"/><stop stop-opacity="1" stop-color="rgb(0%, 26.043701%, 100%)" offset="0.375"/><stop stop-opacity="1" stop-color="rgb(0%, 26.594543%, 100%)" offset="0.378906"/><stop stop-opacity="1" stop-color="rgb(0%, 27.146912%, 100%)" offset="0.382813"/><stop stop-opacity="1" stop-color="rgb(0%, 27.697754%, 100%)" offset="0.386719"/><stop stop-opacity="1" stop-color="rgb(0%, 28.250122%, 100%)" offset="0.390625"/><stop stop-opacity="1" stop-color="rgb(0%, 28.800964%, 100%)" offset="0.394531"/><stop stop-opacity="1" stop-color="rgb(0%, 29.351807%, 100%)" offset="0.398438"/><stop stop-opacity="1" stop-color="rgb(0%, 29.902649%, 100%)" offset="0.402344"/><stop stop-opacity="1" stop-color="rgb(0%, 30.455017%, 100%)" offset="0.40625"/><stop stop-opacity="1" stop-color="rgb(0%, 31.005859%, 100%)" offset="0.410156"/><stop stop-opacity="1" stop-color="rgb(0%, 31.558228%, 100%)" offset="0.414063"/><stop stop-opacity="1" stop-color="rgb(0%, 32.10907%, 100%)" offset="0.417969"/><stop stop-opacity="1" stop-color="rgb(0%, 32.659912%, 100%)" offset="0.421875"/><stop stop-opacity="1" stop-color="rgb(0%, 33.210754%, 100%)" offset="0.425781"/><stop stop-opacity="1" stop-color="rgb(0%, 33.763123%, 100%)" offset="0.429688"/><stop stop-opacity="1" stop-color="rgb(0%, 34.313965%, 100%)" offset="0.433594"/><stop stop-opacity="1" stop-color="rgb(0%, 34.866333%, 100%)" offset="0.4375"/><stop stop-opacity="1" stop-color="rgb(0%, 35.417175%, 100%)" offset="0.441406"/><stop stop-opacity="1" stop-color="rgb(0%, 35.968018%, 100%)" offset="0.445312"/><stop stop-opacity="1" stop-color="rgb(0%, 36.51886%, 100%)" offset="0.449219"/><stop stop-opacity="1" stop-color="rgb(0%, 37.071228%, 100%)" offset="0.453125"/><stop stop-opacity="1" stop-color="rgb(0%, 37.62207%, 100%)" offset="0.457031"/><stop stop-opacity="1" stop-color="rgb(0%, 38.174438%, 100%)" offset="0.460938"/><stop stop-opacity="1" stop-color="rgb(0%, 38.725281%, 100%)" offset="0.464844"/><stop stop-opacity="1" stop-color="rgb(0%, 39.276123%, 100%)" offset="0.46875"/><stop stop-opacity="1" stop-color="rgb(0%, 39.826965%, 100%)" offset="0.472656"/><stop stop-opacity="1" stop-color="rgb(0%, 40.379333%, 100%)" offset="0.476562"/><stop stop-opacity="1" stop-color="rgb(0%, 40.930176%, 100%)" offset="0.480469"/><stop stop-opacity="1" stop-color="rgb(0%, 41.482544%, 100%)" offset="0.484375"/><stop stop-opacity="1" stop-color="rgb(0%, 42.033386%, 100%)" offset="0.488281"/><stop stop-opacity="1" stop-color="rgb(0%, 42.584229%, 100%)" offset="0.492187"/><stop stop-opacity="1" stop-color="rgb(0%, 43.135071%, 100%)" offset="0.496094"/><stop stop-opacity="1" stop-color="rgb(0%, 43.687439%, 100%)" offset="0.5"/><stop stop-opacity="1" stop-color="rgb(0%, 44.238281%, 100%)" offset="0.503906"/><stop stop-opacity="1" stop-color="rgb(0%, 44.790649%, 100%)" offset="0.507812"/><stop stop-opacity="1" stop-color="rgb(0%, 45.341492%, 100%)" offset="0.511719"/><stop stop-opacity="1" stop-color="rgb(0%, 45.892334%, 100%)" offset="0.515625"/><stop stop-opacity="1" stop-color="rgb(0%, 46.443176%, 100%)" offset="0.519531"/><stop stop-opacity="1" stop-color="rgb(0%, 46.995544%, 100%)" offset="0.523438"/><stop stop-opacity="1" stop-color="rgb(0%, 47.546387%, 100%)" offset="0.527344"/><stop stop-opacity="1" stop-color="rgb(0%, 48.098755%, 100%)" offset="0.53125"/><stop stop-opacity="1" stop-color="rgb(0%, 48.649597%, 100%)" offset="0.535156"/><stop stop-opacity="1" stop-color="rgb(0%, 49.200439%, 100%)" offset="0.539062"/><stop stop-opacity="1" stop-color="rgb(0%, 49.751282%, 100%)" offset="0.542969"/><stop stop-opacity="1" stop-color="rgb(0%, 50.30365%, 100%)" offset="0.546875"/><stop stop-opacity="1" stop-color="rgb(0%, 50.854492%, 100%)" offset="0.550781"/><stop stop-opacity="1" stop-color="rgb(0%, 51.40686%, 100%)" offset="0.554688"/><stop stop-opacity="1" stop-color="rgb(0%, 51.957703%, 100%)" offset="0.558594"/><stop stop-opacity="1" stop-color="rgb(0%, 52.508545%, 100%)" offset="0.5625"/><stop stop-opacity="1" stop-color="rgb(0%, 53.059387%, 100%)" offset="0.566406"/><stop stop-opacity="1" stop-color="rgb(0%, 53.611755%, 100%)" offset="0.570313"/><stop stop-opacity="1" stop-color="rgb(0%, 54.162598%, 100%)" offset="0.574219"/><stop stop-opacity="1" stop-color="rgb(0%, 54.714966%, 100%)" offset="0.578125"/><stop stop-opacity="1" stop-color="rgb(0%, 55.265808%, 100%)" offset="0.582031"/><stop stop-opacity="1" stop-color="rgb(0%, 55.818176%, 100%)" offset="0.585938"/><stop stop-opacity="1" stop-color="rgb(0%, 56.369019%, 100%)" offset="0.589844"/><stop stop-opacity="1" stop-color="rgb(0%, 56.919861%, 100%)" offset="0.59375"/><stop stop-opacity="1" stop-color="rgb(0%, 57.470703%, 100%)" offset="0.597656"/><stop stop-opacity="1" stop-color="rgb(0%, 58.023071%, 100%)" offset="0.601562"/><stop stop-opacity="1" stop-color="rgb(0%, 58.573914%, 100%)" offset="0.605469"/><stop stop-opacity="1" stop-color="rgb(0%, 59.126282%, 100%)" offset="0.609375"/><stop stop-opacity="1" stop-color="rgb(0%, 59.677124%, 100%)" offset="0.613281"/><stop stop-opacity="1" stop-color="rgb(0%, 60.227966%, 100%)" offset="0.617188"/><stop stop-opacity="1" stop-color="rgb(0%, 60.778809%, 100%)" offset="0.621094"/><stop stop-opacity="1" stop-color="rgb(0%, 61.331177%, 100%)" offset="0.625"/><stop stop-opacity="1" stop-color="rgb(0%, 61.882019%, 100%)" offset="0.628906"/><stop stop-opacity="1" stop-color="rgb(0%, 62.434387%, 100%)" offset="0.632813"/><stop stop-opacity="1" stop-color="rgb(0%, 62.985229%, 100%)" offset="0.636719"/><stop stop-opacity="1" stop-color="rgb(0%, 63.536072%, 100%)" offset="0.640625"/><stop stop-opacity="1" stop-color="rgb(0%, 64.086914%, 100%)" offset="0.644531"/><stop stop-opacity="1" stop-color="rgb(0%, 64.639282%, 100%)" offset="0.648438"/><stop stop-opacity="1" stop-color="rgb(0%, 65.190125%, 100%)" offset="0.652344"/><stop stop-opacity="1" stop-color="rgb(0%, 65.742493%, 100%)" offset="0.65625"/><stop stop-opacity="1" stop-color="rgb(0%, 66.293335%, 100%)" offset="0.660156"/><stop stop-opacity="1" stop-color="rgb(0%, 66.844177%, 100%)" offset="0.664062"/><stop stop-opacity="1" stop-color="rgb(0%, 67.39502%, 100%)" offset="0.667969"/><stop stop-opacity="1" stop-color="rgb(0%, 67.947388%, 100%)" offset="0.671875"/><stop stop-opacity="1" stop-color="rgb(0%, 68.49823%, 100%)" offset="0.675781"/><stop stop-opacity="1" stop-color="rgb(0%, 69.050598%, 100%)" offset="0.679688"/><stop stop-opacity="1" stop-color="rgb(0%, 69.60144%, 100%)" offset="0.683594"/><stop stop-opacity="1" stop-color="rgb(0%, 70.152283%, 100%)" offset="0.6875"/><stop stop-opacity="1" stop-color="rgb(0%, 70.703125%, 100%)" offset="0.691406"/><stop stop-opacity="1" stop-color="rgb(0%, 71.255493%, 100%)" offset="0.695312"/><stop stop-opacity="1" stop-color="rgb(0%, 71.806335%, 100%)" offset="0.699219"/><stop stop-opacity="1" stop-color="rgb(0%, 72.358704%, 100%)" offset="0.703125"/><stop stop-opacity="1" stop-color="rgb(0%, 72.909546%, 100%)" offset="0.707031"/><stop stop-opacity="1" stop-color="rgb(0%, 73.460388%, 100%)" offset="0.710938"/><stop stop-opacity="1" stop-color="rgb(0%, 74.01123%, 100%)" offset="0.714844"/><stop stop-opacity="1" stop-color="rgb(0%, 74.563599%, 100%)" offset="0.71875"/><stop stop-opacity="1" stop-color="rgb(0%, 75.114441%, 100%)" offset="0.722656"/><stop stop-opacity="1" stop-color="rgb(0%, 75.666809%, 100%)" offset="0.726562"/><stop stop-opacity="1" stop-color="rgb(0%, 75.881958%, 100%)" offset="0.730469"/><stop stop-opacity="1" stop-color="rgb(0%, 76.098633%, 100%)" offset="0.734375"/><stop stop-opacity="1" stop-color="rgb(0%, 76.098633%, 100%)" offset="0.75"/><stop stop-opacity="1" stop-color="rgb(0%, 76.098633%, 100%)" offset="1"/></linearGradient></defs><g clip-path="url(#d3789c1d02)"><g clip-path="url(#746fdce6ac)"><g clip-path="url(#8fd2f39fdf)"><g clip-path="url(#2313472bb9)"><path fill="url(#a9b43e43da)" d="M 57.878906 133.933594 L 57.878906 331.164062 L 182.667969 331.164062 L 182.667969 133.933594 Z M 57.878906 133.933594 " fill-rule="nonzero"/></g></g></g></g><g clip-path="url(#bc859e4bad)"><g clip-path="url(#9e650b704a)"><g clip-path="url(#9a0be0afcc)"><g clip-path="url(#903634b2f0)"><path fill="url(#0d231c8e01)" d="M 249.394531 133.734375 L 249.394531 208.101562 L 354.25 208.101562 L 354.25 133.734375 Z M 249.394531 133.734375 " fill-rule="nonzero"/></g></g></g></g><g clip-path="url(#8c10bb5e47)"><g clip-path="url(#b38d7d406c)"><g clip-path="url(#938b40c8a9)"><g clip-path="url(#3c9020115a)"><path fill="url(#9cf8b8a427)" d="M 205.140625 380.414062 L 408.253906 177.300781 L 205.140625 -25.8125 L 2.027344 177.300781 Z M 205.140625 380.414062 " fill-rule="nonzero"/></g></g></g></g></svg>