<svg xmlns="http://www.w3.org/2000/svg" xmlns:xlink="http://www.w3.org/1999/xlink" width="250" zoomAndPan="magnify" viewBox="0 0 187.5 112.499997" height="150" preserveAspectRatio="xMidYMid meet" version="1.0"><defs><clipPath id="e8f2b320ae"><path d="M 44.554688 42.667969 L 84.3125 42.667969 L 84.3125 105.503906 L 44.554688 105.503906 Z M 44.554688 42.667969 " clip-rule="nonzero"/></clipPath><clipPath id="e80da6f1ca"><path d="M 69.480469 112.023438 L 31.429688 73.972656 L 73.441406 31.960938 L 111.492188 70.011719 Z M 69.480469 112.023438 " clip-rule="nonzero"/></clipPath><clipPath id="f09064d12e"><path d="M 69.480469 112.023438 L 31.429688 73.972656 L 73.441406 31.960938 L 111.492188 70.011719 Z M 69.480469 112.023438 " clip-rule="nonzero"/></clipPath><clipPath id="7ab3167f3f"><path d="M 61.585938 59.703125 C 61.234375 60.054688 60.894531 60.421875 60.566406 60.796875 C 60.242188 61.175781 59.929688 61.566406 59.632812 61.96875 C 59.335938 62.367188 59.050781 62.78125 58.785156 63.203125 C 58.515625 63.625 58.265625 64.054688 58.03125 64.496094 C 57.796875 64.9375 57.578125 65.386719 57.375 65.84375 C 57.171875 66.300781 56.988281 66.761719 56.816406 67.234375 C 56.648438 67.703125 56.5 68.179688 56.367188 68.660156 C 56.230469 69.140625 56.117188 69.628906 56.019531 70.117188 C 55.921875 70.609375 55.84375 71.101562 55.78125 71.597656 C 55.71875 72.09375 55.675781 72.589844 55.652344 73.089844 C 55.628906 73.589844 55.621094 74.085938 55.632812 74.585938 C 55.644531 75.085938 55.675781 75.585938 55.726562 76.082031 C 55.777344 76.578125 55.84375 77.074219 55.925781 77.566406 C 56.011719 78.058594 56.117188 78.542969 56.238281 79.03125 C 56.359375 79.515625 56.5 79.996094 56.65625 80.46875 C 56.8125 80.941406 56.984375 81.410156 57.175781 81.871094 C 57.367188 82.335938 57.578125 82.785156 57.800781 83.234375 C 58.027344 83.679688 58.265625 84.117188 58.523438 84.546875 C 58.78125 84.972656 59.050781 85.394531 59.339844 85.800781 C 59.628906 86.210938 59.929688 86.605469 60.246094 86.992188 C 60.5625 87.378906 60.894531 87.753906 61.238281 88.113281 C 61.582031 88.476562 61.941406 88.824219 62.308594 89.160156 C 62.679688 89.496094 63.0625 89.816406 63.457031 90.125 C 63.851562 90.433594 64.253906 90.722656 64.667969 91 C 65.085938 91.28125 65.511719 91.539062 65.945312 91.785156 C 66.378906 92.035156 66.824219 92.265625 67.273438 92.476562 C 67.726562 92.691406 68.183594 92.886719 68.652344 93.066406 C 69.117188 93.246094 69.589844 93.410156 70.066406 93.554688 C 70.546875 93.699219 71.027344 93.824219 71.515625 93.933594 C 72.003906 94.042969 72.492188 94.136719 72.988281 94.207031 C 73.480469 94.28125 73.976562 94.335938 74.476562 94.375 C 74.972656 94.410156 75.472656 94.429688 75.972656 94.429688 L 75.972656 92.957031 C 75.355469 92.953125 74.738281 92.925781 74.121094 92.863281 C 73.507812 92.804688 72.894531 92.714844 72.289062 92.59375 C 71.683594 92.472656 71.085938 92.320312 70.492188 92.140625 C 69.902344 91.960938 69.320312 91.753906 68.75 91.515625 C 68.179688 91.28125 67.621094 91.015625 67.078125 90.726562 C 66.53125 90.433594 66 90.117188 65.488281 89.773438 C 64.972656 89.429688 64.476562 89.0625 64 88.667969 C 63.523438 88.277344 63.066406 87.863281 62.628906 87.425781 C 62.191406 86.988281 61.777344 86.53125 61.382812 86.050781 C 60.992188 85.574219 60.625 85.078125 60.28125 84.566406 C 59.9375 84.050781 59.621094 83.519531 59.328125 82.976562 C 59.039062 82.429688 58.773438 81.875 58.539062 81.300781 C 58.300781 80.730469 58.09375 80.148438 57.914062 79.558594 C 57.734375 78.964844 57.585938 78.367188 57.464844 77.761719 C 57.34375 77.15625 57.253906 76.542969 57.195312 75.929688 C 57.132812 75.316406 57.101562 74.699219 57.101562 74.078125 C 57.101562 73.460938 57.132812 72.84375 57.195312 72.230469 C 57.253906 71.617188 57.347656 71.003906 57.46875 70.398438 C 57.585938 69.792969 57.738281 69.195312 57.917969 68.601562 C 58.097656 68.011719 58.304688 67.429688 58.539062 66.859375 C 58.777344 66.289062 59.042969 65.730469 59.332031 65.183594 C 59.625 64.640625 59.941406 64.109375 60.285156 63.597656 C 60.628906 63.082031 60.996094 62.585938 61.390625 62.109375 C 61.78125 61.632812 62.195312 61.175781 62.632812 60.734375 C 63.070312 60.300781 63.527344 59.886719 64.003906 59.492188 C 64.484375 59.101562 64.980469 58.734375 65.492188 58.390625 C 66.007812 58.046875 66.535156 57.730469 67.082031 57.4375 C 67.628906 57.148438 68.183594 56.882812 68.757812 56.648438 C 69.328125 56.410156 69.910156 56.203125 70.5 56.023438 C 71.089844 55.84375 71.691406 55.695312 72.296875 55.574219 C 72.902344 55.453125 73.515625 55.363281 74.128906 55.304688 C 74.742188 55.242188 75.359375 55.210938 75.976562 55.210938 L 84.304688 55.210938 L 84.304688 53.738281 L 75.976562 53.75 C 74.640625 53.746094 73.316406 53.871094 72.007812 54.128906 C 70.695312 54.386719 69.421875 54.773438 68.183594 55.28125 C 66.949219 55.792969 65.777344 56.421875 64.667969 57.164062 C 63.558594 57.910156 62.53125 58.753906 61.585938 59.703125 Z M 66.808594 64.921875 C 66.355469 65.375 65.941406 65.855469 65.5625 66.367188 C 65.183594 66.878906 64.84375 67.414062 64.542969 67.976562 C 64.242188 68.539062 63.984375 69.121094 63.769531 69.71875 C 63.554688 70.320312 63.386719 70.933594 63.261719 71.558594 C 63.136719 72.183594 63.058594 72.8125 63.027344 73.449219 C 62.996094 74.085938 63.011719 74.722656 63.074219 75.355469 C 63.136719 75.992188 63.246094 76.617188 63.402344 77.234375 C 63.554688 77.855469 63.753906 78.457031 64 79.046875 C 64.242188 79.636719 64.527344 80.203125 64.855469 80.75 C 65.183594 81.296875 65.550781 81.816406 65.953125 82.308594 C 66.359375 82.800781 66.796875 83.261719 67.269531 83.6875 C 67.742188 84.117188 68.242188 84.507812 68.773438 84.863281 C 69.300781 85.21875 69.855469 85.53125 70.429688 85.800781 C 71.007812 86.074219 71.601562 86.304688 72.210938 86.488281 C 72.820312 86.675781 73.441406 86.8125 74.070312 86.90625 C 74.699219 87 75.335938 87.046875 75.972656 87.046875 L 75.972656 85.570312 C 75.59375 85.570312 75.21875 85.554688 74.847656 85.515625 C 74.472656 85.480469 74.097656 85.425781 73.730469 85.351562 C 73.359375 85.277344 72.996094 85.1875 72.636719 85.078125 C 72.277344 84.96875 71.921875 84.84375 71.574219 84.699219 C 71.226562 84.554688 70.886719 84.394531 70.554688 84.21875 C 70.222656 84.039062 69.902344 83.847656 69.589844 83.636719 C 69.277344 83.429688 68.972656 83.207031 68.683594 82.964844 C 68.390625 82.726562 68.113281 82.476562 67.847656 82.210938 C 67.582031 81.941406 67.328125 81.664062 67.089844 81.375 C 66.851562 81.082031 66.628906 80.78125 66.417969 80.46875 C 66.210938 80.15625 66.015625 79.832031 65.839844 79.5 C 65.660156 79.167969 65.5 78.828125 65.355469 78.484375 C 65.210938 78.132812 65.085938 77.78125 64.976562 77.421875 C 64.867188 77.058594 64.777344 76.695312 64.703125 76.328125 C 64.628906 75.957031 64.574219 75.585938 64.539062 75.210938 C 64.5 74.835938 64.480469 74.460938 64.480469 74.085938 C 64.480469 73.710938 64.5 73.335938 64.539062 72.960938 C 64.574219 72.585938 64.628906 72.210938 64.703125 71.84375 C 64.777344 71.476562 64.867188 71.109375 64.976562 70.75 C 65.085938 70.390625 65.214844 70.035156 65.355469 69.6875 C 65.5 69.34375 65.660156 69.003906 65.839844 68.667969 C 66.015625 68.339844 66.210938 68.015625 66.417969 67.703125 C 66.628906 67.390625 66.851562 67.089844 67.089844 66.796875 C 67.328125 66.507812 67.582031 66.226562 67.847656 65.960938 C 68.113281 65.695312 68.394531 65.445312 68.683594 65.207031 C 68.972656 64.964844 69.277344 64.742188 69.589844 64.535156 C 69.902344 64.324219 70.226562 64.132812 70.558594 63.953125 C 70.886719 63.777344 71.226562 63.617188 71.578125 63.472656 C 71.921875 63.328125 72.277344 63.203125 72.636719 63.09375 C 72.996094 62.984375 73.363281 62.894531 73.730469 62.820312 C 74.101562 62.746094 74.472656 62.691406 74.847656 62.65625 C 75.222656 62.617188 75.597656 62.601562 75.972656 62.601562 L 84.3125 62.601562 L 84.308594 61.125 L 75.972656 61.125 C 75.121094 61.125 74.277344 61.207031 73.441406 61.371094 C 72.605469 61.535156 71.796875 61.78125 71.007812 62.105469 C 70.222656 62.433594 69.476562 62.832031 68.769531 63.304688 C 68.0625 63.78125 67.410156 64.316406 66.808594 64.921875 Z M 64.191406 62.308594 C 63.613281 62.886719 63.082031 63.503906 62.59375 64.164062 C 62.109375 64.820312 61.671875 65.507812 61.285156 66.230469 C 60.898438 66.953125 60.566406 67.699219 60.292969 68.46875 C 60.019531 69.242188 59.800781 70.027344 59.640625 70.832031 C 59.480469 71.632812 59.378906 72.441406 59.339844 73.261719 C 59.300781 74.078125 59.320312 74.894531 59.402344 75.707031 C 59.480469 76.523438 59.621094 77.328125 59.820312 78.121094 C 60.019531 78.914062 60.273438 79.691406 60.589844 80.445312 C 60.898438 81.203125 61.265625 81.933594 61.6875 82.632812 C 62.109375 83.335938 62.578125 84.003906 63.097656 84.636719 C 63.617188 85.269531 64.179688 85.859375 64.785156 86.410156 C 65.390625 86.960938 66.035156 87.460938 66.714844 87.917969 C 67.394531 88.375 68.105469 88.777344 68.84375 89.125 C 69.585938 89.476562 70.347656 89.769531 71.128906 90.007812 C 71.914062 90.246094 72.710938 90.425781 73.519531 90.546875 C 74.328125 90.667969 75.140625 90.726562 75.960938 90.726562 L 75.972656 89.261719 C 75.484375 89.253906 74.996094 89.214844 74.507812 89.15625 C 74.023438 89.097656 73.542969 89.015625 73.0625 88.910156 C 72.585938 88.804688 72.113281 88.675781 71.648438 88.523438 C 71.183594 88.371094 70.726562 88.199219 70.277344 88.003906 C 69.828125 87.808594 69.390625 87.589844 68.964844 87.351562 C 68.535156 87.113281 68.121094 86.855469 67.71875 86.578125 C 67.316406 86.300781 66.925781 86.003906 66.550781 85.6875 C 66.179688 85.371094 65.820312 85.039062 65.480469 84.6875 C 65.136719 84.335938 64.8125 83.972656 64.507812 83.589844 C 64.199219 83.207031 63.914062 82.8125 63.644531 82.402344 C 63.378906 81.996094 63.128906 81.574219 62.902344 81.140625 C 62.675781 80.703125 62.46875 80.261719 62.285156 79.808594 C 62.101562 79.355469 61.9375 78.894531 61.796875 78.425781 C 61.660156 77.957031 61.542969 77.480469 61.449219 77 C 61.351562 76.519531 61.285156 76.035156 61.234375 75.550781 C 61.1875 75.0625 61.164062 74.574219 61.164062 74.085938 C 61.164062 73.597656 61.1875 73.109375 61.234375 72.621094 C 61.285156 72.132812 61.355469 71.648438 61.449219 71.171875 C 61.542969 70.691406 61.660156 70.214844 61.796875 69.746094 C 61.9375 69.277344 62.101562 68.816406 62.285156 68.363281 C 62.46875 67.910156 62.675781 67.464844 62.902344 67.03125 C 63.128906 66.597656 63.378906 66.175781 63.648438 65.769531 C 63.914062 65.359375 64.203125 64.964844 64.507812 64.582031 C 64.816406 64.199219 65.140625 63.832031 65.480469 63.484375 C 65.820312 63.132812 66.179688 62.800781 66.554688 62.484375 C 66.929688 62.167969 67.316406 61.871094 67.71875 61.59375 C 68.121094 61.316406 68.539062 61.058594 68.964844 60.820312 C 69.390625 60.582031 69.832031 60.367188 70.277344 60.171875 C 70.726562 59.972656 71.183594 59.800781 71.648438 59.648438 C 72.117188 59.5 72.585938 59.367188 73.066406 59.261719 C 73.542969 59.15625 74.023438 59.074219 74.511719 59.015625 C 74.996094 58.957031 75.484375 58.921875 75.972656 58.90625 L 84.304688 58.90625 L 84.304688 57.433594 L 75.972656 57.433594 C 74.878906 57.433594 73.792969 57.535156 72.722656 57.75 C 71.648438 57.960938 70.605469 58.277344 69.597656 58.695312 C 68.585938 59.113281 67.625 59.628906 66.71875 60.234375 C 65.808594 60.84375 64.96875 61.535156 64.199219 62.3125 Z M 56.363281 54.476562 C 56.039062 54.796875 55.726562 55.125 55.421875 55.460938 C 55.117188 55.796875 54.824219 56.140625 54.535156 56.492188 C 54.246094 56.84375 53.96875 57.199219 53.699219 57.566406 C 53.429688 57.929688 53.167969 58.300781 52.914062 58.679688 C 52.664062 59.054688 52.421875 59.441406 52.1875 59.828125 C 51.953125 60.21875 51.730469 60.613281 51.515625 61.011719 C 51.304688 61.414062 51.097656 61.816406 50.90625 62.226562 C 50.710938 62.640625 50.527344 63.054688 50.355469 63.472656 C 50.179688 63.890625 50.015625 64.316406 49.867188 64.742188 C 49.710938 65.171875 49.570312 65.601562 49.4375 66.035156 C 49.308594 66.46875 49.1875 66.90625 49.074219 67.347656 C 48.964844 67.785156 48.867188 68.230469 48.777344 68.675781 C 48.691406 69.117188 48.613281 69.566406 48.546875 70.015625 C 48.480469 70.464844 48.425781 70.914062 48.378906 71.367188 C 48.335938 71.816406 48.300781 72.269531 48.28125 72.722656 C 48.257812 73.175781 48.246094 73.628906 48.246094 74.082031 C 48.246094 74.539062 48.257812 74.992188 48.28125 75.445312 C 48.304688 75.898438 48.335938 76.347656 48.382812 76.800781 C 48.425781 77.253906 48.480469 77.703125 48.546875 78.152344 C 48.613281 78.601562 48.691406 79.046875 48.78125 79.492188 C 48.871094 79.9375 48.96875 80.378906 49.082031 80.820312 C 49.191406 81.261719 49.3125 81.699219 49.441406 82.132812 C 49.574219 82.566406 49.71875 82.996094 49.871094 83.425781 C 50.023438 83.851562 50.1875 84.273438 50.359375 84.695312 C 50.535156 85.113281 50.71875 85.527344 50.914062 85.9375 C 51.105469 86.347656 51.308594 86.753906 51.523438 87.152344 C 51.738281 87.554688 51.960938 87.949219 52.195312 88.335938 C 52.429688 88.726562 52.671875 89.109375 52.921875 89.484375 C 53.175781 89.863281 53.4375 90.234375 53.707031 90.597656 C 53.976562 90.964844 54.257812 91.320312 54.542969 91.671875 C 54.832031 92.023438 55.128906 92.367188 55.433594 92.703125 C 55.738281 93.039062 56.050781 93.367188 56.371094 93.6875 C 57.011719 94.332031 57.683594 94.941406 58.382812 95.519531 C 59.085938 96.097656 59.8125 96.640625 60.566406 97.144531 C 61.320312 97.652344 62.097656 98.117188 62.898438 98.546875 C 63.699219 98.976562 64.519531 99.363281 65.359375 99.714844 C 66.199219 100.058594 67.050781 100.367188 67.921875 100.628906 C 68.789062 100.894531 69.671875 101.113281 70.5625 101.289062 C 71.453125 101.464844 72.351562 101.597656 73.253906 101.683594 C 74.160156 101.769531 75.066406 101.8125 75.972656 101.8125 L 75.964844 100.34375 C 75.535156 100.34375 75.105469 100.332031 74.679688 100.3125 C 74.25 100.289062 73.820312 100.257812 73.394531 100.21875 C 72.964844 100.175781 72.539062 100.121094 72.113281 100.058594 C 71.691406 99.996094 71.265625 99.921875 70.84375 99.839844 C 70.421875 99.753906 70.003906 99.660156 69.589844 99.554688 C 69.171875 99.453125 68.757812 99.335938 68.347656 99.210938 C 67.933594 99.089844 67.527344 98.953125 67.121094 98.808594 C 66.71875 98.664062 66.316406 98.507812 65.921875 98.34375 C 65.523438 98.179688 65.132812 98.007812 64.742188 97.824219 C 64.355469 97.636719 63.96875 97.445312 63.59375 97.242188 C 63.210938 97.042969 62.839844 96.828125 62.472656 96.609375 C 62.101562 96.386719 61.738281 96.15625 61.382812 95.917969 C 61.023438 95.679688 60.675781 95.433594 60.328125 95.175781 C 59.984375 94.921875 59.644531 94.65625 59.3125 94.382812 C 58.980469 94.113281 58.65625 93.832031 58.339844 93.542969 C 58.019531 93.253906 57.707031 92.957031 57.40625 92.65625 C 57.101562 92.351562 56.804688 92.039062 56.515625 91.722656 C 56.226562 91.402344 55.949219 91.078125 55.675781 90.746094 C 55.402344 90.414062 55.136719 90.074219 54.882812 89.730469 C 54.625 89.386719 54.378906 89.03125 54.140625 88.675781 C 53.902344 88.320312 53.671875 87.957031 53.449219 87.589844 C 53.230469 87.21875 53.019531 86.84375 52.816406 86.46875 C 52.613281 86.085938 52.417969 85.703125 52.234375 85.316406 C 52.050781 84.925781 51.878906 84.535156 51.714844 84.136719 C 51.550781 83.742188 51.394531 83.339844 51.25 82.9375 C 51.105469 82.53125 50.96875 82.125 50.847656 81.714844 C 50.722656 81.300781 50.605469 80.886719 50.503906 80.472656 C 50.398438 80.054688 50.304688 79.636719 50.21875 79.214844 C 50.136719 78.792969 50.0625 78.371094 50 77.945312 C 49.9375 77.519531 49.882812 77.09375 49.84375 76.664062 C 49.800781 76.238281 49.769531 75.808594 49.746094 75.378906 C 49.726562 74.953125 49.714844 74.523438 49.714844 74.09375 C 49.714844 73.664062 49.726562 73.234375 49.746094 72.804688 C 49.769531 72.375 49.800781 71.945312 49.84375 71.519531 C 49.882812 71.089844 49.9375 70.664062 50 70.242188 C 50.0625 69.816406 50.136719 69.394531 50.21875 68.972656 C 50.304688 68.550781 50.398438 68.132812 50.503906 67.714844 C 50.605469 67.296875 50.722656 66.882812 50.847656 66.472656 C 50.96875 66.0625 51.105469 65.652344 51.25 65.25 C 51.394531 64.84375 51.550781 64.445312 51.714844 64.046875 C 51.878906 63.648438 52.050781 63.257812 52.234375 62.867188 C 52.421875 62.480469 52.613281 62.097656 52.816406 61.71875 C 53.019531 61.339844 53.230469 60.964844 53.449219 60.597656 C 53.671875 60.230469 53.902344 59.863281 54.140625 59.507812 C 54.378906 59.152344 54.625 58.800781 54.882812 58.453125 C 55.136719 58.109375 55.402344 57.769531 55.675781 57.4375 C 55.949219 57.105469 56.226562 56.78125 56.515625 56.460938 C 56.804688 56.144531 57.101562 55.832031 57.40625 55.53125 C 57.707031 55.226562 58.019531 54.929688 58.339844 54.640625 C 58.65625 54.351562 58.980469 54.070312 59.3125 53.800781 C 59.644531 53.527344 59.984375 53.261719 60.328125 53.007812 C 60.675781 52.75 61.027344 52.503906 61.382812 52.265625 C 61.742188 52.027344 62.101562 51.796875 62.472656 51.574219 C 62.839844 51.355469 63.214844 51.144531 63.59375 50.941406 C 63.972656 50.738281 64.355469 50.546875 64.742188 50.359375 C 65.132812 50.175781 65.523438 50.003906 65.921875 49.839844 C 66.320312 49.675781 66.71875 49.519531 67.125 49.375 C 67.527344 49.230469 67.9375 49.09375 68.347656 48.972656 C 68.757812 48.847656 69.171875 48.730469 69.589844 48.628906 C 70.007812 48.523438 70.425781 48.429688 70.847656 48.34375 C 71.269531 48.261719 71.691406 48.1875 72.117188 48.125 C 72.542969 48.0625 72.964844 48.007812 73.394531 47.96875 C 73.820312 47.925781 74.25 47.894531 74.679688 47.871094 C 75.109375 47.851562 75.539062 47.839844 75.96875 47.839844 L 84.292969 47.835938 L 84.289062 46.359375 L 75.972656 46.359375 C 75.0625 46.359375 74.15625 46.402344 73.253906 46.488281 C 72.347656 46.574219 71.449219 46.707031 70.558594 46.882812 C 69.667969 47.058594 68.789062 47.277344 67.917969 47.542969 C 67.050781 47.804688 66.195312 48.109375 65.355469 48.457031 C 64.515625 48.804688 63.695312 49.191406 62.894531 49.621094 C 62.09375 50.050781 61.316406 50.519531 60.5625 51.023438 C 59.808594 51.53125 59.082031 52.070312 58.378906 52.648438 C 57.679688 53.226562 57.007812 53.835938 56.367188 54.480469 Z M 69.414062 67.527344 C 69.089844 67.847656 68.792969 68.191406 68.519531 68.558594 C 68.25 68.925781 68.007812 69.308594 67.792969 69.710938 C 67.578125 70.113281 67.394531 70.527344 67.238281 70.957031 C 67.085938 71.386719 66.964844 71.824219 66.875 72.273438 C 66.785156 72.71875 66.730469 73.171875 66.710938 73.625 C 66.6875 74.082031 66.699219 74.535156 66.742188 74.988281 C 66.789062 75.441406 66.863281 75.890625 66.976562 76.332031 C 67.085938 76.773438 67.230469 77.207031 67.402344 77.628906 C 67.578125 78.050781 67.78125 78.453125 68.015625 78.847656 C 68.25 79.238281 68.511719 79.609375 68.800781 79.960938 C 69.089844 80.3125 69.402344 80.644531 69.742188 80.949219 C 70.078125 81.253906 70.4375 81.535156 70.816406 81.789062 C 71.195312 82.042969 71.589844 82.265625 72.003906 82.460938 C 72.414062 82.65625 72.839844 82.820312 73.273438 82.953125 C 73.710938 83.082031 74.15625 83.183594 74.605469 83.25 C 75.058594 83.316406 75.511719 83.351562 75.964844 83.351562 L 75.96875 81.878906 C 75.710938 81.878906 75.457031 81.863281 75.203125 81.839844 C 74.949219 81.8125 74.699219 81.777344 74.445312 81.726562 C 74.195312 81.675781 73.949219 81.617188 73.703125 81.542969 C 73.460938 81.464844 73.21875 81.378906 72.984375 81.285156 C 72.75 81.183594 72.515625 81.078125 72.292969 80.957031 C 72.066406 80.835938 71.847656 80.703125 71.636719 80.5625 C 71.425781 80.421875 71.21875 80.269531 71.023438 80.109375 C 70.824219 79.945312 70.636719 79.773438 70.457031 79.59375 C 70.273438 79.414062 70.101562 79.222656 69.941406 79.027344 C 69.78125 78.828125 69.628906 78.625 69.484375 78.414062 C 69.34375 78.199219 69.214844 77.980469 69.09375 77.753906 C 68.972656 77.53125 68.863281 77.300781 68.765625 77.066406 C 68.667969 76.828125 68.582031 76.589844 68.507812 76.34375 C 68.433594 76.101562 68.371094 75.851562 68.324219 75.601562 C 68.273438 75.351562 68.234375 75.101562 68.210938 74.847656 C 68.183594 74.589844 68.171875 74.335938 68.171875 74.082031 C 68.171875 73.824219 68.183594 73.570312 68.210938 73.316406 C 68.234375 73.0625 68.273438 72.8125 68.324219 72.5625 C 68.371094 72.308594 68.433594 72.0625 68.507812 71.816406 C 68.582031 71.574219 68.667969 71.335938 68.765625 71.097656 C 68.863281 70.863281 68.972656 70.632812 69.09375 70.40625 C 69.214844 70.183594 69.34375 69.960938 69.484375 69.75 C 69.628906 69.539062 69.78125 69.332031 69.941406 69.136719 C 70.101562 68.9375 70.273438 68.75 70.457031 68.570312 C 70.636719 68.386719 70.824219 68.21875 71.023438 68.054688 C 71.21875 67.894531 71.425781 67.742188 71.636719 67.597656 C 71.847656 67.457031 72.066406 67.328125 72.292969 67.207031 C 72.515625 67.085938 72.75 66.976562 72.984375 66.878906 C 73.21875 66.78125 73.460938 66.695312 73.703125 66.621094 C 73.949219 66.546875 74.195312 66.484375 74.445312 66.4375 C 74.699219 66.386719 74.949219 66.347656 75.203125 66.324219 C 75.457031 66.296875 75.710938 66.285156 75.96875 66.285156 L 84.3125 66.296875 L 84.304688 64.824219 L 75.964844 64.824219 C 75.359375 64.820312 74.753906 64.878906 74.160156 64.996094 C 73.5625 65.113281 72.984375 65.289062 72.421875 65.523438 C 71.859375 65.753906 71.324219 66.039062 70.820312 66.378906 C 70.316406 66.714844 69.847656 67.101562 69.417969 67.53125 Z M 58.972656 57.085938 C 58.554688 57.503906 58.152344 57.9375 57.769531 58.382812 C 57.382812 58.828125 57.011719 59.289062 56.660156 59.765625 C 56.308594 60.238281 55.976562 60.726562 55.660156 61.222656 C 55.34375 61.722656 55.046875 62.230469 54.765625 62.753906 C 54.488281 63.273438 54.230469 63.800781 53.992188 64.34375 C 53.753906 64.882812 53.53125 65.429688 53.332031 65.984375 C 53.136719 66.542969 52.957031 67.105469 52.796875 67.671875 C 52.640625 68.242188 52.503906 68.816406 52.390625 69.394531 C 52.273438 69.972656 52.179688 70.554688 52.109375 71.140625 C 52.035156 71.726562 51.984375 72.316406 51.957031 72.90625 C 51.925781 73.496094 51.921875 74.085938 51.933594 74.675781 C 51.949219 75.265625 51.984375 75.855469 52.042969 76.441406 C 52.101562 77.027344 52.179688 77.613281 52.28125 78.195312 C 52.382812 78.777344 52.503906 79.355469 52.648438 79.925781 C 52.792969 80.5 52.957031 81.066406 53.140625 81.628906 C 53.324219 82.1875 53.53125 82.738281 53.757812 83.285156 C 53.984375 83.832031 54.230469 84.367188 54.492188 84.894531 C 54.761719 85.421875 55.042969 85.9375 55.347656 86.445312 C 55.652344 86.949219 55.972656 87.445312 56.3125 87.929688 C 56.652344 88.410156 57.011719 88.882812 57.382812 89.335938 C 57.757812 89.792969 58.148438 90.234375 58.558594 90.664062 C 58.964844 91.089844 59.386719 91.503906 59.824219 91.898438 C 60.261719 92.292969 60.714844 92.675781 61.179688 93.039062 C 61.644531 93.402344 62.121094 93.746094 62.613281 94.074219 C 63.105469 94.402344 63.605469 94.710938 64.121094 95.003906 C 64.632812 95.292969 65.15625 95.566406 65.691406 95.816406 C 66.226562 96.070312 66.769531 96.300781 67.316406 96.511719 C 67.871094 96.726562 68.425781 96.917969 68.992188 97.089844 C 69.558594 97.261719 70.128906 97.410156 70.703125 97.539062 C 71.28125 97.667969 71.859375 97.777344 72.445312 97.863281 C 73.027344 97.949219 73.613281 98.015625 74.203125 98.058594 C 74.792969 98.101562 75.382812 98.121094 75.972656 98.121094 L 75.972656 96.648438 C 75.605469 96.644531 75.238281 96.628906 74.871094 96.609375 C 74.503906 96.589844 74.140625 96.558594 73.773438 96.519531 C 73.410156 96.480469 73.046875 96.433594 72.683594 96.375 C 72.320312 96.316406 71.957031 96.253906 71.597656 96.179688 C 71.238281 96.105469 70.882812 96.019531 70.527344 95.929688 C 70.171875 95.835938 69.816406 95.738281 69.46875 95.628906 C 69.117188 95.519531 68.769531 95.402344 68.425781 95.273438 C 68.078125 95.148438 67.738281 95.015625 67.398438 94.871094 C 67.0625 94.730469 66.726562 94.578125 66.394531 94.417969 C 66.066406 94.261719 65.738281 94.09375 65.417969 93.917969 C 65.09375 93.742188 64.777344 93.558594 64.460938 93.367188 C 64.148438 93.179688 63.839844 92.980469 63.535156 92.773438 C 63.230469 92.570312 62.929688 92.355469 62.636719 92.136719 C 62.34375 91.914062 62.054688 91.6875 61.773438 91.453125 C 61.488281 91.21875 61.214844 90.976562 60.941406 90.730469 C 60.671875 90.484375 60.40625 90.226562 60.148438 89.96875 C 59.890625 89.707031 59.636719 89.441406 59.394531 89.167969 C 59.148438 88.894531 58.910156 88.613281 58.675781 88.328125 C 58.445312 88.046875 58.222656 87.753906 58.003906 87.460938 C 57.785156 87.164062 57.574219 86.863281 57.371094 86.554688 C 57.167969 86.25 56.972656 85.941406 56.785156 85.625 C 56.597656 85.308594 56.417969 84.988281 56.246094 84.664062 C 56.074219 84.339844 55.910156 84.011719 55.753906 83.679688 C 55.597656 83.347656 55.449219 83.011719 55.308594 82.671875 C 55.171875 82.332031 55.039062 81.992188 54.917969 81.644531 C 54.792969 81.296875 54.679688 80.949219 54.574219 80.597656 C 54.464844 80.246094 54.371094 79.894531 54.28125 79.535156 C 54.191406 79.179688 54.113281 78.820312 54.039062 78.460938 C 53.96875 78.101562 53.90625 77.742188 53.855469 77.378906 C 53.800781 77.015625 53.753906 76.648438 53.71875 76.285156 C 53.683594 75.917969 53.65625 75.554688 53.640625 75.1875 C 53.621094 74.820312 53.613281 74.453125 53.613281 74.085938 C 53.613281 73.71875 53.621094 73.351562 53.640625 72.984375 C 53.65625 72.617188 53.683594 72.253906 53.71875 71.886719 C 53.753906 71.519531 53.800781 71.15625 53.855469 70.792969 C 53.90625 70.429688 53.96875 70.070312 54.039062 69.707031 C 54.113281 69.347656 54.191406 68.992188 54.28125 68.632812 C 54.371094 68.277344 54.46875 67.925781 54.574219 67.570312 C 54.679688 67.222656 54.792969 66.871094 54.917969 66.527344 C 55.039062 66.179688 55.171875 65.835938 55.3125 65.5 C 55.449219 65.160156 55.597656 64.824219 55.753906 64.492188 C 55.910156 64.160156 56.074219 63.828125 56.246094 63.507812 C 56.417969 63.183594 56.597656 62.863281 56.789062 62.546875 C 56.976562 62.230469 57.171875 61.917969 57.375 61.613281 C 57.578125 61.308594 57.785156 61.007812 58.003906 60.710938 C 58.222656 60.417969 58.445312 60.125 58.679688 59.839844 C 58.910156 59.554688 59.148438 59.277344 59.394531 59.003906 C 59.640625 58.730469 59.890625 58.464844 60.148438 58.203125 C 60.410156 57.945312 60.671875 57.6875 60.945312 57.441406 C 61.214844 57.191406 61.492188 56.953125 61.773438 56.71875 C 62.054688 56.484375 62.34375 56.257812 62.640625 56.035156 C 62.933594 55.816406 63.230469 55.601562 63.535156 55.398438 C 63.839844 55.191406 64.148438 54.992188 64.460938 54.800781 C 64.777344 54.613281 65.09375 54.429688 65.417969 54.253906 C 65.738281 54.078125 66.066406 53.914062 66.398438 53.753906 C 66.726562 53.59375 67.0625 53.445312 67.402344 53.300781 C 67.738281 53.15625 68.082031 53.023438 68.425781 52.898438 C 68.769531 52.773438 69.117188 52.652344 69.46875 52.542969 C 69.820312 52.4375 70.171875 52.335938 70.527344 52.242188 C 70.882812 52.152344 71.242188 52.070312 71.601562 51.992188 C 71.960938 51.917969 72.320312 51.851562 72.683594 51.796875 C 73.046875 51.738281 73.410156 51.691406 73.777344 51.652344 C 74.140625 51.613281 74.507812 51.585938 74.875 51.5625 C 75.238281 51.542969 75.605469 51.53125 75.972656 51.527344 L 84.296875 51.527344 L 84.292969 50.050781 L 75.972656 50.050781 C 75.183594 50.050781 74.398438 50.085938 73.613281 50.160156 C 72.832031 50.238281 72.054688 50.351562 71.28125 50.503906 C 70.507812 50.65625 69.746094 50.847656 68.992188 51.074219 C 68.238281 51.304688 67.496094 51.566406 66.769531 51.871094 C 66.042969 52.171875 65.332031 52.507812 64.636719 52.878906 C 63.941406 53.25 63.269531 53.65625 62.613281 54.09375 C 61.960938 54.53125 61.328125 55.003906 60.722656 55.503906 C 60.113281 56.003906 59.535156 56.535156 58.976562 57.09375 Z M 44.554688 74.085938 C 44.554688 74.601562 44.566406 75.113281 44.59375 75.628906 C 44.617188 76.140625 44.65625 76.652344 44.707031 77.164062 C 44.757812 77.675781 44.820312 78.1875 44.894531 78.695312 C 44.972656 79.203125 45.058594 79.710938 45.160156 80.214844 C 45.257812 80.71875 45.371094 81.21875 45.496094 81.71875 C 45.621094 82.21875 45.757812 82.714844 45.90625 83.207031 C 46.058594 83.699219 46.21875 84.1875 46.390625 84.671875 C 46.566406 85.152344 46.75 85.632812 46.945312 86.109375 C 47.144531 86.582031 47.351562 87.054688 47.570312 87.519531 C 47.792969 87.984375 48.023438 88.441406 48.265625 88.894531 C 48.507812 89.347656 48.761719 89.796875 49.023438 90.238281 C 49.289062 90.679688 49.5625 91.113281 49.847656 91.539062 C 50.136719 91.96875 50.433594 92.386719 50.738281 92.800781 C 51.042969 93.214844 51.359375 93.621094 51.6875 94.015625 C 52.011719 94.414062 52.347656 94.804688 52.691406 95.183594 C 53.039062 95.566406 53.394531 95.9375 53.757812 96.300781 C 54.121094 96.664062 54.492188 97.019531 54.875 97.363281 C 55.253906 97.710938 55.644531 98.046875 56.042969 98.371094 C 56.4375 98.699219 56.84375 99.015625 57.257812 99.320312 C 57.667969 99.628906 58.089844 99.921875 58.519531 100.207031 C 58.945312 100.496094 59.378906 100.769531 59.820312 101.035156 C 60.261719 101.296875 60.707031 101.550781 61.164062 101.792969 C 61.617188 102.035156 62.074219 102.269531 62.539062 102.488281 C 63.003906 102.707031 63.476562 102.914062 63.949219 103.113281 C 64.425781 103.308594 64.902344 103.492188 65.390625 103.667969 C 65.875 103.839844 66.359375 104 66.851562 104.152344 C 67.34375 104.300781 67.839844 104.4375 68.339844 104.5625 C 68.835938 104.6875 69.339844 104.800781 69.84375 104.898438 C 70.347656 105 70.855469 105.089844 71.363281 105.164062 C 71.871094 105.238281 72.382812 105.300781 72.894531 105.351562 C 73.40625 105.402344 73.917969 105.441406 74.429688 105.464844 C 74.945312 105.492188 75.460938 105.503906 75.972656 105.503906 L 75.972656 104.027344 C 75.480469 104.027344 74.992188 104.019531 74.503906 103.992188 C 74.011719 103.96875 73.523438 103.933594 73.035156 103.882812 C 72.546875 103.835938 72.0625 103.777344 71.578125 103.707031 C 71.09375 103.632812 70.609375 103.550781 70.128906 103.453125 C 69.648438 103.359375 69.171875 103.25 68.695312 103.132812 C 68.21875 103.011719 67.75 102.882812 67.28125 102.738281 C 66.808594 102.597656 66.347656 102.445312 65.882812 102.277344 C 65.421875 102.113281 64.964844 101.9375 64.511719 101.75 C 64.058594 101.5625 63.613281 101.363281 63.167969 101.15625 C 62.726562 100.945312 62.289062 100.726562 61.855469 100.496094 C 61.425781 100.261719 61 100.023438 60.578125 99.769531 C 60.15625 99.519531 59.746094 99.257812 59.335938 98.984375 C 58.929688 98.710938 58.527344 98.429688 58.136719 98.136719 C 57.742188 97.84375 57.355469 97.542969 56.976562 97.234375 C 56.597656 96.921875 56.226562 96.601562 55.863281 96.273438 C 55.5 95.945312 55.144531 95.605469 54.796875 95.261719 C 54.453125 94.914062 54.113281 94.558594 53.785156 94.195312 C 53.457031 93.832031 53.136719 93.460938 52.824219 93.082031 C 52.515625 92.703125 52.210938 92.316406 51.921875 91.925781 C 51.628906 91.53125 51.347656 91.128906 51.074219 90.722656 C 50.800781 90.316406 50.542969 89.902344 50.289062 89.480469 C 50.039062 89.058594 49.796875 88.632812 49.5625 88.203125 C 49.332031 87.769531 49.113281 87.332031 48.902344 86.890625 C 48.695312 86.445312 48.496094 85.996094 48.308594 85.546875 C 48.121094 85.09375 47.945312 84.636719 47.78125 84.175781 C 47.613281 83.714844 47.460938 83.246094 47.316406 82.777344 C 47.175781 82.308594 47.046875 81.835938 46.925781 81.363281 C 46.808594 80.886719 46.699219 80.410156 46.605469 79.929688 C 46.507812 79.449219 46.425781 78.964844 46.355469 78.480469 C 46.28125 77.996094 46.222656 77.507812 46.171875 77.019531 C 46.125 76.535156 46.089844 76.046875 46.066406 75.558594 C 46.042969 75.066406 46.03125 74.578125 46.03125 74.085938 C 46.03125 73.597656 46.042969 73.109375 46.066406 72.617188 C 46.089844 72.128906 46.125 71.640625 46.171875 71.152344 C 46.222656 70.664062 46.28125 70.179688 46.355469 69.691406 C 46.425781 69.207031 46.507812 68.726562 46.605469 68.246094 C 46.699219 67.765625 46.808594 67.285156 46.925781 66.8125 C 47.046875 66.335938 47.175781 65.863281 47.316406 65.394531 C 47.460938 64.925781 47.613281 64.460938 47.78125 64 C 47.945312 63.539062 48.121094 63.082031 48.308594 62.628906 C 48.496094 62.175781 48.695312 61.726562 48.902344 61.285156 C 49.113281 60.839844 49.335938 60.402344 49.5625 59.972656 C 49.796875 59.539062 50.039062 59.113281 50.289062 58.691406 C 50.542969 58.273438 50.800781 57.859375 51.074219 57.449219 C 51.347656 57.042969 51.628906 56.644531 51.921875 56.25 C 52.214844 55.855469 52.515625 55.46875 52.828125 55.089844 C 53.136719 54.710938 53.457031 54.339844 53.785156 53.976562 C 54.117188 53.613281 54.453125 53.257812 54.800781 52.914062 C 55.144531 52.566406 55.5 52.230469 55.863281 51.898438 C 56.226562 51.570312 56.597656 51.25 56.976562 50.941406 C 57.355469 50.628906 57.742188 50.328125 58.136719 50.035156 C 58.527344 49.742188 58.929688 49.460938 59.335938 49.1875 C 59.746094 48.917969 60.160156 48.65625 60.578125 48.402344 C 61 48.152344 61.425781 47.910156 61.855469 47.679688 C 62.289062 47.449219 62.726562 47.226562 63.171875 47.019531 C 63.613281 46.808594 64.0625 46.609375 64.515625 46.421875 C 64.96875 46.234375 65.425781 46.058594 65.886719 45.894531 C 66.347656 45.726562 66.8125 45.574219 67.28125 45.433594 C 67.75 45.289062 68.222656 45.160156 68.695312 45.042969 C 69.171875 44.921875 69.648438 44.816406 70.132812 44.71875 C 70.613281 44.621094 71.09375 44.539062 71.578125 44.46875 C 72.0625 44.394531 72.550781 44.335938 73.039062 44.289062 C 73.527344 44.238281 74.015625 44.203125 74.503906 44.179688 C 74.992188 44.15625 75.484375 44.144531 75.972656 44.144531 L 84.285156 44.144531 L 84.285156 42.667969 L 75.972656 42.667969 C 75.457031 42.667969 74.945312 42.679688 74.429688 42.707031 C 73.917969 42.734375 73.402344 42.769531 72.890625 42.820312 C 72.378906 42.871094 71.871094 42.933594 71.363281 43.011719 C 70.855469 43.085938 70.347656 43.171875 69.84375 43.273438 C 69.339844 43.375 68.835938 43.488281 68.339844 43.609375 C 67.839844 43.734375 67.34375 43.875 66.851562 44.023438 C 66.359375 44.171875 65.871094 44.332031 65.386719 44.507812 C 64.902344 44.679688 64.425781 44.863281 63.949219 45.0625 C 63.472656 45.257812 63.003906 45.464844 62.539062 45.6875 C 62.074219 45.90625 61.617188 46.136719 61.164062 46.378906 C 60.707031 46.621094 60.261719 46.875 59.820312 47.140625 C 59.378906 47.40625 58.945312 47.679688 58.519531 47.964844 C 58.089844 48.25 57.671875 48.546875 57.257812 48.851562 C 56.84375 49.160156 56.4375 49.476562 56.042969 49.800781 C 55.644531 50.128906 55.253906 50.464844 54.875 50.808594 C 54.492188 51.152344 54.121094 51.507812 53.757812 51.871094 C 53.394531 52.234375 53.039062 52.609375 52.695312 52.988281 C 52.347656 53.367188 52.011719 53.757812 51.6875 54.15625 C 51.363281 54.550781 51.042969 54.957031 50.738281 55.371094 C 50.433594 55.785156 50.136719 56.203125 49.851562 56.632812 C 49.5625 57.058594 49.289062 57.492188 49.027344 57.933594 C 48.761719 58.375 48.507812 58.824219 48.265625 59.277344 C 48.023438 59.730469 47.792969 60.1875 47.570312 60.652344 C 47.351562 61.117188 47.144531 61.589844 46.949219 62.0625 C 46.75 62.539062 46.566406 63.015625 46.390625 63.5 C 46.21875 63.984375 46.058594 64.476562 45.90625 64.964844 C 45.757812 65.457031 45.621094 65.953125 45.496094 66.453125 C 45.371094 66.953125 45.261719 67.453125 45.160156 67.957031 C 45.058594 68.460938 44.972656 68.96875 44.894531 69.476562 C 44.820312 69.984375 44.757812 70.496094 44.707031 71.007812 C 44.65625 71.519531 44.617188 72.03125 44.59375 72.542969 C 44.566406 73.058594 44.554688 73.570312 44.554688 74.085938 Z M 44.554688 74.085938 " clip-rule="nonzero"/></clipPath><linearGradient x1="-4011.201184" gradientTransform="matrix(0.194642, 0, 0, 0.194642, 825.47225, -630.326222)" y1="3456.826585" x2="-3759.277611" gradientUnits="userSpaceOnUse" y2="3736.741655" id="c4c996b17f"><stop stop-opacity="1" stop-color="rgb(63.09967%, 0%, 92.89856%)" offset="0"/><stop stop-opacity="1" stop-color="rgb(63.09967%, 0%, 92.89856%)" offset="0.25"/><stop stop-opacity="1" stop-color="rgb(63.09967%, 0%, 92.89856%)" offset="0.362828"/><stop stop-opacity="1" stop-color="rgb(63.09967%, 0%, 92.89856%)" offset="0.375"/><stop stop-opacity="1" stop-color="rgb(63.09967%, 0%, 92.89856%)" offset="0.4375"/><stop stop-opacity="1" stop-color="rgb(63.09967%, 0%, 92.89856%)" offset="0.46875"/><stop stop-opacity="1" stop-color="rgb(61.991882%, 0.376892%, 93.077087%)" offset="0.472656"/><stop stop-opacity="1" stop-color="rgb(60.88562%, 0.75531%, 93.255615%)" offset="0.476562"/><stop stop-opacity="1" stop-color="rgb(59.590149%, 1.196289%, 93.295288%)" offset="0.480469"/><stop stop-opacity="1" stop-color="rgb(58.296204%, 1.637268%, 93.336487%)" offset="0.484375"/><stop stop-opacity="1" stop-color="rgb(57.168579%, 2.024841%, 93.518066%)" offset="0.488281"/><stop stop-opacity="1" stop-color="rgb(56.04248%, 2.41394%, 93.699646%)" offset="0.492187"/><stop stop-opacity="1" stop-color="rgb(54.870605%, 2.755737%, 93.899536%)" offset="0.496094"/><stop stop-opacity="1" stop-color="rgb(53.69873%, 3.09906%, 94.099426%)" offset="0.5"/><stop stop-opacity="1" stop-color="rgb(52.574158%, 3.489685%, 94.099426%)" offset="0.503906"/><stop stop-opacity="1" stop-color="rgb(51.449585%, 3.88031%, 94.099426%)" offset="0.507812"/><stop stop-opacity="1" stop-color="rgb(50.279236%, 4.270935%, 94.299316%)" offset="0.511719"/><stop stop-opacity="1" stop-color="rgb(49.110413%, 4.66156%, 94.499207%)" offset="0.515625"/><stop stop-opacity="1" stop-color="rgb(48.03772%, 5.102539%, 94.699097%)" offset="0.519531"/><stop stop-opacity="1" stop-color="rgb(46.966553%, 5.543518%, 94.898987%)" offset="0.523437"/><stop stop-opacity="1" stop-color="rgb(45.794678%, 5.934143%, 94.911194%)" offset="0.527344"/><stop stop-opacity="1" stop-color="rgb(44.622803%, 6.324768%, 94.924927%)" offset="0.53125"/><stop stop-opacity="1" stop-color="rgb(43.501282%, 6.715393%, 95.111084%)" offset="0.535156"/><stop stop-opacity="1" stop-color="rgb(42.379761%, 7.106018%, 95.298767%)" offset="0.539062"/><stop stop-opacity="1" stop-color="rgb(41.207886%, 7.641602%, 95.492554%)" offset="0.542969"/><stop stop-opacity="1" stop-color="rgb(40.036011%, 8.177185%, 95.68634%)" offset="0.546875"/><stop stop-opacity="1" stop-color="rgb(38.864136%, 8.572388%, 95.692444%)" offset="0.550781"/><stop stop-opacity="1" stop-color="rgb(37.692261%, 8.96759%, 95.698547%)" offset="0.554687"/><stop stop-opacity="1" stop-color="rgb(36.569214%, 9.358215%, 95.874023%)" offset="0.558594"/><stop stop-opacity="1" stop-color="rgb(35.447693%, 9.74884%, 96.0495%)" offset="0.5625"/><stop stop-opacity="1" stop-color="rgb(34.329224%, 10.189819%, 96.089172%)" offset="0.566406"/><stop stop-opacity="1" stop-color="rgb(33.21228%, 10.630798%, 96.130371%)" offset="0.570312"/><stop stop-opacity="1" stop-color="rgb(32.086182%, 11.021423%, 96.315002%)" offset="0.574219"/><stop stop-opacity="1" stop-color="rgb(30.960083%, 11.412048%, 96.499634%)" offset="0.578125"/><stop stop-opacity="1" stop-color="rgb(29.788208%, 11.802673%, 96.696472%)" offset="0.582031"/><stop stop-opacity="1" stop-color="rgb(28.616333%, 12.193298%, 96.893311%)" offset="0.585937"/><stop stop-opacity="1" stop-color="rgb(27.494812%, 12.533569%, 96.896362%)" offset="0.589844"/><stop stop-opacity="1" stop-color="rgb(26.373291%, 12.875366%, 96.899414%)" offset="0.59375"/><stop stop-opacity="1" stop-color="rgb(25.201416%, 13.265991%, 97.099304%)" offset="0.597656"/><stop stop-opacity="1" stop-color="rgb(24.029541%, 13.656616%, 97.299194%)" offset="0.601562"/><stop stop-opacity="1" stop-color="rgb(22.756958%, 14.096069%, 97.44873%)" offset="0.605469"/><stop stop-opacity="1" stop-color="rgb(21.485901%, 14.537048%, 97.599792%)" offset="0.609375"/><stop stop-opacity="1" stop-color="rgb(20.513916%, 14.927673%, 97.608948%)" offset="0.613281"/><stop stop-opacity="1" stop-color="rgb(19.541931%, 15.318298%, 97.618103%)" offset="0.617187"/><stop stop-opacity="1" stop-color="rgb(18.418884%, 15.708923%, 97.808838%)" offset="0.621094"/><stop stop-opacity="1" stop-color="rgb(17.297363%, 16.099548%, 97.999573%)" offset="0.625"/><stop stop-opacity="1" stop-color="rgb(16.125488%, 16.490173%, 98.190308%)" offset="0.628906"/><stop stop-opacity="1" stop-color="rgb(14.953613%, 16.880798%, 98.381042%)" offset="0.632812"/><stop stop-opacity="1" stop-color="rgb(13.781738%, 17.225647%, 98.390198%)" offset="0.636719"/><stop stop-opacity="1" stop-color="rgb(12.609863%, 17.572021%, 98.399353%)" offset="0.640625"/><stop stop-opacity="1" stop-color="rgb(11.33728%, 18.006897%, 98.599243%)" offset="0.644531"/><stop stop-opacity="1" stop-color="rgb(10.066223%, 18.443298%, 98.799133%)" offset="0.648438"/><stop stop-opacity="1" stop-color="rgb(8.8974%, 18.833923%, 98.999023%)" offset="0.652344"/><stop stop-opacity="1" stop-color="rgb(7.728577%, 19.224548%, 99.198914%)" offset="0.65625"/><stop stop-opacity="1" stop-color="rgb(6.803894%, 19.615173%, 99.201965%)" offset="0.660156"/><stop stop-opacity="1" stop-color="rgb(5.879211%, 20.005798%, 99.206543%)" offset="0.664062"/><stop stop-opacity="1" stop-color="rgb(4.707336%, 20.396423%, 99.401855%)" offset="0.667969"/><stop stop-opacity="1" stop-color="rgb(3.535461%, 20.787048%, 99.598694%)" offset="0.671875"/><stop stop-opacity="1" stop-color="rgb(2.412415%, 21.177673%, 99.783325%)" offset="0.675781"/><stop stop-opacity="1" stop-color="rgb(1.290894%, 21.568298%, 99.967957%)" offset="0.679688"/><stop stop-opacity="1" stop-color="rgb(0.669861%, 21.783447%, 99.983215%)" offset="0.683594"/><stop stop-opacity="1" stop-color="rgb(0.0488281%, 21.998596%, 100%)" offset="0.6875"/><stop stop-opacity="1" stop-color="rgb(0.0244141%, 21.998596%, 100%)" offset="0.75"/><stop stop-opacity="1" stop-color="rgb(0%, 21.998596%, 100%)" offset="1"/></linearGradient><clipPath id="6b97bc896b"><path d="M 105.570312 42.605469 L 138.972656 42.605469 L 138.972656 66.296875 L 105.570312 66.296875 Z M 105.570312 42.605469 " clip-rule="nonzero"/></clipPath><clipPath id="fcd2c01d80"><path d="M 118.070312 78.769531 L 93.761719 54.460938 L 116.75 31.472656 L 141.058594 55.78125 Z M 118.070312 78.769531 " clip-rule="nonzero"/></clipPath><clipPath id="d87e1b7242"><path d="M 118.070312 78.769531 L 93.761719 54.460938 L 116.75 31.472656 L 141.058594 55.78125 Z M 118.070312 78.769531 " clip-rule="nonzero"/></clipPath><clipPath id="18a0b27a7a"><path d="M 123.402344 57.414062 L 105.585938 57.414062 L 105.589844 58.894531 L 123.40625 58.894531 Z M 105.570312 44.085938 L 118.074219 44.085938 L 118.074219 42.605469 L 105.570312 42.605469 Z M 105.582031 47.78125 L 126.703125 47.78125 L 126.703125 46.304688 L 105.578125 46.304688 Z M 105.597656 64.820312 L 105.597656 66.296875 L 129.488281 66.296875 L 129.496094 64.824219 Z M 105.589844 62.601562 L 134.203125 62.601562 L 134.203125 61.121094 L 105.59375 61.117188 Z M 105.574219 51.496094 L 133.058594 51.488281 L 133.058594 50.011719 L 105.578125 50.011719 Z M 105.585938 55.191406 L 138.972656 55.191406 L 138.972656 53.710938 L 105.585938 53.710938 Z M 105.585938 55.191406 " clip-rule="nonzero"/></clipPath><linearGradient x1="-3630.14107" gradientTransform="matrix(0.195228, 0, 0, 0.195228, 814.275613, -573.301885)" y1="3215.53" x2="-3459.032334" gradientUnits="userSpaceOnUse" y2="3215.53" id="a4a93843fe"><stop stop-opacity="1" stop-color="rgb(54.899597%, 0.0228882%, 92.89856%)" offset="0"/><stop stop-opacity="1" stop-color="rgb(55.099487%, 0.413513%, 92.89856%)" offset="0.00390625"/><stop stop-opacity="1" stop-color="rgb(55.299377%, 0.804138%, 92.89856%)" offset="0.0078125"/><stop stop-opacity="1" stop-color="rgb(55.299377%, 1.194763%, 92.89856%)" offset="0.0117187"/><stop stop-opacity="1" stop-color="rgb(55.299377%, 1.585388%, 92.89856%)" offset="0.015625"/><stop stop-opacity="1" stop-color="rgb(55.532837%, 1.824951%, 92.86499%)" offset="0.0195312"/><stop stop-opacity="1" stop-color="rgb(55.766296%, 2.06604%, 92.832947%)" offset="0.0234375"/><stop stop-opacity="1" stop-color="rgb(55.932617%, 2.406311%, 92.6651%)" offset="0.0273438"/><stop stop-opacity="1" stop-color="rgb(56.098938%, 2.748108%, 92.498779%)" offset="0.03125"/><stop stop-opacity="1" stop-color="rgb(56.298828%, 3.138733%, 92.498779%)" offset="0.0351563"/><stop stop-opacity="1" stop-color="rgb(56.498718%, 3.529358%, 92.498779%)" offset="0.0390625"/><stop stop-opacity="1" stop-color="rgb(56.503296%, 3.919983%, 92.498779%)" offset="0.0429688"/><stop stop-opacity="1" stop-color="rgb(56.509399%, 4.310608%, 92.498779%)" offset="0.046875"/><stop stop-opacity="1" stop-color="rgb(56.703186%, 4.701233%, 92.498779%)" offset="0.0507813"/><stop stop-opacity="1" stop-color="rgb(56.898499%, 5.091858%, 92.498779%)" offset="0.0546875"/><stop stop-opacity="1" stop-color="rgb(57.084656%, 5.281067%, 92.498779%)" offset="0.0625"/><stop stop-opacity="1" stop-color="rgb(57.305908%, 5.912781%, 92.498779%)" offset="0.0664062"/><stop stop-opacity="1" stop-color="rgb(57.339478%, 6.35376%, 92.498779%)" offset="0.0703125"/><stop stop-opacity="1" stop-color="rgb(57.487488%, 6.744385%, 92.498779%)" offset="0.0742188"/><stop stop-opacity="1" stop-color="rgb(57.635498%, 7.13501%, 92.498779%)" offset="0.078125"/><stop stop-opacity="1" stop-color="rgb(57.817078%, 7.475281%, 92.498779%)" offset="0.0820312"/><stop stop-opacity="1" stop-color="rgb(57.998657%, 7.815552%, 92.498779%)" offset="0.0859375"/><stop stop-opacity="1" stop-color="rgb(58.197021%, 8.006287%, 92.498779%)" offset="0.0898438"/><stop stop-opacity="1" stop-color="rgb(58.396912%, 8.198547%, 92.498779%)" offset="0.09375"/><stop stop-opacity="1" stop-color="rgb(58.398438%, 8.587646%, 92.349243%)" offset="0.0976562"/><stop stop-opacity="1" stop-color="rgb(58.399963%, 8.978271%, 92.199707%)" offset="0.101562"/><stop stop-opacity="1" stop-color="rgb(58.599854%, 9.41925%, 92.199707%)" offset="0.105469"/><stop stop-opacity="1" stop-color="rgb(58.799744%, 9.860229%, 92.199707%)" offset="0.109375"/><stop stop-opacity="1" stop-color="rgb(58.999634%, 10.250854%, 92.199707%)" offset="0.113281"/><stop stop-opacity="1" stop-color="rgb(59.199524%, 10.641479%, 92.199707%)" offset="0.117188"/><stop stop-opacity="1" stop-color="rgb(59.210205%, 11.032104%, 92.199707%)" offset="0.121094"/><stop stop-opacity="1" stop-color="rgb(59.222412%, 11.422729%, 92.199707%)" offset="0.125"/><stop stop-opacity="1" stop-color="rgb(59.413147%, 11.613464%, 92.199707%)" offset="0.132812"/><stop stop-opacity="1" stop-color="rgb(59.80072%, 12.145996%, 92.199707%)" offset="0.136719"/><stop stop-opacity="1" stop-color="rgb(59.999084%, 12.487793%, 92.199707%)" offset="0.140625"/><stop stop-opacity="1" stop-color="rgb(60.198975%, 12.92572%, 92.199707%)" offset="0.144531"/><stop stop-opacity="1" stop-color="rgb(60.398865%, 13.365173%, 92.199707%)" offset="0.148437"/><stop stop-opacity="1" stop-color="rgb(60.423279%, 13.755798%, 92.199707%)" offset="0.152344"/><stop stop-opacity="1" stop-color="rgb(60.447693%, 14.146423%, 92.199707%)" offset="0.15625"/><stop stop-opacity="1" stop-color="rgb(60.623169%, 14.52179%, 91.999817%)" offset="0.160156"/><stop stop-opacity="1" stop-color="rgb(60.798645%, 14.898682%, 91.799927%)" offset="0.164062"/><stop stop-opacity="1" stop-color="rgb(60.998535%, 15.103149%, 91.799927%)" offset="0.167969"/><stop stop-opacity="1" stop-color="rgb(61.199951%, 15.309143%, 91.799927%)" offset="0.171875"/><stop stop-opacity="1" stop-color="rgb(61.395264%, 15.699768%, 91.799927%)" offset="0.175781"/><stop stop-opacity="1" stop-color="rgb(61.590576%, 16.090393%, 91.799927%)" offset="0.179687"/><stop stop-opacity="1" stop-color="rgb(61.595154%, 16.481018%, 91.799927%)" offset="0.183594"/><stop stop-opacity="1" stop-color="rgb(61.599731%, 16.871643%, 91.799927%)" offset="0.1875"/><stop stop-opacity="1" stop-color="rgb(61.799622%, 17.262268%, 91.799927%)" offset="0.191406"/><stop stop-opacity="1" stop-color="rgb(61.999512%, 17.652893%, 91.799927%)" offset="0.195312"/><stop stop-opacity="1" stop-color="rgb(62.199402%, 18.025208%, 91.799927%)" offset="0.199219"/><stop stop-opacity="1" stop-color="rgb(62.399292%, 18.399048%, 91.799927%)" offset="0.203125"/><stop stop-opacity="1" stop-color="rgb(62.405396%, 18.606567%, 91.799927%)" offset="0.207031"/><stop stop-opacity="1" stop-color="rgb(62.411499%, 18.815613%, 91.799927%)" offset="0.210937"/><stop stop-opacity="1" stop-color="rgb(62.554932%, 19.206238%, 91.799927%)" offset="0.214844"/><stop stop-opacity="1" stop-color="rgb(62.69989%, 19.596863%, 91.799927%)" offset="0.21875"/><stop stop-opacity="1" stop-color="rgb(62.889099%, 19.987488%, 91.799927%)" offset="0.222656"/><stop stop-opacity="1" stop-color="rgb(63.078308%, 20.378113%, 91.799927%)" offset="0.226562"/><stop stop-opacity="1" stop-color="rgb(63.288879%, 20.819092%, 91.598511%)" offset="0.230469"/><stop stop-opacity="1" stop-color="rgb(63.499451%, 21.260071%, 91.398621%)" offset="0.234375"/><stop stop-opacity="1" stop-color="rgb(63.519287%, 21.44928%, 91.398621%)" offset="0.242187"/><stop stop-opacity="1" stop-color="rgb(63.719177%, 22.027588%, 91.398621%)" offset="0.246094"/><stop stop-opacity="1" stop-color="rgb(63.899231%, 22.416687%, 91.398621%)" offset="0.25"/><stop stop-opacity="1" stop-color="rgb(64.099121%, 22.76001%, 91.398621%)" offset="0.253906"/><stop stop-opacity="1" stop-color="rgb(64.299011%, 23.103333%, 91.398621%)" offset="0.257812"/><stop stop-opacity="1" stop-color="rgb(64.299011%, 23.493958%, 91.398621%)" offset="0.261719"/><stop stop-opacity="1" stop-color="rgb(64.299011%, 23.884583%, 91.398621%)" offset="0.265625"/><stop stop-opacity="1" stop-color="rgb(64.532471%, 24.324036%, 91.398621%)" offset="0.269531"/><stop stop-opacity="1" stop-color="rgb(64.76593%, 24.765015%, 91.398621%)" offset="0.273437"/><stop stop-opacity="1" stop-color="rgb(64.932251%, 24.95575%, 91.398621%)" offset="0.28125"/><stop stop-opacity="1" stop-color="rgb(65.298462%, 25.537109%, 91.398621%)" offset="0.285156"/><stop stop-opacity="1" stop-color="rgb(65.499878%, 25.927734%, 91.398621%)" offset="0.289062"/><stop stop-opacity="1" stop-color="rgb(65.504456%, 26.318359%, 91.394043%)" offset="0.292969"/><stop stop-opacity="1" stop-color="rgb(65.509033%, 26.708984%, 91.389465%)" offset="0.296875"/><stop stop-opacity="1" stop-color="rgb(65.704346%, 27.099609%, 91.194153%)" offset="0.300781"/><stop stop-opacity="1" stop-color="rgb(65.899658%, 27.490234%, 90.99884%)" offset="0.304687"/><stop stop-opacity="1" stop-color="rgb(66.085815%, 27.830505%, 90.99884%)" offset="0.308594"/><stop stop-opacity="1" stop-color="rgb(66.271973%, 28.172302%, 90.99884%)" offset="0.3125"/><stop stop-opacity="1" stop-color="rgb(66.311646%, 28.411865%, 90.99884%)" offset="0.316406"/><stop stop-opacity="1" stop-color="rgb(66.352844%, 28.652954%, 90.99884%)" offset="0.320312"/><stop stop-opacity="1" stop-color="rgb(66.543579%, 29.043579%, 90.99884%)" offset="0.324219"/><stop stop-opacity="1" stop-color="rgb(66.734314%, 29.434204%, 90.99884%)" offset="0.328125"/><stop stop-opacity="1" stop-color="rgb(66.915894%, 29.824829%, 90.99884%)" offset="0.332031"/><stop stop-opacity="1" stop-color="rgb(67.098999%, 30.215454%, 90.99884%)" offset="0.335937"/><stop stop-opacity="1" stop-color="rgb(67.297363%, 30.606079%, 90.99884%)" offset="0.339844"/><stop stop-opacity="1" stop-color="rgb(67.497253%, 30.996704%, 90.99884%)" offset="0.34375"/><stop stop-opacity="1" stop-color="rgb(67.497253%, 31.387329%, 90.99884%)" offset="0.347656"/><stop stop-opacity="1" stop-color="rgb(67.498779%, 31.777954%, 90.99884%)" offset="0.351562"/><stop stop-opacity="1" stop-color="rgb(67.648315%, 32.011414%, 90.99884%)" offset="0.355469"/><stop stop-opacity="1" stop-color="rgb(67.799377%, 32.244873%, 90.99884%)" offset="0.359375"/><stop stop-opacity="1" stop-color="rgb(67.999268%, 32.592773%, 90.79895%)" offset="0.363281"/><stop stop-opacity="1" stop-color="rgb(68.199158%, 32.940674%, 90.59906%)" offset="0.367187"/><stop stop-opacity="1" stop-color="rgb(68.399048%, 33.331299%, 90.59906%)" offset="0.371094"/><stop stop-opacity="1" stop-color="rgb(68.598938%, 33.721924%, 90.59906%)" offset="0.375"/><stop stop-opacity="1" stop-color="rgb(68.600464%, 34.112549%, 90.59906%)" offset="0.378906"/><stop stop-opacity="1" stop-color="rgb(68.603516%, 34.503174%, 90.59906%)" offset="0.382812"/><stop stop-opacity="1" stop-color="rgb(68.800354%, 34.701538%, 90.59906%)" offset="0.386719"/><stop stop-opacity="1" stop-color="rgb(68.998718%, 34.899902%, 90.59906%)" offset="0.390625"/><stop stop-opacity="1" stop-color="rgb(69.198608%, 35.331726%, 90.59906%)" offset="0.394531"/><stop stop-opacity="1" stop-color="rgb(69.398499%, 35.765076%, 90.59906%)" offset="0.398437"/><stop stop-opacity="1" stop-color="rgb(69.421387%, 36.155701%, 90.59906%)" offset="0.402344"/><stop stop-opacity="1" stop-color="rgb(69.445801%, 36.546326%, 90.59906%)" offset="0.40625"/><stop stop-opacity="1" stop-color="rgb(69.622803%, 36.932373%, 90.59906%)" offset="0.410156"/><stop stop-opacity="1" stop-color="rgb(69.799805%, 37.319946%, 90.59906%)" offset="0.414062"/><stop stop-opacity="1" stop-color="rgb(69.999695%, 37.664795%, 90.59906%)" offset="0.417969"/><stop stop-opacity="1" stop-color="rgb(70.199585%, 38.009644%, 90.59906%)" offset="0.421875"/><stop stop-opacity="1" stop-color="rgb(70.394897%, 38.20343%, 90.59906%)" offset="0.429687"/><stop stop-opacity="1" stop-color="rgb(70.594788%, 38.78479%, 90.39917%)" offset="0.433594"/><stop stop-opacity="1" stop-color="rgb(70.599365%, 39.170837%, 90.19928%)" offset="0.4375"/><stop stop-opacity="1" stop-color="rgb(70.799255%, 39.611816%, 90.19928%)" offset="0.441406"/><stop stop-opacity="1" stop-color="rgb(70.999146%, 40.052795%, 90.19928%)" offset="0.445312"/><stop stop-opacity="1" stop-color="rgb(71.199036%, 40.44342%, 90.19928%)" offset="0.449219"/><stop stop-opacity="1" stop-color="rgb(71.398926%, 40.834045%, 90.19928%)" offset="0.453125"/><stop stop-opacity="1" stop-color="rgb(71.406555%, 41.215515%, 90.19928%)" offset="0.457031"/><stop stop-opacity="1" stop-color="rgb(71.41571%, 41.598511%, 90.19928%)" offset="0.460937"/><stop stop-opacity="1" stop-color="rgb(71.606445%, 41.796875%, 90.19928%)" offset="0.464844"/><stop stop-opacity="1" stop-color="rgb(71.798706%, 41.996765%, 90.19928%)" offset="0.46875"/><stop stop-opacity="1" stop-color="rgb(71.998596%, 42.340088%, 90.19928%)" offset="0.472656"/><stop stop-opacity="1" stop-color="rgb(72.198486%, 42.683411%, 90.19928%)" offset="0.476562"/><stop stop-opacity="1" stop-color="rgb(72.348022%, 43.121338%, 90.19928%)" offset="0.480469"/><stop stop-opacity="1" stop-color="rgb(72.499084%, 43.559265%, 90.19928%)" offset="0.484375"/><stop stop-opacity="1" stop-color="rgb(72.518921%, 43.94989%, 90.19928%)" offset="0.488281"/><stop stop-opacity="1" stop-color="rgb(72.540283%, 44.340515%, 90.19928%)" offset="0.492187"/><stop stop-opacity="1" stop-color="rgb(72.718811%, 44.718933%, 89.99939%)" offset="0.496094"/><stop stop-opacity="1" stop-color="rgb(72.898865%, 45.098877%, 89.7995%)" offset="0.5"/><stop stop-opacity="1" stop-color="rgb(73.098755%, 45.300293%, 89.7995%)" offset="0.503906"/><stop stop-opacity="1" stop-color="rgb(73.298645%, 45.503235%, 89.7995%)" offset="0.507812"/><stop stop-opacity="1" stop-color="rgb(73.298645%, 45.89386%, 89.7995%)" offset="0.511719"/><stop stop-opacity="1" stop-color="rgb(73.298645%, 46.284485%, 89.7995%)" offset="0.515625"/><stop stop-opacity="1" stop-color="rgb(73.532104%, 46.723938%, 89.7995%)" offset="0.519531"/><stop stop-opacity="1" stop-color="rgb(73.765564%, 47.164917%, 89.7995%)" offset="0.523438"/><stop stop-opacity="1" stop-color="rgb(73.931885%, 47.505188%, 89.7995%)" offset="0.527344"/><stop stop-opacity="1" stop-color="rgb(74.099731%, 47.846985%, 89.7995%)" offset="0.53125"/><stop stop-opacity="1" stop-color="rgb(74.299622%, 48.036194%, 89.7995%)" offset="0.535156"/><stop stop-opacity="1" stop-color="rgb(74.499512%, 48.226929%, 89.7995%)" offset="0.539062"/><stop stop-opacity="1" stop-color="rgb(74.504089%, 48.617554%, 89.7995%)" offset="0.542969"/><stop stop-opacity="1" stop-color="rgb(74.508667%, 49.008179%, 89.7995%)" offset="0.546875"/><stop stop-opacity="1" stop-color="rgb(74.703979%, 49.398804%, 89.7995%)" offset="0.550781"/><stop stop-opacity="1" stop-color="rgb(74.899292%, 49.789429%, 89.7995%)" offset="0.554688"/><stop stop-opacity="1" stop-color="rgb(75.085449%, 50.180054%, 89.7995%)" offset="0.558594"/><stop stop-opacity="1" stop-color="rgb(75.271606%, 50.570679%, 89.7995%)" offset="0.5625"/><stop stop-opacity="1" stop-color="rgb(75.311279%, 50.984192%, 89.599609%)" offset="0.566406"/><stop stop-opacity="1" stop-color="rgb(75.352478%, 51.399231%, 89.399719%)" offset="0.570312"/><stop stop-opacity="1" stop-color="rgb(75.543213%, 51.615906%, 89.399719%)" offset="0.574219"/><stop stop-opacity="1" stop-color="rgb(75.733948%, 51.834106%, 89.399719%)" offset="0.578125"/><stop stop-opacity="1" stop-color="rgb(75.915527%, 52.174377%, 89.399719%)" offset="0.582031"/><stop stop-opacity="1" stop-color="rgb(76.098633%, 52.514648%, 89.399719%)" offset="0.585938"/><stop stop-opacity="1" stop-color="rgb(76.296997%, 52.905273%, 89.399719%)" offset="0.589844"/><stop stop-opacity="1" stop-color="rgb(76.495361%, 53.295898%, 89.399719%)" offset="0.59375"/><stop stop-opacity="1" stop-color="rgb(76.496887%, 53.686523%, 89.399719%)" offset="0.597656"/><stop stop-opacity="1" stop-color="rgb(76.499939%, 54.077148%, 89.399719%)" offset="0.601562"/><stop stop-opacity="1" stop-color="rgb(76.699829%, 54.48761%, 89.399719%)" offset="0.605469"/><stop stop-opacity="1" stop-color="rgb(76.899719%, 54.899597%, 89.399719%)" offset="0.609375"/><stop stop-opacity="1" stop-color="rgb(77.099609%, 55.119324%, 89.399719%)" offset="0.613281"/><stop stop-opacity="1" stop-color="rgb(77.2995%, 55.33905%, 89.399719%)" offset="0.617188"/><stop stop-opacity="1" stop-color="rgb(77.449036%, 55.729675%, 89.399719%)" offset="0.621094"/><stop stop-opacity="1" stop-color="rgb(77.598572%, 56.1203%, 89.399719%)" offset="0.625"/><stop stop-opacity="1" stop-color="rgb(77.600098%, 56.510925%, 89.398193%)" offset="0.628906"/><stop stop-opacity="1" stop-color="rgb(77.601624%, 56.90155%, 89.396667%)" offset="0.632812"/><stop stop-opacity="1" stop-color="rgb(77.799988%, 57.243347%, 89.198303%)" offset="0.636719"/><stop stop-opacity="1" stop-color="rgb(77.999878%, 57.58667%, 88.999939%)" offset="0.640625"/><stop stop-opacity="1" stop-color="rgb(78.199768%, 57.824707%, 88.999939%)" offset="0.644531"/><stop stop-opacity="1" stop-color="rgb(78.399658%, 58.06427%, 88.999939%)" offset="0.648438"/><stop stop-opacity="1" stop-color="rgb(78.422546%, 58.454895%, 88.999939%)" offset="0.652344"/><stop stop-opacity="1" stop-color="rgb(78.445435%, 58.84552%, 88.999939%)" offset="0.65625"/><stop stop-opacity="1" stop-color="rgb(78.622437%, 59.236145%, 88.999939%)" offset="0.660156"/><stop stop-opacity="1" stop-color="rgb(78.799438%, 59.62677%, 88.999939%)" offset="0.664062"/><stop stop-opacity="1" stop-color="rgb(78.999329%, 60.017395%, 88.999939%)" offset="0.667969"/><stop stop-opacity="1" stop-color="rgb(79.199219%, 60.40802%, 88.999939%)" offset="0.671875"/><stop stop-opacity="1" stop-color="rgb(79.394531%, 60.798645%, 88.999939%)" offset="0.675781"/><stop stop-opacity="1" stop-color="rgb(79.589844%, 61.18927%, 88.999939%)" offset="0.679688"/><stop stop-opacity="1" stop-color="rgb(79.594421%, 61.393738%, 88.999939%)" offset="0.683594"/><stop stop-opacity="1" stop-color="rgb(79.598999%, 61.599731%, 88.999939%)" offset="0.6875"/><stop stop-opacity="1" stop-color="rgb(79.798889%, 62.019348%, 88.999939%)" offset="0.691406"/><stop stop-opacity="1" stop-color="rgb(79.998779%, 62.438965%, 88.999939%)" offset="0.695312"/><stop stop-opacity="1" stop-color="rgb(80.198669%, 62.785339%, 88.798523%)" offset="0.699219"/><stop stop-opacity="1" stop-color="rgb(80.39856%, 63.13324%, 88.598633%)" offset="0.703125"/><stop stop-opacity="1" stop-color="rgb(80.406189%, 63.523865%, 88.598633%)" offset="0.707031"/><stop stop-opacity="1" stop-color="rgb(80.413818%, 63.91449%, 88.598633%)" offset="0.710938"/><stop stop-opacity="1" stop-color="rgb(80.606079%, 64.305115%, 88.598633%)" offset="0.714844"/><stop stop-opacity="1" stop-color="rgb(80.799866%, 64.69574%, 88.598633%)" offset="0.71875"/><stop stop-opacity="1" stop-color="rgb(80.999756%, 64.886475%, 88.598633%)" offset="0.722656"/><stop stop-opacity="1" stop-color="rgb(81.199646%, 65.077209%, 88.598633%)" offset="0.726562"/><stop stop-opacity="1" stop-color="rgb(81.399536%, 65.516663%, 88.598633%)" offset="0.730469"/><stop stop-opacity="1" stop-color="rgb(81.599426%, 65.957642%, 88.598633%)" offset="0.734375"/><stop stop-opacity="1" stop-color="rgb(81.619263%, 66.348267%, 88.598633%)" offset="0.738281"/><stop stop-opacity="1" stop-color="rgb(81.639099%, 66.738892%, 88.598633%)" offset="0.742188"/><stop stop-opacity="1" stop-color="rgb(81.819153%, 67.126465%, 88.598633%)" offset="0.746094"/><stop stop-opacity="1" stop-color="rgb(81.999207%, 67.515564%, 88.598633%)" offset="0.75"/><stop stop-opacity="1" stop-color="rgb(82.199097%, 67.857361%, 88.598633%)" offset="0.753906"/><stop stop-opacity="1" stop-color="rgb(82.398987%, 68.199158%, 88.598633%)" offset="0.757812"/><stop stop-opacity="1" stop-color="rgb(82.398987%, 68.391418%, 88.598633%)" offset="0.765625"/><stop stop-opacity="1" stop-color="rgb(82.580566%, 69.023132%, 88.398743%)" offset="0.769531"/><stop stop-opacity="1" stop-color="rgb(82.763672%, 69.464111%, 88.198853%)" offset="0.773438"/><stop stop-opacity="1" stop-color="rgb(82.931519%, 69.854736%, 88.198853%)" offset="0.777344"/><stop stop-opacity="1" stop-color="rgb(83.099365%, 70.245361%, 88.198853%)" offset="0.78125"/><stop stop-opacity="1" stop-color="rgb(83.299255%, 70.635986%, 88.198853%)" offset="0.785156"/><stop stop-opacity="1" stop-color="rgb(83.499146%, 71.026611%, 88.198853%)" offset="0.789062"/><stop stop-opacity="1" stop-color="rgb(83.503723%, 71.217346%, 88.198853%)" offset="0.796875"/><stop stop-opacity="1" stop-color="rgb(83.703613%, 71.798706%, 88.198853%)" offset="0.800781"/><stop stop-opacity="1" stop-color="rgb(83.898926%, 72.189331%, 88.198853%)" offset="0.804688"/><stop stop-opacity="1" stop-color="rgb(84.085083%, 72.529602%, 88.198853%)" offset="0.808594"/><stop stop-opacity="1" stop-color="rgb(84.27124%, 72.869873%, 88.198853%)" offset="0.8125"/><stop stop-opacity="1" stop-color="rgb(84.484863%, 73.310852%, 88.198853%)" offset="0.816406"/><stop stop-opacity="1" stop-color="rgb(84.698486%, 73.751831%, 88.198853%)" offset="0.820312"/><stop stop-opacity="1" stop-color="rgb(84.715271%, 74.142456%, 88.198853%)" offset="0.824219"/><stop stop-opacity="1" stop-color="rgb(84.733582%, 74.533081%, 88.198853%)" offset="0.828125"/><stop stop-opacity="1" stop-color="rgb(84.916687%, 74.723816%, 88.191223%)" offset="0.835938"/><stop stop-opacity="1" stop-color="rgb(85.296631%, 75.305176%, 87.991333%)" offset="0.839844"/><stop stop-opacity="1" stop-color="rgb(85.494995%, 75.695801%, 87.799072%)" offset="0.84375"/><stop stop-opacity="1" stop-color="rgb(85.496521%, 76.086426%, 87.799072%)" offset="0.847656"/><stop stop-opacity="1" stop-color="rgb(85.499573%, 76.477051%, 87.799072%)" offset="0.851562"/><stop stop-opacity="1" stop-color="rgb(85.699463%, 76.9104%, 87.799072%)" offset="0.855469"/><stop stop-opacity="1" stop-color="rgb(85.899353%, 77.34375%, 87.799072%)" offset="0.859375"/><stop stop-opacity="1" stop-color="rgb(86.099243%, 77.671814%, 87.799072%)" offset="0.863281"/><stop stop-opacity="1" stop-color="rgb(86.299133%, 77.999878%, 87.799072%)" offset="0.867188"/><stop stop-opacity="1" stop-color="rgb(86.499023%, 78.210449%, 87.799072%)" offset="0.871094"/><stop stop-opacity="1" stop-color="rgb(86.698914%, 78.421021%, 87.799072%)" offset="0.875"/><stop stop-opacity="1" stop-color="rgb(86.700439%, 78.811646%, 87.799072%)" offset="0.878906"/><stop stop-opacity="1" stop-color="rgb(86.701965%, 79.202271%, 87.799072%)" offset="0.882812"/><stop stop-opacity="1" stop-color="rgb(86.90033%, 79.592896%, 87.799072%)" offset="0.886719"/><stop stop-opacity="1" stop-color="rgb(87.098694%, 79.983521%, 87.799072%)" offset="0.890625"/><stop stop-opacity="1" stop-color="rgb(87.298584%, 80.422974%, 87.799072%)" offset="0.894531"/><stop stop-opacity="1" stop-color="rgb(87.5%, 80.863953%, 87.799072%)" offset="0.898438"/><stop stop-opacity="1" stop-color="rgb(87.516785%, 81.231689%, 87.649536%)" offset="0.902344"/><stop stop-opacity="1" stop-color="rgb(87.533569%, 81.599426%, 87.5%)" offset="0.90625"/><stop stop-opacity="1" stop-color="rgb(87.680054%, 81.813049%, 87.5%)" offset="0.910156"/><stop stop-opacity="1" stop-color="rgb(87.826538%, 82.026672%, 87.5%)" offset="0.914062"/><stop stop-opacity="1" stop-color="rgb(88.012695%, 82.366943%, 87.5%)" offset="0.917969"/><stop stop-opacity="1" stop-color="rgb(88.198853%, 82.707214%, 87.5%)" offset="0.921875"/><stop stop-opacity="1" stop-color="rgb(88.394165%, 83.097839%, 87.5%)" offset="0.925781"/><stop stop-opacity="1" stop-color="rgb(88.589478%, 83.488464%, 87.5%)" offset="0.929688"/><stop stop-opacity="1" stop-color="rgb(88.594055%, 83.879089%, 87.5%)" offset="0.933594"/><stop stop-opacity="1" stop-color="rgb(88.598633%, 84.269714%, 87.5%)" offset="0.9375"/><stop stop-opacity="1" stop-color="rgb(88.798523%, 84.510803%, 87.5%)" offset="0.941406"/><stop stop-opacity="1" stop-color="rgb(88.999939%, 84.751892%, 87.5%)" offset="0.945312"/><stop stop-opacity="1" stop-color="rgb(89.199829%, 85.142517%, 87.5%)" offset="0.949219"/><stop stop-opacity="1" stop-color="rgb(89.399719%, 85.533142%, 87.5%)" offset="0.953125"/><stop stop-opacity="1" stop-color="rgb(89.405823%, 85.923767%, 87.5%)" offset="0.957031"/><stop stop-opacity="1" stop-color="rgb(89.413452%, 86.314392%, 87.5%)" offset="0.960938"/><stop stop-opacity="1" stop-color="rgb(89.605713%, 86.705017%, 87.5%)" offset="0.964844"/><stop stop-opacity="1" stop-color="rgb(89.7995%, 87.095642%, 87.5%)" offset="0.96875"/><stop stop-opacity="1" stop-color="rgb(89.99939%, 87.438965%, 87.310791%)" offset="0.972656"/><stop stop-opacity="1" stop-color="rgb(90.19928%, 87.782288%, 87.121582%)" offset="0.976562"/><stop stop-opacity="1" stop-color="rgb(90.39917%, 88.020325%, 87.109375%)" offset="0.980469"/><stop stop-opacity="1" stop-color="rgb(90.59906%, 88.258362%, 87.098694%)" offset="0.984375"/><stop stop-opacity="1" stop-color="rgb(90.618896%, 88.648987%, 87.098694%)" offset="0.988281"/><stop stop-opacity="1" stop-color="rgb(90.638733%, 89.039612%, 87.098694%)" offset="0.992188"/><stop stop-opacity="1" stop-color="rgb(90.818787%, 89.419556%, 87.098694%)" offset="0.996094"/><stop stop-opacity="1" stop-color="rgb(90.99884%, 89.7995%, 87.098694%)" offset="1"/></linearGradient><clipPath id="0f6e7504b2"><path d="M 75.496094 7.328125 L 107.355469 7.328125 L 107.355469 105.769531 L 75.496094 105.769531 Z M 75.496094 7.328125 " clip-rule="nonzero"/></clipPath><clipPath id="11fb3609b5"><path d="M 82.316406 112.023438 L 30.523438 60.234375 L 83.371094 7.386719 L 135.164062 59.175781 Z M 82.316406 112.023438 " clip-rule="nonzero"/></clipPath><clipPath id="d3f83a1623"><path d="M 82.316406 112.023438 L 30.523438 60.234375 L 83.371094 7.386719 L 135.164062 59.175781 Z M 82.316406 112.023438 " clip-rule="nonzero"/></clipPath><clipPath id="e552a2829b"><path d="M 75.796875 85.605469 L 75.796875 87.078125 C 76.222656 87.078125 76.644531 87.058594 77.066406 87.015625 C 77.488281 86.972656 77.90625 86.910156 78.320312 86.828125 C 78.734375 86.746094 79.148438 86.640625 79.550781 86.519531 C 79.957031 86.394531 80.355469 86.25 80.746094 86.089844 C 81.136719 85.925781 81.519531 85.746094 81.894531 85.546875 C 82.265625 85.347656 82.628906 85.128906 82.980469 84.894531 C 83.335938 84.65625 83.675781 84.40625 84 84.136719 C 84.328125 83.867188 84.640625 83.582031 84.941406 83.285156 C 85.242188 82.984375 85.527344 82.671875 85.792969 82.34375 C 86.0625 82.015625 86.316406 81.675781 86.550781 81.324219 C 86.785156 80.972656 87.003906 80.609375 87.203125 80.234375 C 87.402344 79.863281 87.585938 79.480469 87.746094 79.089844 C 87.910156 78.699219 88.050781 78.300781 88.175781 77.894531 C 88.296875 77.488281 88.402344 77.078125 88.484375 76.664062 C 88.570312 76.246094 88.628906 75.828125 88.671875 75.40625 C 88.714844 74.984375 88.738281 74.5625 88.738281 74.140625 L 88.738281 12.625 L 87.261719 11.152344 L 87.261719 74.140625 C 87.261719 74.515625 87.246094 74.890625 87.207031 75.261719 C 87.167969 75.636719 87.113281 76.007812 87.042969 76.375 C 86.96875 76.742188 86.875 77.105469 86.765625 77.46875 C 86.660156 77.824219 86.53125 78.179688 86.386719 78.527344 C 86.242188 78.871094 86.082031 79.210938 85.90625 79.542969 C 85.730469 79.875 85.535156 80.195312 85.328125 80.507812 C 85.117188 80.820312 84.894531 81.121094 84.65625 81.410156 C 84.417969 81.699219 84.167969 81.976562 83.902344 82.242188 C 83.636719 82.507812 83.359375 82.761719 83.066406 83 C 82.777344 83.238281 82.476562 83.460938 82.164062 83.667969 C 81.851562 83.878906 81.53125 84.070312 81.199219 84.25 C 80.867188 84.425781 80.53125 84.585938 80.183594 84.730469 C 79.835938 84.875 79.484375 85 79.125 85.109375 C 78.765625 85.21875 78.402344 85.308594 78.03125 85.382812 C 77.664062 85.457031 77.292969 85.511719 76.921875 85.550781 C 76.546875 85.585938 76.171875 85.605469 75.796875 85.605469 Z M 83.574219 74.144531 C 83.570312 74.398438 83.558594 74.652344 83.535156 74.90625 C 83.511719 75.160156 83.472656 75.414062 83.421875 75.664062 C 83.371094 75.910156 83.308594 76.160156 83.234375 76.402344 C 83.160156 76.648438 83.074219 76.886719 82.976562 77.121094 C 82.878906 77.355469 82.773438 77.585938 82.652344 77.808594 C 82.53125 78.035156 82.398438 78.253906 82.257812 78.464844 C 82.117188 78.679688 81.964844 78.882812 81.804688 79.078125 C 81.640625 79.273438 81.472656 79.464844 81.289062 79.644531 C 81.109375 79.824219 80.921875 79.996094 80.726562 80.15625 C 80.527344 80.316406 80.324219 80.46875 80.113281 80.613281 C 79.902344 80.753906 79.683594 80.882812 79.457031 81.003906 C 79.234375 81.125 79.003906 81.234375 78.769531 81.332031 C 78.535156 81.429688 78.292969 81.515625 78.050781 81.589844 C 77.804688 81.664062 77.558594 81.726562 77.308594 81.773438 C 77.058594 81.824219 76.808594 81.863281 76.554688 81.886719 C 76.300781 81.914062 76.046875 81.925781 75.792969 81.925781 L 75.792969 83.398438 C 76.09375 83.398438 76.394531 83.382812 76.699219 83.351562 C 77 83.324219 77.296875 83.277344 77.597656 83.21875 C 77.894531 83.160156 78.1875 83.085938 78.476562 82.996094 C 78.765625 82.910156 79.050781 82.808594 79.332031 82.691406 C 79.609375 82.574219 79.882812 82.445312 80.152344 82.304688 C 80.417969 82.160156 80.679688 82.003906 80.929688 81.835938 C 81.179688 81.667969 81.425781 81.488281 81.660156 81.296875 C 81.894531 81.101562 82.117188 80.898438 82.332031 80.683594 C 82.546875 80.472656 82.75 80.246094 82.941406 80.011719 C 83.132812 79.777344 83.3125 79.535156 83.484375 79.28125 C 83.652344 79.03125 83.804688 78.769531 83.949219 78.503906 C 84.09375 78.238281 84.222656 77.964844 84.335938 77.683594 C 84.453125 77.40625 84.554688 77.121094 84.644531 76.828125 C 84.734375 76.539062 84.804688 76.246094 84.867188 75.949219 C 84.925781 75.652344 84.96875 75.351562 85 75.050781 C 85.03125 74.75 85.046875 74.449219 85.046875 74.144531 L 85.050781 8.9375 L 83.578125 7.46875 Z M 86.511719 84.855469 C 85.808594 85.558594 85.042969 86.1875 84.21875 86.742188 C 83.390625 87.296875 82.519531 87.765625 81.597656 88.144531 C 80.679688 88.527344 79.730469 88.8125 78.753906 89.003906 C 77.777344 89.199219 76.792969 89.292969 75.796875 89.289062 L 75.796875 90.765625 C 76.339844 90.765625 76.882812 90.738281 77.425781 90.683594 C 77.96875 90.632812 78.507812 90.550781 79.039062 90.445312 C 79.574219 90.339844 80.101562 90.207031 80.621094 90.046875 C 81.144531 89.890625 81.65625 89.707031 82.160156 89.5 C 82.664062 89.289062 83.152344 89.058594 83.632812 88.800781 C 84.113281 88.542969 84.582031 88.265625 85.03125 87.960938 C 85.484375 87.660156 85.921875 87.335938 86.34375 86.988281 C 86.765625 86.644531 87.167969 86.277344 87.554688 85.894531 C 87.9375 85.507812 88.304688 85.105469 88.648438 84.683594 C 88.996094 84.265625 89.316406 83.828125 89.621094 83.375 C 89.921875 82.921875 90.203125 82.453125 90.457031 81.972656 C 90.714844 81.496094 90.949219 81.003906 91.15625 80.5 C 91.363281 79.996094 91.550781 79.484375 91.707031 78.964844 C 91.863281 78.441406 91.996094 77.914062 92.101562 77.382812 C 92.210938 76.847656 92.289062 76.308594 92.34375 75.765625 C 92.398438 75.226562 92.421875 74.683594 92.421875 74.136719 L 92.421875 16.308594 L 90.949219 14.835938 L 90.949219 74.140625 C 90.953125 75.136719 90.855469 76.121094 90.664062 77.097656 C 90.472656 78.074219 90.183594 79.019531 89.804688 79.941406 C 89.421875 80.859375 88.953125 81.734375 88.402344 82.5625 C 87.847656 83.386719 87.214844 84.152344 86.511719 84.855469 Z M 96.933594 95.277344 C 96.242188 95.972656 95.519531 96.628906 94.765625 97.253906 C 94.007812 97.875 93.222656 98.460938 92.410156 99.003906 C 91.597656 99.550781 90.757812 100.054688 89.894531 100.515625 C 89.03125 100.980469 88.148438 101.398438 87.242188 101.769531 C 86.335938 102.148438 85.417969 102.476562 84.480469 102.757812 C 83.542969 103.042969 82.59375 103.28125 81.632812 103.46875 C 80.671875 103.660156 79.703125 103.800781 78.730469 103.894531 C 77.753906 103.988281 76.777344 104.035156 75.796875 104.03125 L 75.796875 105.503906 C 76.308594 105.503906 76.820312 105.492188 77.335938 105.464844 C 77.847656 105.441406 78.359375 105.402344 78.871094 105.351562 C 79.378906 105.300781 79.890625 105.238281 80.398438 105.164062 C 80.90625 105.089844 81.410156 105 81.914062 104.902344 C 82.417969 104.800781 82.917969 104.6875 83.417969 104.5625 C 83.914062 104.441406 84.410156 104.300781 84.902344 104.152344 C 85.394531 104.003906 85.878906 103.84375 86.363281 103.671875 C 86.847656 103.496094 87.324219 103.3125 87.800781 103.117188 C 88.273438 102.921875 88.742188 102.710938 89.207031 102.492188 C 89.671875 102.273438 90.128906 102.042969 90.582031 101.800781 C 91.035156 101.558594 91.480469 101.304688 91.921875 101.042969 C 92.363281 100.777344 92.792969 100.503906 93.222656 100.21875 C 93.648438 99.933594 94.066406 99.636719 94.480469 99.332031 C 94.894531 99.027344 95.296875 98.710938 95.695312 98.382812 C 96.089844 98.058594 96.480469 97.722656 96.859375 97.378906 C 97.238281 97.035156 97.613281 96.679688 97.976562 96.316406 C 98.335938 95.953125 98.691406 95.582031 99.035156 95.203125 C 99.382812 94.824219 99.714844 94.433594 100.042969 94.035156 C 100.367188 93.640625 100.683594 93.234375 100.988281 92.824219 C 101.296875 92.410156 101.589844 91.992188 101.875 91.5625 C 102.160156 91.136719 102.4375 90.703125 102.699219 90.265625 C 102.964844 89.824219 103.214844 89.375 103.457031 88.921875 C 103.699219 88.472656 103.929688 88.011719 104.152344 87.546875 C 104.371094 87.085938 104.578125 86.613281 104.773438 86.140625 C 104.96875 85.667969 105.15625 85.1875 105.328125 84.703125 C 105.5 84.222656 105.664062 83.734375 105.8125 83.242188 C 105.960938 82.753906 106.097656 82.257812 106.222656 81.757812 C 106.347656 81.261719 106.460938 80.761719 106.558594 80.257812 C 106.660156 79.753906 106.746094 79.246094 106.824219 78.738281 C 106.898438 78.230469 106.960938 77.722656 107.011719 77.210938 C 107.0625 76.703125 107.097656 76.191406 107.125 75.675781 C 107.148438 75.164062 107.160156 74.652344 107.160156 74.136719 L 107.160156 31.050781 L 105.691406 29.578125 L 105.691406 74.140625 C 105.691406 75.117188 105.644531 76.09375 105.554688 77.070312 C 105.457031 78.046875 105.316406 79.015625 105.128906 79.972656 C 104.9375 80.933594 104.699219 81.886719 104.417969 82.820312 C 104.132812 83.757812 103.804688 84.679688 103.429688 85.585938 C 103.054688 86.492188 102.636719 87.375 102.171875 88.238281 C 101.710938 89.101562 101.207031 89.941406 100.664062 90.753906 C 100.117188 91.566406 99.535156 92.351562 98.910156 93.109375 C 98.289062 93.863281 97.628906 94.585938 96.933594 95.277344 Z M 94.324219 92.667969 C 93.71875 93.277344 93.085938 93.851562 92.421875 94.398438 C 91.761719 94.945312 91.074219 95.457031 90.359375 95.9375 C 89.648438 96.414062 88.914062 96.855469 88.15625 97.261719 C 87.398438 97.667969 86.625 98.035156 85.832031 98.363281 C 85.039062 98.691406 84.234375 98.984375 83.410156 99.230469 C 82.589844 99.480469 81.757812 99.6875 80.917969 99.855469 C 80.074219 100.023438 79.226562 100.148438 78.371094 100.230469 C 77.519531 100.3125 76.660156 100.355469 75.804688 100.351562 L 75.800781 101.824219 C 76.253906 101.824219 76.707031 101.8125 77.160156 101.789062 C 77.613281 101.769531 78.0625 101.734375 78.515625 101.691406 C 78.964844 101.648438 79.414062 101.589844 79.863281 101.523438 C 80.3125 101.457031 80.757812 101.378906 81.203125 101.292969 C 81.644531 101.203125 82.085938 101.105469 82.527344 100.996094 C 82.96875 100.886719 83.402344 100.765625 83.835938 100.632812 C 84.269531 100.5 84.699219 100.359375 85.125 100.207031 C 85.554688 100.054688 85.976562 99.890625 86.394531 99.71875 C 86.8125 99.542969 87.226562 99.359375 87.636719 99.167969 C 88.046875 98.972656 88.449219 98.769531 88.851562 98.554688 C 89.25 98.34375 89.644531 98.117188 90.03125 97.886719 C 90.421875 97.652344 90.804688 97.410156 91.179688 97.160156 C 91.554688 96.90625 91.925781 96.648438 92.289062 96.378906 C 92.65625 96.109375 93.011719 95.828125 93.363281 95.542969 C 93.710938 95.253906 94.054688 94.957031 94.390625 94.65625 C 94.726562 94.347656 95.054688 94.035156 95.375 93.71875 C 95.695312 93.398438 96.007812 93.070312 96.3125 92.734375 C 96.617188 92.398438 96.910156 92.054688 97.199219 91.703125 C 97.488281 91.355469 97.765625 90.996094 98.035156 90.632812 C 98.304688 90.269531 98.566406 89.898438 98.816406 89.523438 C 99.070312 89.144531 99.3125 88.761719 99.542969 88.375 C 99.777344 87.988281 100 87.59375 100.214844 87.191406 C 100.425781 86.792969 100.632812 86.386719 100.824219 85.980469 C 101.019531 85.570312 101.203125 85.15625 101.375 84.738281 C 101.546875 84.316406 101.710938 83.894531 101.863281 83.46875 C 102.015625 83.042969 102.160156 82.613281 102.289062 82.179688 C 102.421875 81.746094 102.542969 81.308594 102.652344 80.871094 C 102.761719 80.429688 102.863281 79.988281 102.949219 79.542969 C 103.039062 79.101562 103.117188 78.652344 103.183594 78.203125 C 103.25 77.757812 103.304688 77.308594 103.347656 76.855469 C 103.394531 76.40625 103.425781 75.953125 103.449219 75.5 C 103.472656 75.050781 103.480469 74.597656 103.480469 74.144531 L 103.480469 27.371094 L 102.003906 25.894531 L 102.011719 74.144531 C 102.011719 75.003906 101.972656 75.859375 101.886719 76.714844 C 101.804688 77.570312 101.679688 78.417969 101.515625 79.257812 C 101.347656 80.101562 101.140625 80.933594 100.890625 81.753906 C 100.640625 82.578125 100.351562 83.382812 100.023438 84.175781 C 99.695312 84.96875 99.328125 85.746094 98.921875 86.5 C 98.515625 87.257812 98.074219 87.992188 97.597656 88.707031 C 97.121094 89.421875 96.605469 90.105469 96.058594 90.769531 C 95.515625 91.433594 94.9375 92.066406 94.328125 92.671875 Z M 91.714844 90.054688 C 90.667969 91.105469 89.53125 92.039062 88.300781 92.863281 C 87.074219 93.6875 85.773438 94.382812 84.40625 94.945312 C 83.039062 95.511719 81.628906 95.9375 80.179688 96.222656 C 78.726562 96.511719 77.261719 96.652344 75.78125 96.644531 L 75.796875 98.132812 C 76.1875 98.132812 76.582031 98.125 76.972656 98.105469 C 77.367188 98.085938 77.757812 98.058594 78.148438 98.019531 C 78.539062 97.980469 78.925781 97.929688 79.316406 97.875 C 79.707031 97.816406 80.09375 97.75 80.476562 97.671875 C 80.863281 97.597656 81.246094 97.511719 81.625 97.414062 C 82.007812 97.320312 82.386719 97.214844 82.761719 97.101562 C 83.136719 96.988281 83.511719 96.863281 83.878906 96.730469 C 84.25 96.597656 84.617188 96.457031 84.976562 96.308594 C 85.339844 96.15625 85.699219 96 86.054688 95.832031 C 86.410156 95.664062 86.761719 95.484375 87.109375 95.300781 C 87.453125 95.113281 87.796875 94.921875 88.132812 94.71875 C 88.46875 94.519531 88.800781 94.308594 89.128906 94.089844 C 89.453125 93.871094 89.773438 93.644531 90.089844 93.414062 C 90.40625 93.179688 90.714844 92.9375 91.019531 92.6875 C 91.324219 92.4375 91.621094 92.179688 91.910156 91.917969 C 92.203125 91.652344 92.484375 91.382812 92.765625 91.105469 C 93.042969 90.828125 93.3125 90.542969 93.574219 90.253906 C 93.839844 89.960938 94.09375 89.664062 94.34375 89.359375 C 94.59375 89.058594 94.835938 88.75 95.070312 88.433594 C 95.304688 88.117188 95.53125 87.796875 95.746094 87.46875 C 95.964844 87.144531 96.175781 86.8125 96.378906 86.472656 C 96.578125 86.136719 96.773438 85.796875 96.957031 85.449219 C 97.144531 85.101562 97.320312 84.753906 97.488281 84.398438 C 97.65625 84.042969 97.816406 83.683594 97.964844 83.320312 C 98.113281 82.957031 98.257812 82.589844 98.390625 82.222656 C 98.519531 81.851562 98.644531 81.480469 98.757812 81.101562 C 98.871094 80.726562 98.976562 80.347656 99.070312 79.96875 C 99.167969 79.585938 99.253906 79.203125 99.332031 78.820312 C 99.40625 78.433594 99.472656 78.046875 99.53125 77.660156 C 99.589844 77.269531 99.636719 76.878906 99.675781 76.488281 C 99.714844 76.097656 99.742188 75.707031 99.761719 75.316406 C 99.78125 74.921875 99.792969 74.53125 99.792969 74.136719 L 99.792969 23.679688 L 98.320312 22.207031 L 98.320312 74.148438 C 98.324219 75.625 98.179688 77.089844 97.894531 78.542969 C 97.605469 79.992188 97.179688 81.402344 96.613281 82.765625 C 96.046875 84.132812 95.351562 85.429688 94.53125 86.660156 C 93.707031 87.886719 92.769531 89.023438 91.722656 90.066406 Z M 75.796875 92.976562 L 75.796875 94.449219 C 76.460938 94.449219 77.125 94.414062 77.785156 94.347656 C 78.449219 94.28125 79.105469 94.183594 79.757812 94.054688 C 80.410156 93.921875 81.050781 93.761719 81.6875 93.566406 C 82.324219 93.375 82.949219 93.152344 83.5625 92.894531 C 84.175781 92.640625 84.777344 92.355469 85.363281 92.042969 C 85.949219 91.730469 86.519531 91.386719 87.070312 91.019531 C 87.621094 90.648438 88.15625 90.253906 88.671875 89.832031 C 89.183594 89.410156 89.675781 88.964844 90.148438 88.496094 C 90.617188 88.023438 91.0625 87.53125 91.484375 87.019531 C 91.90625 86.503906 92.300781 85.96875 92.671875 85.417969 C 93.039062 84.867188 93.382812 84.296875 93.695312 83.710938 C 94.007812 83.125 94.292969 82.523438 94.546875 81.910156 C 94.804688 81.296875 95.027344 80.671875 95.21875 80.035156 C 95.414062 79.398438 95.578125 78.757812 95.707031 78.105469 C 95.835938 77.453125 95.933594 76.796875 96 76.132812 C 96.066406 75.472656 96.101562 74.808594 96.101562 74.144531 L 96.101562 20.007812 L 94.628906 18.535156 L 94.632812 74.140625 C 94.632812 74.757812 94.601562 75.371094 94.542969 75.984375 C 94.480469 76.597656 94.390625 77.207031 94.269531 77.8125 C 94.148438 78.417969 94 79.015625 93.820312 79.605469 C 93.640625 80.195312 93.433594 80.777344 93.195312 81.347656 C 92.960938 81.914062 92.699219 82.472656 92.40625 83.015625 C 92.117188 83.558594 91.796875 84.089844 91.457031 84.601562 C 91.113281 85.113281 90.746094 85.609375 90.355469 86.085938 C 89.964844 86.5625 89.550781 87.019531 89.113281 87.453125 C 88.675781 87.890625 88.21875 88.304688 87.742188 88.695312 C 87.265625 89.085938 86.773438 89.453125 86.257812 89.796875 C 85.746094 90.140625 85.21875 90.457031 84.675781 90.746094 C 84.128906 91.039062 83.574219 91.304688 83.003906 91.539062 C 82.433594 91.777344 81.851562 91.984375 81.261719 92.164062 C 80.671875 92.34375 80.078125 92.492188 79.472656 92.613281 C 78.867188 92.734375 78.257812 92.824219 77.644531 92.882812 C 77.027344 92.945312 76.414062 92.976562 75.796875 92.976562 Z M 75.796875 92.976562 " clip-rule="nonzero"/></clipPath><clipPath id="f7a732b721"><path d="M 91.46875 121.195312 L 156.179688 56.484375 L 91.46875 -8.222656 L 26.761719 56.484375 Z M 91.46875 121.195312 " clip-rule="nonzero"/></clipPath><linearGradient x1="-50.471721" gradientTransform="matrix(-0.137405, -0.137405, 0.137405, -0.137405, 82.292097, 112.000136)" y1="-13.51666" x2="370.335501" gradientUnits="userSpaceOnUse" y2="498.604042" id="1fe7ce2875"><stop stop-opacity="1" stop-color="rgb(0%, 18.798828%, 100%)" offset="0"/><stop stop-opacity="1" stop-color="rgb(0%, 18.798828%, 100%)" offset="0.25"/><stop stop-opacity="1" stop-color="rgb(0%, 18.798828%, 100%)" offset="0.3125"/><stop stop-opacity="1" stop-color="rgb(0%, 18.814087%, 100%)" offset="0.320313"/><stop stop-opacity="1" stop-color="rgb(0%, 19.221497%, 100%)" offset="0.324219"/><stop stop-opacity="1" stop-color="rgb(0%, 19.612122%, 100%)" offset="0.328125"/><stop stop-opacity="1" stop-color="rgb(0%, 20.002747%, 100%)" offset="0.332031"/><stop stop-opacity="1" stop-color="rgb(0%, 20.393372%, 100%)" offset="0.335938"/><stop stop-opacity="1" stop-color="rgb(0%, 20.983887%, 100%)" offset="0.339844"/><stop stop-opacity="1" stop-color="rgb(0%, 21.574402%, 100%)" offset="0.34375"/><stop stop-opacity="1" stop-color="rgb(0%, 22.120667%, 100%)" offset="0.347656"/><stop stop-opacity="1" stop-color="rgb(0%, 22.666931%, 100%)" offset="0.351563"/><stop stop-opacity="1" stop-color="rgb(0%, 23.301697%, 100%)" offset="0.355469"/><stop stop-opacity="1" stop-color="rgb(0%, 23.936462%, 100%)" offset="0.359375"/><stop stop-opacity="1" stop-color="rgb(0%, 24.526978%, 100%)" offset="0.363281"/><stop stop-opacity="1" stop-color="rgb(0%, 25.117493%, 100%)" offset="0.367188"/><stop stop-opacity="1" stop-color="rgb(0%, 25.508118%, 100%)" offset="0.371094"/><stop stop-opacity="1" stop-color="rgb(0%, 25.900269%, 100%)" offset="0.375"/><stop stop-opacity="1" stop-color="rgb(0%, 26.490784%, 100%)" offset="0.378906"/><stop stop-opacity="1" stop-color="rgb(0%, 27.081299%, 100%)" offset="0.382813"/><stop stop-opacity="1" stop-color="rgb(0%, 27.62146%, 100%)" offset="0.386719"/><stop stop-opacity="1" stop-color="rgb(0%, 28.161621%, 100%)" offset="0.390625"/><stop stop-opacity="1" stop-color="rgb(0%, 28.80249%, 100%)" offset="0.394531"/><stop stop-opacity="1" stop-color="rgb(0%, 29.443359%, 100%)" offset="0.398438"/><stop stop-opacity="1" stop-color="rgb(0%, 30.033875%, 100%)" offset="0.402344"/><stop stop-opacity="1" stop-color="rgb(0%, 30.62439%, 100%)" offset="0.40625"/><stop stop-opacity="1" stop-color="rgb(0%, 31.018066%, 100%)" offset="0.410156"/><stop stop-opacity="1" stop-color="rgb(0%, 31.411743%, 100%)" offset="0.414063"/><stop stop-opacity="1" stop-color="rgb(0%, 31.950378%, 100%)" offset="0.417969"/><stop stop-opacity="1" stop-color="rgb(0%, 32.49054%, 100%)" offset="0.421875"/><stop stop-opacity="1" stop-color="rgb(0%, 33.079529%, 100%)" offset="0.425781"/><stop stop-opacity="1" stop-color="rgb(0%, 33.668518%, 100%)" offset="0.429688"/><stop stop-opacity="1" stop-color="rgb(0%, 34.259033%, 100%)" offset="0.433594"/><stop stop-opacity="1" stop-color="rgb(0%, 34.849548%, 100%)" offset="0.4375"/><stop stop-opacity="1" stop-color="rgb(0%, 35.490417%, 100%)" offset="0.441406"/><stop stop-opacity="1" stop-color="rgb(0%, 36.131287%, 100%)" offset="0.445313"/><stop stop-opacity="1" stop-color="rgb(0%, 36.720276%, 100%)" offset="0.449219"/><stop stop-opacity="1" stop-color="rgb(0%, 37.309265%, 100%)" offset="0.453125"/><stop stop-opacity="1" stop-color="rgb(0%, 37.651062%, 100%)" offset="0.457031"/><stop stop-opacity="1" stop-color="rgb(0%, 37.992859%, 100%)" offset="0.460938"/><stop stop-opacity="1" stop-color="rgb(0%, 38.583374%, 100%)" offset="0.464844"/><stop stop-opacity="1" stop-color="rgb(0%, 39.173889%, 100%)" offset="0.46875"/><stop stop-opacity="1" stop-color="rgb(0%, 39.764404%, 100%)" offset="0.472656"/><stop stop-opacity="1" stop-color="rgb(0%, 40.356445%, 100%)" offset="0.476563"/><stop stop-opacity="1" stop-color="rgb(0%, 40.995789%, 100%)" offset="0.480469"/><stop stop-opacity="1" stop-color="rgb(0%, 41.636658%, 100%)" offset="0.484375"/><stop stop-opacity="1" stop-color="rgb(0%, 42.176819%, 100%)" offset="0.488281"/><stop stop-opacity="1" stop-color="rgb(0%, 42.718506%, 100%)" offset="0.492188"/><stop stop-opacity="1" stop-color="rgb(0%, 43.109131%, 100%)" offset="0.496094"/><stop stop-opacity="1" stop-color="rgb(0%, 43.499756%, 100%)" offset="0.5"/><stop stop-opacity="1" stop-color="rgb(0%, 44.090271%, 100%)" offset="0.503906"/><stop stop-opacity="1" stop-color="rgb(0%, 44.680786%, 100%)" offset="0.507812"/><stop stop-opacity="1" stop-color="rgb(0%, 45.271301%, 100%)" offset="0.511719"/><stop stop-opacity="1" stop-color="rgb(0%, 45.861816%, 100%)" offset="0.515625"/><stop stop-opacity="1" stop-color="rgb(0%, 46.502686%, 100%)" offset="0.519531"/><stop stop-opacity="1" stop-color="rgb(0%, 47.143555%, 100%)" offset="0.523438"/><stop stop-opacity="1" stop-color="rgb(0%, 47.683716%, 100%)" offset="0.527344"/><stop stop-opacity="1" stop-color="rgb(0%, 48.223877%, 100%)" offset="0.53125"/><stop stop-opacity="1" stop-color="rgb(0%, 48.617554%, 100%)" offset="0.535156"/><stop stop-opacity="1" stop-color="rgb(0%, 49.012756%, 100%)" offset="0.539062"/><stop stop-opacity="1" stop-color="rgb(0%, 49.60022%, 100%)" offset="0.542969"/><stop stop-opacity="1" stop-color="rgb(0%, 50.187683%, 100%)" offset="0.546875"/><stop stop-opacity="1" stop-color="rgb(0%, 50.778198%, 100%)" offset="0.550781"/><stop stop-opacity="1" stop-color="rgb(0%, 51.368713%, 100%)" offset="0.554688"/><stop stop-opacity="1" stop-color="rgb(0%, 51.890564%, 100%)" offset="0.558594"/><stop stop-opacity="1" stop-color="rgb(0%, 52.412415%, 100%)" offset="0.5625"/><stop stop-opacity="1" stop-color="rgb(0%, 53.071594%, 100%)" offset="0.566406"/><stop stop-opacity="1" stop-color="rgb(0%, 53.730774%, 100%)" offset="0.570313"/><stop stop-opacity="1" stop-color="rgb(0%, 54.321289%, 100%)" offset="0.574219"/><stop stop-opacity="1" stop-color="rgb(0%, 54.911804%, 100%)" offset="0.578125"/><stop stop-opacity="1" stop-color="rgb(0%, 55.302429%, 100%)" offset="0.582031"/><stop stop-opacity="1" stop-color="rgb(0%, 55.693054%, 100%)" offset="0.585938"/><stop stop-opacity="1" stop-color="rgb(0%, 56.283569%, 100%)" offset="0.589844"/><stop stop-opacity="1" stop-color="rgb(0%, 56.874084%, 100%)" offset="0.59375"/><stop stop-opacity="1" stop-color="rgb(0%, 57.414246%, 100%)" offset="0.597656"/><stop stop-opacity="1" stop-color="rgb(0%, 57.955933%, 100%)" offset="0.601562"/><stop stop-opacity="1" stop-color="rgb(0%, 58.596802%, 100%)" offset="0.605469"/><stop stop-opacity="1" stop-color="rgb(0%, 59.237671%, 100%)" offset="0.609375"/><stop stop-opacity="1" stop-color="rgb(0%, 59.828186%, 100%)" offset="0.613281"/><stop stop-opacity="1" stop-color="rgb(0%, 60.418701%, 100%)" offset="0.617188"/><stop stop-opacity="1" stop-color="rgb(0%, 60.809326%, 100%)" offset="0.621094"/><stop stop-opacity="1" stop-color="rgb(0%, 61.199951%, 100%)" offset="0.625"/><stop stop-opacity="1" stop-color="rgb(0%, 61.790466%, 100%)" offset="0.628906"/><stop stop-opacity="1" stop-color="rgb(0%, 62.380981%, 100%)" offset="0.632813"/><stop stop-opacity="1" stop-color="rgb(0%, 62.921143%, 100%)" offset="0.636719"/><stop stop-opacity="1" stop-color="rgb(0%, 63.46283%, 100%)" offset="0.640625"/><stop stop-opacity="1" stop-color="rgb(0%, 64.102173%, 100%)" offset="0.644531"/><stop stop-opacity="1" stop-color="rgb(0%, 64.743042%, 100%)" offset="0.648438"/><stop stop-opacity="1" stop-color="rgb(0%, 65.333557%, 100%)" offset="0.652344"/><stop stop-opacity="1" stop-color="rgb(0%, 65.924072%, 100%)" offset="0.65625"/><stop stop-opacity="1" stop-color="rgb(0%, 66.317749%, 100%)" offset="0.660156"/><stop stop-opacity="1" stop-color="rgb(0%, 66.712952%, 100%)" offset="0.664062"/><stop stop-opacity="1" stop-color="rgb(0%, 67.251587%, 100%)" offset="0.667969"/><stop stop-opacity="1" stop-color="rgb(0%, 67.790222%, 100%)" offset="0.671875"/><stop stop-opacity="1" stop-color="rgb(0%, 68.379211%, 100%)" offset="0.675781"/><stop stop-opacity="1" stop-color="rgb(0%, 68.968201%, 100%)" offset="0.679688"/><stop stop-opacity="1" stop-color="rgb(0%, 69.534302%, 100%)" offset="0.683594"/><stop stop-opacity="1" stop-color="rgb(0%, 70.100403%, 100%)" offset="0.6875"/><stop stop-opacity="1" stop-color="rgb(0%, 70.765686%, 100%)" offset="0.691406"/><stop stop-opacity="1" stop-color="rgb(0%, 71.430969%, 100%)" offset="0.695313"/><stop stop-opacity="1" stop-color="rgb(0%, 71.97113%, 100%)" offset="0.699219"/><stop stop-opacity="1" stop-color="rgb(0%, 72.512817%, 100%)" offset="0.703125"/><stop stop-opacity="1" stop-color="rgb(0%, 72.903442%, 100%)" offset="0.707031"/><stop stop-opacity="1" stop-color="rgb(0%, 73.294067%, 100%)" offset="0.710938"/><stop stop-opacity="1" stop-color="rgb(0%, 73.884583%, 100%)" offset="0.714844"/><stop stop-opacity="1" stop-color="rgb(0%, 74.475098%, 100%)" offset="0.71875"/><stop stop-opacity="1" stop-color="rgb(0%, 75.065613%, 100%)" offset="0.722656"/><stop stop-opacity="1" stop-color="rgb(0%, 75.656128%, 100%)" offset="0.726562"/><stop stop-opacity="1" stop-color="rgb(0%, 75.87738%, 100%)" offset="0.730469"/><stop stop-opacity="1" stop-color="rgb(0%, 76.098633%, 100%)" offset="0.734375"/><stop stop-opacity="1" stop-color="rgb(0%, 76.098633%, 100%)" offset="0.75"/><stop stop-opacity="1" stop-color="rgb(0%, 76.098633%, 100%)" offset="1"/></linearGradient></defs><g clip-path="url(#e8f2b320ae)"><g clip-path="url(#e80da6f1ca)"><g clip-path="url(#f09064d12e)"><g clip-path="url(#7ab3167f3f)"><path fill="url(#c4c996b17f)" d="M 44.554688 42.667969 L 44.554688 105.503906 L 84.3125 105.503906 L 84.3125 42.667969 Z M 44.554688 42.667969 " fill-rule="nonzero"/></g></g></g></g><g clip-path="url(#6b97bc896b)"><g clip-path="url(#fcd2c01d80)"><g clip-path="url(#d87e1b7242)"><g clip-path="url(#18a0b27a7a)"><path fill="url(#a4a93843fe)" d="M 105.570312 42.605469 L 105.570312 66.296875 L 138.972656 66.296875 L 138.972656 42.605469 Z M 105.570312 42.605469 " fill-rule="nonzero"/></g></g></g></g><g clip-path="url(#0f6e7504b2)"><g clip-path="url(#11fb3609b5)"><g clip-path="url(#d3f83a1623)"><g clip-path="url(#e552a2829b)"><g clip-path="url(#f7a732b721)"><path fill="url(#1fe7ce2875)" d="M 91.46875 121.195312 L 156.179688 56.484375 L 91.46875 -8.222656 L 26.761719 56.484375 Z M 91.46875 121.195312 " fill-rule="nonzero"/></g></g></g></g></g></svg>