<svg xmlns="http://www.w3.org/2000/svg" xmlns:xlink="http://www.w3.org/1999/xlink" width="250" zoomAndPan="magnify" viewBox="0 0 187.5 112.499997" height="150" preserveAspectRatio="xMidYMid meet" version="1.0"><defs><clipPath id="3882809b98"><path d="M 12.613281 31.863281 L 39.449219 31.863281 L 39.449219 74.273438 L 12.613281 74.273438 Z M 12.613281 31.863281 " clip-rule="nonzero"/></clipPath><clipPath id="b9a1716bbb"><path d="M 29.4375 78.675781 L 3.753906 52.992188 L 32.113281 24.632812 L 57.796875 50.316406 Z M 29.4375 78.675781 " clip-rule="nonzero"/></clipPath><clipPath id="7d6959a580"><path d="M 29.4375 78.675781 L 3.753906 52.992188 L 32.113281 24.632812 L 57.796875 50.316406 Z M 29.4375 78.675781 " clip-rule="nonzero"/></clipPath><clipPath id="e53f0a35ab"><path d="M 24.109375 43.359375 C 23.871094 43.597656 23.640625 43.84375 23.421875 44.097656 C 23.199219 44.355469 22.988281 44.617188 22.789062 44.890625 C 22.589844 45.160156 22.398438 45.4375 22.21875 45.722656 C 22.035156 46.007812 21.867188 46.296875 21.707031 46.59375 C 21.550781 46.894531 21.402344 47.195312 21.265625 47.503906 C 21.128906 47.8125 21.003906 48.125 20.890625 48.441406 C 20.777344 48.757812 20.675781 49.082031 20.585938 49.40625 C 20.496094 49.730469 20.417969 50.058594 20.351562 50.390625 C 20.285156 50.71875 20.230469 51.054688 20.191406 51.386719 C 20.148438 51.722656 20.121094 52.058594 20.101562 52.394531 C 20.085938 52.730469 20.082031 53.070312 20.089844 53.40625 C 20.097656 53.742188 20.121094 54.078125 20.152344 54.414062 C 20.1875 54.75 20.230469 55.085938 20.289062 55.417969 C 20.347656 55.75 20.417969 56.078125 20.496094 56.40625 C 20.578125 56.730469 20.675781 57.054688 20.78125 57.375 C 20.886719 57.695312 21.003906 58.011719 21.132812 58.324219 C 21.261719 58.636719 21.402344 58.941406 21.554688 59.242188 C 21.703125 59.542969 21.867188 59.839844 22.039062 60.128906 C 22.214844 60.417969 22.398438 60.699219 22.59375 60.976562 C 22.785156 61.25 22.988281 61.519531 23.203125 61.78125 C 23.417969 62.042969 23.640625 62.292969 23.875 62.539062 C 24.105469 62.78125 24.347656 63.015625 24.597656 63.242188 C 24.847656 63.46875 25.105469 63.6875 25.371094 63.894531 C 25.636719 64.101562 25.910156 64.300781 26.191406 64.488281 C 26.46875 64.671875 26.757812 64.851562 27.050781 65.015625 C 27.34375 65.183594 27.644531 65.339844 27.949219 65.480469 C 28.253906 65.625 28.5625 65.757812 28.875 65.878906 C 29.191406 66 29.511719 66.109375 29.832031 66.210938 C 30.15625 66.308594 30.480469 66.390625 30.8125 66.464844 C 31.140625 66.539062 31.472656 66.601562 31.804688 66.652344 C 32.136719 66.699219 32.472656 66.738281 32.808594 66.761719 C 33.144531 66.789062 33.480469 66.800781 33.820312 66.800781 L 33.820312 65.804688 C 33.402344 65.804688 32.984375 65.785156 32.570312 65.742188 C 32.15625 65.703125 31.742188 65.640625 31.332031 65.558594 C 30.925781 65.476562 30.519531 65.375 30.121094 65.253906 C 29.722656 65.136719 29.328125 64.992188 28.945312 64.835938 C 28.558594 64.675781 28.183594 64.496094 27.8125 64.300781 C 27.445312 64.101562 27.089844 63.886719 26.742188 63.65625 C 26.394531 63.425781 26.058594 63.175781 25.738281 62.914062 C 25.414062 62.648438 25.105469 62.367188 24.8125 62.070312 C 24.515625 61.777344 24.238281 61.46875 23.972656 61.144531 C 23.707031 60.824219 23.460938 60.488281 23.226562 60.140625 C 22.996094 59.792969 22.78125 59.4375 22.585938 59.070312 C 22.386719 58.703125 22.210938 58.324219 22.050781 57.9375 C 21.890625 57.554688 21.75 57.160156 21.628906 56.761719 C 21.507812 56.363281 21.410156 55.957031 21.328125 55.550781 C 21.246094 55.140625 21.183594 54.726562 21.144531 54.3125 C 21.101562 53.898438 21.082031 53.480469 21.082031 53.0625 C 21.082031 52.648438 21.101562 52.230469 21.144531 51.816406 C 21.183594 51.402344 21.246094 50.988281 21.328125 50.578125 C 21.410156 50.171875 21.511719 49.765625 21.632812 49.367188 C 21.753906 48.96875 21.894531 48.574219 22.050781 48.191406 C 22.214844 47.804688 22.390625 47.425781 22.585938 47.058594 C 22.785156 46.691406 23 46.335938 23.230469 45.988281 C 23.460938 45.640625 23.710938 45.304688 23.976562 44.984375 C 24.238281 44.660156 24.519531 44.351562 24.816406 44.058594 C 25.109375 43.761719 25.417969 43.484375 25.742188 43.21875 C 26.0625 42.953125 26.398438 42.707031 26.746094 42.472656 C 27.09375 42.242188 27.449219 42.027344 27.816406 41.832031 C 28.1875 41.632812 28.5625 41.457031 28.949219 41.296875 C 29.332031 41.136719 29.726562 40.996094 30.125 40.875 C 30.523438 40.753906 30.929688 40.652344 31.339844 40.574219 C 31.746094 40.492188 32.160156 40.429688 32.574219 40.390625 C 32.988281 40.347656 33.40625 40.328125 33.824219 40.328125 L 39.445312 40.328125 L 39.441406 39.332031 L 33.820312 39.339844 C 32.917969 39.339844 32.027344 39.421875 31.140625 39.597656 C 30.257812 39.773438 29.398438 40.03125 28.5625 40.375 C 27.730469 40.722656 26.9375 41.144531 26.1875 41.644531 C 25.4375 42.148438 24.746094 42.71875 24.109375 43.359375 Z M 27.632812 46.882812 C 27.328125 47.1875 27.046875 47.511719 26.792969 47.855469 C 26.535156 48.203125 26.304688 48.566406 26.105469 48.945312 C 25.902344 49.324219 25.726562 49.714844 25.582031 50.121094 C 25.4375 50.527344 25.324219 50.9375 25.238281 51.363281 C 25.15625 51.785156 25.101562 52.210938 25.082031 52.640625 C 25.058594 53.070312 25.070312 53.5 25.113281 53.925781 C 25.15625 54.355469 25.230469 54.777344 25.332031 55.195312 C 25.4375 55.613281 25.570312 56.019531 25.738281 56.417969 C 25.902344 56.8125 26.09375 57.195312 26.316406 57.566406 C 26.535156 57.933594 26.785156 58.285156 27.054688 58.617188 C 27.328125 58.949219 27.625 59.261719 27.945312 59.550781 C 28.261719 59.839844 28.601562 60.101562 28.957031 60.34375 C 29.316406 60.582031 29.6875 60.792969 30.078125 60.976562 C 30.46875 61.160156 30.867188 61.316406 31.28125 61.441406 C 31.691406 61.566406 32.109375 61.660156 32.535156 61.722656 C 32.960938 61.785156 33.386719 61.816406 33.820312 61.816406 L 33.820312 60.820312 C 33.5625 60.820312 33.3125 60.808594 33.058594 60.785156 C 32.804688 60.757812 32.554688 60.722656 32.304688 60.671875 C 32.054688 60.625 31.808594 60.5625 31.566406 60.488281 C 31.324219 60.414062 31.085938 60.328125 30.851562 60.230469 C 30.617188 60.136719 30.386719 60.027344 30.164062 59.90625 C 29.9375 59.789062 29.722656 59.65625 29.507812 59.515625 C 29.296875 59.375 29.09375 59.222656 28.898438 59.0625 C 28.703125 58.902344 28.515625 58.730469 28.335938 58.550781 C 28.15625 58.371094 27.984375 58.183594 27.824219 57.988281 C 27.664062 57.792969 27.511719 57.585938 27.371094 57.375 C 27.230469 57.164062 27.097656 56.945312 26.976562 56.722656 C 26.859375 56.5 26.75 56.269531 26.652344 56.035156 C 26.554688 55.800781 26.46875 55.5625 26.398438 55.320312 C 26.324219 55.074219 26.261719 54.828125 26.210938 54.582031 C 26.164062 54.332031 26.125 54.082031 26.101562 53.828125 C 26.074219 53.574219 26.0625 53.320312 26.0625 53.066406 C 26.0625 52.8125 26.074219 52.5625 26.101562 52.308594 C 26.125 52.054688 26.164062 51.804688 26.210938 51.554688 C 26.261719 51.304688 26.324219 51.058594 26.398438 50.816406 C 26.472656 50.574219 26.558594 50.335938 26.652344 50.101562 C 26.75 49.867188 26.859375 49.636719 26.980469 49.414062 C 27.097656 49.1875 27.230469 48.972656 27.371094 48.757812 C 27.511719 48.546875 27.664062 48.34375 27.824219 48.148438 C 27.984375 47.953125 28.15625 47.765625 28.335938 47.585938 C 28.515625 47.40625 28.703125 47.234375 28.898438 47.074219 C 29.09375 46.914062 29.300781 46.761719 29.511719 46.621094 C 29.722656 46.480469 29.941406 46.347656 30.164062 46.230469 C 30.386719 46.109375 30.617188 46 30.851562 45.90625 C 31.085938 45.808594 31.324219 45.722656 31.566406 45.648438 C 31.8125 45.574219 32.058594 45.511719 32.308594 45.464844 C 32.554688 45.414062 32.804688 45.375 33.058594 45.351562 C 33.3125 45.328125 33.566406 45.316406 33.820312 45.316406 L 39.449219 45.316406 L 39.445312 44.320312 L 33.820312 44.320312 C 33.242188 44.320312 32.675781 44.375 32.109375 44.484375 C 31.546875 44.597656 31 44.761719 30.46875 44.980469 C 29.9375 45.203125 29.433594 45.472656 28.957031 45.792969 C 28.480469 46.113281 28.039062 46.476562 27.632812 46.882812 Z M 25.867188 45.117188 C 25.476562 45.507812 25.117188 45.925781 24.789062 46.371094 C 24.460938 46.8125 24.164062 47.277344 23.90625 47.765625 C 23.644531 48.253906 23.421875 48.757812 23.234375 49.277344 C 23.050781 49.796875 22.902344 50.328125 22.796875 50.871094 C 22.6875 51.414062 22.621094 51.960938 22.59375 52.511719 C 22.566406 53.0625 22.578125 53.613281 22.632812 54.164062 C 22.6875 54.714844 22.78125 55.257812 22.917969 55.792969 C 23.050781 56.328125 23.222656 56.851562 23.433594 57.363281 C 23.644531 57.871094 23.894531 58.363281 24.175781 58.839844 C 24.460938 59.3125 24.777344 59.761719 25.128906 60.191406 C 25.480469 60.617188 25.859375 61.015625 26.269531 61.386719 C 26.675781 61.757812 27.109375 62.097656 27.570312 62.40625 C 28.027344 62.710938 28.507812 62.984375 29.007812 63.21875 C 29.507812 63.457031 30.023438 63.65625 30.550781 63.816406 C 31.078125 63.976562 31.617188 64.097656 32.164062 64.179688 C 32.710938 64.261719 33.257812 64.300781 33.8125 64.300781 L 33.820312 63.3125 C 33.488281 63.304688 33.160156 63.28125 32.832031 63.242188 C 32.503906 63.199219 32.179688 63.144531 31.855469 63.074219 C 31.53125 63.003906 31.214844 62.914062 30.902344 62.8125 C 30.585938 62.710938 30.277344 62.59375 29.976562 62.460938 C 29.671875 62.328125 29.375 62.183594 29.085938 62.023438 C 28.800781 61.863281 28.519531 61.6875 28.246094 61.5 C 27.976562 61.3125 27.714844 61.113281 27.460938 60.898438 C 27.207031 60.683594 26.964844 60.460938 26.738281 60.222656 C 26.503906 59.988281 26.285156 59.742188 26.082031 59.484375 C 25.871094 59.226562 25.679688 58.960938 25.5 58.683594 C 25.316406 58.40625 25.152344 58.121094 24.996094 57.828125 C 24.84375 57.535156 24.703125 57.238281 24.582031 56.929688 C 24.453125 56.625 24.347656 56.3125 24.25 55.996094 C 24.15625 55.679688 24.078125 55.359375 24.015625 55.035156 C 23.949219 54.710938 23.902344 54.386719 23.871094 54.058594 C 23.839844 53.726562 23.824219 53.398438 23.824219 53.066406 C 23.824219 52.738281 23.839844 52.40625 23.871094 52.078125 C 23.902344 51.75 23.953125 51.425781 24.015625 51.101562 C 24.078125 50.777344 24.15625 50.457031 24.25 50.140625 C 24.347656 49.820312 24.457031 49.511719 24.582031 49.203125 C 24.703125 48.898438 24.84375 48.601562 24.996094 48.308594 C 25.152344 48.015625 25.316406 47.730469 25.5 47.453125 C 25.679688 47.175781 25.875 46.910156 26.082031 46.652344 C 26.289062 46.394531 26.507812 46.148438 26.738281 45.910156 C 26.96875 45.675781 27.210938 45.449219 27.460938 45.238281 C 27.714844 45.023438 27.976562 44.824219 28.246094 44.636719 C 28.519531 44.449219 28.800781 44.273438 29.089844 44.113281 C 29.378906 43.953125 29.671875 43.808594 29.976562 43.675781 C 30.277344 43.542969 30.585938 43.425781 30.902344 43.324219 C 31.214844 43.222656 31.535156 43.132812 31.855469 43.0625 C 32.179688 42.992188 32.503906 42.9375 32.832031 42.894531 C 33.160156 42.855469 33.488281 42.832031 33.820312 42.824219 L 39.445312 42.824219 L 39.441406 41.828125 L 33.820312 41.828125 C 33.082031 41.828125 32.347656 41.898438 31.625 42.039062 C 30.902344 42.183594 30.199219 42.394531 29.515625 42.679688 C 28.832031 42.960938 28.183594 43.308594 27.574219 43.71875 C 26.960938 44.128906 26.390625 44.597656 25.871094 45.121094 Z M 20.582031 39.832031 C 20.363281 40.046875 20.152344 40.269531 19.949219 40.496094 C 19.742188 40.722656 19.542969 40.957031 19.347656 41.191406 C 19.15625 41.429688 18.964844 41.671875 18.785156 41.917969 C 18.601562 42.164062 18.425781 42.414062 18.253906 42.667969 C 18.085938 42.921875 17.921875 43.183594 17.765625 43.445312 C 17.605469 43.707031 17.457031 43.972656 17.3125 44.242188 C 17.167969 44.515625 17.027344 44.789062 16.898438 45.0625 C 16.769531 45.339844 16.644531 45.621094 16.527344 45.90625 C 16.410156 46.1875 16.300781 46.472656 16.195312 46.761719 C 16.09375 47.050781 15.996094 47.339844 15.910156 47.632812 C 15.820312 47.925781 15.738281 48.222656 15.664062 48.519531 C 15.589844 48.816406 15.523438 49.113281 15.460938 49.414062 C 15.402344 49.714844 15.351562 50.019531 15.304688 50.320312 C 15.261719 50.625 15.222656 50.925781 15.195312 51.234375 C 15.164062 51.535156 15.140625 51.84375 15.125 52.148438 C 15.113281 52.453125 15.105469 52.761719 15.105469 53.066406 C 15.105469 53.371094 15.113281 53.679688 15.128906 53.984375 C 15.144531 54.292969 15.164062 54.597656 15.195312 54.902344 C 15.226562 55.207031 15.261719 55.511719 15.308594 55.8125 C 15.351562 56.117188 15.40625 56.417969 15.464844 56.71875 C 15.523438 57.019531 15.59375 57.316406 15.667969 57.613281 C 15.742188 57.910156 15.824219 58.207031 15.910156 58.5 C 16 58.792969 16.097656 59.082031 16.199219 59.371094 C 16.304688 59.660156 16.414062 59.945312 16.53125 60.226562 C 16.648438 60.511719 16.773438 60.792969 16.902344 61.066406 C 17.035156 61.34375 17.171875 61.617188 17.316406 61.886719 C 17.460938 62.160156 17.613281 62.425781 17.769531 62.6875 C 17.925781 62.949219 18.089844 63.207031 18.261719 63.464844 C 18.429688 63.71875 18.609375 63.96875 18.789062 64.214844 C 18.972656 64.460938 19.160156 64.703125 19.355469 64.9375 C 19.550781 65.175781 19.75 65.40625 19.957031 65.632812 C 20.160156 65.859375 20.371094 66.082031 20.589844 66.300781 C 21.019531 66.734375 21.472656 67.148438 21.945312 67.535156 C 22.417969 67.925781 22.910156 68.292969 23.421875 68.632812 C 23.929688 68.976562 24.453125 69.289062 24.996094 69.582031 C 25.535156 69.871094 26.089844 70.132812 26.65625 70.367188 C 27.222656 70.601562 27.796875 70.808594 28.382812 70.984375 C 28.972656 71.164062 29.566406 71.3125 30.167969 71.429688 C 30.769531 71.550781 31.375 71.636719 31.984375 71.695312 C 32.59375 71.757812 33.207031 71.785156 33.820312 71.78125 L 33.816406 70.792969 C 33.523438 70.792969 33.234375 70.785156 32.945312 70.769531 C 32.65625 70.757812 32.367188 70.734375 32.078125 70.707031 C 31.789062 70.679688 31.5 70.644531 31.214844 70.601562 C 30.929688 70.558594 30.640625 70.507812 30.359375 70.453125 C 30.074219 70.394531 29.789062 70.332031 29.507812 70.261719 C 29.226562 70.191406 28.949219 70.113281 28.671875 70.027344 C 28.394531 69.945312 28.117188 69.851562 27.84375 69.753906 C 27.574219 69.660156 27.300781 69.554688 27.035156 69.441406 C 26.765625 69.332031 26.5 69.214844 26.238281 69.089844 C 25.976562 68.964844 25.71875 68.835938 25.460938 68.699219 C 25.207031 68.5625 24.953125 68.421875 24.707031 68.269531 C 24.457031 68.121094 24.210938 67.964844 23.96875 67.804688 C 23.730469 67.644531 23.492188 67.476562 23.257812 67.304688 C 23.027344 67.132812 22.796875 66.953125 22.574219 66.769531 C 22.351562 66.585938 22.128906 66.398438 21.914062 66.203125 C 21.699219 66.007812 21.492188 65.808594 21.285156 65.601562 C 21.082031 65.398438 20.878906 65.1875 20.6875 64.972656 C 20.492188 64.757812 20.300781 64.539062 20.117188 64.3125 C 19.933594 64.089844 19.753906 63.859375 19.582031 63.628906 C 19.410156 63.394531 19.242188 63.15625 19.082031 62.917969 C 18.921875 62.675781 18.765625 62.429688 18.617188 62.183594 C 18.46875 61.933594 18.324219 61.679688 18.1875 61.425781 C 18.050781 61.167969 17.921875 60.910156 17.796875 60.648438 C 17.671875 60.386719 17.554688 60.121094 17.445312 59.855469 C 17.332031 59.585938 17.230469 59.316406 17.132812 59.042969 C 17.035156 58.769531 16.941406 58.492188 16.859375 58.214844 C 16.773438 57.9375 16.695312 57.660156 16.625 57.378906 C 16.554688 57.097656 16.492188 56.8125 16.4375 56.53125 C 16.378906 56.246094 16.328125 55.960938 16.289062 55.671875 C 16.246094 55.386719 16.210938 55.097656 16.179688 54.808594 C 16.152344 54.519531 16.132812 54.230469 16.117188 53.941406 C 16.101562 53.652344 16.09375 53.363281 16.09375 53.070312 C 16.09375 52.78125 16.101562 52.492188 16.117188 52.203125 C 16.132812 51.914062 16.152344 51.625 16.179688 51.335938 C 16.210938 51.046875 16.246094 50.757812 16.289062 50.472656 C 16.328125 50.1875 16.378906 49.898438 16.4375 49.617188 C 16.492188 49.332031 16.554688 49.046875 16.625 48.765625 C 16.699219 48.484375 16.773438 48.207031 16.859375 47.929688 C 16.941406 47.652344 17.035156 47.375 17.132812 47.101562 C 17.230469 46.828125 17.332031 46.558594 17.445312 46.292969 C 17.554688 46.023438 17.671875 45.757812 17.796875 45.496094 C 17.921875 45.234375 18.050781 44.976562 18.1875 44.71875 C 18.324219 44.464844 18.46875 44.210938 18.617188 43.964844 C 18.765625 43.714844 18.921875 43.46875 19.082031 43.226562 C 19.242188 42.988281 19.410156 42.75 19.582031 42.515625 C 19.757812 42.285156 19.933594 42.054688 20.117188 41.832031 C 20.300781 41.605469 20.492188 41.386719 20.6875 41.171875 C 20.878906 40.957031 21.082031 40.746094 21.285156 40.542969 C 21.492188 40.335938 21.699219 40.136719 21.914062 39.941406 C 22.128906 39.746094 22.351562 39.558594 22.574219 39.375 C 22.796875 39.191406 23.027344 39.011719 23.257812 38.839844 C 23.492188 38.667969 23.730469 38.5 23.972656 38.339844 C 24.210938 38.179688 24.457031 38.023438 24.707031 37.875 C 24.953125 37.722656 25.207031 37.582031 25.460938 37.445312 C 25.71875 37.308594 25.976562 37.179688 26.238281 37.054688 C 26.5 36.929688 26.765625 36.8125 27.035156 36.699219 C 27.300781 36.589844 27.574219 36.484375 27.847656 36.386719 C 28.121094 36.289062 28.394531 36.199219 28.671875 36.117188 C 28.949219 36.03125 29.230469 35.953125 29.511719 35.882812 C 29.792969 35.8125 30.074219 35.75 30.359375 35.691406 C 30.644531 35.636719 30.929688 35.585938 31.214844 35.542969 C 31.503906 35.5 31.789062 35.464844 32.078125 35.4375 C 32.367188 35.410156 32.65625 35.386719 32.945312 35.375 C 33.234375 35.359375 33.527344 35.351562 33.816406 35.351562 L 39.433594 35.347656 L 39.433594 34.351562 L 33.820312 34.351562 C 33.207031 34.351562 32.59375 34.382812 31.984375 34.441406 C 31.371094 34.5 30.765625 34.585938 30.164062 34.707031 C 29.5625 34.824219 28.96875 34.972656 28.382812 35.152344 C 27.796875 35.328125 27.21875 35.535156 26.652344 35.769531 C 26.085938 36.003906 25.53125 36.265625 24.992188 36.554688 C 24.453125 36.84375 23.925781 37.160156 23.417969 37.5 C 22.910156 37.84375 22.417969 38.207031 21.945312 38.597656 C 21.46875 38.988281 21.019531 39.398438 20.585938 39.835938 Z M 29.390625 48.640625 C 29.171875 48.859375 28.972656 49.089844 28.789062 49.335938 C 28.605469 49.585938 28.441406 49.84375 28.296875 50.117188 C 28.152344 50.386719 28.027344 50.667969 27.925781 50.957031 C 27.820312 51.246094 27.738281 51.542969 27.679688 51.84375 C 27.617188 52.144531 27.582031 52.449219 27.566406 52.757812 C 27.550781 53.066406 27.558594 53.371094 27.589844 53.679688 C 27.621094 53.984375 27.671875 54.285156 27.746094 54.585938 C 27.820312 54.882812 27.917969 55.175781 28.035156 55.457031 C 28.152344 55.742188 28.289062 56.015625 28.449219 56.28125 C 28.605469 56.542969 28.785156 56.796875 28.976562 57.035156 C 29.175781 57.269531 29.386719 57.492188 29.613281 57.699219 C 29.839844 57.90625 30.082031 58.097656 30.339844 58.265625 C 30.59375 58.4375 30.863281 58.589844 31.140625 58.71875 C 31.417969 58.851562 31.703125 58.964844 32 59.050781 C 32.292969 59.140625 32.59375 59.207031 32.894531 59.253906 C 33.203125 59.300781 33.507812 59.320312 33.816406 59.320312 L 33.816406 58.328125 C 33.644531 58.328125 33.472656 58.320312 33.300781 58.300781 C 33.128906 58.285156 32.957031 58.257812 32.789062 58.226562 C 32.621094 58.191406 32.453125 58.152344 32.289062 58.101562 C 32.125 58.050781 31.960938 57.992188 31.800781 57.925781 C 31.644531 57.859375 31.488281 57.789062 31.335938 57.707031 C 31.183594 57.625 31.035156 57.535156 30.890625 57.441406 C 30.75 57.34375 30.609375 57.242188 30.476562 57.132812 C 30.34375 57.023438 30.214844 56.90625 30.09375 56.785156 C 29.972656 56.664062 29.855469 56.535156 29.746094 56.402344 C 29.640625 56.269531 29.535156 56.132812 29.441406 55.988281 C 29.34375 55.84375 29.257812 55.699219 29.175781 55.546875 C 29.09375 55.394531 29.019531 55.238281 28.953125 55.078125 C 28.886719 54.917969 28.828125 54.757812 28.78125 54.59375 C 28.730469 54.429688 28.6875 54.261719 28.65625 54.09375 C 28.621094 53.921875 28.59375 53.753906 28.578125 53.582031 C 28.5625 53.410156 28.554688 53.238281 28.554688 53.066406 C 28.554688 52.890625 28.5625 52.722656 28.578125 52.550781 C 28.59375 52.378906 28.621094 52.207031 28.65625 52.039062 C 28.6875 51.871094 28.730469 51.703125 28.78125 51.539062 C 28.832031 51.371094 28.886719 51.210938 28.953125 51.050781 C 29.019531 50.890625 29.09375 50.738281 29.175781 50.585938 C 29.257812 50.433594 29.34375 50.285156 29.441406 50.140625 C 29.535156 50 29.640625 49.859375 29.746094 49.726562 C 29.855469 49.59375 29.972656 49.464844 30.09375 49.34375 C 30.214844 49.222656 30.34375 49.105469 30.476562 48.996094 C 30.609375 48.886719 30.75 48.785156 30.890625 48.691406 C 31.035156 48.59375 31.183594 48.507812 31.335938 48.425781 C 31.488281 48.34375 31.644531 48.269531 31.800781 48.203125 C 31.960938 48.136719 32.125 48.078125 32.289062 48.03125 C 32.453125 47.980469 32.621094 47.9375 32.789062 47.90625 C 32.957031 47.871094 33.128906 47.84375 33.300781 47.828125 C 33.472656 47.8125 33.644531 47.804688 33.816406 47.804688 L 39.449219 47.808594 L 39.445312 46.816406 L 33.816406 46.816406 C 33.40625 46.8125 32.996094 46.855469 32.59375 46.933594 C 32.191406 47.011719 31.800781 47.128906 31.421875 47.289062 C 31.042969 47.445312 30.683594 47.636719 30.339844 47.863281 C 30 48.09375 29.683594 48.351562 29.394531 48.644531 Z M 22.34375 41.59375 C 22.0625 41.875 21.792969 42.167969 21.53125 42.46875 C 21.269531 42.769531 21.019531 43.082031 20.785156 43.402344 C 20.546875 43.722656 20.320312 44.050781 20.109375 44.386719 C 19.894531 44.722656 19.695312 45.066406 19.503906 45.417969 C 19.316406 45.769531 19.144531 46.128906 18.980469 46.492188 C 18.820312 46.855469 18.671875 47.226562 18.539062 47.601562 C 18.402344 47.976562 18.285156 48.355469 18.175781 48.738281 C 18.070312 49.125 17.976562 49.511719 17.898438 49.902344 C 17.824219 50.292969 17.757812 50.6875 17.710938 51.082031 C 17.660156 51.476562 17.628906 51.875 17.609375 52.273438 C 17.589844 52.667969 17.582031 53.066406 17.59375 53.464844 C 17.601562 53.863281 17.628906 54.261719 17.664062 54.65625 C 17.707031 55.054688 17.757812 55.449219 17.828125 55.839844 C 17.894531 56.234375 17.976562 56.625 18.074219 57.011719 C 18.171875 57.398438 18.28125 57.78125 18.40625 58.160156 C 18.53125 58.535156 18.671875 58.910156 18.824219 59.277344 C 18.976562 59.644531 19.140625 60.007812 19.320312 60.363281 C 19.5 60.71875 19.691406 61.070312 19.898438 61.410156 C 20.101562 61.753906 20.320312 62.085938 20.550781 62.414062 C 20.777344 62.738281 21.019531 63.054688 21.273438 63.363281 C 21.523438 63.671875 21.789062 63.96875 22.0625 64.257812 C 22.339844 64.546875 22.625 64.824219 22.917969 65.09375 C 23.214844 65.359375 23.519531 65.617188 23.832031 65.859375 C 24.148438 66.105469 24.46875 66.339844 24.800781 66.558594 C 25.132812 66.78125 25.472656 66.992188 25.816406 67.1875 C 26.164062 67.382812 26.519531 67.566406 26.878906 67.738281 C 27.238281 67.90625 27.605469 68.0625 27.976562 68.207031 C 28.347656 68.351562 28.726562 68.480469 29.105469 68.597656 C 29.488281 68.710938 29.875 68.8125 30.261719 68.898438 C 30.652344 68.988281 31.042969 69.058594 31.4375 69.117188 C 31.832031 69.175781 32.226562 69.21875 32.625 69.25 C 33.023438 69.277344 33.417969 69.292969 33.820312 69.292969 L 33.820312 68.296875 C 33.570312 68.292969 33.324219 68.285156 33.074219 68.273438 C 32.828125 68.257812 32.582031 68.238281 32.335938 68.210938 C 32.089844 68.183594 31.84375 68.152344 31.597656 68.113281 C 31.351562 68.074219 31.109375 68.03125 30.867188 67.980469 C 30.625 67.929688 30.382812 67.875 30.144531 67.8125 C 29.902344 67.75 29.664062 67.683594 29.429688 67.609375 C 29.191406 67.535156 28.957031 67.457031 28.722656 67.371094 C 28.492188 67.285156 28.261719 67.195312 28.03125 67.097656 C 27.804688 67.003906 27.578125 66.902344 27.355469 66.792969 C 27.132812 66.683594 26.910156 66.574219 26.695312 66.453125 C 26.476562 66.335938 26.261719 66.210938 26.046875 66.085938 C 25.835938 65.957031 25.628906 65.820312 25.421875 65.683594 C 25.21875 65.542969 25.015625 65.398438 24.816406 65.25 C 24.621094 65.101562 24.425781 64.949219 24.234375 64.792969 C 24.042969 64.632812 23.855469 64.46875 23.671875 64.304688 C 23.492188 64.136719 23.3125 63.964844 23.136719 63.789062 C 22.964844 63.613281 22.792969 63.433594 22.628906 63.25 C 22.460938 63.0625 22.300781 62.875 22.144531 62.683594 C 21.988281 62.492188 21.835938 62.292969 21.691406 62.09375 C 21.542969 61.894531 21.402344 61.691406 21.265625 61.484375 C 21.125 61.28125 20.996094 61.070312 20.867188 60.855469 C 20.742188 60.644531 20.621094 60.429688 20.503906 60.210938 C 20.386719 59.992188 20.277344 59.769531 20.171875 59.542969 C 20.066406 59.320312 19.964844 59.09375 19.871094 58.863281 C 19.777344 58.636719 19.6875 58.402344 19.605469 58.171875 C 19.523438 57.9375 19.445312 57.703125 19.375 57.464844 C 19.300781 57.226562 19.238281 56.988281 19.175781 56.746094 C 19.117188 56.507812 19.0625 56.265625 19.015625 56.023438 C 18.96875 55.777344 18.925781 55.535156 18.890625 55.289062 C 18.851562 55.042969 18.824219 54.796875 18.796875 54.550781 C 18.773438 54.304688 18.757812 54.058594 18.742188 53.8125 C 18.730469 53.5625 18.726562 53.316406 18.726562 53.066406 C 18.726562 52.820312 18.730469 52.574219 18.742188 52.324219 C 18.757812 52.078125 18.773438 51.832031 18.796875 51.582031 C 18.824219 51.335938 18.851562 51.089844 18.890625 50.847656 C 18.925781 50.601562 18.96875 50.355469 19.015625 50.113281 C 19.0625 49.871094 19.117188 49.628906 19.175781 49.386719 C 19.238281 49.148438 19.304688 48.910156 19.375 48.671875 C 19.445312 48.433594 19.523438 48.199219 19.605469 47.964844 C 19.691406 47.730469 19.777344 47.5 19.871094 47.273438 C 19.96875 47.042969 20.066406 46.816406 20.171875 46.589844 C 20.277344 46.367188 20.386719 46.144531 20.503906 45.925781 C 20.621094 45.707031 20.742188 45.492188 20.867188 45.277344 C 20.996094 45.066406 21.128906 44.855469 21.265625 44.648438 C 21.402344 44.445312 21.542969 44.242188 21.691406 44.039062 C 21.835938 43.839844 21.988281 43.644531 22.144531 43.453125 C 22.300781 43.261719 22.464844 43.074219 22.628906 42.890625 C 22.792969 42.703125 22.964844 42.523438 23.140625 42.347656 C 23.3125 42.171875 23.492188 42 23.675781 41.832031 C 23.859375 41.664062 24.042969 41.503906 24.234375 41.34375 C 24.425781 41.1875 24.621094 41.03125 24.820312 40.882812 C 25.015625 40.734375 25.21875 40.59375 25.425781 40.453125 C 25.628906 40.316406 25.835938 40.179688 26.050781 40.050781 C 26.261719 39.921875 26.476562 39.800781 26.695312 39.679688 C 26.910156 39.5625 27.132812 39.453125 27.355469 39.34375 C 27.578125 39.234375 27.804688 39.132812 28.035156 39.039062 C 28.261719 38.941406 28.492188 38.851562 28.726562 38.765625 C 28.957031 38.679688 29.191406 38.601562 29.429688 38.527344 C 29.664062 38.453125 29.902344 38.386719 30.144531 38.324219 C 30.382812 38.261719 30.625 38.207031 30.867188 38.15625 C 31.109375 38.105469 31.355469 38.0625 31.597656 38.023438 C 31.84375 37.984375 32.089844 37.953125 32.335938 37.925781 C 32.582031 37.898438 32.828125 37.878906 33.078125 37.867188 C 33.324219 37.851562 33.570312 37.84375 33.820312 37.839844 L 39.4375 37.839844 L 39.433594 36.84375 L 33.820312 36.84375 C 33.285156 36.84375 32.757812 36.871094 32.226562 36.917969 C 31.699219 36.972656 31.171875 37.046875 30.652344 37.152344 C 30.128906 37.253906 29.613281 37.382812 29.105469 37.535156 C 28.597656 37.691406 28.097656 37.867188 27.605469 38.070312 C 27.117188 38.277344 26.636719 38.503906 26.167969 38.753906 C 25.699219 39.003906 25.242188 39.277344 24.804688 39.574219 C 24.359375 39.871094 23.933594 40.1875 23.523438 40.523438 C 23.113281 40.863281 22.722656 41.21875 22.347656 41.597656 Z M 12.613281 53.066406 C 12.613281 53.414062 12.621094 53.761719 12.636719 54.109375 C 12.65625 54.453125 12.679688 54.800781 12.714844 55.144531 C 12.75 55.492188 12.789062 55.835938 12.839844 56.179688 C 12.894531 56.523438 12.953125 56.863281 13.019531 57.207031 C 13.085938 57.546875 13.164062 57.882812 13.246094 58.21875 C 13.332031 58.558594 13.425781 58.890625 13.527344 59.222656 C 13.625 59.554688 13.734375 59.886719 13.851562 60.210938 C 13.96875 60.539062 14.09375 60.863281 14.226562 61.183594 C 14.359375 61.503906 14.5 61.820312 14.648438 62.136719 C 14.796875 62.449219 14.953125 62.757812 15.117188 63.066406 C 15.28125 63.371094 15.449219 63.671875 15.628906 63.96875 C 15.808594 64.269531 15.992188 64.5625 16.1875 64.851562 C 16.378906 65.140625 16.578125 65.421875 16.785156 65.699219 C 16.992188 65.980469 17.207031 66.253906 17.425781 66.523438 C 17.644531 66.789062 17.871094 67.050781 18.105469 67.308594 C 18.339844 67.566406 18.578125 67.820312 18.824219 68.0625 C 19.070312 68.308594 19.320312 68.546875 19.578125 68.78125 C 19.835938 69.015625 20.097656 69.242188 20.367188 69.460938 C 20.632812 69.683594 20.90625 69.894531 21.1875 70.101562 C 21.464844 70.308594 21.75 70.507812 22.039062 70.699219 C 22.324219 70.894531 22.617188 71.078125 22.917969 71.257812 C 23.214844 71.4375 23.515625 71.605469 23.824219 71.769531 C 24.128906 71.933594 24.4375 72.089844 24.753906 72.238281 C 25.066406 72.386719 25.382812 72.527344 25.703125 72.660156 C 26.023438 72.792969 26.347656 72.917969 26.675781 73.035156 C 27 73.152344 27.332031 73.261719 27.664062 73.363281 C 27.996094 73.460938 28.328125 73.554688 28.664062 73.640625 C 29.003906 73.722656 29.339844 73.800781 29.679688 73.867188 C 30.023438 73.933594 30.363281 73.996094 30.707031 74.046875 C 31.050781 74.097656 31.394531 74.140625 31.742188 74.171875 C 32.085938 74.207031 32.433594 74.230469 32.777344 74.25 C 33.125 74.265625 33.472656 74.273438 33.820312 74.273438 L 33.820312 73.28125 C 33.488281 73.28125 33.15625 73.273438 32.828125 73.253906 C 32.496094 73.238281 32.167969 73.214844 31.835938 73.183594 C 31.507812 73.148438 31.179688 73.109375 30.851562 73.0625 C 30.527344 73.011719 30.199219 72.957031 29.875 72.890625 C 29.550781 72.828125 29.226562 72.753906 28.90625 72.675781 C 28.585938 72.59375 28.269531 72.507812 27.949219 72.410156 C 27.632812 72.3125 27.320312 72.210938 27.007812 72.097656 C 26.699219 71.988281 26.390625 71.867188 26.082031 71.742188 C 25.777344 71.613281 25.476562 71.480469 25.175781 71.339844 C 24.878906 71.199219 24.582031 71.050781 24.289062 70.894531 C 24 70.738281 23.710938 70.574219 23.425781 70.40625 C 23.144531 70.234375 22.863281 70.058594 22.589844 69.875 C 22.316406 69.691406 22.042969 69.5 21.777344 69.304688 C 21.511719 69.105469 21.253906 68.902344 20.996094 68.691406 C 20.742188 68.480469 20.488281 68.265625 20.246094 68.042969 C 20 67.820312 19.761719 67.59375 19.527344 67.359375 C 19.292969 67.125 19.066406 66.886719 18.84375 66.640625 C 18.621094 66.398438 18.40625 66.144531 18.195312 65.890625 C 17.984375 65.636719 17.78125 65.375 17.585938 65.109375 C 17.386719 64.84375 17.199219 64.574219 17.011719 64.296875 C 16.828125 64.023438 16.652344 63.742188 16.480469 63.460938 C 16.3125 63.175781 16.148438 62.886719 15.992188 62.597656 C 15.835938 62.304688 15.6875 62.007812 15.546875 61.710938 C 15.40625 61.410156 15.273438 61.109375 15.144531 60.804688 C 15.019531 60.496094 14.898438 60.191406 14.789062 59.878906 C 14.675781 59.566406 14.574219 59.253906 14.476562 58.933594 C 14.382812 58.621094 14.292969 58.300781 14.210938 57.980469 C 14.132812 57.660156 14.058594 57.335938 13.996094 57.011719 C 13.929688 56.6875 13.875 56.363281 13.828125 56.035156 C 13.777344 55.707031 13.738281 55.378906 13.703125 55.050781 C 13.671875 54.71875 13.648438 54.390625 13.632812 54.0625 C 13.617188 53.730469 13.609375 53.398438 13.609375 53.070312 C 13.609375 52.738281 13.617188 52.40625 13.632812 52.078125 C 13.648438 51.746094 13.671875 51.417969 13.703125 51.089844 C 13.738281 50.757812 13.777344 50.429688 13.828125 50.101562 C 13.875 49.777344 13.929688 49.449219 13.996094 49.125 C 14.058594 48.800781 14.132812 48.476562 14.210938 48.15625 C 14.292969 47.835938 14.382812 47.519531 14.476562 47.203125 C 14.574219 46.882812 14.675781 46.570312 14.789062 46.257812 C 14.898438 45.949219 15.019531 45.640625 15.144531 45.335938 C 15.273438 45.027344 15.40625 44.726562 15.546875 44.425781 C 15.6875 44.128906 15.839844 43.832031 15.992188 43.539062 C 16.148438 43.25 16.3125 42.960938 16.480469 42.679688 C 16.652344 42.394531 16.828125 42.113281 17.011719 41.839844 C 17.199219 41.566406 17.386719 41.292969 17.585938 41.027344 C 17.78125 40.761719 17.984375 40.503906 18.195312 40.246094 C 18.40625 39.992188 18.621094 39.742188 18.84375 39.496094 C 19.066406 39.25 19.292969 39.011719 19.527344 38.777344 C 19.761719 38.542969 20 38.316406 20.246094 38.09375 C 20.492188 37.871094 20.742188 37.65625 20.996094 37.445312 C 21.253906 37.234375 21.511719 37.03125 21.777344 36.832031 C 22.042969 36.636719 22.316406 36.445312 22.589844 36.261719 C 22.863281 36.078125 23.144531 35.902344 23.429688 35.734375 C 23.710938 35.5625 24 35.398438 24.292969 35.242188 C 24.582031 35.085938 24.878906 34.9375 25.175781 34.796875 C 25.476562 34.65625 25.777344 34.523438 26.085938 34.394531 C 26.390625 34.269531 26.699219 34.148438 27.011719 34.039062 C 27.320312 33.925781 27.636719 33.824219 27.953125 33.726562 C 28.269531 33.632812 28.585938 33.542969 28.90625 33.460938 C 29.230469 33.382812 29.550781 33.308594 29.875 33.246094 C 30.199219 33.179688 30.527344 33.125 30.851562 33.074219 C 31.179688 33.027344 31.507812 32.988281 31.839844 32.953125 C 32.167969 32.921875 32.496094 32.898438 32.828125 32.882812 C 33.15625 32.863281 33.488281 32.855469 33.820312 32.855469 L 39.429688 32.855469 L 39.429688 31.863281 L 33.820312 31.863281 C 33.472656 31.863281 33.125 31.871094 32.777344 31.886719 C 32.429688 31.90625 32.085938 31.929688 31.738281 31.964844 C 31.394531 31.996094 31.050781 32.039062 30.707031 32.09375 C 30.363281 32.140625 30.023438 32.203125 29.679688 32.269531 C 29.339844 32.335938 29.003906 32.414062 28.664062 32.496094 C 28.328125 32.582031 27.996094 32.675781 27.664062 32.777344 C 27.332031 32.875 27 32.984375 26.675781 33.101562 C 26.347656 33.21875 26.023438 33.34375 25.703125 33.476562 C 25.382812 33.609375 25.066406 33.75 24.75 33.898438 C 24.4375 34.046875 24.128906 34.203125 23.824219 34.367188 C 23.515625 34.53125 23.214844 34.699219 22.917969 34.878906 C 22.617188 35.058594 22.324219 35.242188 22.039062 35.4375 C 21.75 35.628906 21.464844 35.828125 21.1875 36.035156 C 20.90625 36.242188 20.632812 36.457031 20.367188 36.675781 C 20.097656 36.894531 19.835938 37.121094 19.578125 37.355469 C 19.320312 37.589844 19.070312 37.828125 18.824219 38.074219 C 18.578125 38.320312 18.339844 38.570312 18.105469 38.828125 C 17.871094 39.085938 17.648438 39.347656 17.425781 39.613281 C 17.207031 39.882812 16.992188 40.15625 16.785156 40.4375 C 16.578125 40.714844 16.378906 40.996094 16.1875 41.285156 C 15.992188 41.574219 15.808594 41.867188 15.628906 42.167969 C 15.453125 42.464844 15.28125 42.765625 15.117188 43.070312 C 14.953125 43.378906 14.796875 43.6875 14.648438 44 C 14.5 44.316406 14.359375 44.632812 14.226562 44.953125 C 14.09375 45.273438 13.96875 45.597656 13.851562 45.921875 C 13.734375 46.25 13.625 46.582031 13.527344 46.914062 C 13.425781 47.246094 13.332031 47.578125 13.25 47.914062 C 13.164062 48.253906 13.089844 48.589844 13.019531 48.929688 C 12.953125 49.269531 12.894531 49.613281 12.839844 49.957031 C 12.792969 50.300781 12.75 50.644531 12.714844 50.988281 C 12.679688 51.335938 12.65625 51.679688 12.636719 52.027344 C 12.621094 52.375 12.613281 52.722656 12.613281 53.066406 Z M 12.613281 53.066406 " clip-rule="nonzero"/></clipPath><linearGradient x1="-4011.201238" gradientTransform="matrix(0.131383, 0, 0, 0.131383, 539.731288, -422.41002)" y1="3456.826525" x2="-3759.277672" gradientUnits="userSpaceOnUse" y2="3736.741587" id="7d29316169"><stop stop-opacity="1" stop-color="rgb(63.09967%, 0%, 92.89856%)" offset="0"/><stop stop-opacity="1" stop-color="rgb(63.09967%, 0%, 92.89856%)" offset="0.25"/><stop stop-opacity="1" stop-color="rgb(63.09967%, 0%, 92.89856%)" offset="0.362829"/><stop stop-opacity="1" stop-color="rgb(63.09967%, 0%, 92.89856%)" offset="0.375"/><stop stop-opacity="1" stop-color="rgb(63.09967%, 0%, 92.89856%)" offset="0.4375"/><stop stop-opacity="1" stop-color="rgb(63.09967%, 0%, 92.89856%)" offset="0.46875"/><stop stop-opacity="1" stop-color="rgb(61.991882%, 0.376892%, 93.077087%)" offset="0.472656"/><stop stop-opacity="1" stop-color="rgb(60.88562%, 0.75531%, 93.255615%)" offset="0.476562"/><stop stop-opacity="1" stop-color="rgb(59.590149%, 1.196289%, 93.295288%)" offset="0.480469"/><stop stop-opacity="1" stop-color="rgb(58.296204%, 1.637268%, 93.336487%)" offset="0.484375"/><stop stop-opacity="1" stop-color="rgb(57.168579%, 2.024841%, 93.518066%)" offset="0.488281"/><stop stop-opacity="1" stop-color="rgb(56.04248%, 2.41394%, 93.699646%)" offset="0.492188"/><stop stop-opacity="1" stop-color="rgb(54.870605%, 2.755737%, 93.899536%)" offset="0.496094"/><stop stop-opacity="1" stop-color="rgb(53.69873%, 3.09906%, 94.099426%)" offset="0.5"/><stop stop-opacity="1" stop-color="rgb(52.574158%, 3.489685%, 94.099426%)" offset="0.503906"/><stop stop-opacity="1" stop-color="rgb(51.449585%, 3.88031%, 94.099426%)" offset="0.507813"/><stop stop-opacity="1" stop-color="rgb(50.279236%, 4.270935%, 94.299316%)" offset="0.511719"/><stop stop-opacity="1" stop-color="rgb(49.110413%, 4.66156%, 94.499207%)" offset="0.515625"/><stop stop-opacity="1" stop-color="rgb(48.03772%, 5.102539%, 94.699097%)" offset="0.519531"/><stop stop-opacity="1" stop-color="rgb(46.966553%, 5.543518%, 94.898987%)" offset="0.523438"/><stop stop-opacity="1" stop-color="rgb(45.794678%, 5.934143%, 94.911194%)" offset="0.527344"/><stop stop-opacity="1" stop-color="rgb(44.622803%, 6.324768%, 94.924927%)" offset="0.53125"/><stop stop-opacity="1" stop-color="rgb(43.501282%, 6.715393%, 95.111084%)" offset="0.535156"/><stop stop-opacity="1" stop-color="rgb(42.379761%, 7.106018%, 95.298767%)" offset="0.539062"/><stop stop-opacity="1" stop-color="rgb(41.207886%, 7.641602%, 95.492554%)" offset="0.542969"/><stop stop-opacity="1" stop-color="rgb(40.036011%, 8.177185%, 95.68634%)" offset="0.546875"/><stop stop-opacity="1" stop-color="rgb(38.864136%, 8.572388%, 95.692444%)" offset="0.550781"/><stop stop-opacity="1" stop-color="rgb(37.692261%, 8.96759%, 95.698547%)" offset="0.554688"/><stop stop-opacity="1" stop-color="rgb(36.569214%, 9.358215%, 95.874023%)" offset="0.558594"/><stop stop-opacity="1" stop-color="rgb(35.447693%, 9.74884%, 96.0495%)" offset="0.5625"/><stop stop-opacity="1" stop-color="rgb(34.329224%, 10.189819%, 96.089172%)" offset="0.566406"/><stop stop-opacity="1" stop-color="rgb(33.21228%, 10.630798%, 96.130371%)" offset="0.570312"/><stop stop-opacity="1" stop-color="rgb(32.086182%, 11.021423%, 96.315002%)" offset="0.574219"/><stop stop-opacity="1" stop-color="rgb(30.960083%, 11.412048%, 96.499634%)" offset="0.578125"/><stop stop-opacity="1" stop-color="rgb(29.788208%, 11.802673%, 96.696472%)" offset="0.582031"/><stop stop-opacity="1" stop-color="rgb(28.616333%, 12.193298%, 96.893311%)" offset="0.585938"/><stop stop-opacity="1" stop-color="rgb(27.494812%, 12.533569%, 96.896362%)" offset="0.589844"/><stop stop-opacity="1" stop-color="rgb(26.373291%, 12.87384%, 96.899414%)" offset="0.59375"/><stop stop-opacity="1" stop-color="rgb(25.201416%, 13.264465%, 97.099304%)" offset="0.597656"/><stop stop-opacity="1" stop-color="rgb(24.029541%, 13.65509%, 97.299194%)" offset="0.601562"/><stop stop-opacity="1" stop-color="rgb(22.756958%, 14.096069%, 97.44873%)" offset="0.605469"/><stop stop-opacity="1" stop-color="rgb(21.485901%, 14.537048%, 97.599792%)" offset="0.609375"/><stop stop-opacity="1" stop-color="rgb(20.513916%, 14.927673%, 97.608948%)" offset="0.613281"/><stop stop-opacity="1" stop-color="rgb(19.541931%, 15.318298%, 97.618103%)" offset="0.617187"/><stop stop-opacity="1" stop-color="rgb(18.418884%, 15.708923%, 97.808838%)" offset="0.621094"/><stop stop-opacity="1" stop-color="rgb(17.297363%, 16.099548%, 97.999573%)" offset="0.625"/><stop stop-opacity="1" stop-color="rgb(16.125488%, 16.490173%, 98.190308%)" offset="0.628906"/><stop stop-opacity="1" stop-color="rgb(14.953613%, 16.880798%, 98.381042%)" offset="0.632813"/><stop stop-opacity="1" stop-color="rgb(13.781738%, 17.225647%, 98.390198%)" offset="0.636719"/><stop stop-opacity="1" stop-color="rgb(12.609863%, 17.572021%, 98.399353%)" offset="0.640625"/><stop stop-opacity="1" stop-color="rgb(11.33728%, 18.006897%, 98.599243%)" offset="0.644531"/><stop stop-opacity="1" stop-color="rgb(10.066223%, 18.443298%, 98.799133%)" offset="0.648438"/><stop stop-opacity="1" stop-color="rgb(8.8974%, 18.833923%, 98.999023%)" offset="0.652344"/><stop stop-opacity="1" stop-color="rgb(7.728577%, 19.224548%, 99.198914%)" offset="0.65625"/><stop stop-opacity="1" stop-color="rgb(6.803894%, 19.615173%, 99.201965%)" offset="0.660156"/><stop stop-opacity="1" stop-color="rgb(5.879211%, 20.005798%, 99.206543%)" offset="0.664062"/><stop stop-opacity="1" stop-color="rgb(4.707336%, 20.396423%, 99.401855%)" offset="0.667969"/><stop stop-opacity="1" stop-color="rgb(3.535461%, 20.787048%, 99.598694%)" offset="0.671875"/><stop stop-opacity="1" stop-color="rgb(2.412415%, 21.177673%, 99.783325%)" offset="0.675781"/><stop stop-opacity="1" stop-color="rgb(1.290894%, 21.568298%, 99.967957%)" offset="0.679688"/><stop stop-opacity="1" stop-color="rgb(0.669861%, 21.783447%, 99.983215%)" offset="0.683594"/><stop stop-opacity="1" stop-color="rgb(0.0488281%, 21.998596%, 100%)" offset="0.6875"/><stop stop-opacity="1" stop-color="rgb(0.0244141%, 21.998596%, 100%)" offset="0.75"/><stop stop-opacity="1" stop-color="rgb(0%, 21.998596%, 100%)" offset="1"/></linearGradient><clipPath id="cbfeb53f63"><path d="M 53.796875 31.820312 L 76.34375 31.820312 L 76.34375 47.8125 L 53.796875 47.8125 Z M 53.796875 31.820312 " clip-rule="nonzero"/></clipPath><clipPath id="f2d2f6796e"><path d="M 62.234375 56.230469 L 45.828125 39.820312 L 61.34375 24.304688 L 77.753906 40.710938 Z M 62.234375 56.230469 " clip-rule="nonzero"/></clipPath><clipPath id="7f0292c51a"><path d="M 62.234375 56.230469 L 45.828125 39.820312 L 61.34375 24.304688 L 77.753906 40.710938 Z M 62.234375 56.230469 " clip-rule="nonzero"/></clipPath><clipPath id="5c944c17c8"><path d="M 65.835938 41.816406 L 53.808594 41.816406 L 53.8125 42.8125 L 65.835938 42.8125 Z M 53.796875 32.816406 L 62.238281 32.816406 L 62.238281 31.820312 L 53.796875 31.820312 Z M 53.804688 35.3125 L 68.0625 35.3125 L 68.0625 34.316406 L 53.804688 34.316406 Z M 53.816406 46.8125 L 53.816406 47.8125 L 69.941406 47.8125 L 69.945312 46.816406 Z M 53.8125 45.316406 L 73.125 45.316406 L 73.125 44.316406 L 53.8125 44.3125 Z M 53.800781 37.820312 L 72.351562 37.816406 L 72.351562 36.816406 L 53.804688 36.816406 Z M 53.808594 40.3125 L 76.34375 40.3125 L 76.34375 39.316406 L 53.808594 39.316406 Z M 53.808594 40.3125 " clip-rule="nonzero"/></clipPath><linearGradient x1="-3630.141331" gradientTransform="matrix(0.131779, 0, 0, 0.131779, 532.173568, -383.918594)" y1="3215.53" x2="-3459.032577" gradientUnits="userSpaceOnUse" y2="3215.53" id="5d36d8db8d"><stop stop-opacity="1" stop-color="rgb(54.899597%, 0.0228882%, 92.89856%)" offset="0"/><stop stop-opacity="1" stop-color="rgb(55.099487%, 0.413513%, 92.89856%)" offset="0.00390625"/><stop stop-opacity="1" stop-color="rgb(55.299377%, 0.804138%, 92.89856%)" offset="0.0078125"/><stop stop-opacity="1" stop-color="rgb(55.299377%, 1.194763%, 92.89856%)" offset="0.0117188"/><stop stop-opacity="1" stop-color="rgb(55.299377%, 1.585388%, 92.89856%)" offset="0.015625"/><stop stop-opacity="1" stop-color="rgb(55.532837%, 1.824951%, 92.86499%)" offset="0.0195312"/><stop stop-opacity="1" stop-color="rgb(55.766296%, 2.06604%, 92.832947%)" offset="0.0234375"/><stop stop-opacity="1" stop-color="rgb(55.932617%, 2.406311%, 92.6651%)" offset="0.0273437"/><stop stop-opacity="1" stop-color="rgb(56.098938%, 2.746582%, 92.498779%)" offset="0.03125"/><stop stop-opacity="1" stop-color="rgb(56.298828%, 3.137207%, 92.498779%)" offset="0.0351562"/><stop stop-opacity="1" stop-color="rgb(56.498718%, 3.527832%, 92.498779%)" offset="0.0390625"/><stop stop-opacity="1" stop-color="rgb(56.503296%, 3.918457%, 92.498779%)" offset="0.0429687"/><stop stop-opacity="1" stop-color="rgb(56.509399%, 4.309082%, 92.498779%)" offset="0.046875"/><stop stop-opacity="1" stop-color="rgb(56.703186%, 4.699707%, 92.498779%)" offset="0.0507812"/><stop stop-opacity="1" stop-color="rgb(56.898499%, 5.090332%, 92.498779%)" offset="0.0546875"/><stop stop-opacity="1" stop-color="rgb(57.084656%, 5.281067%, 92.498779%)" offset="0.0625"/><stop stop-opacity="1" stop-color="rgb(57.305908%, 5.912781%, 92.498779%)" offset="0.0664062"/><stop stop-opacity="1" stop-color="rgb(57.339478%, 6.35376%, 92.498779%)" offset="0.0703125"/><stop stop-opacity="1" stop-color="rgb(57.485962%, 6.744385%, 92.498779%)" offset="0.0742187"/><stop stop-opacity="1" stop-color="rgb(57.633972%, 7.13501%, 92.498779%)" offset="0.078125"/><stop stop-opacity="1" stop-color="rgb(57.815552%, 7.475281%, 92.498779%)" offset="0.0820312"/><stop stop-opacity="1" stop-color="rgb(57.998657%, 7.815552%, 92.498779%)" offset="0.0859375"/><stop stop-opacity="1" stop-color="rgb(58.197021%, 8.006287%, 92.498779%)" offset="0.0898437"/><stop stop-opacity="1" stop-color="rgb(58.396912%, 8.198547%, 92.498779%)" offset="0.09375"/><stop stop-opacity="1" stop-color="rgb(58.398438%, 8.587646%, 92.349243%)" offset="0.0976562"/><stop stop-opacity="1" stop-color="rgb(58.399963%, 8.978271%, 92.199707%)" offset="0.101562"/><stop stop-opacity="1" stop-color="rgb(58.599854%, 9.41925%, 92.199707%)" offset="0.105469"/><stop stop-opacity="1" stop-color="rgb(58.799744%, 9.860229%, 92.199707%)" offset="0.109375"/><stop stop-opacity="1" stop-color="rgb(58.999634%, 10.250854%, 92.199707%)" offset="0.113281"/><stop stop-opacity="1" stop-color="rgb(59.199524%, 10.641479%, 92.199707%)" offset="0.117187"/><stop stop-opacity="1" stop-color="rgb(59.210205%, 11.032104%, 92.199707%)" offset="0.121094"/><stop stop-opacity="1" stop-color="rgb(59.222412%, 11.422729%, 92.199707%)" offset="0.125"/><stop stop-opacity="1" stop-color="rgb(59.413147%, 11.611938%, 92.199707%)" offset="0.132812"/><stop stop-opacity="1" stop-color="rgb(59.80072%, 12.14447%, 92.199707%)" offset="0.136719"/><stop stop-opacity="1" stop-color="rgb(59.999084%, 12.487793%, 92.199707%)" offset="0.140625"/><stop stop-opacity="1" stop-color="rgb(60.198975%, 12.92572%, 92.199707%)" offset="0.144531"/><stop stop-opacity="1" stop-color="rgb(60.398865%, 13.365173%, 92.199707%)" offset="0.148438"/><stop stop-opacity="1" stop-color="rgb(60.423279%, 13.755798%, 92.199707%)" offset="0.152344"/><stop stop-opacity="1" stop-color="rgb(60.447693%, 14.146423%, 92.199707%)" offset="0.15625"/><stop stop-opacity="1" stop-color="rgb(60.623169%, 14.52179%, 91.999817%)" offset="0.160156"/><stop stop-opacity="1" stop-color="rgb(60.798645%, 14.898682%, 91.799927%)" offset="0.164062"/><stop stop-opacity="1" stop-color="rgb(60.998535%, 15.103149%, 91.799927%)" offset="0.167969"/><stop stop-opacity="1" stop-color="rgb(61.199951%, 15.309143%, 91.799927%)" offset="0.171875"/><stop stop-opacity="1" stop-color="rgb(61.395264%, 15.699768%, 91.799927%)" offset="0.175781"/><stop stop-opacity="1" stop-color="rgb(61.590576%, 16.090393%, 91.799927%)" offset="0.179687"/><stop stop-opacity="1" stop-color="rgb(61.595154%, 16.481018%, 91.799927%)" offset="0.183594"/><stop stop-opacity="1" stop-color="rgb(61.599731%, 16.871643%, 91.799927%)" offset="0.1875"/><stop stop-opacity="1" stop-color="rgb(61.799622%, 17.262268%, 91.799927%)" offset="0.191406"/><stop stop-opacity="1" stop-color="rgb(61.999512%, 17.652893%, 91.799927%)" offset="0.195312"/><stop stop-opacity="1" stop-color="rgb(62.199402%, 18.025208%, 91.799927%)" offset="0.199219"/><stop stop-opacity="1" stop-color="rgb(62.399292%, 18.399048%, 91.799927%)" offset="0.203125"/><stop stop-opacity="1" stop-color="rgb(62.405396%, 18.606567%, 91.799927%)" offset="0.207031"/><stop stop-opacity="1" stop-color="rgb(62.411499%, 18.815613%, 91.799927%)" offset="0.210938"/><stop stop-opacity="1" stop-color="rgb(62.554932%, 19.206238%, 91.799927%)" offset="0.214844"/><stop stop-opacity="1" stop-color="rgb(62.69989%, 19.596863%, 91.799927%)" offset="0.21875"/><stop stop-opacity="1" stop-color="rgb(62.889099%, 19.987488%, 91.799927%)" offset="0.222656"/><stop stop-opacity="1" stop-color="rgb(63.078308%, 20.378113%, 91.799927%)" offset="0.226562"/><stop stop-opacity="1" stop-color="rgb(63.288879%, 20.817566%, 91.598511%)" offset="0.230469"/><stop stop-opacity="1" stop-color="rgb(63.499451%, 21.258545%, 91.398621%)" offset="0.234375"/><stop stop-opacity="1" stop-color="rgb(63.519287%, 21.44928%, 91.398621%)" offset="0.242187"/><stop stop-opacity="1" stop-color="rgb(63.719177%, 22.027588%, 91.398621%)" offset="0.246094"/><stop stop-opacity="1" stop-color="rgb(63.899231%, 22.416687%, 91.398621%)" offset="0.25"/><stop stop-opacity="1" stop-color="rgb(64.099121%, 22.76001%, 91.398621%)" offset="0.253906"/><stop stop-opacity="1" stop-color="rgb(64.299011%, 23.103333%, 91.398621%)" offset="0.257812"/><stop stop-opacity="1" stop-color="rgb(64.299011%, 23.493958%, 91.398621%)" offset="0.261719"/><stop stop-opacity="1" stop-color="rgb(64.299011%, 23.884583%, 91.398621%)" offset="0.265625"/><stop stop-opacity="1" stop-color="rgb(64.532471%, 24.324036%, 91.398621%)" offset="0.269531"/><stop stop-opacity="1" stop-color="rgb(64.76593%, 24.765015%, 91.398621%)" offset="0.273438"/><stop stop-opacity="1" stop-color="rgb(64.932251%, 24.95575%, 91.398621%)" offset="0.28125"/><stop stop-opacity="1" stop-color="rgb(65.298462%, 25.537109%, 91.398621%)" offset="0.285156"/><stop stop-opacity="1" stop-color="rgb(65.499878%, 25.927734%, 91.398621%)" offset="0.289063"/><stop stop-opacity="1" stop-color="rgb(65.504456%, 26.318359%, 91.394043%)" offset="0.292969"/><stop stop-opacity="1" stop-color="rgb(65.509033%, 26.708984%, 91.389465%)" offset="0.296875"/><stop stop-opacity="1" stop-color="rgb(65.704346%, 27.099609%, 91.194153%)" offset="0.300781"/><stop stop-opacity="1" stop-color="rgb(65.899658%, 27.490234%, 90.99884%)" offset="0.304688"/><stop stop-opacity="1" stop-color="rgb(66.085815%, 27.830505%, 90.99884%)" offset="0.308594"/><stop stop-opacity="1" stop-color="rgb(66.271973%, 28.172302%, 90.99884%)" offset="0.3125"/><stop stop-opacity="1" stop-color="rgb(66.311646%, 28.411865%, 90.99884%)" offset="0.316406"/><stop stop-opacity="1" stop-color="rgb(66.352844%, 28.652954%, 90.99884%)" offset="0.320312"/><stop stop-opacity="1" stop-color="rgb(66.543579%, 29.043579%, 90.99884%)" offset="0.324219"/><stop stop-opacity="1" stop-color="rgb(66.734314%, 29.434204%, 90.99884%)" offset="0.328125"/><stop stop-opacity="1" stop-color="rgb(66.915894%, 29.824829%, 90.99884%)" offset="0.332031"/><stop stop-opacity="1" stop-color="rgb(67.098999%, 30.215454%, 90.99884%)" offset="0.335937"/><stop stop-opacity="1" stop-color="rgb(67.297363%, 30.606079%, 90.99884%)" offset="0.339844"/><stop stop-opacity="1" stop-color="rgb(67.497253%, 30.996704%, 90.99884%)" offset="0.34375"/><stop stop-opacity="1" stop-color="rgb(67.497253%, 31.387329%, 90.99884%)" offset="0.347656"/><stop stop-opacity="1" stop-color="rgb(67.498779%, 31.777954%, 90.99884%)" offset="0.351562"/><stop stop-opacity="1" stop-color="rgb(67.648315%, 32.009888%, 90.99884%)" offset="0.355469"/><stop stop-opacity="1" stop-color="rgb(67.799377%, 32.243347%, 90.99884%)" offset="0.359375"/><stop stop-opacity="1" stop-color="rgb(67.999268%, 32.591248%, 90.79895%)" offset="0.363281"/><stop stop-opacity="1" stop-color="rgb(68.199158%, 32.940674%, 90.59906%)" offset="0.367188"/><stop stop-opacity="1" stop-color="rgb(68.399048%, 33.331299%, 90.59906%)" offset="0.371094"/><stop stop-opacity="1" stop-color="rgb(68.598938%, 33.721924%, 90.59906%)" offset="0.375"/><stop stop-opacity="1" stop-color="rgb(68.600464%, 34.112549%, 90.59906%)" offset="0.378906"/><stop stop-opacity="1" stop-color="rgb(68.60199%, 34.503174%, 90.59906%)" offset="0.382812"/><stop stop-opacity="1" stop-color="rgb(68.800354%, 34.701538%, 90.59906%)" offset="0.386719"/><stop stop-opacity="1" stop-color="rgb(68.998718%, 34.899902%, 90.59906%)" offset="0.390625"/><stop stop-opacity="1" stop-color="rgb(69.198608%, 35.331726%, 90.59906%)" offset="0.394531"/><stop stop-opacity="1" stop-color="rgb(69.398499%, 35.765076%, 90.59906%)" offset="0.398438"/><stop stop-opacity="1" stop-color="rgb(69.421387%, 36.155701%, 90.59906%)" offset="0.402344"/><stop stop-opacity="1" stop-color="rgb(69.445801%, 36.546326%, 90.59906%)" offset="0.40625"/><stop stop-opacity="1" stop-color="rgb(69.622803%, 36.932373%, 90.59906%)" offset="0.410156"/><stop stop-opacity="1" stop-color="rgb(69.799805%, 37.319946%, 90.59906%)" offset="0.414063"/><stop stop-opacity="1" stop-color="rgb(69.999695%, 37.663269%, 90.59906%)" offset="0.417969"/><stop stop-opacity="1" stop-color="rgb(70.199585%, 38.008118%, 90.59906%)" offset="0.421875"/><stop stop-opacity="1" stop-color="rgb(70.394897%, 38.20343%, 90.59906%)" offset="0.429688"/><stop stop-opacity="1" stop-color="rgb(70.594788%, 38.78479%, 90.39917%)" offset="0.433594"/><stop stop-opacity="1" stop-color="rgb(70.599365%, 39.170837%, 90.19928%)" offset="0.4375"/><stop stop-opacity="1" stop-color="rgb(70.799255%, 39.611816%, 90.19928%)" offset="0.441406"/><stop stop-opacity="1" stop-color="rgb(70.999146%, 40.052795%, 90.19928%)" offset="0.445312"/><stop stop-opacity="1" stop-color="rgb(71.199036%, 40.44342%, 90.19928%)" offset="0.449219"/><stop stop-opacity="1" stop-color="rgb(71.398926%, 40.834045%, 90.19928%)" offset="0.453125"/><stop stop-opacity="1" stop-color="rgb(71.406555%, 41.215515%, 90.19928%)" offset="0.457031"/><stop stop-opacity="1" stop-color="rgb(71.41571%, 41.598511%, 90.19928%)" offset="0.460937"/><stop stop-opacity="1" stop-color="rgb(71.606445%, 41.796875%, 90.19928%)" offset="0.464844"/><stop stop-opacity="1" stop-color="rgb(71.798706%, 41.996765%, 90.19928%)" offset="0.46875"/><stop stop-opacity="1" stop-color="rgb(71.998596%, 42.340088%, 90.19928%)" offset="0.472656"/><stop stop-opacity="1" stop-color="rgb(72.198486%, 42.683411%, 90.19928%)" offset="0.476562"/><stop stop-opacity="1" stop-color="rgb(72.348022%, 43.121338%, 90.19928%)" offset="0.480469"/><stop stop-opacity="1" stop-color="rgb(72.499084%, 43.559265%, 90.19928%)" offset="0.484375"/><stop stop-opacity="1" stop-color="rgb(72.518921%, 43.94989%, 90.19928%)" offset="0.488281"/><stop stop-opacity="1" stop-color="rgb(72.540283%, 44.340515%, 90.19928%)" offset="0.492188"/><stop stop-opacity="1" stop-color="rgb(72.718811%, 44.718933%, 89.99939%)" offset="0.496094"/><stop stop-opacity="1" stop-color="rgb(72.898865%, 45.098877%, 89.7995%)" offset="0.5"/><stop stop-opacity="1" stop-color="rgb(73.098755%, 45.300293%, 89.7995%)" offset="0.503906"/><stop stop-opacity="1" stop-color="rgb(73.298645%, 45.501709%, 89.7995%)" offset="0.507813"/><stop stop-opacity="1" stop-color="rgb(73.298645%, 45.892334%, 89.7995%)" offset="0.511719"/><stop stop-opacity="1" stop-color="rgb(73.298645%, 46.282959%, 89.7995%)" offset="0.515625"/><stop stop-opacity="1" stop-color="rgb(73.532104%, 46.723938%, 89.7995%)" offset="0.519531"/><stop stop-opacity="1" stop-color="rgb(73.765564%, 47.164917%, 89.7995%)" offset="0.523438"/><stop stop-opacity="1" stop-color="rgb(73.931885%, 47.505188%, 89.7995%)" offset="0.527344"/><stop stop-opacity="1" stop-color="rgb(74.099731%, 47.845459%, 89.7995%)" offset="0.53125"/><stop stop-opacity="1" stop-color="rgb(74.299622%, 48.036194%, 89.7995%)" offset="0.535156"/><stop stop-opacity="1" stop-color="rgb(74.499512%, 48.226929%, 89.7995%)" offset="0.539063"/><stop stop-opacity="1" stop-color="rgb(74.504089%, 48.617554%, 89.7995%)" offset="0.542969"/><stop stop-opacity="1" stop-color="rgb(74.508667%, 49.008179%, 89.7995%)" offset="0.546875"/><stop stop-opacity="1" stop-color="rgb(74.703979%, 49.398804%, 89.7995%)" offset="0.550781"/><stop stop-opacity="1" stop-color="rgb(74.899292%, 49.789429%, 89.7995%)" offset="0.554688"/><stop stop-opacity="1" stop-color="rgb(75.085449%, 50.180054%, 89.7995%)" offset="0.558594"/><stop stop-opacity="1" stop-color="rgb(75.271606%, 50.570679%, 89.7995%)" offset="0.5625"/><stop stop-opacity="1" stop-color="rgb(75.311279%, 50.984192%, 89.599609%)" offset="0.566406"/><stop stop-opacity="1" stop-color="rgb(75.352478%, 51.399231%, 89.399719%)" offset="0.570313"/><stop stop-opacity="1" stop-color="rgb(75.543213%, 51.615906%, 89.399719%)" offset="0.574219"/><stop stop-opacity="1" stop-color="rgb(75.733948%, 51.834106%, 89.399719%)" offset="0.578125"/><stop stop-opacity="1" stop-color="rgb(75.915527%, 52.174377%, 89.399719%)" offset="0.582031"/><stop stop-opacity="1" stop-color="rgb(76.098633%, 52.514648%, 89.399719%)" offset="0.585938"/><stop stop-opacity="1" stop-color="rgb(76.296997%, 52.905273%, 89.399719%)" offset="0.589844"/><stop stop-opacity="1" stop-color="rgb(76.495361%, 53.295898%, 89.399719%)" offset="0.59375"/><stop stop-opacity="1" stop-color="rgb(76.496887%, 53.686523%, 89.399719%)" offset="0.597656"/><stop stop-opacity="1" stop-color="rgb(76.499939%, 54.077148%, 89.399719%)" offset="0.601562"/><stop stop-opacity="1" stop-color="rgb(76.699829%, 54.48761%, 89.399719%)" offset="0.605469"/><stop stop-opacity="1" stop-color="rgb(76.899719%, 54.899597%, 89.399719%)" offset="0.609375"/><stop stop-opacity="1" stop-color="rgb(77.099609%, 55.119324%, 89.399719%)" offset="0.613281"/><stop stop-opacity="1" stop-color="rgb(77.2995%, 55.33905%, 89.399719%)" offset="0.617188"/><stop stop-opacity="1" stop-color="rgb(77.449036%, 55.729675%, 89.399719%)" offset="0.621094"/><stop stop-opacity="1" stop-color="rgb(77.598572%, 56.1203%, 89.399719%)" offset="0.625"/><stop stop-opacity="1" stop-color="rgb(77.600098%, 56.510925%, 89.398193%)" offset="0.628906"/><stop stop-opacity="1" stop-color="rgb(77.601624%, 56.90155%, 89.396667%)" offset="0.632812"/><stop stop-opacity="1" stop-color="rgb(77.799988%, 57.243347%, 89.198303%)" offset="0.636719"/><stop stop-opacity="1" stop-color="rgb(77.999878%, 57.58667%, 88.999939%)" offset="0.640625"/><stop stop-opacity="1" stop-color="rgb(78.199768%, 57.824707%, 88.999939%)" offset="0.644531"/><stop stop-opacity="1" stop-color="rgb(78.399658%, 58.06427%, 88.999939%)" offset="0.648438"/><stop stop-opacity="1" stop-color="rgb(78.422546%, 58.454895%, 88.999939%)" offset="0.652344"/><stop stop-opacity="1" stop-color="rgb(78.445435%, 58.84552%, 88.999939%)" offset="0.65625"/><stop stop-opacity="1" stop-color="rgb(78.622437%, 59.236145%, 88.999939%)" offset="0.660156"/><stop stop-opacity="1" stop-color="rgb(78.799438%, 59.62677%, 88.999939%)" offset="0.664062"/><stop stop-opacity="1" stop-color="rgb(78.999329%, 60.017395%, 88.999939%)" offset="0.667969"/><stop stop-opacity="1" stop-color="rgb(79.199219%, 60.40802%, 88.999939%)" offset="0.671875"/><stop stop-opacity="1" stop-color="rgb(79.394531%, 60.798645%, 88.999939%)" offset="0.675781"/><stop stop-opacity="1" stop-color="rgb(79.589844%, 61.18927%, 88.999939%)" offset="0.679687"/><stop stop-opacity="1" stop-color="rgb(79.594421%, 61.393738%, 88.999939%)" offset="0.683594"/><stop stop-opacity="1" stop-color="rgb(79.598999%, 61.599731%, 88.999939%)" offset="0.6875"/><stop stop-opacity="1" stop-color="rgb(79.798889%, 62.019348%, 88.999939%)" offset="0.691406"/><stop stop-opacity="1" stop-color="rgb(79.998779%, 62.438965%, 88.999939%)" offset="0.695312"/><stop stop-opacity="1" stop-color="rgb(80.198669%, 62.785339%, 88.798523%)" offset="0.699219"/><stop stop-opacity="1" stop-color="rgb(80.39856%, 63.13324%, 88.598633%)" offset="0.703125"/><stop stop-opacity="1" stop-color="rgb(80.406189%, 63.523865%, 88.598633%)" offset="0.707031"/><stop stop-opacity="1" stop-color="rgb(80.413818%, 63.91449%, 88.598633%)" offset="0.710937"/><stop stop-opacity="1" stop-color="rgb(80.606079%, 64.305115%, 88.598633%)" offset="0.714844"/><stop stop-opacity="1" stop-color="rgb(80.799866%, 64.69574%, 88.598633%)" offset="0.71875"/><stop stop-opacity="1" stop-color="rgb(80.999756%, 64.886475%, 88.598633%)" offset="0.722656"/><stop stop-opacity="1" stop-color="rgb(81.199646%, 65.077209%, 88.598633%)" offset="0.726562"/><stop stop-opacity="1" stop-color="rgb(81.399536%, 65.516663%, 88.598633%)" offset="0.730469"/><stop stop-opacity="1" stop-color="rgb(81.599426%, 65.957642%, 88.598633%)" offset="0.734375"/><stop stop-opacity="1" stop-color="rgb(81.619263%, 66.348267%, 88.598633%)" offset="0.738281"/><stop stop-opacity="1" stop-color="rgb(81.639099%, 66.738892%, 88.598633%)" offset="0.742187"/><stop stop-opacity="1" stop-color="rgb(81.819153%, 67.126465%, 88.598633%)" offset="0.746094"/><stop stop-opacity="1" stop-color="rgb(81.999207%, 67.515564%, 88.598633%)" offset="0.75"/><stop stop-opacity="1" stop-color="rgb(82.199097%, 67.857361%, 88.598633%)" offset="0.753906"/><stop stop-opacity="1" stop-color="rgb(82.398987%, 68.199158%, 88.598633%)" offset="0.757813"/><stop stop-opacity="1" stop-color="rgb(82.398987%, 68.391418%, 88.598633%)" offset="0.765625"/><stop stop-opacity="1" stop-color="rgb(82.580566%, 69.023132%, 88.398743%)" offset="0.769531"/><stop stop-opacity="1" stop-color="rgb(82.763672%, 69.464111%, 88.198853%)" offset="0.773438"/><stop stop-opacity="1" stop-color="rgb(82.931519%, 69.854736%, 88.198853%)" offset="0.777344"/><stop stop-opacity="1" stop-color="rgb(83.099365%, 70.245361%, 88.198853%)" offset="0.78125"/><stop stop-opacity="1" stop-color="rgb(83.299255%, 70.635986%, 88.198853%)" offset="0.785156"/><stop stop-opacity="1" stop-color="rgb(83.499146%, 71.026611%, 88.198853%)" offset="0.789063"/><stop stop-opacity="1" stop-color="rgb(83.503723%, 71.217346%, 88.198853%)" offset="0.796875"/><stop stop-opacity="1" stop-color="rgb(83.703613%, 71.798706%, 88.198853%)" offset="0.800781"/><stop stop-opacity="1" stop-color="rgb(83.898926%, 72.189331%, 88.198853%)" offset="0.804688"/><stop stop-opacity="1" stop-color="rgb(84.083557%, 72.529602%, 88.198853%)" offset="0.808594"/><stop stop-opacity="1" stop-color="rgb(84.269714%, 72.869873%, 88.198853%)" offset="0.8125"/><stop stop-opacity="1" stop-color="rgb(84.483337%, 73.310852%, 88.198853%)" offset="0.816406"/><stop stop-opacity="1" stop-color="rgb(84.698486%, 73.751831%, 88.198853%)" offset="0.820313"/><stop stop-opacity="1" stop-color="rgb(84.715271%, 74.142456%, 88.198853%)" offset="0.824219"/><stop stop-opacity="1" stop-color="rgb(84.733582%, 74.533081%, 88.198853%)" offset="0.828125"/><stop stop-opacity="1" stop-color="rgb(84.916687%, 74.723816%, 88.191223%)" offset="0.835938"/><stop stop-opacity="1" stop-color="rgb(85.296631%, 75.305176%, 87.991333%)" offset="0.839844"/><stop stop-opacity="1" stop-color="rgb(85.494995%, 75.695801%, 87.799072%)" offset="0.84375"/><stop stop-opacity="1" stop-color="rgb(85.496521%, 76.086426%, 87.799072%)" offset="0.847656"/><stop stop-opacity="1" stop-color="rgb(85.499573%, 76.477051%, 87.799072%)" offset="0.851562"/><stop stop-opacity="1" stop-color="rgb(85.699463%, 76.9104%, 87.799072%)" offset="0.855469"/><stop stop-opacity="1" stop-color="rgb(85.899353%, 77.34375%, 87.799072%)" offset="0.859375"/><stop stop-opacity="1" stop-color="rgb(86.099243%, 77.671814%, 87.799072%)" offset="0.863281"/><stop stop-opacity="1" stop-color="rgb(86.299133%, 77.999878%, 87.799072%)" offset="0.867188"/><stop stop-opacity="1" stop-color="rgb(86.499023%, 78.210449%, 87.799072%)" offset="0.871094"/><stop stop-opacity="1" stop-color="rgb(86.698914%, 78.421021%, 87.799072%)" offset="0.875"/><stop stop-opacity="1" stop-color="rgb(86.700439%, 78.811646%, 87.799072%)" offset="0.878906"/><stop stop-opacity="1" stop-color="rgb(86.701965%, 79.202271%, 87.799072%)" offset="0.882812"/><stop stop-opacity="1" stop-color="rgb(86.90033%, 79.592896%, 87.799072%)" offset="0.886719"/><stop stop-opacity="1" stop-color="rgb(87.098694%, 79.983521%, 87.799072%)" offset="0.890625"/><stop stop-opacity="1" stop-color="rgb(87.298584%, 80.422974%, 87.799072%)" offset="0.894531"/><stop stop-opacity="1" stop-color="rgb(87.5%, 80.863953%, 87.799072%)" offset="0.898438"/><stop stop-opacity="1" stop-color="rgb(87.516785%, 81.231689%, 87.649536%)" offset="0.902344"/><stop stop-opacity="1" stop-color="rgb(87.533569%, 81.599426%, 87.5%)" offset="0.90625"/><stop stop-opacity="1" stop-color="rgb(87.680054%, 81.813049%, 87.5%)" offset="0.910156"/><stop stop-opacity="1" stop-color="rgb(87.826538%, 82.026672%, 87.5%)" offset="0.914062"/><stop stop-opacity="1" stop-color="rgb(88.012695%, 82.366943%, 87.5%)" offset="0.917969"/><stop stop-opacity="1" stop-color="rgb(88.198853%, 82.707214%, 87.5%)" offset="0.921875"/><stop stop-opacity="1" stop-color="rgb(88.394165%, 83.097839%, 87.5%)" offset="0.925781"/><stop stop-opacity="1" stop-color="rgb(88.589478%, 83.488464%, 87.5%)" offset="0.929687"/><stop stop-opacity="1" stop-color="rgb(88.594055%, 83.879089%, 87.5%)" offset="0.933594"/><stop stop-opacity="1" stop-color="rgb(88.598633%, 84.269714%, 87.5%)" offset="0.9375"/><stop stop-opacity="1" stop-color="rgb(88.798523%, 84.510803%, 87.5%)" offset="0.941406"/><stop stop-opacity="1" stop-color="rgb(88.999939%, 84.751892%, 87.5%)" offset="0.945312"/><stop stop-opacity="1" stop-color="rgb(89.199829%, 85.142517%, 87.5%)" offset="0.949219"/><stop stop-opacity="1" stop-color="rgb(89.399719%, 85.533142%, 87.5%)" offset="0.953125"/><stop stop-opacity="1" stop-color="rgb(89.405823%, 85.923767%, 87.5%)" offset="0.957031"/><stop stop-opacity="1" stop-color="rgb(89.413452%, 86.314392%, 87.5%)" offset="0.960937"/><stop stop-opacity="1" stop-color="rgb(89.605713%, 86.705017%, 87.5%)" offset="0.964844"/><stop stop-opacity="1" stop-color="rgb(89.7995%, 87.095642%, 87.5%)" offset="0.96875"/><stop stop-opacity="1" stop-color="rgb(89.99939%, 87.438965%, 87.310791%)" offset="0.972656"/><stop stop-opacity="1" stop-color="rgb(90.19928%, 87.782288%, 87.121582%)" offset="0.976562"/><stop stop-opacity="1" stop-color="rgb(90.39917%, 88.018799%, 87.109375%)" offset="0.980469"/><stop stop-opacity="1" stop-color="rgb(90.59906%, 88.256836%, 87.098694%)" offset="0.984375"/><stop stop-opacity="1" stop-color="rgb(90.618896%, 88.647461%, 87.098694%)" offset="0.988281"/><stop stop-opacity="1" stop-color="rgb(90.638733%, 89.038086%, 87.098694%)" offset="0.992187"/><stop stop-opacity="1" stop-color="rgb(90.818787%, 89.41803%, 87.098694%)" offset="0.996094"/><stop stop-opacity="1" stop-color="rgb(90.99884%, 89.7995%, 87.098694%)" offset="1"/></linearGradient><clipPath id="af0ec2f491"><path d="M 33.496094 8.007812 L 55 8.007812 L 55 74.453125 L 33.496094 74.453125 Z M 33.496094 8.007812 " clip-rule="nonzero"/></clipPath><clipPath id="941f400d65"><path d="M 38.101562 78.675781 L 3.140625 43.71875 L 38.8125 8.046875 L 73.773438 43.003906 Z M 38.101562 78.675781 " clip-rule="nonzero"/></clipPath><clipPath id="eab4c24fc5"><path d="M 38.101562 78.675781 L 3.140625 43.71875 L 38.8125 8.046875 L 73.773438 43.003906 Z M 38.101562 78.675781 " clip-rule="nonzero"/></clipPath><clipPath id="8cb47fe85b"><path d="M 33.699219 60.84375 L 33.699219 61.839844 C 33.988281 61.835938 34.269531 61.824219 34.554688 61.796875 C 34.839844 61.765625 35.125 61.722656 35.402344 61.667969 C 35.683594 61.613281 35.960938 61.542969 36.234375 61.460938 C 36.507812 61.375 36.777344 61.28125 37.039062 61.171875 C 37.304688 61.0625 37.5625 60.9375 37.816406 60.804688 C 38.066406 60.667969 38.3125 60.523438 38.550781 60.363281 C 38.789062 60.203125 39.015625 60.035156 39.238281 59.851562 C 39.460938 59.671875 39.671875 59.480469 39.875 59.277344 C 40.074219 59.074219 40.265625 58.863281 40.449219 58.640625 C 40.628906 58.421875 40.800781 58.191406 40.960938 57.953125 C 41.117188 57.714844 41.265625 57.472656 41.402344 57.21875 C 41.535156 56.96875 41.65625 56.707031 41.765625 56.445312 C 41.875 56.179688 41.972656 55.914062 42.054688 55.636719 C 42.140625 55.363281 42.207031 55.085938 42.265625 54.808594 C 42.320312 54.527344 42.363281 54.242188 42.390625 53.960938 C 42.421875 53.675781 42.433594 53.390625 42.433594 53.105469 L 42.433594 11.582031 L 41.441406 10.585938 L 41.441406 53.105469 C 41.441406 53.359375 41.425781 53.609375 41.402344 53.863281 C 41.378906 54.113281 41.339844 54.363281 41.289062 54.613281 C 41.242188 54.863281 41.179688 55.109375 41.105469 55.351562 C 41.03125 55.59375 40.945312 55.832031 40.847656 56.066406 C 40.753906 56.296875 40.644531 56.527344 40.523438 56.75 C 40.40625 56.976562 40.273438 57.191406 40.132812 57.402344 C 39.992188 57.613281 39.839844 57.816406 39.679688 58.011719 C 39.519531 58.207031 39.351562 58.394531 39.171875 58.574219 C 38.992188 58.753906 38.804688 58.921875 38.609375 59.085938 C 38.414062 59.246094 38.210938 59.398438 38 59.535156 C 37.789062 59.679688 37.570312 59.808594 37.347656 59.925781 C 37.125 60.046875 36.894531 60.15625 36.660156 60.253906 C 36.425781 60.351562 36.1875 60.433594 35.945312 60.507812 C 35.703125 60.582031 35.457031 60.644531 35.210938 60.695312 C 34.960938 60.742188 34.710938 60.78125 34.457031 60.804688 C 34.207031 60.832031 33.953125 60.84375 33.699219 60.84375 Z M 38.949219 53.109375 C 38.949219 53.28125 38.941406 53.449219 38.921875 53.621094 C 38.90625 53.792969 38.878906 53.964844 38.847656 54.132812 C 38.8125 54.300781 38.769531 54.46875 38.722656 54.632812 C 38.671875 54.796875 38.613281 54.957031 38.546875 55.117188 C 38.480469 55.277344 38.410156 55.429688 38.328125 55.582031 C 38.246094 55.734375 38.15625 55.882812 38.0625 56.023438 C 37.964844 56.167969 37.863281 56.304688 37.753906 56.4375 C 37.644531 56.570312 37.53125 56.699219 37.410156 56.820312 C 37.285156 56.941406 37.160156 57.058594 37.027344 57.167969 C 36.894531 57.273438 36.757812 57.378906 36.613281 57.472656 C 36.46875 57.570312 36.324219 57.65625 36.171875 57.738281 C 36.019531 57.820312 35.863281 57.894531 35.707031 57.957031 C 35.546875 58.023438 35.386719 58.082031 35.21875 58.132812 C 35.054688 58.183594 34.890625 58.226562 34.722656 58.257812 C 34.554688 58.292969 34.382812 58.316406 34.210938 58.335938 C 34.039062 58.351562 33.867188 58.359375 33.695312 58.359375 L 33.695312 59.355469 C 33.902344 59.355469 34.105469 59.34375 34.308594 59.324219 C 34.511719 59.304688 34.714844 59.273438 34.914062 59.234375 C 35.117188 59.191406 35.3125 59.144531 35.507812 59.082031 C 35.703125 59.023438 35.898438 58.953125 36.085938 58.875 C 36.273438 58.796875 36.460938 58.710938 36.640625 58.613281 C 36.820312 58.519531 36.996094 58.414062 37.164062 58.296875 C 37.335938 58.183594 37.5 58.0625 37.65625 57.933594 C 37.816406 57.804688 37.964844 57.667969 38.109375 57.523438 C 38.253906 57.378906 38.394531 57.226562 38.523438 57.066406 C 38.652344 56.910156 38.773438 56.746094 38.886719 56.574219 C 39 56.40625 39.105469 56.230469 39.203125 56.050781 C 39.300781 55.871094 39.386719 55.683594 39.464844 55.496094 C 39.542969 55.308594 39.613281 55.117188 39.671875 54.921875 C 39.730469 54.722656 39.78125 54.527344 39.824219 54.324219 C 39.863281 54.125 39.890625 53.921875 39.914062 53.71875 C 39.933594 53.515625 39.941406 53.3125 39.941406 53.109375 L 39.945312 9.09375 L 38.953125 8.101562 Z M 40.933594 60.335938 C 40.457031 60.8125 39.941406 61.238281 39.382812 61.613281 C 38.828125 61.988281 38.238281 62.300781 37.617188 62.558594 C 36.996094 62.816406 36.355469 63.007812 35.695312 63.140625 C 35.039062 63.269531 34.371094 63.332031 33.699219 63.332031 L 33.699219 64.324219 C 34.066406 64.324219 34.433594 64.308594 34.800781 64.269531 C 35.167969 64.234375 35.53125 64.179688 35.890625 64.109375 C 36.25 64.039062 36.605469 63.949219 36.957031 63.84375 C 37.308594 63.734375 37.65625 63.613281 37.996094 63.472656 C 38.335938 63.332031 38.667969 63.171875 38.992188 63 C 39.316406 62.828125 39.628906 62.636719 39.933594 62.433594 C 40.242188 62.230469 40.535156 62.011719 40.820312 61.777344 C 41.105469 61.542969 41.375 61.296875 41.636719 61.039062 C 41.894531 60.777344 42.140625 60.507812 42.375 60.222656 C 42.609375 59.9375 42.828125 59.644531 43.03125 59.339844 C 43.234375 59.03125 43.425781 58.71875 43.597656 58.394531 C 43.769531 58.070312 43.929688 57.738281 44.070312 57.398438 C 44.207031 57.058594 44.332031 56.710938 44.441406 56.359375 C 44.546875 56.007812 44.636719 55.652344 44.707031 55.292969 C 44.777344 54.933594 44.832031 54.570312 44.867188 54.203125 C 44.90625 53.835938 44.921875 53.46875 44.921875 53.101562 L 44.921875 14.070312 L 43.929688 13.074219 L 43.929688 53.105469 C 43.929688 53.777344 43.867188 54.441406 43.734375 55.101562 C 43.605469 55.757812 43.410156 56.398438 43.15625 57.019531 C 42.898438 57.640625 42.582031 58.230469 42.207031 58.789062 C 41.835938 59.347656 41.410156 59.863281 40.933594 60.335938 Z M 47.96875 67.371094 C 47.5 67.839844 47.011719 68.285156 46.503906 68.707031 C 45.992188 69.125 45.464844 69.519531 44.914062 69.886719 C 44.363281 70.257812 43.800781 70.597656 43.214844 70.910156 C 42.632812 71.222656 42.035156 71.503906 41.425781 71.757812 C 40.816406 72.007812 40.195312 72.230469 39.5625 72.421875 C 38.929688 72.613281 38.289062 72.773438 37.640625 72.902344 C 36.992188 73.03125 36.335938 73.125 35.679688 73.1875 C 35.019531 73.253906 34.359375 73.285156 33.699219 73.28125 L 33.699219 74.273438 C 34.046875 74.273438 34.390625 74.265625 34.738281 74.25 C 35.085938 74.230469 35.429688 74.207031 35.773438 74.171875 C 36.121094 74.140625 36.464844 74.097656 36.804688 74.046875 C 37.148438 73.996094 37.492188 73.9375 37.828125 73.867188 C 38.171875 73.800781 38.507812 73.726562 38.84375 73.640625 C 39.179688 73.558594 39.515625 73.464844 39.847656 73.363281 C 40.175781 73.261719 40.507812 73.15625 40.832031 73.039062 C 41.160156 72.921875 41.480469 72.796875 41.800781 72.664062 C 42.121094 72.53125 42.4375 72.390625 42.753906 72.242188 C 43.066406 72.09375 43.375 71.9375 43.679688 71.773438 C 43.984375 71.613281 44.285156 71.441406 44.585938 71.261719 C 44.882812 71.085938 45.175781 70.898438 45.460938 70.707031 C 45.75 70.515625 46.035156 70.316406 46.3125 70.109375 C 46.589844 69.902344 46.863281 69.6875 47.132812 69.46875 C 47.398438 69.25 47.660156 69.023438 47.917969 68.789062 C 48.175781 68.558594 48.425781 68.320312 48.671875 68.074219 C 48.914062 67.828125 49.15625 67.578125 49.386719 67.320312 C 49.621094 67.066406 49.847656 66.804688 50.066406 66.535156 C 50.285156 66.265625 50.5 65.996094 50.707031 65.714844 C 50.914062 65.4375 51.109375 65.152344 51.304688 64.867188 C 51.496094 64.578125 51.679688 64.285156 51.859375 63.988281 C 52.039062 63.691406 52.207031 63.390625 52.371094 63.082031 C 52.535156 62.777344 52.691406 62.46875 52.839844 62.15625 C 52.988281 61.84375 53.128906 61.523438 53.261719 61.207031 C 53.394531 60.886719 53.519531 60.5625 53.632812 60.234375 C 53.75 59.910156 53.859375 59.582031 53.960938 59.25 C 54.0625 58.917969 54.152344 58.582031 54.238281 58.246094 C 54.320312 57.910156 54.398438 57.574219 54.464844 57.234375 C 54.53125 56.894531 54.589844 56.550781 54.644531 56.210938 C 54.691406 55.867188 54.734375 55.523438 54.769531 55.179688 C 54.804688 54.832031 54.828125 54.488281 54.847656 54.140625 C 54.863281 53.796875 54.871094 53.449219 54.871094 53.101562 L 54.871094 24.019531 L 53.878906 23.027344 L 53.878906 53.105469 C 53.878906 53.765625 53.847656 54.425781 53.785156 55.082031 C 53.722656 55.742188 53.625 56.394531 53.5 57.042969 C 53.371094 57.691406 53.210938 58.332031 53.019531 58.964844 C 52.828125 59.597656 52.605469 60.21875 52.351562 60.832031 C 52.097656 61.441406 51.816406 62.039062 51.503906 62.621094 C 51.191406 63.203125 50.851562 63.769531 50.484375 64.320312 C 50.117188 64.867188 49.722656 65.398438 49.300781 65.90625 C 48.882812 66.417969 48.4375 66.90625 47.96875 67.371094 Z M 46.207031 65.609375 C 45.796875 66.019531 45.371094 66.410156 44.921875 66.78125 C 44.476562 67.148438 44.011719 67.496094 43.53125 67.816406 C 43.050781 68.140625 42.554688 68.4375 42.042969 68.710938 C 41.53125 68.984375 41.007812 69.234375 40.472656 69.457031 C 39.9375 69.675781 39.394531 69.875 38.839844 70.042969 C 38.285156 70.210938 37.722656 70.351562 37.15625 70.460938 C 36.585938 70.574219 36.015625 70.660156 35.4375 70.714844 C 34.863281 70.769531 34.285156 70.800781 33.703125 70.796875 L 33.703125 71.792969 C 34.007812 71.792969 34.316406 71.785156 34.621094 71.769531 C 34.925781 71.753906 35.230469 71.730469 35.535156 71.703125 C 35.839844 71.671875 36.140625 71.632812 36.445312 71.589844 C 36.746094 71.542969 37.046875 71.492188 37.347656 71.433594 C 37.648438 71.371094 37.945312 71.304688 38.242188 71.230469 C 38.539062 71.15625 38.835938 71.078125 39.128906 70.988281 C 39.417969 70.898438 39.710938 70.800781 39.996094 70.699219 C 40.285156 70.597656 40.570312 70.488281 40.855469 70.371094 C 41.136719 70.253906 41.414062 70.128906 41.691406 69.996094 C 41.96875 69.867188 42.242188 69.730469 42.511719 69.585938 C 42.78125 69.441406 43.046875 69.289062 43.308594 69.132812 C 43.570312 68.976562 43.828125 68.8125 44.085938 68.644531 C 44.339844 68.472656 44.589844 68.296875 44.832031 68.117188 C 45.078125 67.933594 45.320312 67.746094 45.558594 67.550781 C 45.792969 67.355469 46.023438 67.15625 46.25 66.953125 C 46.476562 66.746094 46.699219 66.535156 46.914062 66.320312 C 47.132812 66.101562 47.34375 65.882812 47.546875 65.65625 C 47.753906 65.429688 47.953125 65.195312 48.148438 64.960938 C 48.339844 64.722656 48.527344 64.484375 48.710938 64.238281 C 48.894531 63.992188 49.070312 63.742188 49.238281 63.488281 C 49.410156 63.234375 49.574219 62.976562 49.730469 62.714844 C 49.886719 62.449219 50.039062 62.183594 50.183594 61.914062 C 50.324219 61.644531 50.464844 61.371094 50.59375 61.097656 C 50.726562 60.820312 50.847656 60.539062 50.964844 60.257812 C 51.082031 59.976562 51.191406 59.691406 51.296875 59.402344 C 51.398438 59.113281 51.496094 58.824219 51.582031 58.53125 C 51.671875 58.238281 51.753906 57.945312 51.828125 57.648438 C 51.902344 57.351562 51.96875 57.050781 52.03125 56.753906 C 52.089844 56.453125 52.140625 56.152344 52.1875 55.847656 C 52.230469 55.546875 52.269531 55.242188 52.296875 54.9375 C 52.328125 54.632812 52.351562 54.328125 52.367188 54.023438 C 52.378906 53.71875 52.386719 53.414062 52.386719 53.105469 L 52.386719 21.535156 L 51.390625 20.539062 L 51.394531 53.109375 C 51.394531 53.6875 51.367188 54.265625 51.3125 54.84375 C 51.257812 55.417969 51.171875 55.992188 51.058594 56.558594 C 50.949219 57.128906 50.808594 57.691406 50.640625 58.246094 C 50.472656 58.800781 50.277344 59.34375 50.054688 59.878906 C 49.832031 60.414062 49.585938 60.9375 49.308594 61.449219 C 49.035156 61.960938 48.738281 62.457031 48.414062 62.9375 C 48.09375 63.417969 47.746094 63.882812 47.378906 64.332031 C 47.007812 64.777344 46.621094 65.203125 46.207031 65.613281 Z M 44.445312 63.847656 C 43.738281 64.554688 42.972656 65.1875 42.140625 65.742188 C 41.3125 66.300781 40.433594 66.769531 39.511719 67.148438 C 38.589844 67.53125 37.636719 67.820312 36.65625 68.011719 C 35.675781 68.203125 34.6875 68.300781 33.6875 68.296875 L 33.699219 69.300781 C 33.964844 69.300781 34.230469 69.292969 34.492188 69.28125 C 34.757812 69.269531 35.023438 69.25 35.285156 69.222656 C 35.550781 69.195312 35.8125 69.164062 36.078125 69.125 C 36.339844 69.085938 36.601562 69.039062 36.859375 68.988281 C 37.121094 68.9375 37.378906 68.878906 37.636719 68.816406 C 37.894531 68.75 38.148438 68.679688 38.402344 68.601562 C 38.65625 68.527344 38.90625 68.441406 39.15625 68.355469 C 39.40625 68.265625 39.652344 68.167969 39.898438 68.066406 C 40.144531 67.964844 40.386719 67.859375 40.625 67.746094 C 40.863281 67.632812 41.101562 67.511719 41.335938 67.386719 C 41.570312 67.261719 41.800781 67.132812 42.027344 66.996094 C 42.253906 66.859375 42.476562 66.71875 42.699219 66.570312 C 42.917969 66.421875 43.136719 66.269531 43.347656 66.113281 C 43.5625 65.957031 43.769531 65.792969 43.976562 65.625 C 44.179688 65.457031 44.382812 65.28125 44.578125 65.105469 C 44.773438 64.925781 44.964844 64.746094 45.152344 64.558594 C 45.339844 64.367188 45.523438 64.175781 45.699219 63.980469 C 45.878906 63.785156 46.050781 63.582031 46.21875 63.378906 C 46.390625 63.171875 46.550781 62.964844 46.710938 62.75 C 46.867188 62.539062 47.019531 62.324219 47.167969 62.101562 C 47.3125 61.882812 47.457031 61.65625 47.59375 61.429688 C 47.726562 61.203125 47.859375 60.972656 47.984375 60.738281 C 48.109375 60.503906 48.226562 60.269531 48.339844 60.027344 C 48.457031 59.789062 48.5625 59.546875 48.664062 59.300781 C 48.765625 59.054688 48.859375 58.808594 48.949219 58.558594 C 49.039062 58.3125 49.121094 58.058594 49.199219 57.804688 C 49.277344 57.550781 49.347656 57.296875 49.410156 57.039062 C 49.476562 56.78125 49.535156 56.523438 49.585938 56.261719 C 49.636719 56.003906 49.683594 55.742188 49.722656 55.480469 C 49.761719 55.21875 49.792969 54.953125 49.820312 54.691406 C 49.84375 54.425781 49.863281 54.164062 49.878906 53.898438 C 49.890625 53.632812 49.898438 53.367188 49.898438 53.101562 L 49.898438 19.042969 L 48.902344 18.050781 L 48.902344 53.109375 C 48.90625 54.109375 48.808594 55.097656 48.617188 56.074219 C 48.421875 57.054688 48.132812 58.003906 47.753906 58.929688 C 47.371094 59.851562 46.902344 60.726562 46.34375 61.554688 C 45.789062 62.382812 45.15625 63.152344 44.449219 63.855469 Z M 33.699219 65.820312 L 33.699219 66.8125 C 34.148438 66.8125 34.597656 66.789062 35.042969 66.746094 C 35.488281 66.699219 35.933594 66.636719 36.375 66.546875 C 36.8125 66.457031 37.246094 66.347656 37.675781 66.21875 C 38.105469 66.089844 38.527344 65.9375 38.941406 65.765625 C 39.355469 65.59375 39.761719 65.402344 40.15625 65.191406 C 40.554688 64.976562 40.9375 64.746094 41.308594 64.496094 C 41.683594 64.246094 42.042969 63.980469 42.390625 63.695312 C 42.738281 63.410156 43.070312 63.109375 43.386719 62.792969 C 43.703125 62.476562 44.003906 62.144531 44.289062 61.796875 C 44.574219 61.449219 44.839844 61.089844 45.089844 60.71875 C 45.339844 60.34375 45.570312 59.960938 45.78125 59.566406 C 45.992188 59.167969 46.183594 58.765625 46.359375 58.351562 C 46.53125 57.933594 46.679688 57.511719 46.8125 57.085938 C 46.941406 56.65625 47.050781 56.21875 47.140625 55.78125 C 47.226562 55.339844 47.292969 54.898438 47.339844 54.449219 C 47.382812 54.003906 47.40625 53.558594 47.40625 53.109375 L 47.40625 16.566406 L 46.414062 15.570312 L 46.414062 53.105469 C 46.414062 53.519531 46.394531 53.9375 46.351562 54.351562 C 46.3125 54.765625 46.25 55.175781 46.167969 55.582031 C 46.089844 55.992188 45.988281 56.394531 45.867188 56.792969 C 45.746094 57.191406 45.605469 57.582031 45.445312 57.96875 C 45.285156 58.351562 45.109375 58.730469 44.910156 59.097656 C 44.714844 59.464844 44.5 59.820312 44.269531 60.167969 C 44.039062 60.511719 43.792969 60.847656 43.527344 61.167969 C 43.261719 61.488281 42.984375 61.796875 42.6875 62.09375 C 42.394531 62.386719 42.085938 62.667969 41.765625 62.929688 C 41.441406 63.195312 41.109375 63.441406 40.761719 63.675781 C 40.417969 63.90625 40.058594 64.121094 39.691406 64.316406 C 39.324219 64.511719 38.949219 64.691406 38.566406 64.847656 C 38.179688 65.007812 37.789062 65.148438 37.390625 65.269531 C 36.992188 65.390625 36.589844 65.492188 36.179688 65.574219 C 35.773438 65.65625 35.359375 65.714844 34.945312 65.757812 C 34.53125 65.796875 34.117188 65.820312 33.699219 65.820312 Z M 33.699219 65.820312 " clip-rule="nonzero"/></clipPath><clipPath id="e01a9dcb57"><path d="M 44.28125 84.867188 L 87.957031 41.1875 L 44.28125 -2.492188 L 0.601562 41.1875 Z M 44.28125 84.867188 " clip-rule="nonzero"/></clipPath><linearGradient x1="-50.471675" gradientTransform="matrix(-0.0927486, -0.0927486, 0.0927486, -0.0927486, 38.084683, 78.660262)" y1="-13.516604" x2="370.335478" gradientUnits="userSpaceOnUse" y2="498.604013" id="918271ac14"><stop stop-opacity="1" stop-color="rgb(0%, 18.798828%, 100%)" offset="0"/><stop stop-opacity="1" stop-color="rgb(0%, 18.798828%, 100%)" offset="0.25"/><stop stop-opacity="1" stop-color="rgb(0%, 18.798828%, 100%)" offset="0.3125"/><stop stop-opacity="1" stop-color="rgb(0%, 18.814087%, 100%)" offset="0.320312"/><stop stop-opacity="1" stop-color="rgb(0%, 19.221497%, 100%)" offset="0.324219"/><stop stop-opacity="1" stop-color="rgb(0%, 19.612122%, 100%)" offset="0.328125"/><stop stop-opacity="1" stop-color="rgb(0%, 20.002747%, 100%)" offset="0.332031"/><stop stop-opacity="1" stop-color="rgb(0%, 20.393372%, 100%)" offset="0.335938"/><stop stop-opacity="1" stop-color="rgb(0%, 20.983887%, 100%)" offset="0.339844"/><stop stop-opacity="1" stop-color="rgb(0%, 21.574402%, 100%)" offset="0.34375"/><stop stop-opacity="1" stop-color="rgb(0%, 22.120667%, 100%)" offset="0.347656"/><stop stop-opacity="1" stop-color="rgb(0%, 22.666931%, 100%)" offset="0.351562"/><stop stop-opacity="1" stop-color="rgb(0%, 23.301697%, 100%)" offset="0.355469"/><stop stop-opacity="1" stop-color="rgb(0%, 23.936462%, 100%)" offset="0.359375"/><stop stop-opacity="1" stop-color="rgb(0%, 24.526978%, 100%)" offset="0.363281"/><stop stop-opacity="1" stop-color="rgb(0%, 25.117493%, 100%)" offset="0.367187"/><stop stop-opacity="1" stop-color="rgb(0%, 25.508118%, 100%)" offset="0.371094"/><stop stop-opacity="1" stop-color="rgb(0%, 25.900269%, 100%)" offset="0.375"/><stop stop-opacity="1" stop-color="rgb(0%, 26.490784%, 100%)" offset="0.378906"/><stop stop-opacity="1" stop-color="rgb(0%, 27.081299%, 100%)" offset="0.382812"/><stop stop-opacity="1" stop-color="rgb(0%, 27.62146%, 100%)" offset="0.386719"/><stop stop-opacity="1" stop-color="rgb(0%, 28.161621%, 100%)" offset="0.390625"/><stop stop-opacity="1" stop-color="rgb(0%, 28.80249%, 100%)" offset="0.394531"/><stop stop-opacity="1" stop-color="rgb(0%, 29.443359%, 100%)" offset="0.398437"/><stop stop-opacity="1" stop-color="rgb(0%, 30.033875%, 100%)" offset="0.402344"/><stop stop-opacity="1" stop-color="rgb(0%, 30.62439%, 100%)" offset="0.40625"/><stop stop-opacity="1" stop-color="rgb(0%, 31.018066%, 100%)" offset="0.410156"/><stop stop-opacity="1" stop-color="rgb(0%, 31.411743%, 100%)" offset="0.414062"/><stop stop-opacity="1" stop-color="rgb(0%, 31.950378%, 100%)" offset="0.417969"/><stop stop-opacity="1" stop-color="rgb(0%, 32.49054%, 100%)" offset="0.421875"/><stop stop-opacity="1" stop-color="rgb(0%, 33.079529%, 100%)" offset="0.425781"/><stop stop-opacity="1" stop-color="rgb(0%, 33.668518%, 100%)" offset="0.429688"/><stop stop-opacity="1" stop-color="rgb(0%, 34.259033%, 100%)" offset="0.433594"/><stop stop-opacity="1" stop-color="rgb(0%, 34.849548%, 100%)" offset="0.4375"/><stop stop-opacity="1" stop-color="rgb(0%, 35.490417%, 100%)" offset="0.441406"/><stop stop-opacity="1" stop-color="rgb(0%, 36.131287%, 100%)" offset="0.445312"/><stop stop-opacity="1" stop-color="rgb(0%, 36.720276%, 100%)" offset="0.449219"/><stop stop-opacity="1" stop-color="rgb(0%, 37.309265%, 100%)" offset="0.453125"/><stop stop-opacity="1" stop-color="rgb(0%, 37.651062%, 100%)" offset="0.457031"/><stop stop-opacity="1" stop-color="rgb(0%, 37.992859%, 100%)" offset="0.460937"/><stop stop-opacity="1" stop-color="rgb(0%, 38.583374%, 100%)" offset="0.464844"/><stop stop-opacity="1" stop-color="rgb(0%, 39.173889%, 100%)" offset="0.46875"/><stop stop-opacity="1" stop-color="rgb(0%, 39.764404%, 100%)" offset="0.472656"/><stop stop-opacity="1" stop-color="rgb(0%, 40.356445%, 100%)" offset="0.476562"/><stop stop-opacity="1" stop-color="rgb(0%, 40.995789%, 100%)" offset="0.480469"/><stop stop-opacity="1" stop-color="rgb(0%, 41.636658%, 100%)" offset="0.484375"/><stop stop-opacity="1" stop-color="rgb(0%, 42.176819%, 100%)" offset="0.488281"/><stop stop-opacity="1" stop-color="rgb(0%, 42.718506%, 100%)" offset="0.492187"/><stop stop-opacity="1" stop-color="rgb(0%, 43.109131%, 100%)" offset="0.496094"/><stop stop-opacity="1" stop-color="rgb(0%, 43.499756%, 100%)" offset="0.5"/><stop stop-opacity="1" stop-color="rgb(0%, 44.090271%, 100%)" offset="0.503906"/><stop stop-opacity="1" stop-color="rgb(0%, 44.680786%, 100%)" offset="0.507812"/><stop stop-opacity="1" stop-color="rgb(0%, 45.271301%, 100%)" offset="0.511719"/><stop stop-opacity="1" stop-color="rgb(0%, 45.861816%, 100%)" offset="0.515625"/><stop stop-opacity="1" stop-color="rgb(0%, 46.502686%, 100%)" offset="0.519531"/><stop stop-opacity="1" stop-color="rgb(0%, 47.143555%, 100%)" offset="0.523437"/><stop stop-opacity="1" stop-color="rgb(0%, 47.683716%, 100%)" offset="0.527344"/><stop stop-opacity="1" stop-color="rgb(0%, 48.223877%, 100%)" offset="0.53125"/><stop stop-opacity="1" stop-color="rgb(0%, 48.617554%, 100%)" offset="0.535156"/><stop stop-opacity="1" stop-color="rgb(0%, 49.012756%, 100%)" offset="0.539062"/><stop stop-opacity="1" stop-color="rgb(0%, 49.60022%, 100%)" offset="0.542969"/><stop stop-opacity="1" stop-color="rgb(0%, 50.187683%, 100%)" offset="0.546875"/><stop stop-opacity="1" stop-color="rgb(0%, 50.778198%, 100%)" offset="0.550781"/><stop stop-opacity="1" stop-color="rgb(0%, 51.368713%, 100%)" offset="0.554687"/><stop stop-opacity="1" stop-color="rgb(0%, 51.890564%, 100%)" offset="0.558594"/><stop stop-opacity="1" stop-color="rgb(0%, 52.412415%, 100%)" offset="0.5625"/><stop stop-opacity="1" stop-color="rgb(0%, 53.071594%, 100%)" offset="0.566406"/><stop stop-opacity="1" stop-color="rgb(0%, 53.730774%, 100%)" offset="0.570312"/><stop stop-opacity="1" stop-color="rgb(0%, 54.321289%, 100%)" offset="0.574219"/><stop stop-opacity="1" stop-color="rgb(0%, 54.911804%, 100%)" offset="0.578125"/><stop stop-opacity="1" stop-color="rgb(0%, 55.302429%, 100%)" offset="0.582031"/><stop stop-opacity="1" stop-color="rgb(0%, 55.693054%, 100%)" offset="0.585937"/><stop stop-opacity="1" stop-color="rgb(0%, 56.283569%, 100%)" offset="0.589844"/><stop stop-opacity="1" stop-color="rgb(0%, 56.874084%, 100%)" offset="0.59375"/><stop stop-opacity="1" stop-color="rgb(0%, 57.414246%, 100%)" offset="0.597656"/><stop stop-opacity="1" stop-color="rgb(0%, 57.955933%, 100%)" offset="0.601562"/><stop stop-opacity="1" stop-color="rgb(0%, 58.596802%, 100%)" offset="0.605469"/><stop stop-opacity="1" stop-color="rgb(0%, 59.237671%, 100%)" offset="0.609375"/><stop stop-opacity="1" stop-color="rgb(0%, 59.828186%, 100%)" offset="0.613281"/><stop stop-opacity="1" stop-color="rgb(0%, 60.418701%, 100%)" offset="0.617187"/><stop stop-opacity="1" stop-color="rgb(0%, 60.809326%, 100%)" offset="0.621094"/><stop stop-opacity="1" stop-color="rgb(0%, 61.199951%, 100%)" offset="0.625"/><stop stop-opacity="1" stop-color="rgb(0%, 61.790466%, 100%)" offset="0.628906"/><stop stop-opacity="1" stop-color="rgb(0%, 62.380981%, 100%)" offset="0.632812"/><stop stop-opacity="1" stop-color="rgb(0%, 62.921143%, 100%)" offset="0.636719"/><stop stop-opacity="1" stop-color="rgb(0%, 63.46283%, 100%)" offset="0.640625"/><stop stop-opacity="1" stop-color="rgb(0%, 64.102173%, 100%)" offset="0.644531"/><stop stop-opacity="1" stop-color="rgb(0%, 64.743042%, 100%)" offset="0.648437"/><stop stop-opacity="1" stop-color="rgb(0%, 65.333557%, 100%)" offset="0.652344"/><stop stop-opacity="1" stop-color="rgb(0%, 65.924072%, 100%)" offset="0.65625"/><stop stop-opacity="1" stop-color="rgb(0%, 66.317749%, 100%)" offset="0.660156"/><stop stop-opacity="1" stop-color="rgb(0%, 66.712952%, 100%)" offset="0.664062"/><stop stop-opacity="1" stop-color="rgb(0%, 67.251587%, 100%)" offset="0.667969"/><stop stop-opacity="1" stop-color="rgb(0%, 67.790222%, 100%)" offset="0.671875"/><stop stop-opacity="1" stop-color="rgb(0%, 68.379211%, 100%)" offset="0.675781"/><stop stop-opacity="1" stop-color="rgb(0%, 68.968201%, 100%)" offset="0.679687"/><stop stop-opacity="1" stop-color="rgb(0%, 69.534302%, 100%)" offset="0.683594"/><stop stop-opacity="1" stop-color="rgb(0%, 70.100403%, 100%)" offset="0.6875"/><stop stop-opacity="1" stop-color="rgb(0%, 70.765686%, 100%)" offset="0.691406"/><stop stop-opacity="1" stop-color="rgb(0%, 71.430969%, 100%)" offset="0.695312"/><stop stop-opacity="1" stop-color="rgb(0%, 71.97113%, 100%)" offset="0.699219"/><stop stop-opacity="1" stop-color="rgb(0%, 72.512817%, 100%)" offset="0.703125"/><stop stop-opacity="1" stop-color="rgb(0%, 72.903442%, 100%)" offset="0.707031"/><stop stop-opacity="1" stop-color="rgb(0%, 73.294067%, 100%)" offset="0.710937"/><stop stop-opacity="1" stop-color="rgb(0%, 73.884583%, 100%)" offset="0.714844"/><stop stop-opacity="1" stop-color="rgb(0%, 74.475098%, 100%)" offset="0.71875"/><stop stop-opacity="1" stop-color="rgb(0%, 75.065613%, 100%)" offset="0.722656"/><stop stop-opacity="1" stop-color="rgb(0%, 75.656128%, 100%)" offset="0.726562"/><stop stop-opacity="1" stop-color="rgb(0%, 75.87738%, 100%)" offset="0.730469"/><stop stop-opacity="1" stop-color="rgb(0%, 76.098633%, 100%)" offset="0.734375"/><stop stop-opacity="1" stop-color="rgb(0%, 76.098633%, 100%)" offset="0.75"/><stop stop-opacity="1" stop-color="rgb(0%, 76.098633%, 100%)" offset="1"/></linearGradient></defs><g clip-path="url(#3882809b98)"><g clip-path="url(#b9a1716bbb)"><g clip-path="url(#7d6959a580)"><g clip-path="url(#e53f0a35ab)"><path fill="url(#7d29316169)" d="M 12.613281 31.863281 L 12.613281 74.273438 L 39.449219 74.273438 L 39.449219 31.863281 Z M 12.613281 31.863281 " fill-rule="nonzero"/></g></g></g></g><g clip-path="url(#cbfeb53f63)"><g clip-path="url(#f2d2f6796e)"><g clip-path="url(#7f0292c51a)"><g clip-path="url(#5c944c17c8)"><path fill="url(#5d36d8db8d)" d="M 53.796875 31.820312 L 53.796875 47.8125 L 76.34375 47.8125 L 76.34375 31.820312 Z M 53.796875 31.820312 " fill-rule="nonzero"/></g></g></g></g><g clip-path="url(#af0ec2f491)"><g clip-path="url(#941f400d65)"><g clip-path="url(#eab4c24fc5)"><g clip-path="url(#8cb47fe85b)"><g clip-path="url(#e01a9dcb57)"><path fill="url(#918271ac14)" d="M 44.28125 84.867188 L 87.957031 41.1875 L 44.28125 -2.492188 L 0.601562 41.1875 Z M 44.28125 84.867188 " fill-rule="nonzero"/></g></g></g></g></g></svg>